<svg width="26" height="25" viewBox="0 0 26 25" fill="none" xmlns="http://www.w3.org/2000/svg">
<path d="M12.5495 24.9965C10.8791 25.0203 9.22334 24.6826 7.69569 24.0066C4.22992 22.4705 1.86242 19.9059 0.621242 16.3174C0.320388 15.4245 0.128235 14.4986 0.0489423 13.5597C0.0443744 13.5134 0.0548154 13.4599 0 13.4292V11.4793C0.106368 11.1472 0.098548 10.7974 0.157931 10.4581C0.683898 7.4802 2.09213 5.00524 4.38263 3.03319C6.16921 1.48783 8.35973 0.484477 10.6968 0.141024C10.9722 0.0986077 11.26 0.120143 11.523 0.00463867H12.5488V2.92878C12.2878 2.9464 12.0313 2.95553 11.7729 2.97315C11.0378 3.02516 10.3122 3.1692 9.61293 3.40189C7.9183 3.94397 6.40757 4.94615 5.24924 6.29666C4.46172 7.19639 3.85507 8.23952 3.46251 9.36893C3.02342 10.6092 2.85497 11.9291 2.96851 13.2399C3.03072 14.0067 3.18722 14.7628 3.43445 15.4913C3.84388 16.6841 4.48253 17.7854 5.31449 18.7332C6.1058 19.6392 7.05528 20.3936 8.1166 20.9598C9.50265 21.6985 10.9833 22.0554 12.5488 22.0809L12.5495 24.9965Z" fill="#FDDB44"/>
<path d="M12.5498 24.9965V22.0697C13.2063 22.0883 13.8625 22.0225 14.5023 21.8739C16.1229 21.5296 17.6231 20.7612 18.8497 19.6474C19.882 18.7223 20.7051 17.5877 21.2641 16.3193C21.7334 15.2665 22.0055 14.1364 22.0668 12.9854C22.1295 11.9478 22.016 10.907 21.7314 9.90723C21.3206 8.43023 20.5574 7.07501 19.5074 5.95791C18.8478 5.25022 18.0843 4.64708 17.243 4.16923C15.7852 3.347 14.2282 2.91631 12.5511 2.93654V0H13.5763C13.8575 0.106368 14.1584 0.0933171 14.4488 0.137039C16.1075 0.379531 17.6964 0.968999 19.112 1.86699C22.0785 3.7542 24.0003 6.41144 24.728 9.85372C25.4791 13.4076 24.7893 16.7167 22.6972 19.6918C20.8896 22.2629 18.4359 23.9334 15.3728 24.6774C14.4511 24.914 13.501 25.0214 12.5498 24.9965Z" fill="#FFCD35"/>
<path d="M12.5489 22.0808C10.9828 22.0554 9.50275 21.6984 8.11671 20.9597C7.05539 20.3936 6.1059 19.6391 5.3146 18.7332C4.48171 17.7856 3.84215 16.6843 3.43195 15.4912C3.18471 14.7628 3.02823 14.0066 2.96602 13.2399C2.85248 11.9291 3.02091 10.6091 3.46 9.36887C3.85256 8.23945 4.45922 7.19632 5.24673 6.2966C6.40507 4.94609 7.9158 3.9439 9.61043 3.40182C10.3097 3.16913 11.0353 3.02509 11.7704 2.97308C12.0314 2.95547 12.2879 2.94633 12.5463 2.92871V6.6914C12.5453 6.70661 12.5453 6.72187 12.5463 6.73708C11.5459 6.84018 10.7067 7.29763 9.96411 7.94171C9.30974 8.50899 8.80901 9.23214 8.50824 10.0443C8.44299 10.2185 8.35032 10.274 8.16825 10.2629C7.88439 10.2459 7.59857 10.2544 7.31405 10.2596C7.21824 10.2588 7.12324 10.2772 7.03465 10.3137C6.94606 10.3502 6.86567 10.4041 6.79822 10.4721C6.73077 10.5402 6.67764 10.621 6.64194 10.71C6.60624 10.7989 6.5887 10.894 6.59036 10.9898C6.58836 11.0854 6.60545 11.1803 6.64063 11.2691C6.67581 11.358 6.72836 11.4389 6.79522 11.5071C6.86207 11.5754 6.94189 11.6296 7.02997 11.6666C7.11805 11.7036 7.21264 11.7227 7.30818 11.7227C7.50395 11.7272 7.69972 11.7318 7.89549 11.7227C8.05341 11.7142 8.12911 11.767 8.10105 11.9289C8.03679 12.3134 8.03679 12.7059 8.10105 13.0904C8.12454 13.234 8.06777 13.2986 7.91376 13.2901C7.71081 13.2797 7.50655 13.2836 7.30295 13.2901C7.20712 13.2909 7.1124 13.3108 7.02438 13.3487C6.93636 13.3866 6.85683 13.4418 6.79048 13.5109C6.72412 13.5801 6.67228 13.6618 6.63803 13.7513C6.60377 13.8408 6.58779 13.9363 6.59101 14.0321C6.58971 14.1259 6.60709 14.2191 6.64213 14.3062C6.67717 14.3933 6.72918 14.4725 6.79512 14.5393C6.86107 14.6061 6.93964 14.6591 7.02626 14.6953C7.11288 14.7314 7.20583 14.75 7.2997 14.7499C7.5927 14.7564 7.887 14.7649 8.17804 14.7466C8.36729 14.7342 8.44625 14.8119 8.5115 14.9764C8.90304 15.9656 9.50536 16.7977 10.3681 17.4254C11.0206 17.8985 11.7234 18.2542 12.5437 18.324C12.5437 18.3392 12.5437 18.3542 12.5437 18.369V22.0815L12.5489 22.0808Z" fill="#FAA734"/>
<path d="M12.5482 6.69148V2.93989C14.2253 2.91966 15.7823 3.35035 17.2401 4.17258C18.0813 4.65043 18.8449 5.25357 19.5045 5.96126C20.5545 7.07836 21.3176 8.43358 21.7285 9.91058C22.0131 10.9104 22.1265 11.9511 22.0639 12.9887C22.0026 14.1398 21.7305 15.2698 21.2612 16.3227C20.7022 17.5911 19.879 18.7257 18.8467 19.6508C17.6202 20.7646 16.12 21.5329 14.4993 21.8773C13.8596 22.0259 13.2034 22.0917 12.5469 22.0731V18.3685C12.667 18.3828 12.7864 18.4044 12.9071 18.4115C13.8357 18.4657 14.7127 18.2888 15.5271 17.8242C16.0981 17.4979 16.6058 17.0979 17.0013 16.5733C17.2493 16.247 17.1644 15.8613 16.8264 15.5859C16.6893 15.4753 16.5159 15.4198 16.34 15.4303C16.1642 15.4408 15.9986 15.5165 15.8756 15.6427C15.7823 15.7334 15.6935 15.8287 15.5996 15.9187C14.7356 16.7455 13.7248 17.0659 12.5449 16.8023V16.7964C12.5449 16.1147 12.5449 15.4326 12.5449 14.75V14.7448C12.8059 14.7448 13.067 14.75 13.328 14.7448C13.7195 14.7402 14.0138 14.4257 14.0138 14.0133C14.0138 13.6008 13.7215 13.2863 13.328 13.2817C13.067 13.2785 12.8059 13.2817 12.5449 13.2817V13.2759V11.726V11.7208C12.8059 11.7208 13.067 11.726 13.328 11.7208C13.7195 11.7162 14.0138 11.4017 14.0138 10.9893C14.0138 10.5768 13.7215 10.2623 13.328 10.2577C13.067 10.2545 12.8059 10.2577 12.5449 10.2577V10.2519C12.5449 9.57016 12.5449 8.88801 12.5449 8.20543V8.20021C13.0178 8.08356 13.5113 8.07864 13.9864 8.18585C14.7369 8.35617 15.3275 8.77316 15.8436 9.32327C16.1438 9.64368 16.5615 9.65673 16.8623 9.382C17.1951 9.07791 17.244 8.67854 16.9504 8.34442C16.0218 7.28923 14.8557 6.70845 13.4435 6.64189C13.1442 6.63238 12.8446 6.64898 12.5482 6.69148Z" fill="#F89929"/>
<path d="M12.5463 18.3233C11.726 18.2534 11.0206 17.8978 10.3706 17.4247C9.50794 16.7969 8.90301 15.9649 8.51408 14.9756C8.44883 14.8105 8.36987 14.7335 8.18062 14.7459C7.88893 14.7642 7.59332 14.7557 7.30228 14.7492C7.20841 14.7493 7.11546 14.7307 7.02884 14.6945C6.94222 14.6584 6.86365 14.6054 6.7977 14.5386C6.73176 14.4718 6.67975 14.3925 6.64471 14.3055C6.60967 14.2184 6.59229 14.1252 6.59358 14.0313C6.59036 13.9356 6.60635 13.8401 6.64061 13.7506C6.67486 13.6611 6.7267 13.5793 6.79306 13.5102C6.85941 13.441 6.93894 13.3859 7.02696 13.3479C7.11498 13.31 7.2097 13.2901 7.30553 13.2894C7.50913 13.2842 7.71338 13.2802 7.91633 13.2894C8.07034 13.2979 8.12711 13.2333 8.10362 13.0897C8.03936 12.7052 8.03936 12.3127 8.10362 11.9281C8.13168 11.7663 8.05598 11.7134 7.89806 11.7219C7.70229 11.733 7.50652 11.7284 7.31075 11.7219C7.21521 11.7219 7.12063 11.7029 7.03254 11.6659C6.94446 11.6289 6.86465 11.5746 6.7978 11.5064C6.73094 11.4381 6.67838 11.3572 6.6432 11.2684C6.60802 11.1796 6.59093 11.0846 6.59293 10.9891C6.59127 10.8933 6.60881 10.7981 6.64451 10.7092C6.68021 10.6203 6.73335 10.5394 6.8008 10.4714C6.86825 10.4033 6.94864 10.3495 7.03723 10.313C7.12582 10.2765 7.22082 10.2581 7.31663 10.2589C7.60115 10.2536 7.88697 10.2452 8.17083 10.2621C8.3529 10.2732 8.44491 10.2178 8.51082 10.0435C8.81158 9.23139 9.31232 8.50824 9.96669 7.94096C10.7093 7.29688 11.5485 6.83943 12.5489 6.73633C12.5489 7.22532 12.5489 7.7143 12.5489 8.20329V8.20851C11.4343 8.44866 10.6617 9.13124 10.1129 10.1009C10.0098 10.2837 10.1527 10.2589 10.2551 10.2589C11.0199 10.2589 11.7847 10.2589 12.5495 10.2589V10.2647V11.7239V11.7291C11.6301 11.7291 10.7106 11.7291 9.7918 11.7232C9.62605 11.7232 9.58037 11.7696 9.56015 11.9386C9.51381 12.3165 9.51381 12.6987 9.56015 13.0766C9.58103 13.2457 9.6254 13.2939 9.7918 13.2926C10.7106 13.2848 11.6301 13.2874 12.5495 13.2861V13.292V14.7511V14.7563H10.2825C10.0411 14.7563 10.03 14.7779 10.1566 14.9978C10.4044 15.4282 10.7304 15.8087 11.1178 16.1195C11.5361 16.4569 12.004 16.7179 12.5489 16.8047V16.8106L12.5463 18.3233Z" fill="#FDDA44"/>
<path d="M12.5459 18.3232V16.8054C13.7257 17.0664 14.7366 16.7486 15.6005 15.9218C15.6945 15.8318 15.7833 15.7365 15.8766 15.6458C15.9995 15.5196 16.1651 15.4439 16.341 15.4334C16.5168 15.4229 16.6903 15.4784 16.8274 15.589C17.1654 15.8644 17.2502 16.2474 17.0023 16.5763C16.6068 17.0984 16.0991 17.5036 15.5281 17.8273C14.7137 18.2887 13.8367 18.4655 12.9081 18.4146C12.7873 18.4074 12.6679 18.3859 12.5479 18.3715C12.5465 18.3546 12.5459 18.3385 12.5459 18.3232Z" fill="#FFCD34"/>
<path d="M12.5466 8.20405C12.5466 7.71506 12.5466 7.22608 12.5466 6.73709C12.5457 6.72188 12.5457 6.70662 12.5466 6.69141C12.8436 6.65014 13.1436 6.63485 13.4433 6.64573C14.8554 6.71098 16.0215 7.29307 16.9501 8.34827C17.2438 8.68238 17.1948 9.08175 16.862 9.38584C16.5619 9.66057 16.1442 9.64687 15.8434 9.32711C15.3272 8.77505 14.734 8.36001 13.9862 8.18969C13.5117 8.08279 13.0189 8.08771 12.5466 8.20405Z" fill="#FFCD34"/>
<path d="M12.5505 13.2829C11.631 13.2829 10.7116 13.2829 9.79277 13.2894C9.62702 13.2894 9.582 13.2424 9.56112 13.0734C9.51478 12.6955 9.51478 12.3133 9.56112 11.9353C9.58135 11.7663 9.62637 11.7187 9.79277 11.72C10.7116 11.7278 11.631 11.7252 12.5505 11.7259V13.2829Z" fill="#FAA734"/>
<path d="M12.5505 10.2557C11.7857 10.2557 11.0209 10.2557 10.2561 10.2557C10.1536 10.2557 10.0107 10.2805 10.1138 10.0978C10.6626 9.12935 11.4353 8.44677 12.5498 8.20532C12.5498 8.89051 12.5501 9.57397 12.5505 10.2557Z" fill="#FAA834"/>
<path d="M12.5494 16.7997C12.0045 16.7129 11.5366 16.4519 11.1183 16.1145C10.7311 15.8044 10.4052 15.4249 10.1571 14.9954C10.0305 14.7754 10.0415 14.7539 10.283 14.7539H12.55C12.55 15.4369 12.5498 16.1189 12.5494 16.7997Z" fill="#FAA734"/>
<path d="M12.5469 11.7207V10.2616C12.8079 10.2616 13.0689 10.2564 13.33 10.2616C13.7215 10.2662 14.0158 10.5801 14.0158 10.9931C14.0158 11.4062 13.7234 11.7201 13.33 11.7246C13.067 11.726 12.8072 11.7214 12.5469 11.7207Z" fill="#FFCD34"/>
<path d="M12.5469 14.7478V13.2887C12.8079 13.2887 13.0689 13.2835 13.33 13.2887C13.7215 13.2933 14.0158 13.6078 14.0158 14.0202C14.0158 14.4326 13.7234 14.7472 13.33 14.7517C13.067 14.7531 12.8072 14.7485 12.5469 14.7478Z" fill="#FFCD34"/>
</svg>
