<svg width="25" height="26" viewBox="0 0 25 26" fill="none" xmlns="http://www.w3.org/2000/svg">
<path d="M6.39784 1.61853C7.21609 1.09973 8.11443 0.766855 9.03574 0.49248C10.409 0.0850193 11.8444 -0.0716137 13.2732 0.0300843C16.0532 0.218804 18.5212 1.21394 20.6382 3.03289C22.7343 4.83791 24.0825 7.09907 24.7002 9.79407C24.9811 11.0379 25.0657 12.318 24.9509 13.588C24.7315 16.1646 23.79 18.4508 22.1653 20.455C21.547 21.221 20.8575 21.9139 20.0442 22.4745C20.0017 22.4174 19.9571 22.4453 19.9049 22.4669C19.6911 22.5581 19.4766 22.6486 19.2607 22.7364C17.9887 23.245 16.6533 23.5779 15.2914 23.7259C15.361 23.6486 15.4571 23.641 15.542 23.6041C15.737 23.5191 15.9599 23.5045 16.1333 23.3631C16.1772 23.3631 16.2182 23.3547 16.2398 23.3095H16.3422C16.8631 23.1138 17.3457 22.8373 17.838 22.5846C18.7153 22.1316 19.5258 21.5598 20.2468 20.8854C21.0766 20.1108 21.7866 19.2171 22.3534 18.2335C23.2942 16.6165 23.7824 14.87 23.8966 13.0107C23.9376 12.1894 23.8815 11.3661 23.7294 10.558C23.4663 9.04502 22.8961 7.60195 22.0539 6.31773C21.3884 5.2934 20.5637 4.38176 19.611 3.61715C18.5551 2.76763 17.3536 2.11709 16.065 1.69723C14.6932 1.25224 13.2851 1.04123 11.8317 1.15474C11.1866 1.19784 10.5455 1.28886 9.91388 1.42703C8.60468 1.72717 7.39158 2.26269 6.2328 2.93331L6.17988 2.98762L6.12556 3.04125C6.08397 3.03388 6.04111 3.04022 6.00343 3.05931C5.96576 3.0784 5.9353 3.1092 5.91664 3.14709C5.88289 3.14685 5.84985 3.15674 5.82179 3.17549C5.79373 3.19424 5.77195 3.22098 5.75926 3.25225C5.59352 3.28985 5.47583 3.41102 5.34143 3.49946C4.72652 3.90267 4.20841 4.42078 3.67498 4.92078C3.57679 4.82956 3.68961 4.78151 3.72443 4.72928C4.43195 3.68052 5.23697 2.71534 6.20494 1.8936C6.29547 1.817 6.39506 1.74876 6.39784 1.61853Z" fill="#FFD54B"/>
<path d="M6.39732 1.61865C6.39732 1.74888 6.29495 1.81712 6.21138 1.88815C5.24341 2.70988 4.43839 3.67507 3.73086 4.72382C3.69604 4.77536 3.58323 4.8241 3.68142 4.91533C3.43769 5.19388 3.1828 5.46756 2.9523 5.75865C2.32295 6.55473 1.80367 7.43193 1.40842 8.3666C0.885051 9.59358 0.581223 10.9029 0.510785 12.235C0.45222 13.456 0.589518 14.6786 0.917471 15.8562C1.2539 17.0874 1.7974 18.2524 2.52472 19.3012C3.13676 20.1943 3.87735 20.9922 4.72251 21.6689C5.43084 22.2394 6.20436 22.7237 7.02684 23.1118C8.23921 23.6901 9.5463 24.044 10.8848 24.1564C11.935 24.2407 12.974 24.2163 14.0081 24.0116C14.4391 23.9266 14.8674 23.8235 15.2964 23.7288C16.6583 23.5808 17.9937 23.2479 19.2658 22.7393C19.4817 22.6515 19.6961 22.561 19.9099 22.4698C19.9587 22.4482 20.0033 22.4203 20.0492 22.4774C18.6975 23.5359 17.185 24.2838 15.5165 24.6571C10.8005 25.7128 6.71626 24.5136 3.35551 21.0429C1.48502 19.1104 0.397276 16.7545 0.0943491 14.0756C-0.378495 9.90353 0.930005 6.34988 3.92863 3.42089C4.65789 2.70139 5.48984 2.09404 6.39732 1.61865Z" fill="#FBC636"/>
<path d="M6.23545 2.93311C7.39423 2.26319 8.60733 1.72698 9.91653 1.42684C10.5482 1.28867 11.1892 1.19765 11.8344 1.15455C13.2877 1.04104 14.6958 1.25204 16.0677 1.69703C17.3548 2.11735 18.5548 2.76788 19.6095 3.61696C20.5627 4.38146 21.3878 5.29311 22.0538 6.31754C22.897 7.60242 23.468 9.04648 23.7314 10.5606C23.8834 11.3687 23.9395 12.192 23.8985 13.0133C23.7843 14.8698 23.2961 16.6164 22.3553 18.2361C21.7886 19.2197 21.0786 20.1134 20.2488 20.888C19.5278 21.5624 18.7172 22.1342 17.84 22.5871C17.3476 22.8399 16.865 23.1164 16.3441 23.3121C16.3086 23.2557 16.2745 23.2626 16.2418 23.3121C16.2207 23.3091 16.1991 23.3126 16.1801 23.3222C16.1611 23.3318 16.1454 23.347 16.1352 23.3657C16.0664 23.3681 15.9979 23.3762 15.9305 23.3901C14.6638 23.7633 13.3796 23.9625 12.0516 23.8963C11.2929 23.867 10.5388 23.7634 9.80024 23.5871C7.21108 22.9416 5.0899 21.5614 3.45897 19.4562C2.10783 17.7237 1.30104 15.6293 1.1407 13.4381C1.03657 12.2366 1.13068 11.0261 1.41926 9.85516C1.79352 8.34607 2.46285 6.92601 3.38863 5.67686C3.91388 4.97812 4.51896 4.34312 5.19157 3.78479C5.39004 3.61766 5.65257 3.51111 5.76539 3.24997C5.84338 3.24997 5.91999 3.25415 5.92277 3.14481C6.01469 3.15247 6.09408 3.13576 6.13169 3.03896L6.18601 2.98534C6.2062 2.97559 6.2821 3.01459 6.23545 2.93311ZM17.7522 21.5899C17.7732 21.5928 17.7945 21.5893 17.8134 21.5799C17.8323 21.5704 17.8479 21.5555 17.8581 21.537C17.8924 21.5395 17.9265 21.5306 17.9552 21.5115C17.9838 21.4925 18.0053 21.4645 18.0162 21.4318C18.6575 21.1136 19.2 20.654 19.7133 20.1707C20.7356 19.207 21.555 18.0488 22.1234 16.764C22.6422 15.6015 22.9425 14.3534 23.0092 13.0822C23.0895 11.636 22.866 10.1889 22.3532 8.83427C21.8995 7.60541 21.2147 6.47479 20.3358 5.50346C19.324 4.36792 18.0756 3.46797 16.6784 2.86696C15.5175 2.36867 14.2782 2.07759 13.0168 2.00692C11.9881 1.9458 10.9563 2.05092 9.9611 2.31821C9.45483 2.45748 8.93533 2.55915 8.47641 2.83562C8.45496 2.83254 8.43307 2.83626 8.41384 2.84625C8.3946 2.85624 8.37898 2.87201 8.36917 2.89133C8.33741 2.91917 8.30204 2.94259 8.26401 2.96097C7.43462 3.2437 6.71038 3.7061 6.02096 4.23744C5.23919 4.84077 4.5503 5.5557 3.97638 6.35932C3.25072 7.36571 2.70849 8.49235 2.3747 9.68734C1.98633 11.0793 1.8861 12.5359 2.08013 13.968C2.18967 14.7647 2.39375 15.5455 2.68807 16.2939C3.12004 17.4384 3.75538 18.4953 4.56343 19.4137C5.59199 20.5697 6.79882 21.4966 8.23059 22.1261C9.54113 22.6944 10.9483 23.0066 12.3762 23.0461C12.8588 23.0635 13.3413 23.0015 13.8219 22.9472C14.4723 22.8647 15.1139 22.7225 15.7383 22.5224C16.4131 22.3176 17.0273 21.9855 17.6387 21.6442C17.6861 21.6428 17.7293 21.6373 17.7522 21.5899Z" fill="#FABE3D"/>
<path d="M5.76694 3.24707C5.65413 3.50821 5.39159 3.61476 5.19312 3.78189C4.52076 4.34027 3.91591 4.97526 3.39088 5.67396C2.4651 6.92311 1.79577 8.34317 1.42151 9.85226C1.13293 11.0232 1.03882 12.2337 1.14295 13.4352C1.30295 15.6265 2.10951 17.7212 3.46052 19.454C5.09145 21.5592 7.21264 22.9359 9.80179 23.5849C10.5404 23.7612 11.2944 23.8648 12.0532 23.8941C13.3812 23.9603 14.6653 23.7611 15.932 23.3879C15.9995 23.374 16.068 23.3659 16.1368 23.3635C15.9648 23.5028 15.7405 23.5195 15.5456 23.6044C15.4606 23.6413 15.361 23.649 15.2949 23.7263C14.8659 23.821 14.4376 23.9241 14.0065 24.009C12.9738 24.2138 11.9334 24.2382 10.8833 24.1539C9.54475 24.0415 8.23767 23.6876 7.0253 23.1093C6.20282 22.7212 5.4293 22.2368 4.72097 21.6664C3.87581 20.9897 3.13523 20.1918 2.52319 19.2987C1.79587 18.2499 1.25236 17.0849 0.91593 15.8537C0.587978 14.6761 0.45068 13.4535 0.509245 12.2325C0.579683 10.9004 0.883511 9.59107 1.40688 8.36409C1.80213 7.42942 2.32142 6.55222 2.95077 5.75614C3.18127 5.46505 3.43824 5.19346 3.67988 4.91282C4.21331 4.41281 4.73141 3.8947 5.34632 3.4915C5.48351 3.40584 5.6012 3.28468 5.76694 3.24707Z" fill="#EF9D35"/>
<path d="M6.13177 3.03765C6.09277 3.13445 6.01338 3.15116 5.92285 3.1435C5.94151 3.10561 5.97197 3.07481 6.00964 3.05572C6.04732 3.03663 6.09018 3.03029 6.13177 3.03765Z" fill="#EF9D35"/>
<path d="M5.92301 3.14209C5.92301 3.25143 5.84362 3.25073 5.76562 3.24724C5.77831 3.21597 5.8001 3.18923 5.82816 3.17049C5.85622 3.15174 5.88926 3.14185 5.92301 3.14209Z" fill="#EF9D35"/>
<path d="M6.23457 2.93335C6.28122 3.01483 6.20532 2.97583 6.18164 2.98767L6.23457 2.93335Z" fill="#EF9D35"/>
<path d="M16.2402 23.3126C16.273 23.2597 16.3099 23.2527 16.3426 23.3126H16.2402Z" fill="#EF9D35"/>
<path d="M16.1338 23.364C16.144 23.3452 16.1596 23.3301 16.1787 23.3205C16.1977 23.3109 16.2192 23.3074 16.2403 23.3104C16.2201 23.3556 16.1791 23.3619 16.1338 23.364Z" fill="#EF9D35"/>
<path d="M6.1842 2.98584L6.12988 3.03946L6.1842 2.98584Z" fill="#EF9D35"/>
<path d="M17.6401 21.6431C17.0287 21.9843 16.4145 22.3165 15.7397 22.5212C15.1153 22.7213 14.4738 22.8635 13.8233 22.946C13.3427 23.0003 12.8602 23.0623 12.3776 23.0449C10.9497 23.0055 9.54253 22.6932 8.23199 22.125C6.80022 21.4982 5.59339 20.5686 4.56483 19.4126C3.75678 18.4942 3.12145 17.4372 2.68948 16.2928C2.39516 15.5444 2.19106 14.7636 2.08153 13.9669C1.88749 12.5348 1.98774 11.0782 2.3761 9.68619C2.7099 8.4912 3.25212 7.36456 3.97779 6.35817C4.5517 5.55455 5.24059 4.83962 6.02237 4.23629C6.71179 3.70495 7.43602 3.24255 8.26541 2.95982C8.30358 2.94131 8.33916 2.9179 8.37127 2.89018C8.41305 2.88461 8.45623 2.87904 8.47781 2.83447C8.5646 2.83505 8.65074 2.81971 8.73199 2.78921C10.0727 2.3691 11.4837 2.22066 12.8824 2.35257C13.701 2.42402 14.508 2.59424 15.2857 2.85954C17.1227 3.47256 18.75 4.59042 19.9814 6.08519C21.3936 7.7955 22.2049 9.76905 22.3783 11.9794C22.4762 13.1124 22.3821 14.2538 22.0998 15.3554C21.4765 17.7231 20.2195 19.673 18.2697 21.1661C18.175 21.2392 18.0203 21.2726 18.0106 21.4342C17.9319 21.43 17.8588 21.4342 17.8525 21.5393C17.8315 21.5354 17.8098 21.5385 17.7907 21.548C17.7716 21.5576 17.7562 21.5731 17.7467 21.5923C17.726 21.5906 17.7053 21.5944 17.6866 21.6033C17.6679 21.6123 17.6518 21.626 17.6401 21.6431ZM12.2132 13.8248C12.881 13.8248 13.4883 13.8248 14.0934 13.8248C14.6143 13.8206 14.9897 13.4529 14.9876 12.9738C14.9876 12.5281 14.5496 12.1305 14.0934 12.1507C13.3741 12.182 12.6478 12.1096 11.9347 12.1744C11.3218 12.2294 10.9688 12.0226 10.686 11.4877C10.3699 10.8895 9.98966 10.3429 10.0238 9.61167C10.0795 8.34356 11.356 7.33032 12.5962 7.59704C13.2863 7.74606 13.7856 8.13255 14.1373 8.73214C14.3922 9.16738 14.8699 9.29969 15.301 9.06014C15.4874 8.95261 15.6243 8.77642 15.6825 8.56923C15.7407 8.36205 15.7154 8.14034 15.6123 7.9515C14.8086 6.47725 13.3407 5.6987 11.6826 5.93198C8.91514 6.31569 7.49382 9.30944 8.88798 11.7287C9.1338 12.1556 9.13381 12.1556 8.65887 12.1604C8.1331 12.166 7.75357 12.5184 7.75357 12.9961C7.75357 13.4613 8.15539 13.8241 8.67419 13.8269C9.11709 13.8269 9.55999 13.8345 10.0029 13.8234C10.0709 13.8164 10.1394 13.8302 10.1993 13.8631C10.2593 13.8959 10.3078 13.9462 10.3385 14.0072C10.4806 14.2557 10.6364 14.4961 10.8051 14.7273C10.959 14.9265 10.9179 15.0442 10.7355 15.1932C9.85804 15.9 8.99035 16.6187 8.11918 17.3339C7.787 17.6069 7.68881 17.9251 7.81903 18.2991C7.94229 18.6514 8.22293 18.8367 8.64843 18.8374C9.5514 18.8374 10.4546 18.8374 11.3581 18.8374C12.8602 18.8374 14.3629 18.8374 15.865 18.8374C16.4437 18.8374 16.84 18.2998 16.6589 17.7698C16.5294 17.3826 16.2181 17.1737 15.7536 17.173C14.2682 17.173 12.7836 17.173 11.2968 17.173C11.2062 17.173 11.1108 17.1988 10.9973 17.1382C11.5001 16.7204 11.9883 16.3123 12.482 15.9098C12.9758 15.5073 13.0391 15.1173 12.6909 14.5769C12.5377 14.3387 12.3915 14.1054 12.2132 13.8248Z" fill="#FFD54B"/>
<path d="M18.0098 21.434C18.0195 21.2724 18.1741 21.239 18.2688 21.1659C20.2187 19.6714 21.4722 17.723 22.0989 15.3552C22.3812 14.2536 22.4754 13.1122 22.3775 11.9792C22.2041 9.76886 21.3928 7.79531 19.9805 6.08499C18.749 4.5895 17.1211 3.47112 15.2834 2.85795C14.5057 2.59265 13.6988 2.42242 12.8802 2.35098C11.4815 2.21907 10.0704 2.36751 8.72977 2.78761C8.64852 2.81812 8.56237 2.83346 8.47559 2.83288C8.9345 2.55433 9.45052 2.45266 9.96027 2.31547C10.9555 2.04818 11.9873 1.94307 13.016 2.00418C14.2774 2.07485 15.5166 2.36593 16.6776 2.86422C18.0751 3.46625 19.3235 4.36741 20.335 5.50421C21.2132 6.4766 21.8971 7.60817 22.3496 8.83779C22.8624 10.1925 23.0859 11.6395 23.0056 13.0857C22.9394 14.3558 22.6401 15.6029 22.1226 16.7647C21.5535 18.0503 20.7331 19.209 19.7096 20.1728C19.1922 20.6561 18.6511 21.1157 18.0098 21.434Z" fill="#EF9D35"/>
<path d="M17.8535 21.538C17.8598 21.4336 17.9329 21.4287 18.0116 21.4329C18.0007 21.4655 17.9792 21.4935 17.9506 21.5126C17.922 21.5316 17.8878 21.5406 17.8535 21.538Z" fill="#EF9D35"/>
<path d="M8.47861 2.8319C8.45702 2.87647 8.41385 2.88204 8.37207 2.88761C8.38168 2.86827 8.39716 2.85247 8.4163 2.84246C8.43544 2.83245 8.45724 2.82876 8.47861 2.8319Z" fill="#EF9D35"/>
<path d="M17.75 21.5902C17.7595 21.5711 17.775 21.5556 17.7941 21.546C17.8132 21.5365 17.8349 21.5334 17.8559 21.5373C17.8456 21.5558 17.83 21.5707 17.8111 21.5802C17.7922 21.5896 17.7709 21.5931 17.75 21.5902Z" fill="#EF9D35"/>
<path d="M17.6396 21.6431C17.6514 21.6245 17.6681 21.6095 17.6879 21.5999C17.7078 21.5903 17.7299 21.5865 17.7518 21.5888C17.7288 21.6375 17.6856 21.6431 17.6396 21.6431Z" fill="#EF9D35"/>
<path d="M12.2131 13.8248C12.3914 14.1033 12.5376 14.3387 12.6874 14.5699C13.0356 15.1103 12.9757 15.4989 12.4784 15.9028C11.9812 16.3067 11.4965 16.7147 10.9938 17.1312C11.1073 17.1918 11.2027 17.166 11.2932 17.166C12.7786 17.166 14.2633 17.166 15.7501 17.166C16.2159 17.166 16.5272 17.3749 16.6554 17.7628C16.8329 18.2928 16.4402 18.829 15.8615 18.8304C14.3594 18.8345 12.8566 18.8304 11.3545 18.8304C10.451 18.8304 9.54783 18.8304 8.64485 18.8304C8.21936 18.8304 7.93872 18.6444 7.81546 18.2921C7.68524 17.9181 7.78343 17.5999 8.1156 17.3269C8.98678 16.6117 9.85656 15.893 10.7319 15.1862C10.9165 15.0372 10.9575 14.9195 10.8016 14.7203C10.6328 14.4891 10.477 14.2487 10.335 14.0002C10.3043 13.9392 10.2557 13.8889 10.1958 13.8561C10.1358 13.8232 10.0673 13.8094 9.99932 13.8164C9.55642 13.8275 9.11352 13.822 8.67062 13.8199C8.15181 13.8199 7.75209 13.4543 7.75 12.9891C7.75 12.5107 8.12953 12.1583 8.6553 12.1534C9.13023 12.1486 9.13023 12.1486 8.88441 11.7217C7.49164 9.30244 8.91157 6.30869 11.679 5.92498C13.3371 5.69448 14.8051 6.47304 15.6087 7.9445C15.7119 8.13334 15.7371 8.35505 15.6789 8.56224C15.6207 8.76942 15.4838 8.94561 15.2974 9.05314C14.8663 9.29269 14.3921 9.16038 14.1337 8.72514C13.7856 8.12556 13.2828 7.73907 12.5927 7.59004C11.3524 7.32333 10.0759 8.33656 10.0202 9.60468C9.98817 10.3359 10.3684 10.8825 10.6825 11.4807C10.9652 12.0156 11.3183 12.2224 11.9311 12.1674C12.6456 12.1026 13.3719 12.175 14.0899 12.1437C14.546 12.1235 14.9819 12.5211 14.984 12.9668C14.984 13.4459 14.6108 13.8136 14.0899 13.8178C13.4882 13.8282 12.881 13.8248 12.2131 13.8248ZM12.1699 15.8046C12.2674 15.721 12.3705 15.6423 12.461 15.5518C12.6658 15.3429 12.7089 15.1131 12.5571 14.8721C12.3016 14.4654 12.0606 14.0476 11.7598 13.6709C11.7201 13.4654 11.8816 13.5713 11.9408 13.5692C12.7312 13.5372 13.5244 13.6186 14.3134 13.5135C14.6045 13.3853 14.7591 13.1569 14.7152 12.9216C14.6553 12.5977 14.4367 12.4208 14.0885 12.4202C13.1254 12.4202 12.1623 12.4167 11.1992 12.4202C11.1311 12.4273 11.0625 12.414 11.002 12.3818C10.9416 12.3497 10.8922 12.3002 10.8601 12.2398C10.6114 11.822 10.3412 11.4194 10.094 11.003C9.82839 10.572 9.70647 10.0677 9.74584 9.56289C9.79628 8.97021 10.0522 8.41377 10.4694 7.98976L10.5648 7.89506L10.6268 7.83308C10.6737 7.81477 10.7185 7.79142 10.7605 7.76344C11.1644 7.4293 11.6774 7.25575 12.2013 7.27597C13.1135 7.29686 13.8427 7.70494 14.3266 8.49603C14.4847 8.75509 14.6748 8.925 14.9945 8.87556L15.0474 8.82612C15.17 8.8484 15.2424 8.77041 15.3092 8.68684C15.4924 8.46818 15.4917 8.22096 15.2828 7.90062C14.4708 6.65758 13.319 6.06983 11.8371 6.1729C11.5279 6.19379 11.2041 6.24254 10.9276 6.42081L10.8273 6.42847C10.3503 6.63042 9.95406 6.94031 9.59264 7.3087C8.68037 8.23976 8.37256 9.77807 8.85307 10.9905C9.02647 11.4285 9.2709 11.8227 9.52787 12.2126C9.64416 12.3902 9.60168 12.4334 9.41227 12.4215C9.37755 12.4211 9.34285 12.4234 9.30851 12.4285L8.6177 12.4195C8.54957 12.4126 8.48082 12.4231 8.41786 12.45C8.35491 12.477 8.29979 12.5194 8.25767 12.5734C8.04318 12.7189 8.02786 12.9348 8.07661 13.1541C8.09436 13.2406 8.13739 13.3199 8.20024 13.3819C8.2631 13.4439 8.34295 13.4858 8.42967 13.5023C8.58913 13.5426 8.7527 13.5643 8.91714 13.5671C9.34193 13.558 9.76743 13.5671 10.1929 13.5615C10.2525 13.5548 10.3127 13.5661 10.3657 13.5941C10.4187 13.622 10.4621 13.6653 10.4903 13.7182C10.7396 14.1235 11.0028 14.5211 11.2605 14.9216C11.3113 14.9996 11.3364 15.0546 11.2361 15.1354C10.2674 15.9174 9.30641 16.7092 8.33983 17.4933C8.08565 17.7022 7.99165 17.9404 8.08496 18.1974C8.17201 18.4341 8.39624 18.5685 8.70683 18.5685C11.0773 18.5685 13.4476 18.5685 15.8176 18.5685C15.9095 18.5685 16.0105 18.6006 16.0899 18.5212C16.3768 18.3749 16.4847 18.1395 16.3998 17.8457C16.3239 17.5838 16.069 17.4278 15.6985 17.4278C13.9757 17.4278 12.2528 17.4278 10.53 17.4278C10.4603 17.4334 10.3902 17.431 10.3211 17.4209C10.2514 17.4049 10.3009 17.3575 10.3127 17.322L10.3566 17.283C10.4451 17.2524 10.5206 17.1925 10.5704 17.1131L10.6163 17.0727C10.7255 17.0275 10.8188 16.9509 10.8844 16.8526L10.9297 16.8129C11.0184 16.7833 11.0939 16.7234 11.1428 16.6437L11.1894 16.6026C11.2984 16.5578 11.3917 16.4817 11.4575 16.384L11.5021 16.3436C11.5907 16.3137 11.6661 16.2539 11.7152 16.1744L11.7626 16.1333C11.8716 16.0892 11.9645 16.0126 12.0286 15.9139L12.1261 15.8561L12.1699 15.8046Z" fill="#B6853A"/>
<path d="M16.0878 18.5192C16.0084 18.5986 15.9074 18.5665 15.8155 18.5665C13.445 18.5665 11.0748 18.5665 8.70474 18.5665C8.39415 18.5665 8.16991 18.4321 8.08286 18.1954C7.98815 17.9384 8.08286 17.6981 8.33774 17.4913C9.30432 16.7072 10.2653 15.9154 11.234 15.1334C11.3343 15.0526 11.3092 14.9976 11.2584 14.9196C11.0007 14.5191 10.7375 14.1215 10.4882 13.7162C10.46 13.6633 10.4166 13.62 10.3636 13.5921C10.3106 13.5642 10.2504 13.5528 10.1908 13.5595C9.76532 13.5658 9.33983 13.5561 8.91504 13.5651C8.7506 13.5623 8.58703 13.5406 8.42757 13.5003C8.34085 13.4838 8.261 13.4419 8.19814 13.3799C8.13528 13.3179 8.09225 13.2386 8.0745 13.1522C8.02576 12.9328 8.04108 12.7169 8.25556 12.5714C8.54735 12.5714 8.83844 12.5714 9.12953 12.5748C9.23468 12.5748 9.32312 12.5665 9.3064 12.4265C9.34075 12.4215 9.37545 12.4191 9.41016 12.4196C9.59958 12.4342 9.64206 12.391 9.52577 12.2106C9.27019 11.8207 9.02437 11.4265 8.85097 10.9885C8.37047 9.77609 8.67827 8.23778 9.59053 7.30671C9.95196 6.93832 10.3482 6.62843 10.8252 6.42648C10.8635 6.4808 10.8949 6.47175 10.9255 6.41882C11.3949 6.40907 11.8496 6.28442 12.335 6.35405C13.4833 6.5177 14.3322 7.10615 14.9652 8.04627C15.1254 8.28443 15.2117 8.54279 15.0453 8.82065L14.9924 8.87009C14.6693 8.91953 14.4826 8.74962 14.3245 8.49056C13.8371 7.69947 13.1114 7.29139 12.1992 7.2705C11.6753 7.25028 11.1624 7.42382 10.7584 7.75797C10.7165 7.78595 10.6716 7.8093 10.6247 7.8276L10.5627 7.88958L10.4673 7.98429C10.4243 7.97928 10.3807 7.98477 10.3404 8.00029C10.3 8.01582 10.2639 8.04091 10.2354 8.07343C9.45474 8.81716 9.1908 9.94391 9.672 10.9404C9.90947 11.4321 10.2451 11.8659 10.5077 12.3409C10.6114 12.5261 10.7486 12.5755 10.9527 12.5735C11.8719 12.5637 12.7911 12.5679 13.7096 12.5693C14.0836 12.5693 14.2988 12.7155 14.3977 13.0066C14.4617 13.1939 14.3434 13.3402 14.3106 13.5059C13.5216 13.6111 12.7284 13.5296 11.938 13.5616C11.8788 13.5616 11.7173 13.4579 11.757 13.6633C11.7222 13.6633 11.6873 13.6633 11.6532 13.6633C11.5773 13.6696 11.4735 13.6278 11.4318 13.6932C11.3761 13.781 11.484 13.8458 11.5258 13.9126C11.7493 14.2705 11.9861 14.6208 12.2131 14.9767C12.3607 15.2086 12.3977 15.4419 12.1832 15.6598C12.164 15.6776 12.1487 15.6992 12.1382 15.7231C12.1276 15.7471 12.1221 15.7729 12.1219 15.7991C12.1219 15.8151 12.1219 15.8311 12.1219 15.8472L12.0244 15.905C11.8691 15.898 11.7695 15.9579 11.7584 16.1243L11.711 16.1654C11.5891 16.1577 11.4951 16.1849 11.4979 16.3346L11.4534 16.375C11.2974 16.366 11.1971 16.4252 11.1853 16.5937L11.1386 16.6348C11.016 16.6264 10.922 16.6536 10.9255 16.804L10.8802 16.8437C10.7235 16.8346 10.6233 16.8945 10.6121 17.0637L10.5662 17.1041C10.4429 17.0958 10.3482 17.1229 10.3524 17.274L10.3085 17.313C10.0954 17.2935 10.0237 17.4628 9.87605 17.6236H13.6087C14.2417 17.6236 14.8747 17.6236 15.5077 17.6236C15.9137 17.6236 16.085 17.8179 16.0864 18.2204C16.0906 18.3249 15.991 18.4231 16.0878 18.5192Z" fill="#8F6226"/>
<path d="M14.3136 13.5117C14.3463 13.346 14.4647 13.1997 14.4006 13.0124C14.3018 12.7213 14.0866 12.5758 13.7126 12.5751C12.7941 12.5751 11.8749 12.5695 10.9556 12.5792C10.7516 12.5792 10.6144 12.5319 10.5106 12.3467C10.2446 11.8717 9.90897 11.4414 9.67499 10.9462C9.19379 9.9497 9.45771 8.82295 10.2384 8.07922C10.2669 8.04671 10.3029 8.02161 10.3433 8.00609C10.3837 7.99056 10.4273 7.98507 10.4703 7.99008C10.0531 8.41409 9.79716 8.97053 9.74672 9.56321C9.70735 10.068 9.82927 10.5723 10.0949 11.0033C10.3435 11.4212 10.6137 11.8237 10.8609 12.2401C10.893 12.3006 10.9425 12.35 11.0029 12.3822C11.0633 12.4143 11.132 12.4276 11.2001 12.4205C12.1632 12.4149 13.1263 12.4163 14.0894 12.4205C14.4376 12.4205 14.6569 12.5981 14.7161 12.9219C14.7593 13.1566 14.6026 13.385 14.3136 13.5117Z" fill="#7C4B1F"/>
<path d="M16.0873 18.5193C15.9905 18.4232 16.0873 18.3251 16.0873 18.2283C16.0873 17.8258 15.9146 17.6342 15.5086 17.6315C14.8756 17.6273 14.2426 17.6315 13.6096 17.6315H9.87695C10.0246 17.4706 10.0963 17.3014 10.3094 17.3209C10.2976 17.3564 10.246 17.4037 10.3178 17.4198C10.3869 17.4299 10.457 17.4323 10.5267 17.4267C12.2495 17.4267 13.9724 17.4267 15.6952 17.4267C16.0657 17.4267 16.322 17.582 16.3965 17.8446C16.4821 18.1377 16.3742 18.3731 16.0873 18.5193Z" fill="#825221"/>
<path d="M15.0426 8.82701C15.2091 8.54846 15.1227 8.2908 14.9626 8.05264C14.3296 7.11252 13.4807 6.52059 12.3323 6.36042C11.8449 6.29079 11.3922 6.41544 10.9229 6.42519C11.2014 6.24482 11.5231 6.19817 11.8323 6.17728C13.3142 6.07421 14.466 6.66474 15.278 7.905C15.4869 8.22534 15.4869 8.47256 15.3045 8.69122C15.2376 8.77131 15.1652 8.8493 15.0426 8.82701Z" fill="#7D4C1F"/>
<path d="M12.1247 15.8102C12.1249 15.7841 12.1304 15.7582 12.141 15.7343C12.1515 15.7103 12.1668 15.6888 12.186 15.671C12.4005 15.453 12.3635 15.2197 12.2159 14.9878C11.9889 14.6319 11.7521 14.2817 11.5286 13.9237C11.4868 13.8541 11.3789 13.7921 11.4346 13.7044C11.4764 13.6389 11.5801 13.6807 11.656 13.6744C11.6901 13.6744 11.7257 13.6744 11.7598 13.6744C12.0606 14.0512 12.3016 14.469 12.5571 14.8757C12.709 15.1166 12.6658 15.3485 12.461 15.5554C12.3705 15.6459 12.2674 15.7246 12.17 15.8081C12.1553 15.806 12.14 15.8061 12.1247 15.8102Z" fill="#7C4B1F"/>
<path d="M9.30963 12.4281C9.32634 12.5674 9.23999 12.5778 9.13275 12.5764C8.84166 12.5764 8.55057 12.5764 8.25879 12.5729C8.30092 12.519 8.35603 12.4765 8.41899 12.4496C8.48194 12.4227 8.55069 12.4122 8.61881 12.419L9.30963 12.4281Z" fill="#7C4B1F"/>
<path d="M11.7627 16.1318C11.7738 15.9653 11.8734 15.9054 12.0287 15.9124C11.9647 16.0111 11.8718 16.0877 11.7627 16.1318Z" fill="#825221"/>
<path d="M11.1895 16.6014C11.2013 16.4329 11.3016 16.3737 11.4576 16.3827C11.3917 16.4805 11.2985 16.5566 11.1895 16.6014Z" fill="#825221"/>
<path d="M10.6162 17.0715C10.6274 16.9023 10.7276 16.8424 10.8843 16.8515C10.8187 16.9498 10.7254 17.0264 10.6162 17.0715Z" fill="#825221"/>
<path d="M11.502 16.3423C11.502 16.1925 11.5932 16.1654 11.7151 16.173C11.6659 16.2526 11.5905 16.3124 11.502 16.3423Z" fill="#825221"/>
<path d="M10.9297 16.8112C10.9297 16.6608 11.0202 16.6336 11.1428 16.642C11.0939 16.7217 11.0184 16.7816 10.9297 16.8112Z" fill="#825221"/>
<path d="M10.3546 17.2819C10.3504 17.1308 10.4452 17.1036 10.5684 17.112C10.5186 17.1913 10.4432 17.2513 10.3546 17.2819Z" fill="#825221"/>
<path d="M10.9255 6.42334C10.8962 6.47626 10.8635 6.48532 10.8252 6.431L10.9255 6.42334Z" fill="#7D4C1F"/>
<path d="M10.5635 7.89767L10.6255 7.83569L10.5635 7.89767Z" fill="#7C4B1F"/>
<path d="M12.124 15.8105C12.1393 15.8105 12.1547 15.8105 12.1693 15.8105L12.1254 15.8607C12.1247 15.8391 12.124 15.8231 12.124 15.8105Z" fill="#825221"/>
<path d="M14.9912 8.87512L15.0441 8.82568L14.9912 8.87512Z" fill="#7D4C1F"/>
</svg>
