<svg width="26" height="25" viewBox="0 0 26 25" fill="none" xmlns="http://www.w3.org/2000/svg">
<path d="M13.5224 25.0001H11.4718C11.2363 24.9081 10.9832 24.9244 10.7391 24.8878C8.67874 24.5799 6.79058 23.8394 5.11968 22.5913C2.37292 20.5387 0.702671 17.8206 0.140921 14.4286C0.0913357 14.1285 0.102433 13.8186 0 13.5276V11.428C0.0652439 11.3961 0.0443591 11.3315 0.0502311 11.2786C0.0951417 10.81 0.167694 10.3444 0.267498 9.88436C1.04781 6.4534 2.92097 3.7895 5.88695 1.89264C6.89904 1.24411 8.00729 0.759679 9.17067 0.457275C9.00748 1.09409 8.88373 1.74036 8.80009 2.39241C8.76617 2.66252 8.78639 2.68535 9.03888 2.60053C10.715 2.03552 12.4257 1.85937 14.1762 2.15296C16.7859 2.59075 18.9331 3.84082 20.6151 5.87186C21.7718 7.25997 22.5357 8.93244 22.8275 10.7156C22.9854 11.6486 23.0454 12.5861 22.9371 13.5289C22.8406 14.3699 22.6762 15.1978 22.3865 15.9951C22.3212 16.1713 22.3565 16.2398 22.5483 16.2084C22.7244 16.1804 22.9019 16.1608 23.0774 16.1302C23.5563 16.0466 24.0345 15.9592 24.5128 15.8731C24.5044 15.9453 24.492 16.017 24.4756 16.0877C23.1851 20.6242 19.0675 24.2047 14.3967 24.863C14.1051 24.9028 13.8043 24.8924 13.5224 25.0001ZM8.78639 4.98455C8.70679 4.32037 8.73485 3.65357 8.74855 2.98743C8.75507 2.70819 8.76225 2.69775 8.50062 2.80736C6.84569 3.48897 5.394 4.58497 4.28521 5.98995C2.79765 7.86572 2.05648 10.0103 2.00755 12.3936C1.98873 13.3946 2.12384 14.3925 2.40815 15.3524C3.24457 18.2016 4.97027 20.3462 7.58003 21.7555C9.30436 22.6943 11.2644 23.1117 13.2217 22.9566C14.3262 22.8857 15.4121 22.6372 16.4375 22.2207C18.4969 21.3879 20.2369 19.9198 21.4046 18.0301C21.7189 17.5259 21.9893 16.9957 22.2129 16.4453C22.2606 16.3311 22.3127 16.2261 22.0981 16.2372C21.4573 16.2737 20.8148 16.2685 20.1747 16.2215C18.9821 16.1289 17.8101 15.8589 16.6972 15.4203C15.6637 15.0164 14.6844 14.5069 13.8121 13.8114C14.5735 13.0709 15.1411 12.2162 15.378 11.1664C15.4067 11.0411 15.5039 11.0359 15.6057 11.0359C15.8823 11.0359 16.1589 11.0411 16.4349 11.0359C16.7833 11.0261 17.0919 10.9172 17.3092 10.6288C17.4263 10.4859 17.4995 10.3121 17.5199 10.1285C17.5404 9.94487 17.5074 9.75925 17.4247 9.59402C17.2426 9.20256 16.9027 9.0251 16.4865 9.00031C16.2105 8.98465 15.9332 8.98987 15.6572 9.00031C15.4856 9.00553 15.3962 8.95659 15.3512 8.77326C15.2144 8.21094 14.977 7.67801 14.6505 7.20023C14.6172 7.14999 14.5442 7.0991 14.5853 7.03059C14.6264 6.96209 14.7047 6.99471 14.7673 6.99471C15.3545 6.99471 15.9378 6.99471 16.523 6.99471C16.6945 6.99849 16.8639 6.95565 17.013 6.87075C17.3888 6.65414 17.6002 6.16611 17.4893 5.7616C17.4355 5.53778 17.3066 5.33915 17.1241 5.19882C16.9417 5.0585 16.7166 4.98494 16.4865 4.99042C13.9224 4.9852 11.3557 4.98324 8.78639 4.98455Z" fill="#F9B659"/>
<path d="M13.8138 13.8113C14.6861 14.5068 15.6654 15.0163 16.6989 15.4202C17.8117 15.8588 18.9838 16.1288 20.1764 16.2214C20.8165 16.2684 21.459 16.2736 22.0998 16.2371C22.3144 16.226 22.2622 16.331 22.2146 16.4452C21.9906 16.9956 21.7197 17.5259 21.4049 18.03C20.2369 19.9199 18.4964 21.388 16.4366 22.2206C15.4111 22.6371 14.3253 22.8856 13.2207 22.9565C11.2635 23.1116 9.30341 22.6942 7.57908 21.7554C4.96933 20.3461 3.24363 18.2015 2.4072 15.3523C2.12289 14.3924 1.98779 13.3945 2.00661 12.3935C2.05554 10.0102 2.79671 7.86562 4.28427 5.98985C5.39306 4.58487 6.84474 3.48887 8.49967 2.80726C8.76065 2.69765 8.75413 2.70809 8.7476 2.98733C8.7339 3.65347 8.70584 4.32027 8.78544 4.98445C8.65495 4.98445 8.52447 4.98445 8.39398 4.98445C7.87203 4.9988 7.46621 5.43528 7.46491 5.9768C7.46491 6.53921 7.86224 6.97439 8.39659 6.98678C8.63995 6.992 8.88331 6.98678 9.12667 6.98678C9.13772 6.99159 9.14904 6.99573 9.16059 6.99918C9.31979 7.6862 9.58012 8.33733 9.85218 8.98455C9.38895 8.98455 8.92507 8.97737 8.46183 8.99107C8.2086 9.0008 7.96748 9.10203 7.7832 9.276C7.59892 9.44996 7.48398 9.68485 7.45969 9.93711C7.41859 10.4839 7.85115 11.0136 8.40964 11.0273C9.27085 11.0489 10.1327 11.0273 10.994 11.0221L11.0742 11.0378C11.1179 11.103 11.1597 11.1761 11.2047 11.242C11.4748 11.6184 11.784 11.9636 12.0894 12.3113C12.1683 12.402 12.2336 12.4738 12.0842 12.5567C11.6836 12.7791 11.2699 12.9481 10.8041 12.9957C10.1464 13.061 9.48812 13.0205 8.83046 13.0355C7.81984 13.059 7.15304 14.1297 7.58561 15.0444C7.66816 15.2217 7.78123 15.3831 7.91966 15.5213C9.63992 17.2399 11.3597 18.9579 13.0791 20.6756C13.3453 20.9411 13.6585 21.101 14.0454 21.0162C14.4323 20.9314 14.7161 20.6978 14.8355 20.3024C14.9588 19.8933 14.8355 19.5521 14.54 19.2585C13.2116 17.9301 11.8837 16.6013 10.5562 15.2721C10.4961 15.2121 10.41 15.1684 10.3931 15.0398C10.6843 15.0475 10.9757 15.0305 11.2641 14.9889C12.2049 14.8252 13.0517 14.467 13.7622 13.8146L13.8138 13.8113Z" fill="#F49F1F"/>
<path d="M9.17034 0.455245C13.2005 -0.571041 16.903 0.125111 20.1966 2.67354C22.8618 4.7372 24.4074 7.4931 24.8843 10.829C25.1201 12.5006 25.0046 14.203 24.5451 15.8274L24.5079 15.8717H24.5144C24.0362 15.9578 23.5579 16.0453 23.079 16.1288C22.9035 16.1594 22.7261 16.179 22.5499 16.2071C22.3581 16.2384 22.3242 16.1699 22.3881 15.9937C22.6804 15.1964 22.8448 14.3685 22.9388 13.5275C23.0471 12.5847 22.987 11.6472 22.8291 10.7142C22.5373 8.93107 21.7734 7.2586 20.6167 5.87049C18.9347 3.83879 16.7869 2.58872 14.1778 2.15159C12.4273 1.85799 10.7199 2.03415 9.04051 2.59916C8.78801 2.68398 8.76779 2.66114 8.80171 2.39103C8.88467 1.73881 9.00779 1.09231 9.17034 0.455245Z" fill="#F7E76A"/>
<path d="M11.0788 11.0379L10.9986 11.0223C10.8909 10.7319 10.6723 10.5062 10.5321 10.2361C10.3161 9.82633 10.0271 9.45314 9.91616 8.98926H13.0381C13.1914 8.98926 13.3421 8.98534 13.2338 8.76482C12.7771 7.82074 12.0398 7.22767 11.0116 7.04433C10.4042 6.93603 9.78045 6.97257 9.16324 6.99671C9.1517 6.99326 9.14037 6.98912 9.12932 6.98431C9.11431 6.89688 9.10453 6.80815 9.083 6.72333C8.94472 6.15027 8.84553 5.56848 8.78613 4.98197C11.3554 4.98197 13.9245 4.98197 16.4934 4.98197C16.7235 4.9765 16.9486 5.05005 17.1311 5.19038C17.3135 5.33071 17.4424 5.52934 17.4962 5.75316C17.6058 6.15636 17.3957 6.64439 17.0199 6.8623C16.8708 6.9472 16.7015 6.99005 16.5299 6.98627C15.9427 6.98627 15.3595 6.98627 14.7742 6.98627C14.709 6.98627 14.632 6.96017 14.5922 7.02215C14.5524 7.08413 14.6209 7.14155 14.6574 7.19178C14.984 7.66957 15.2214 8.2025 15.3581 8.76482C15.4012 8.94815 15.4926 8.99708 15.6641 8.99186C15.9401 8.98273 16.2174 8.97751 16.4934 8.99186C16.9103 9.01666 17.2496 9.19216 17.4316 9.58558C17.5143 9.75081 17.5474 9.93643 17.5269 10.12C17.5064 10.3037 17.4332 10.4774 17.3161 10.6204C17.0989 10.9087 16.7903 11.0177 16.4419 11.0275C16.1659 11.0346 15.8892 11.0275 15.6126 11.0275C15.5108 11.0275 15.4169 11.0353 15.3849 11.158C15.1455 12.2077 14.5778 13.0624 13.819 13.8029L13.774 13.8088C13.3212 13.4284 12.8606 13.0566 12.432 12.6481C12.2591 12.4837 12.3015 12.4002 12.4607 12.2775C12.8012 12.0166 13.0329 11.661 13.2247 11.2826C13.3284 11.0777 13.2899 11.0262 13.0563 11.0255C12.3941 11.0327 11.7365 11.036 11.0788 11.0379Z" fill="#F7E76A"/>
<path d="M24.5059 15.8744L24.543 15.8301L24.5059 15.8744Z" fill="#F9B659"/>
<path d="M11.0787 11.0378C11.7364 11.0378 12.394 11.0326 13.051 11.0339C13.2872 11.0339 13.3231 11.0861 13.2194 11.291C13.0276 11.6694 12.7959 12.0223 12.4554 12.2859C12.2975 12.4086 12.2538 12.4921 12.4267 12.6565C12.856 13.0649 13.3159 13.4394 13.7687 13.8172C13.0582 14.4696 12.2114 14.8285 11.2705 14.9916C10.9822 15.0332 10.6908 15.0502 10.3995 15.0425C10.4165 15.173 10.5026 15.2147 10.5626 15.2748C11.8897 16.6044 13.2176 17.9332 14.5464 19.2612C14.8394 19.5541 14.9653 19.8953 14.842 20.3051C14.7226 20.7004 14.4473 20.9327 14.0519 21.0188C13.6565 21.1049 13.3518 20.9438 13.0856 20.6782C11.3649 18.9606 9.6451 17.2425 7.92614 15.524C7.78771 15.3858 7.67464 15.2244 7.59209 15.0471C7.15952 14.1336 7.82631 13.0617 8.83694 13.0382C9.4946 13.0232 10.1529 13.0649 10.8106 12.9984C11.2764 12.9521 11.6901 12.7818 12.0907 12.5593C12.2401 12.4764 12.1748 12.4047 12.0959 12.314C11.7905 11.9662 11.4813 11.6211 11.2112 11.2446C11.1616 11.1761 11.1224 11.1057 11.0787 11.0378Z" fill="#F9B659"/>
<path d="M9.16504 6.99933C9.78225 6.97519 10.4047 6.93865 11.0134 7.04696C12.0416 7.23029 12.7822 7.82336 13.2356 8.76744C13.342 8.98796 13.1912 8.99253 13.0399 8.99188H9.91795L9.85858 8.98731C9.58456 8.33487 9.32423 7.68635 9.16504 6.99933Z" fill="#F9B659"/>
<path d="M9.85614 8.98729L9.91552 8.99186C10.0264 9.45443 10.3155 9.82893 10.5314 10.2387C10.6736 10.5088 10.8903 10.7345 10.9979 11.0249C10.1367 11.0288 9.27482 11.0516 8.4136 11.0301C7.85381 11.0164 7.42255 10.4866 7.46365 9.93985C7.48794 9.68759 7.60288 9.4527 7.78716 9.27874C7.97144 9.10477 8.21256 9.00354 8.46579 8.99381C8.92903 8.9775 9.39291 8.98729 9.85614 8.98729Z" fill="#F9B759"/>
<path d="M8.78733 4.98383C8.84673 5.57033 8.94591 6.15213 9.08419 6.72518C9.10572 6.81065 9.11551 6.89939 9.13051 6.98616C8.88715 6.98616 8.64379 6.99138 8.40043 6.98616C7.86608 6.97376 7.46745 6.53858 7.46875 5.97618C7.46875 5.43466 7.87783 4.99753 8.39783 4.98383C8.52766 4.98122 8.65749 4.98383 8.78733 4.98383Z" fill="#F9B759"/>
</svg>
