<svg width="26" height="25" viewBox="0 0 26 25" fill="none" xmlns="http://www.w3.org/2000/svg">
<path d="M13.4294 25H12.502V22.0211C17.7643 22.0061 22.0106 17.7669 22.0184 12.5124C22.0256 7.23897 17.7636 2.99132 12.502 2.97895V0H13.4789C13.8384 0.0950868 14.2109 0.0924812 14.5743 0.15826C17.3325 0.653233 19.6895 1.89913 21.6081 3.94284C23.3757 5.82374 24.4612 8.04221 24.8645 10.5983C24.9134 10.9063 24.903 11.2235 25.0033 11.5237V13.5251C24.9466 13.5518 24.9603 13.6052 24.9538 13.6515C24.901 14.0455 24.8697 14.4434 24.7916 14.8322C24.182 17.8822 22.6652 20.387 20.2326 22.3219C18.5436 23.671 16.5267 24.5475 14.3881 24.8619C14.065 24.9134 13.7394 24.9062 13.4294 25Z" fill="#FDBA35"/>
<path d="M12.502 0V2.97895C7.26632 2.99132 3.00826 7.20445 2.98481 12.4388C2.96071 17.7382 7.23376 22.0224 12.502 22.0211V25H11.525C11.4957 24.9472 11.443 24.9557 11.3948 24.9512C9.09251 24.7388 6.99409 23.9742 5.13729 22.5929C2.45445 20.6026 0.804547 17.961 0.187569 14.6681C0.113323 14.2721 0.110717 13.8664 0 13.4769V11.4749C0.1016 11.2658 0.0775011 11.0353 0.108763 10.8151C0.46892 8.29144 1.48101 6.06471 3.18736 4.17209C5.11775 2.02852 7.50729 0.699691 10.356 0.185615C10.7468 0.115928 11.1434 0.120486 11.5237 0.00130184L12.502 0Z" fill="#FEE14E"/>
<path d="M12.502 2.97876C17.7636 2.99179 22.0256 7.23878 22.0184 12.5122C22.0106 17.7667 17.7643 22.0085 12.502 22.0209L12.5078 19.0986C12.9787 19.0575 13.232 18.7879 13.2333 18.3235C13.2333 18.1366 13.2386 17.9491 13.2333 17.7621C13.2294 17.6221 13.2946 17.557 13.4287 17.5316C14.0783 17.4089 14.6846 17.1183 15.1872 16.6888C16.5549 15.5387 16.4826 13.6864 15.0771 12.5949C14.6085 12.2256 14.0597 11.9715 13.475 11.8531C13.3623 11.8303 13.2314 11.8218 13.2327 11.6414C13.2385 10.7948 13.2327 9.9481 13.2327 9.10144C13.2327 9.00439 13.2548 8.94122 13.3747 8.97639C13.9283 9.13661 14.6772 9.56775 14.7013 10.3818C14.7111 10.7537 15.0348 11.0331 15.4216 11.0331C15.607 11.0415 15.7883 10.9767 15.9263 10.8527C16.0643 10.7287 16.1481 10.5553 16.1595 10.3701C16.1801 10.1274 16.1545 9.88298 16.084 9.64981C15.7356 8.53743 14.9117 7.9363 13.8696 7.55986C13.6658 7.48626 13.3708 7.53381 13.2718 7.34819C13.1799 7.1756 13.2385 6.9203 13.2372 6.70147C13.234 6.21106 12.9995 5.94924 12.5137 5.89779C12.5102 4.92478 12.5072 3.95177 12.5046 2.97876H12.502Z" fill="#E68A2C"/>
<path d="M12.5085 19.0986L12.5026 22.0209C7.2344 22.0209 2.96136 17.738 2.98545 12.4386C3.0089 7.20426 7.26696 2.99113 12.5019 2.97876C12.5045 3.95177 12.5076 4.92478 12.5111 5.89779L12.4961 5.91342C12.0447 5.94013 11.7797 6.21301 11.7699 6.66044C11.7699 6.83173 11.7601 7.00302 11.7699 7.173C11.7823 7.36317 11.7048 7.43351 11.5179 7.47975C10.6627 7.67513 9.91767 8.0659 9.3732 8.77514C8.6607 9.70126 8.65679 10.8488 9.35171 11.7801C9.90399 12.5174 10.666 12.927 11.5498 13.1218C11.7276 13.1609 11.7725 13.241 11.7693 13.4025C11.7627 13.76 11.7693 14.1189 11.7693 14.4758C11.7693 14.9389 11.7693 15.4026 11.7693 15.8663C11.7693 15.9535 11.7862 16.048 11.6325 16.0258C10.9734 15.9321 10.3749 15.3094 10.3032 14.6256C10.2889 14.4406 10.2033 14.2684 10.0646 14.1453C9.92591 14.0221 9.74482 13.9575 9.55946 13.9652C9.37432 13.965 9.19631 14.0366 9.06276 14.1648C8.9292 14.293 8.85046 14.4679 8.84306 14.6529C8.83066 14.889 8.86315 15.1252 8.9388 15.3492C9.27746 16.3912 10.046 16.9975 11.0333 17.3727C11.2665 17.4613 11.5875 17.4293 11.7263 17.615C11.865 17.8006 11.7634 18.1034 11.7699 18.3542C11.779 18.6857 12.0154 19.0745 12.4974 19.0849L12.5085 19.0986Z" fill="#FDBA35"/>
<path d="M12.5117 5.89819C12.9976 5.94964 13.232 6.21146 13.2353 6.70187C13.2353 6.9207 13.178 7.176 13.2698 7.34859C13.3688 7.53421 13.6606 7.48666 13.8677 7.56026C14.9097 7.9367 15.7362 8.53718 16.082 9.65021C16.1532 9.88392 16.1793 10.129 16.1589 10.3725C16.1475 10.5577 16.0637 10.731 15.9257 10.855C15.7876 10.9791 15.6064 11.0439 15.421 11.0355C15.0341 11.0355 14.7104 10.7561 14.7007 10.3842C14.6792 9.57011 13.9276 9.13896 13.374 8.97874C13.2542 8.94357 13.232 9.00675 13.232 9.10379C13.232 9.95045 13.2359 10.7971 13.232 11.6438C13.232 11.8242 13.3623 11.8326 13.4743 11.8554C14.0591 11.9739 14.6079 12.228 15.0765 12.5972C16.4819 13.6888 16.5523 15.541 15.1865 16.6912C14.6839 17.1207 14.0777 17.4112 13.4281 17.5339C13.2978 17.5593 13.2327 17.6245 13.2327 17.7645C13.2386 17.9514 13.2327 18.139 13.2327 18.3259C13.2327 18.7903 12.978 19.0599 12.5072 19.1009L12.4941 19.0872C12.4941 18.9739 12.5007 18.86 12.5007 18.746C12.5007 15.8104 12.5007 12.8751 12.5007 9.94003C12.5007 8.5984 12.4989 7.25698 12.4954 5.91578L12.5117 5.89819ZM13.2346 14.6494C13.2346 15.0402 13.2346 15.431 13.2346 15.8217C13.2346 15.9891 13.2952 16.0425 13.4587 15.9832C13.7667 15.8725 14.065 15.7358 14.2975 15.5046C14.5834 15.22 14.7645 14.8832 14.6518 14.4547C14.5294 13.9936 13.8703 13.4394 13.3688 13.371C13.2112 13.3488 13.2386 13.4498 13.2386 13.5331C13.2333 13.9044 13.2346 14.2776 13.2346 14.6494Z" fill="#FDBA35"/>
<path d="M12.4968 5.91357C12.4968 7.25478 12.4986 8.59619 12.502 9.93783C12.502 12.8734 12.502 15.8087 12.502 18.7438C12.502 18.8577 12.4975 18.9717 12.4955 19.085C12.0136 19.0746 11.7791 18.6858 11.768 18.3543C11.7615 18.1036 11.8644 17.8033 11.7244 17.6151C11.5844 17.4269 11.2646 17.4614 11.0315 17.3728C10.0441 16.9977 9.273 16.3959 8.93694 15.3493C8.86129 15.1254 8.8288 14.8891 8.8412 14.6531C8.8486 14.4681 8.92734 14.2932 9.0609 14.1649C9.19446 14.0367 9.37246 13.9652 9.55761 13.9653C9.74296 13.9577 9.92405 14.0223 10.0628 14.1454C10.2015 14.2686 10.287 14.4408 10.3014 14.6257C10.373 15.307 10.9715 15.9322 11.6306 16.026C11.7843 16.0481 11.7667 15.9537 11.7674 15.8664C11.7674 15.4027 11.7674 14.939 11.7674 14.4759C11.7674 14.1177 11.7628 13.7595 11.7674 13.4026C11.7674 13.2411 11.7257 13.161 11.5479 13.1219C10.6641 12.9265 9.90213 12.5175 9.34985 11.7803C8.65298 10.849 8.65884 9.70141 9.37134 8.7753C9.91581 8.06866 10.6609 7.67398 11.516 7.4799C11.7062 7.43692 11.7804 7.36332 11.768 7.17315C11.757 7.00317 11.7635 6.83188 11.768 6.66059C11.7791 6.21316 12.0461 5.94028 12.4968 5.91357ZM11.7694 10.298C11.7694 9.90722 11.7694 9.51645 11.7694 9.12568C11.7694 8.96547 11.7101 8.92118 11.5616 8.97915C11.3313 9.06027 11.1114 9.16826 10.9064 9.30088C10.3444 9.69165 10.1646 10.2309 10.4284 10.7487C10.6622 11.2046 11.0796 11.4299 11.5401 11.6025C11.7075 11.6676 11.7759 11.6351 11.7713 11.4423C11.7628 11.0619 11.7694 10.6796 11.7694 10.298Z" fill="#FEE14D"/>
<path d="M13.2344 14.6491C13.2344 14.2759 13.2344 13.9027 13.2344 13.5295C13.2344 13.4462 13.2083 13.3452 13.3647 13.3674C13.8629 13.4325 14.5252 13.99 14.6477 14.4511C14.7603 14.8796 14.5825 15.2163 14.2934 15.5009C14.0609 15.7322 13.7626 15.8689 13.4545 15.9796C13.2911 16.0389 13.2292 15.9855 13.2305 15.8181C13.237 15.4306 13.2344 15.0398 13.2344 14.6491Z" fill="#E68A2C"/>
<path d="M11.7689 10.298C11.7689 10.6797 11.7624 11.062 11.7689 11.4436C11.7734 11.639 11.7038 11.667 11.5377 11.6038C11.0818 11.4312 10.6598 11.2092 10.426 10.75C10.1622 10.229 10.3419 9.69167 10.904 9.30221C11.1101 9.17027 11.3311 9.06315 11.5624 8.98308C11.7109 8.92512 11.7721 8.9694 11.7702 9.12962C11.7656 9.51713 11.7689 9.9079 11.7689 10.298Z" fill="#FDBB35"/>
</svg>
