<svg width="183" height="198" viewBox="0 0 183 198" fill="none" xmlns="http://www.w3.org/2000/svg">
<path d="M11.5586 12.6104V14.4795H0.837891V12.6104H11.5586ZM7.19727 8.04492V19.4316H5.20996V8.04492H7.19727Z" fill="#FF7152"/>
<path d="M11.5586 54.3403V56.2095H0.837891V54.3403H11.5586ZM7.19727 49.7749V61.1616H5.20996V49.7749H7.19727Z" fill="#E5E5E5"/>
<path d="M11.5586 96.0703V97.9395H0.837891V96.0703H11.5586ZM7.19727 91.5049V102.892H5.20996V91.5049H7.19727Z" fill="#E5E5E5"/>
<path d="M53.2891 12.6104V14.4795H42.5684V12.6104H53.2891ZM48.9277 8.04492V19.4316H46.9404V8.04492H48.9277Z" fill="#E5E5E5"/>
<path d="M53.2891 54.3403V56.2095H42.5684V54.3403H53.2891ZM48.9277 49.7749V61.1616H46.9404V49.7749H48.9277Z" fill="#E5E5E5"/>
<path d="M53.2891 96.0703V97.9395H42.5684V96.0703H53.2891ZM48.9277 91.5049V102.892H46.9404V91.5049H48.9277Z" fill="#E5E5E5"/>
<path d="M53.2891 137.8V139.669H42.5684V137.8H53.2891ZM48.9277 133.235V144.622H46.9404V133.235H48.9277Z" fill="#E5E5E5"/>
<path d="M95.0186 12.6104V14.4795H84.2979V12.6104H95.0186ZM90.6572 8.04492V19.4316H88.6699V8.04492H90.6572Z" fill="#E5E5E5"/>
<path d="M95.0186 54.3403V56.2095H84.2979V54.3403H95.0186ZM90.6572 49.7749V61.1616H88.6699V49.7749H90.6572Z" fill="#E5E5E5"/>
<path d="M95.0186 96.0703V97.9395H84.2979V96.0703H95.0186ZM90.6572 91.5049V102.892H88.6699V91.5049H90.6572Z" fill="#6246E5"/>
<path d="M95.0186 137.8V139.669H84.2979V137.8H95.0186ZM90.6572 133.235V144.622H88.6699V133.235H90.6572Z" fill="#E5E5E5"/>
<path d="M95.0186 179.53V181.399H84.2979V179.53H95.0186ZM90.6572 174.965V186.352H88.6699V174.965H90.6572Z" fill="#E5E5E5"/>
<path d="M136.749 12.6104V14.4795H126.028V12.6104H136.749ZM132.388 8.04492V19.4316H130.4V8.04492H132.388Z" fill="#E5E5E5"/>
<path d="M136.749 54.3403V56.2095H126.028V54.3403H136.749ZM132.388 49.7749V61.1616H130.4V49.7749H132.388Z" fill="#E5E5E5"/>
<path d="M136.749 96.0703V97.9395H126.028V96.0703H136.749ZM132.388 91.5049V102.892H130.4V91.5049H132.388Z" fill="#E5E5E5"/>
<path d="M136.749 137.8V139.669H126.028V137.8H136.749ZM132.388 133.235V144.622H130.4V133.235H132.388Z" fill="#E5E5E5"/>
<path d="M136.749 179.53V181.399H126.028V179.53H136.749ZM132.388 174.965V186.352H130.4V174.965H132.388Z" fill="#E5E5E5"/>
<path d="M178.479 12.6104V14.4795H167.758V12.6104H178.479ZM174.117 8.04492V19.4316H172.13V8.04492H174.117Z" fill="#E5E5E5"/>
<path d="M178.479 54.3403V56.2095H167.758V54.3403H178.479ZM174.117 49.7749V61.1616H172.13V49.7749H174.117Z" fill="#E5E5E5"/>
<path d="M178.479 96.0703V97.9395H167.758V96.0703H178.479ZM174.117 91.5049V102.892H172.13V91.5049H174.117Z" fill="#E5E5E5"/>
<path d="M178.479 137.8V139.669H167.758V137.8H178.479ZM174.117 133.235V144.622H172.13V133.235H174.117Z" fill="#E5E5E5"/>
<path d="M178.479 179.53V181.399H167.758V179.53H178.479ZM174.117 174.965V186.352H172.13V174.965H174.117Z" fill="#E5E5E5"/>
</svg>
