<svg width="246" height="267" viewBox="0 0 246 267" fill="none" xmlns="http://www.w3.org/2000/svg">
<path d="M11.5586 12.6104V14.4795H0.837891V12.6104H11.5586ZM7.19727 8.04492V19.4316H5.20996V8.04492H7.19727Z" fill="#02122C"/>
<path d="M11.5586 68.7888V70.6579H0.837891V68.7888H11.5586ZM7.19727 64.2234V75.6101H5.20996V64.2234H7.19727Z" fill="#E5E5E5"/>
<path d="M11.5586 124.967V126.836H0.837891V124.967H11.5586ZM7.19727 120.402V131.789H5.20996V120.402H7.19727Z" fill="#E5E5E5"/>
<path d="M67.7363 12.6104V14.4795H57.0156V12.6104H67.7363ZM63.375 8.04492V19.4316H61.3877V8.04492H63.375Z" fill="#E5E5E5"/>
<path d="M67.7363 68.7888V70.6579H57.0156V68.7888H67.7363ZM63.375 64.2234V75.6101H61.3877V64.2234H63.375Z" fill="#E5E5E5"/>
<path d="M67.7363 124.967V126.836H57.0156V124.967H67.7363ZM63.375 120.402V131.789H61.3877V120.402H63.375Z" fill="#E5E5E5"/>
<path d="M67.7363 181.146V183.015H57.0156V181.146H67.7363ZM63.375 176.58V187.967H61.3877V176.58H63.375Z" fill="#E5E5E5"/>
<path d="M123.916 12.6104V14.4795H113.195V12.6104H123.916ZM119.555 8.04492V19.4316H117.567V8.04492H119.555Z" fill="#E5E5E5"/>
<path d="M123.916 68.7888V70.6579H113.195V68.7888H123.916ZM119.555 64.2234V75.6101H117.567V64.2234H119.555Z" fill="#E5E5E5"/>
<path d="M123.916 124.967V126.836H113.195V124.967H123.916ZM119.555 120.402V131.789H117.567V120.402H119.555Z" fill="#0770E3"/>
<path d="M123.916 181.146V183.015H113.195V181.146H123.916ZM119.555 176.58V187.967H117.567V176.58H119.555Z" fill="#E5E5E5"/>
<path d="M123.916 237.324V239.193H113.195V237.324H123.916ZM119.555 232.759V244.145H117.567V232.759H119.555Z" fill="#E5E5E5"/>
<path d="M180.094 12.6104V14.4795H169.373V12.6104H180.094ZM175.732 8.04492V19.4316H173.745V8.04492H175.732Z" fill="#E5E5E5"/>
<path d="M180.094 68.7888V70.6579H169.373V68.7888H180.094ZM175.732 64.2234V75.6101H173.745V64.2234H175.732Z" fill="#E5E5E5"/>
<path d="M180.094 124.967V126.836H169.373V124.967H180.094ZM175.732 120.402V131.789H173.745V120.402H175.732Z" fill="#E5E5E5"/>
<path d="M180.094 181.146V183.015H169.373V181.146H180.094ZM175.732 176.58V187.967H173.745V176.58H175.732Z" fill="#E5E5E5"/>
<path d="M180.094 237.324V239.193H169.373V237.324H180.094ZM175.732 232.759V244.145H173.745V232.759H175.732Z" fill="#E5E5E5"/>
<path d="M236.273 12.6104V14.4795H225.553V12.6104H236.273ZM231.912 8.04492V19.4316H229.925V8.04492H231.912Z" fill="#E5E5E5"/>
<path d="M236.273 68.7888V70.6579H225.553V68.7888H236.273ZM231.912 64.2234V75.6101H229.925V64.2234H231.912Z" fill="#E5E5E5"/>
<path d="M236.273 124.967V126.836H225.553V124.967H236.273ZM231.912 120.402V131.789H229.925V120.402H231.912Z" fill="#E5E5E5"/>
<path d="M236.273 181.146V183.015H225.553V181.146H236.273ZM231.912 176.58V187.967H229.925V176.58H231.912Z" fill="#E5E5E5"/>
<path d="M236.273 237.324V239.193H225.553V237.324H236.273ZM231.912 232.759V244.145H229.925V232.759H231.912Z" fill="#E5E5E5"/>
</svg>
