<svg width="13" height="14" viewBox="0 0 13 14" fill="none" xmlns="http://www.w3.org/2000/svg">
<g clip-path="url(#clip0_177_4689)">
<path fill-rule="evenodd" clip-rule="evenodd" d="M11.6126 1.66634C11.9689 1.66634 12.2577 1.95517 12.2577 2.31147V3.60816H0.645508V2.31147C0.645508 1.95517 0.934339 1.66634 1.29063 1.66634H3.226V0.376099H4.51624V1.66634H8.38698V0.376099H9.67722V1.66634H11.6126ZM11.6126 13.2786H1.29064C0.934353 13.2786 0.645522 12.9898 0.645522 12.6335V4.89846H12.2577V12.6335C12.2577 12.9898 11.9689 13.2786 11.6126 13.2786ZM9.67725 6.82732H8.387V8.11756H9.67725V6.82732ZM8.387 9.40783H9.67725V10.6981H8.387V9.40783ZM7.09673 6.82732H5.80649V8.11756H7.09673V6.82732ZM5.80649 9.40783H7.09673V10.6981H5.80649V9.40783ZM4.51625 6.82732H3.226V8.11756H4.51625V6.82732ZM3.226 9.40783H4.51625V10.6981H3.226V9.40783Z" fill="#BABABA"/>
</g>
<defs>
<clipPath id="clip0_177_4689">
<rect width="12.9024" height="12.9024" fill="white" transform="translate(0 0.376099)"/>
</clipPath>
</defs>
</svg>
