<svg width="564" height="305" viewBox="0 0 564 305" fill="none" xmlns="http://www.w3.org/2000/svg">
<g filter="url(#filter0_d_516_496)">
<rect x="30" y="20" width="504" height="245" rx="10" fill="white"/>
</g>
<g clip-path="url(#clip0_516_496)">
<g clip-path="url(#clip1_516_496)">
<path d="M285.852 170.402H275.967C275.904 170.402 275.904 170.402 275.873 170.371L267.364 159.991L258.854 170.371C258.823 170.402 258.792 170.402 258.761 170.402H250.846C250.783 170.402 250.752 170.371 250.721 170.339C250.721 170.308 250.721 170.246 250.752 170.214L263.297 154.832L250.908 139.607C250.877 139.544 250.877 139.513 250.877 139.451C250.908 139.419 250.94 139.388 250.971 139.388H260.857C260.888 139.388 260.919 139.419 260.951 139.451L268.427 148.705L276.029 139.451C276.061 139.419 276.092 139.388 276.123 139.388H284.163C284.194 139.388 284.257 139.419 284.288 139.451C284.32 139.513 284.288 139.544 284.257 139.607L272.526 153.707L285.978 170.214C286.009 170.246 286.009 170.308 286.009 170.339C285.946 170.402 285.915 170.402 285.852 170.402Z" fill="#072F54"/>
<path d="M339.317 144.828C334.937 144.828 331.965 147.485 331.089 152.081H345.98V151.769C345.98 148.111 343.259 144.828 339.317 144.828M353.645 156.833C353.614 156.865 353.582 156.896 353.551 156.896H330.933C331.402 162.148 334.812 165.15 340.349 165.15C343.759 165.15 347.388 163.993 352.487 161.273C352.581 161.21 352.675 161.304 352.675 161.398V168.338C352.675 168.401 352.644 168.432 352.613 168.432C347.857 170.433 343.071 171.809 339.317 171.809C329.588 171.809 322.518 164.712 322.518 154.958C322.518 145.203 329.588 138.106 339.317 138.106C348.202 138.106 353.895 144.078 353.895 152.3C353.895 153.644 353.676 156.74 353.645 156.833" fill="#072F54"/>
<path d="M399.57 132.948C396.786 132.948 394.533 130.728 394.533 128.008C394.533 125.194 396.786 122.912 399.57 122.912C402.354 122.912 404.607 125.194 404.607 128.008C404.607 130.728 402.354 132.948 399.57 132.948ZM395.503 170.402C395.409 170.402 395.378 170.371 395.378 170.277V139.482C395.378 139.419 395.409 139.357 395.472 139.357H403.637C403.699 139.357 403.731 139.419 403.731 139.482V170.277C403.731 170.371 403.668 170.402 403.606 170.402H395.503Z" fill="#072F54"/>
<path d="M300.806 165.775C299.336 165.775 297.834 165.556 296.082 165.118L296.114 145.36C298.147 144.703 299.899 144.422 301.651 144.422C307.313 144.422 311.099 148.58 311.099 154.801C311.099 161.46 307.063 165.775 300.806 165.775M303.027 138.106C300.712 138.106 298.397 138.513 295.957 139.357H287.823C287.761 139.357 287.698 139.419 287.698 139.482V189.973C290.138 189.629 293.142 188.754 296.082 186.69V171.34C298.084 171.621 299.743 171.809 301.338 171.809C312.475 171.809 319.67 165.15 319.67 154.832C319.67 144.984 312.819 138.106 303.027 138.106" fill="#072F54"/>
<path d="M380.643 163.211C378.109 164.555 375.825 165.181 373.698 165.181C368.661 165.181 365.626 161.617 365.626 155.645C365.626 148.767 369.474 144.297 375.45 144.297C377.108 144.297 378.703 144.703 380.643 145.578V163.211V163.211ZM380.643 123.068V139.169C378.265 138.481 376.169 138.169 374.042 138.169C364.344 138.169 357.055 145.453 357.055 155.145C357.055 164.774 363.499 171.777 372.384 171.777C375.45 171.777 378.328 170.996 381.706 169.276V172.059C383.927 171.621 386.493 170.746 389.027 168.932V119.754C386.555 120.098 383.615 120.942 380.643 123.068" fill="#072F54"/>
<path d="M432.042 163.149C429.571 164.556 427.475 165.243 425.598 165.243C420.186 165.243 416.963 161.679 416.963 155.708C416.963 148.924 420.78 144.359 426.442 144.359C427.944 144.359 429.79 144.953 432.042 146.141V163.149V163.149ZM440.426 138.982C440.426 138.794 440.27 138.638 440.082 138.638H433.481C433.293 138.638 433.106 138.794 433.106 138.982V140.107H432.949C429.915 138.763 427.287 138.169 424.753 138.169C415.618 138.169 408.454 145.735 408.454 155.427C408.454 165.212 414.867 171.777 424.409 171.777C426.943 171.777 430.228 171.59 433.293 168.088V172.059C435.452 171.59 438.017 170.683 440.426 168.932V138.982V138.982Z" fill="#072F54"/>
<path d="M228.259 162.711H248.75C248.437 164.993 247.655 167.682 245.903 170.402H224.599C222.003 170.402 219.844 168.37 219.594 165.837C219.594 165.806 219.562 165.775 219.562 165.712V125.319C219.562 125.288 219.594 125.257 219.594 125.226C219.844 122.662 222.003 120.63 224.599 120.63H248.719C248.406 122.912 247.624 125.663 245.841 128.383H228.259V139.388H245.684C245.747 139.388 245.81 139.451 245.81 139.513V147.142C245.81 147.204 245.747 147.267 245.684 147.267H228.259V162.711V162.711Z" fill="#072F54"/>
<path d="M202.607 171.058C200.573 171.058 199.322 169.464 199.322 167.526C199.322 165.462 200.761 163.993 202.607 163.993C204.421 163.993 205.86 165.431 205.86 167.526C205.86 169.62 204.421 171.058 202.607 171.058ZM202.607 163.618C200.542 163.618 198.759 165.181 198.759 167.526C198.759 169.745 200.354 171.434 202.607 171.434C204.64 171.434 206.423 169.87 206.423 167.526C206.423 165.181 204.671 163.618 202.607 163.618Z" fill="#072F54"/>
<path d="M201.699 167.213V165.775H202.669C203.169 165.775 203.732 165.837 203.732 166.431C203.732 167.15 203.201 167.182 202.606 167.182C202.575 167.213 201.699 167.213 201.699 167.213ZM204.421 166.525C204.421 165.587 203.858 165.181 202.731 165.181H200.979V169.808H201.73V167.838H202.45L203.639 169.808H204.515L203.232 167.776C203.92 167.713 204.421 167.369 204.421 166.525" fill="#072F54"/>
<path d="M447.184 144.484C445.15 144.484 443.899 142.89 443.899 140.951C443.899 138.888 445.338 137.419 447.184 137.419C448.998 137.419 450.437 138.857 450.437 140.951C450.437 143.046 448.998 144.484 447.184 144.484ZM447.184 137.075C445.119 137.075 443.336 138.638 443.336 140.983C443.336 143.202 444.931 144.891 447.184 144.891C449.217 144.891 451 143.327 451 140.983C451 138.607 449.217 137.075 447.184 137.075" fill="#072F54"/>
<path d="M446.245 140.639V139.232H447.215C447.715 139.232 448.278 139.294 448.278 139.888C448.278 140.607 447.747 140.639 447.152 140.639H446.245ZM448.998 139.982C448.998 139.044 448.435 138.638 447.309 138.638H445.557V143.265H446.307V141.295H447.027L448.216 143.265H449.092L447.809 141.233C448.466 141.17 448.998 140.826 448.998 139.982" fill="#072F54"/>
<path d="M176.172 128.352L174.701 124.163L162.063 107.312L164.315 106.749L186.057 125.538L198.853 121.88C200.354 121.505 202.075 121.411 203.357 121.411C199.353 112.751 191.97 105.623 182.272 102.184C163.095 95.3375 141.979 105.373 135.159 124.569C133.031 130.509 132.562 136.637 133.438 142.452L164.065 131.822L176.172 128.352Z" fill="#072F54"/>
<path d="M204.734 124.725C203.608 125.444 201.95 126.414 200.323 126.945L187.497 130.603L178.956 158.053L176.735 158.772L178.549 137.825L177.548 133.479L165.535 136.918L133.751 144.328C136.285 156.521 144.919 167.182 157.527 171.652C176.735 178.499 197.82 168.463 204.671 149.267C207.612 141.045 207.424 132.416 204.734 124.725" fill="#072F54"/>
<path d="M177.516 133.448L178.518 137.794L176.703 158.74L178.924 158.021L187.465 130.572L200.291 126.914C201.918 126.382 203.576 125.444 204.702 124.694C204.295 123.569 203.857 122.474 203.357 121.38C202.043 121.38 200.354 121.443 198.852 121.849L186.057 125.507L164.315 106.717L162.062 107.28L174.67 124.131L176.14 128.321L164.033 131.791L133.406 142.421C133.5 143.046 133.625 143.703 133.75 144.328L165.503 136.856L177.516 133.448V133.448Z" fill="#FBC108"/>
</g>
</g>
<defs>
<filter id="filter0_d_516_496" x="0" y="0" width="564" height="305" filterUnits="userSpaceOnUse" color-interpolation-filters="sRGB">
<feFlood flood-opacity="0" result="BackgroundImageFix"/>
<feColorMatrix in="SourceAlpha" type="matrix" values="0 0 0 0 0 0 0 0 0 0 0 0 0 0 0 0 0 0 127 0" result="hardAlpha"/>
<feOffset dy="10"/>
<feGaussianBlur stdDeviation="15"/>
<feColorMatrix type="matrix" values="0 0 0 0 0 0 0 0 0 0 0 0 0 0 0 0 0 0 0.05 0"/>
<feBlend mode="normal" in2="BackgroundImageFix" result="effect1_dropShadow_516_496"/>
<feBlend mode="normal" in="SourceGraphic" in2="effect1_dropShadow_516_496" result="shape"/>
</filter>
<clipPath id="clip0_516_496">
<rect width="336" height="122" fill="white" transform="translate(114 81)"/>
</clipPath>
<clipPath id="clip1_516_496">
<rect width="318" height="90" fill="white" transform="translate(133 100)"/>
</clipPath>
</defs>
</svg>
