<svg width="70" height="70" viewBox="0 0 70 70" fill="none" xmlns="http://www.w3.org/2000/svg">
<g filter="url(#filter0_d_180_6074)">
<path fill-rule="evenodd" clip-rule="evenodd" d="M35 58C48.8071 58 60 46.8071 60 33C60 19.1929 48.8071 8 35 8C21.1929 8 10 19.1929 10 33C10 46.8071 21.1929 58 35 58Z" fill="white"/>
</g>
<path fill-rule="evenodd" clip-rule="evenodd" d="M39.5082 26.4109C39.0164 26.257 38.4508 26.1544 37.9344 26.1544C37.2951 26.1544 35.918 26.5904 35.918 27.4367V29.4628H39.1885V32.8737H35.918V42.2857H32.623V32.8737H31V29.4628H32.623V27.7445C32.623 25.1543 33.7541 23 36.4836 23C37.418 23 39.0902 23.0513 40 23.3847L39.5082 26.4109Z" fill="#0770E3"/>
<defs>
<filter id="filter0_d_180_6074" x="0" y="0" width="70" height="70" filterUnits="userSpaceOnUse" color-interpolation-filters="sRGB">
<feFlood flood-opacity="0" result="BackgroundImageFix"/>
<feColorMatrix in="SourceAlpha" type="matrix" values="0 0 0 0 0 0 0 0 0 0 0 0 0 0 0 0 0 0 127 0" result="hardAlpha"/>
<feOffset dy="2"/>
<feGaussianBlur stdDeviation="5"/>
<feColorMatrix type="matrix" values="0 0 0 0 0 0 0 0 0 0 0 0 0 0 0 0 0 0 0.1 0"/>
<feBlend mode="normal" in2="BackgroundImageFix" result="effect1_dropShadow_180_6074"/>
<feBlend mode="normal" in="SourceGraphic" in2="effect1_dropShadow_180_6074" result="shape"/>
</filter>
</defs>
</svg>
