<svg width="20" height="19" viewBox="0 0 20 19" fill="none" xmlns="http://www.w3.org/2000/svg">
<path d="M1.97795 0.421924L18.5329 8.33957C18.7003 8.41947 18.8416 8.5451 18.9405 8.70195C19.0394 8.85879 19.0919 9.04043 19.0919 9.22585C19.0919 9.41128 19.0394 9.59292 18.9405 9.74976C18.8416 9.9066 18.7003 10.0322 18.5329 10.1121L1.97795 18.0298C1.80823 18.1111 1.61874 18.1419 1.43202 18.1186C1.24529 18.0953 1.06919 18.0188 0.924671 17.8983C0.780152 17.7778 0.673296 17.6183 0.616817 17.4388C0.560338 17.2593 0.556615 17.0673 0.606089 16.8858L2.26237 10.8138C2.28265 10.7394 2.32438 10.6726 2.38237 10.6217C2.44035 10.5708 2.51202 10.5382 2.58845 10.5278L10.6106 9.43799C10.6441 9.43323 10.6759 9.41987 10.7027 9.39922C10.7295 9.37857 10.7506 9.35133 10.7638 9.32014L10.7779 9.27142C10.7841 9.22756 10.7753 9.18288 10.7529 9.14466C10.7305 9.10643 10.6959 9.0769 10.6546 9.06085L10.6114 9.04907L2.59709 7.95928C2.52081 7.94874 2.4493 7.91601 2.39147 7.86516C2.33364 7.81431 2.29202 7.74759 2.2718 7.67328L0.606089 1.56671C0.556414 1.3851 0.559986 1.19304 0.61638 1.01341C0.672773 0.833775 0.779612 0.674135 0.92417 0.553505C1.06873 0.432874 1.24491 0.356337 1.43174 0.333008C1.61857 0.30968 1.80816 0.340544 1.97795 0.421924Z" fill="white"/>
</svg>
