<svg width="323" height="213" viewBox="0 0 323 213" fill="none" xmlns="http://www.w3.org/2000/svg">
<path d="M216.233 13.281C223.468 23.4091 215.284 40.0394 225.941 47.6018C236.318 54.9635 248.833 42.5863 258.603 48.914C273.096 58.3014 270.927 101.976 250.169 129.316C243.928 137.538 238.673 140.766 236.427 150.015C231.607 169.873 249.404 181.468 246.145 191.297C238.803 213.434 122.533 233.166 75.1052 167.374C52.9547 136.646 49.2183 91.9794 68.3616 57.8217C102.952 -3.89976 200.002 -9.44546 216.233 13.281Z" fill="#F4F7FA"/>
<mask id="mask0_526_3574" style="mask-type:alpha" maskUnits="userSpaceOnUse" x="82" y="13" width="157" height="157">
<path d="M160.418 169.79C203.611 169.79 238.627 134.775 238.627 91.5816C238.627 48.388 203.611 13.3727 160.418 13.3727C117.224 13.3727 82.209 48.388 82.209 91.5816C82.209 134.775 117.224 169.79 160.418 169.79Z" fill="white"/>
</mask>
<g mask="url(#mask0_526_3574)">
<path d="M239.585 91.6484C239.585 108.407 234.321 123.954 225.397 136.752C225.361 136.804 225.236 136.855 225.236 136.907C211.233 157.424 187.238 170.718 160.322 170.718C158.121 170.718 156.012 170.615 153.855 170.317C153.847 170.317 153.843 170.448 153.834 170.448C152.773 170.36 151.72 170.32 150.675 170.19C150.299 170.146 149.93 170.131 149.56 170.079C149.23 170.035 148.904 170.004 148.577 169.955C148.292 169.914 148.009 169.88 147.729 169.832C147.665 169.821 147.601 169.814 147.538 169.805C146.847 169.691 146.158 169.573 145.472 169.441H145.461C108.866 162.448 81.2148 130.28 81.2148 91.6469C81.2148 83.4792 82.4022 75.5986 84.7002 68.1858C85.0596 67.0241 85.5078 65.8751 85.8055 64.7374C86.6989 62.8409 87.2982 60.9776 88.1208 59.1526C88.4517 58.4224 88.8179 57.696 89.166 56.9772C91.0905 53.0417 93.3377 49.2725 95.8848 45.7083C96.1149 45.3865 96.354 45.0661 96.5886 44.7458C97.5271 43.4695 98.5046 42.2232 99.5213 41.0071C101.041 39.1828 102.64 37.4283 104.316 35.7434C108.689 31.354 113.56 27.4906 118.829 24.2317C120.463 23.221 122.136 22.2685 123.849 21.3742C135.139 15.4857 147.688 12.4206 160.422 12.441C179.278 12.441 196.591 19.0281 210.194 30.027C220.195 38.1181 228.333 48.5936 233.451 60.5896C234.595 63.2695 235.369 66.024 236.561 68.8438C236.561 68.8566 236.424 68.8656 236.429 68.8784C238.588 76.0927 239.585 83.7348 239.585 91.6484Z" fill="url(#paint0_linear_526_3574)"/>
<g style="mix-blend-mode:soft-light">
<path d="M177.675 118.352C175.975 120.746 170.717 123.821 174.284 129.857C177.818 135.881 174.039 137.01 171.605 136.446C169.171 135.882 161.559 135.579 162.827 139.032C164.095 142.485 166.267 143.785 163.483 145.122C160.698 146.459 159.522 149.923 156.674 154.701C153.846 159.488 147.124 155.348 149.114 160.145C151.103 164.942 152.648 164.48 152.464 167.824C152.42 168.743 153.03 169.686 153.854 170.583C152.793 170.495 151.728 170.387 150.67 170.258C150.297 170.214 149.925 170.166 149.554 170.114C149.225 170.07 148.899 170.023 148.572 169.973C148.287 169.932 148.004 169.888 147.723 169.841C147.659 169.831 147.676 169.82 147.613 169.811C146.936 169.697 146.58 169.574 145.686 169.444C145.09 168.878 145.461 168.265 145.553 167.602C146.441 161.427 137.922 157.185 136.494 152.858C135.091 148.542 136.477 145.968 136.152 142.392C135.827 138.816 136.988 134.089 134.932 131.081C132.877 128.084 124.595 127.079 123.018 121.03C121.43 114.993 125.123 105.952 126.557 104.411C127.973 102.872 119.699 95.8684 115.761 95.6451C111.805 95.4037 113.387 87.4397 106.7 88.6519C99.9981 89.8272 87.96 86.0884 90.4467 82.067C92.4988 78.7531 95.9435 71.4448 84.6973 68.1866C85.0567 67.024 85.5026 65.8751 85.8004 64.7373C86.6937 62.8409 87.293 60.9776 88.1157 59.1526C88.4465 58.4224 88.8127 57.696 89.1609 56.9771C91.087 53.0426 93.3342 49.2736 95.8796 45.7083C96.1097 45.3865 96.3489 45.0661 96.5835 44.7458C97.5239 43.4695 98.5015 42.2232 99.5161 41.0071C101.036 39.1828 102.634 37.4282 104.311 35.7434C108.684 31.354 113.555 27.4906 118.824 24.2316C121.051 25.7927 123.596 26.7552 125.793 25.5694C131.18 22.554 127.629 22.0916 125.423 21.9795C124.847 21.9438 124.297 21.734 123.843 21.378C128.016 19.199 132.377 17.4003 136.873 16.0037C136.537 19.0454 132.404 23.9309 135.444 23.3338C138.983 22.657 140.428 13.0981 143.027 16.2759C145.662 19.4665 140.143 23.6451 145.326 21.2246C150.515 18.8258 151.209 13.4711 156.994 16.0759C162.807 18.7138 162.277 21.8367 163.899 21.5276C165.522 21.2185 170.742 24.7354 167.584 27.6252C164.394 30.524 161.468 26.8319 156.686 25.7175C151.901 24.6166 152.017 28.5313 149.816 29.4254C147.577 30.2894 136.778 25.0708 134.126 29.7879C131.447 34.4665 130.307 37.7315 134.284 37.6082C138.262 37.4849 138.514 36.4682 138.203 39.4061C137.892 42.344 138.609 44.548 142.209 41.7831C145.81 39.0181 144.991 36.3299 147.801 37.6473C150.61 38.9647 150.941 37.7721 153.927 35.6035C156.913 33.4348 160.839 33.2085 161.868 38.0744C162.896 42.9403 161.138 44.0344 155.887 44.2803C150.637 44.5262 150.042 42.8787 148.368 47.2686C146.694 51.6585 139.757 57.3005 133.659 59.6255C127.56 61.9506 125.186 65.3946 125.326 70.0364C125.467 74.6782 123.182 79.5923 121.654 75.7595C120.126 71.9268 115.816 65.4427 111.427 69.7687C107.038 74.0947 99.3732 81.7677 107.833 83.1686C116.275 84.5973 111.87 76.6875 116.137 78.2681C120.405 79.8487 113.438 83.3468 116.288 84.6048C119.141 85.8749 120.336 85.2816 120.314 89.1685C120.292 93.0553 121.259 96.8279 124.721 95.1789C128.183 93.5298 132.626 85.9185 137.632 90.425C142.638 94.9315 142.29 94.354 144.919 93.0388C147.547 91.7236 149.219 95.6631 150.295 97.4573C151.371 99.2515 155.596 97.4197 159.018 102.757C162.44 108.094 163.78 109.046 167.681 107.125C171.582 105.205 173.17 106.631 174.189 109.326C175.208 112.021 177.605 109.388 178.763 112.949C179.921 116.51 179.363 115.955 177.675 118.352Z" fill="white"/>
<path d="M191.033 53.6896C188.268 47.7559 201.968 48.4259 204.389 48.8771C206.825 49.2824 212.539 44.8165 213.266 42.7396C214.011 40.6476 215.234 41.641 219.569 41.5816C223.903 41.5357 220.074 40.5551 215.304 38.9828C210.535 37.4104 214.614 37.2578 210.226 33.7943C208.338 32.2768 208.932 30.988 210.191 30.0292C220.274 38.1788 228.209 48.6713 233.306 60.5918C233.173 60.55 233.036 60.5265 232.897 60.5219C229.862 60.5046 229.194 53.7949 227.633 52.488C226.092 51.1833 227.677 56.1725 228.055 58.2239C228.432 60.2752 227.223 58.551 225.71 60.4339C224.197 62.3168 221.447 62.3552 221.198 59.5263C220.949 56.6974 218.957 53.9325 214.92 52.6436C210.883 51.3548 207.39 52.4135 204.11 53.6783C200.846 54.922 193.818 59.5767 191.033 53.6896Z" fill="white"/>
<path d="M225.429 136.907C225.703 134.87 226.151 132.765 225.3 131.995C223.232 130.076 222.78 124.852 223.495 122.2C224.21 119.549 229.781 119.696 226.001 115.282C222.21 110.859 218.794 105.61 220.386 102.608C221.977 99.6064 221.495 99.3914 218.511 99.4094C215.527 99.4275 214.213 99.5598 211.237 96.9009C208.259 94.2081 204.164 103.256 192.956 95.9985C181.752 88.6707 188.132 76.3183 192.331 76.2882C196.557 76.2175 201.493 74.0842 198.031 68.931C194.579 63.7583 199.973 63.0282 202.608 64.2035C205.249 65.366 209.93 62.2431 214.701 60.8355C219.484 59.4346 219.273 67.2271 221.929 68.7844C224.6 70.3455 229.604 69.1063 232.205 66.6113C234.062 64.8306 234.467 66.9075 236.303 68.8784C238.516 76.2657 239.637 83.9368 239.631 91.6484C239.631 108.476 234.379 124.08 225.429 136.907Z" fill="white"/>
<path d="M205.383 43.8134C205.383 43.8081 208.877 42.2343 207.612 39.6927C206.358 37.1525 204.369 29.3675 202.915 31.8204C201.462 34.2733 203.608 39.07 203.141 41.1342C202.673 43.1983 202.65 44.2894 205.383 43.8134Z" fill="white"/>
<path d="M201.896 41.4364C201.847 40.6183 202.362 37.2947 199.747 37.3984C199.752 37.3932 195.964 38.9775 198.18 41.6598C200.396 44.342 201.957 42.2531 201.896 41.4364Z" fill="white"/>
</g>
<path style="mix-blend-mode:multiply" opacity="0.3" d="M239.375 91.5101C239.375 108.269 234.217 123.816 225.292 136.613C225.258 136.658 225.239 136.712 225.236 136.768C210.936 157.286 187.133 170.517 160.218 170.517C158.019 170.512 155.823 170.356 153.646 170.051V170.051C153.638 170.051 153.633 170.247 153.624 170.247C152.563 170.159 151.511 170.148 150.466 170.021C150.09 169.978 149.721 169.979 149.35 169.927C149.022 169.882 148.695 169.861 148.368 169.811C148.082 169.769 147.8 169.736 147.519 169.693C147.455 169.681 147.392 169.676 147.328 169.668C146.638 169.554 145.949 169.435 145.263 169.304H145.252C111.414 162.837 85.2203 134.823 81.4688 100.096C89.4042 122.858 109.027 139.962 133.152 144.729H133.161C133.753 145.03 134.347 144.967 134.943 145.065C134.998 145.072 135.056 145.092 135.11 145.1C135.352 145.14 135.597 145.18 135.843 145.215C136.123 145.259 136.406 145.295 136.691 145.331C137.011 145.377 137.332 145.407 137.654 145.443C138.557 145.554 139.467 145.761 140.384 145.835C140.393 145.835 140.397 145.921 140.403 145.921C142.265 145.921 144.12 146.071 146.021 146.071C157.644 146.071 168.596 143.117 178.179 138.019C187.736 132.92 195.94 125.615 202.108 116.71C202.108 116.663 202.184 116.602 202.211 116.556C209.919 105.506 214.429 92.071 214.429 77.5989C214.435 70.9399 213.468 64.3157 211.557 57.9367C211.557 57.9254 211.53 57.9119 211.53 57.9013C210.935 55.4672 209.975 53.0888 208.988 50.775C205.179 41.8497 199.518 33.8353 192.378 27.2628C185.239 20.6904 176.785 15.7097 167.575 12.6508C183.105 14.0774 197.863 20.0794 209.98 29.8969C219.981 37.988 228.075 48.4628 233.194 60.4595C234.338 63.1395 235.067 65.8931 236.259 68.713C236.259 68.7265 236.167 68.7348 236.171 68.7483C238.334 75.9543 239.375 83.5957 239.375 91.5101Z" fill="url(#paint1_linear_526_3574)"/>
</g>
<path d="M139.232 109.003H139.217C138.982 109.003 138.799 108.762 138.806 108.528C139.264 95.2361 135.851 84.6155 128.663 77.0049C117.568 65.2526 101.124 64.7292 100.958 64.7254C100.724 64.7202 100.538 64.5562 100.543 64.3216C100.548 64.087 100.738 63.9374 100.968 63.9374H100.978C101.147 63.9374 117.946 64.4314 129.281 76.4387C136.631 84.2237 140.122 95.0474 139.658 108.574C139.656 108.687 139.61 108.794 139.531 108.873C139.451 108.953 139.344 109 139.232 109.003V109.003Z" fill="white"/>
<path d="M162.756 124.238C162.657 124.238 162.561 124.204 162.485 124.141C162.409 124.078 162.358 123.99 162.339 123.893C161.259 118.264 158.718 114.146 154.789 111.651C147.699 107.152 138.367 109.462 138.274 109.486C138.22 109.5 138.163 109.503 138.108 109.495C138.052 109.487 137.999 109.468 137.951 109.44C137.903 109.411 137.861 109.373 137.827 109.328C137.794 109.284 137.769 109.232 137.755 109.178C137.742 109.124 137.739 109.067 137.747 109.012C137.755 108.956 137.773 108.903 137.802 108.855C137.831 108.807 137.869 108.765 137.913 108.731C137.958 108.698 138.009 108.673 138.064 108.659C138.458 108.559 147.834 106.231 155.239 110.927C159.375 113.552 162.047 117.859 163.174 123.73C163.195 123.841 163.171 123.955 163.108 124.049C163.045 124.142 162.948 124.206 162.837 124.228C162.81 124.234 162.783 124.237 162.756 124.238V124.238Z" fill="white"/>
<path d="M163.591 125.141C163.483 125.141 163.379 125.099 163.3 125.025C163.221 124.951 163.174 124.85 163.167 124.741C163.16 124.64 162.594 114.467 166.845 103.972C169.348 97.7943 173.004 92.7096 177.713 88.858C183.596 84.0455 191.138 81.1723 200.128 80.3075C200.185 80.2999 200.243 80.3038 200.298 80.3189C200.353 80.3341 200.405 80.3603 200.45 80.3959C200.494 80.4315 200.532 80.4757 200.559 80.5261C200.586 80.5764 200.603 80.6317 200.609 80.6887C200.614 80.7457 200.608 80.8032 200.591 80.8578C200.573 80.9124 200.545 80.9629 200.508 81.0064C200.471 81.0499 200.425 81.0854 200.374 81.1108C200.322 81.1362 200.267 81.151 200.209 81.1542C184.188 82.695 173.228 90.4785 167.633 104.29C163.454 114.608 164.009 124.589 164.015 124.688C164.019 124.744 164.011 124.8 163.993 124.853C163.975 124.905 163.947 124.954 163.91 124.996C163.873 125.038 163.828 125.072 163.778 125.097C163.728 125.121 163.673 125.136 163.618 125.139L163.591 125.141Z" fill="white"/>
<path d="M140.19 112.143C142.194 111.611 143.388 109.554 142.856 107.55C142.323 105.545 140.267 104.352 138.262 104.884C136.258 105.416 135.064 107.473 135.597 109.477C136.129 111.482 138.185 112.675 140.19 112.143Z" fill="url(#paint2_linear_526_3574)"/>
<path d="M165.411 126.467C166.878 125.001 166.878 122.623 165.411 121.157C163.945 119.69 161.567 119.69 160.101 121.157C158.634 122.623 158.634 125.001 160.101 126.467C161.567 127.934 163.945 127.934 165.411 126.467Z" fill="url(#paint3_linear_526_3574)"/>
<path d="M201.851 84.0715C203.706 83.1438 204.458 80.888 203.53 79.0331C202.602 77.1782 200.346 76.4264 198.491 77.3541C196.637 78.2818 195.885 80.5375 196.813 82.3925C197.74 84.2474 199.996 84.9991 201.851 84.0715Z" fill="url(#paint4_linear_526_3574)"/>
<path d="M104.696 64.754C104.95 62.6956 103.487 60.8214 101.428 60.5679C99.3698 60.3145 97.4956 61.7777 97.2422 63.8361C96.9887 65.8945 98.4519 67.7687 100.51 68.0222C102.569 68.2757 104.443 66.8124 104.696 64.754Z" fill="url(#paint5_linear_526_3574)"/>
<path d="M160.918 28.2269C159.51 26.719 157.808 25.5166 155.916 24.6944C154.024 23.8722 151.984 23.4477 149.921 23.4474H147.5C147.159 23.4474 146.823 23.5343 146.524 23.6999C146.225 23.8655 145.973 24.1045 145.792 24.3943C145.611 24.6841 145.507 25.0151 145.489 25.3564C145.471 25.6976 145.541 26.0377 145.691 26.3447L157.404 50.3457H181.563L160.918 28.2269Z" fill="url(#paint6_linear_526_3574)"/>
<path d="M207.381 55.6485C205.89 52.6728 203.601 50.1706 200.77 48.4218C197.938 46.6731 194.676 45.7468 191.348 45.7467H146.059C144.577 45.7472 143.122 45.3449 141.851 44.583C140.58 43.8211 139.539 42.7281 138.84 41.4207L133.982 32.3288C133.678 31.7608 133.226 31.2858 132.673 30.9548C132.121 30.6237 131.488 30.4488 130.844 30.4489H126.052C125.954 30.4491 125.857 30.4742 125.772 30.5219C125.686 30.5697 125.614 30.6385 125.562 30.7218C125.51 30.8052 125.48 30.9003 125.475 30.9983C125.47 31.0963 125.491 31.194 125.534 31.2821L136.761 54.0454C137.534 55.6132 138.73 56.9334 140.214 57.8566C141.698 58.7798 143.411 59.2691 145.159 59.2692H205.145C205.572 59.2693 205.991 59.1603 206.363 58.9526C206.736 58.7449 207.049 58.4453 207.273 58.0825C207.497 57.7197 207.624 57.3055 207.643 56.8795C207.662 56.4535 207.572 56.0297 207.381 55.6485V55.6485Z" fill="white"/>
<path d="M176.465 51.8549H158.785C158.37 51.855 157.964 51.9715 157.612 52.1913C157.261 52.411 156.978 52.7252 156.796 53.0979L146.312 74.5738C146.096 75.0167 145.996 75.5072 146.022 75.9993C146.047 76.4914 146.198 76.9689 146.459 77.3868C146.72 77.8047 147.083 78.1493 147.514 78.3882C147.945 78.6271 148.43 78.7525 148.923 78.7524H149.921C151.984 78.7527 154.025 78.3286 155.917 77.5063C157.809 76.6841 159.512 75.4814 160.919 73.973L178.087 55.5801C179.406 54.1642 178.402 51.8549 176.465 51.8549Z" fill="url(#paint7_linear_526_3574)"/>
<path d="M195.106 53.225H205.915C204.256 50.9115 202.069 49.0266 199.536 47.7262C197.003 46.4258 194.197 45.7473 191.349 45.7468H188.383L191.382 51.0526C191.755 51.7119 192.296 52.2605 192.951 52.6421C193.605 53.0238 194.349 53.2249 195.106 53.225V53.225Z" fill="url(#paint8_linear_526_3574)"/>
<path d="M130.438 135.096C126.442 138.856 116.212 137.381 109.056 135.876C107.77 135.609 106.582 135.337 105.549 135.096C98.7636 133.512 103.989 100.554 104.29 97.2724C104.404 96.0076 105.387 95.5294 107.155 95.3767C109.982 95.1361 114.811 95.7287 121.311 95.2722C131.877 94.5338 133.54 98.635 133.54 98.635C134.145 100.196 135.15 130.659 130.438 135.096Z" fill="url(#paint9_linear_526_3574)"/>
<path style="mix-blend-mode:multiply" opacity="0.5" d="M110.536 104.778C110.359 110.781 110.787 130.796 109.056 135.876C107.77 135.609 106.582 135.337 105.549 135.096C98.7636 133.512 103.989 100.554 104.29 97.2724C104.404 96.0076 105.387 95.5294 107.155 95.3767C107.384 95.6275 107.597 95.8932 107.792 96.1723C111.487 101.4 110.749 97.7018 110.536 104.778Z" fill="url(#paint10_linear_526_3574)"/>
<path d="M159.471 129.13C159.471 129.13 160.08 127.831 161.718 126.963C163.357 126.094 165.464 128.986 165.532 129.718C165.6 130.45 164.694 130.056 164.116 129.999C163.538 129.943 162.151 131.946 160.668 131.775C159.186 131.603 159.471 129.13 159.471 129.13Z" fill="url(#paint11_linear_526_3574)"/>
<path d="M102.296 140.075C102.296 140.075 103.826 140.618 104.984 142.37C106.142 144.122 103.113 146.813 102.296 146.969C101.48 147.126 101.824 146.062 101.824 145.405C101.824 144.748 99.4177 143.403 99.4456 141.713C99.4734 140.023 102.296 140.075 102.296 140.075Z" fill="url(#paint12_linear_526_3574)"/>
<path d="M142.867 108.329C142.352 103.881 139.558 99.9554 135.347 98.1447C133.433 97.3175 131.451 96.9536 129.823 97.7093C129.823 97.7093 127.68 114.328 137.217 122.78C146.755 131.232 160.354 131.041 160.354 131.041L160.363 125.863C160.363 125.863 144.86 125.539 142.867 108.329Z" fill="url(#paint13_linear_526_3574)"/>
<path d="M125.242 196.787C123.888 197.881 123.813 198.658 123.856 199.036C123.927 199.647 124.387 199.884 125.488 201.036C126.977 202.594 126.749 202.803 127.507 203.367C129.181 204.611 131.549 204.529 131.691 204.105C131.791 203.805 130.721 203.566 129.502 202.156C128.753 201.297 128.204 200.282 127.896 199.185C127.748 198.631 127.667 198.062 127.654 197.489L125.242 196.787Z" fill="url(#paint14_linear_526_3574)"/>
<path d="M129.773 193.455L127.109 198.098C126.467 198.381 125.854 198.239 125.285 197.411L126.324 191.764L129.773 193.455Z" fill="url(#paint15_linear_526_3574)"/>
<path d="M133.002 133.918C135.598 138.298 139.808 146.754 140.659 158.188C141.499 169.473 138.653 178.073 137.461 181.281C135.226 187.291 131.34 193.601 129.084 196.609C127.561 195.972 126.665 194.974 125.143 194.337C125.368 193.51 126.078 190.774 126.521 189.144C126.866 187.882 127.499 185.546 127.631 185.047C128.724 180.868 127.861 177.731 128.162 172.564C128.513 166.535 129.891 167.236 129.686 163.616C129.376 158.212 126.314 156.95 122.798 149.127C120.392 143.773 117.864 138.149 120.187 135.074C123.111 131.202 132.009 133.638 133.002 133.918Z" fill="url(#paint16_linear_526_3574)"/>
<path d="M114.223 201.033C113.412 201.549 112.921 202.776 113.291 203.548C113.655 204.308 114.581 204.068 116.831 204.759C119.237 205.499 119.718 206.248 121.493 206.246C122.211 206.246 123.512 206.122 123.621 205.639C123.696 205.3 123.145 204.963 121.326 203.741C118.744 202.006 118.769 201.957 118.194 201.691C116.748 201.023 115.294 200.352 114.223 201.033Z" fill="url(#paint17_linear_526_3574)"/>
<path d="M118.078 197.357L117.089 201.875C116.95 202.077 115.542 202.561 114.555 201.875L114.919 197.357H118.078Z" fill="url(#paint18_linear_526_3574)"/>
<path style="mix-blend-mode:multiply" opacity="0.3" d="M120.288 134.345C123.2 130.525 132.189 132.828 133.192 133.096C134.625 135.405 135.884 137.818 136.958 140.314C133.774 139.735 132.4 140.299 131.764 141.039C129.295 143.907 137.164 150.117 135.645 159.663C135.051 163.397 133.426 165.09 133.765 169.641C134.019 173.025 135.118 174.732 135.887 177.206C136.439 178.995 136.73 180.856 136.751 182.729C134.548 187.552 131.637 192.148 129.8 194.574C128.261 193.964 127.349 192.994 125.809 192.383C126.035 191.569 126.719 188.882 127.152 187.281C127.487 186.041 128.106 183.747 128.233 183.256C129.297 179.149 128.4 176.084 128.657 171.015C128.957 165.103 130.355 165.777 130.113 162.232C129.752 156.938 126.654 155.73 123.045 148.095C120.572 142.869 117.974 137.38 120.288 134.345Z" fill="url(#paint19_linear_526_3574)"/>
<path d="M126.053 136.292C126.342 147.869 125.745 159.45 124.265 170.935C123.04 180.453 121.211 189.884 118.791 199.17C118.49 199.339 117.442 199.882 116.098 199.628C115.403 199.494 114.756 199.175 114.226 198.705C114.566 196.267 114.66 193.802 114.505 191.345C114.169 186.018 112.914 184.932 112.376 179.419C111.904 174.583 112.401 170.634 112.643 168.802C113.385 163.163 114.393 163.049 114.412 159.674C114.443 154.475 112.066 152.614 110.76 147.66C109.888 144.356 109.426 139.423 111.618 132.66L126.053 136.292Z" fill="url(#paint20_linear_526_3574)"/>
<path style="mix-blend-mode:multiply" opacity="0.3" d="M111.628 132.059L115.897 133.062C115.177 135.557 114.497 139.297 115.394 143.528C116.63 149.37 119.702 150.627 120.201 155.901C120.652 160.646 118.352 161.635 117.306 167.979C116.235 174.48 117.974 177.517 118.382 182.943C118.661 186.656 118.307 191.521 116.037 197.456C115.604 197.294 115.201 197.059 114.847 196.761C115.168 194.37 115.24 191.952 115.063 189.546C114.675 184.328 113.402 183.276 112.807 177.877C112.288 173.143 112.753 169.268 112.98 167.471C113.678 161.939 114.692 161.817 114.682 158.507C114.667 153.413 112.255 151.61 110.894 146.768C109.992 143.539 109.479 138.708 111.628 132.059Z" fill="url(#paint21_linear_526_3574)"/>
<path d="M134.048 98.5567C135.388 99.6238 136.557 100.888 137.517 102.307C140.455 106.664 140.386 111.073 140.35 112.302C140.26 115.31 139.44 115.51 138.577 119.478C136.994 126.766 137.382 137.044 139.452 141.673C139.538 141.852 139.571 142.05 139.549 142.247C139.01 146.52 108.822 145.828 109.215 140.129C109.47 136.412 111.88 134.744 112.354 125.766C112.6 121.104 111.55 119.632 110.719 112.111C110.222 107.64 110.039 103.14 110.171 98.644C116.317 95.9325 123.109 95.0327 129.748 96.0505C131.327 96.6066 132.786 97.457 134.048 98.5567V98.5567Z" fill="url(#paint22_linear_526_3574)"/>
<path style="mix-blend-mode:multiply" opacity="0.3" d="M117.495 115.078C120.798 116.172 125.197 119.289 125.527 123.338C126.034 129.551 116.543 133.05 117.851 137.395C118.208 138.58 119.311 139.641 126.463 142.078C129.357 143.064 132.044 143.865 134.483 144.526C125.771 145.856 107.845 144.194 109.217 140.128C113.353 127.839 113.896 122.085 112.94 114.486C114.482 114.402 116.026 114.602 117.495 115.078Z" fill="url(#paint23_linear_526_3574)"/>
<path d="M125.925 89.0422C125.656 92.6704 124.556 94.6864 123.601 95.1331C122.698 95.5519 122.141 95.1331 120.235 95.9234C119.757 96.1212 119.656 96.5092 119.687 96.7844C119.868 98.3966 128.033 97.5228 129.437 97.1529C129.513 97.1326 129.706 97.0777 129.731 96.9566C129.825 96.519 127.543 96.1964 127.015 94.9451C126.802 94.439 126.818 93.6427 127.685 92.3433C127.098 91.242 126.511 90.1416 125.925 89.0422Z" fill="url(#paint24_linear_526_3574)"/>
<path d="M130.48 89.9401C131.291 89.1836 131.599 87.7173 131.007 86.6871C130.5 85.8013 129.495 85.5517 128.893 85.402C127.149 84.9689 124.772 85.39 123.704 86.8683C123.071 87.7436 123.719 89.8228 123.811 90.1935C123.917 90.6123 124.214 90.7905 124.458 91.1289C124.795 91.5981 125.321 92.3433 126.175 93.5856C126.349 93.198 126.555 92.8259 126.792 92.4734C127.103 92.0105 127.471 91.5879 127.886 91.2154C129.018 90.2499 129.711 90.6567 130.48 89.9401Z" fill="url(#paint25_linear_526_3574)"/>
<path d="M124.843 92.4598C124.843 92.4598 125.676 94.466 128.032 94.6269C130.142 94.7713 131.266 90.2972 130.111 89.1632C129.724 88.7872 128.858 88.5353 128.099 88.6369C127.647 88.6963 127.474 88.8489 126.74 88.9316C126.063 89.0068 125.892 88.9151 125.667 89.0482C125.386 89.2151 125.119 89.6783 125.287 91.0521C124.96 90.6107 124.509 90.3979 124.142 90.5077C124.016 90.5527 123.903 90.6306 123.817 90.7333C123.432 91.2078 123.8 91.9312 124.843 92.4598Z" fill="url(#paint26_linear_526_3574)"/>
<path d="M125.62 88.764C125.708 88.8497 125.335 89.1715 125.219 89.6813C124.993 90.6702 125.82 92.0026 126.866 92.244C127.485 92.3869 127.724 92.044 128.785 92.0748C129.298 92.0905 129.805 92.1867 130.289 92.3598C130.417 93.4938 129.913 94.5405 129.064 94.9466C128.151 95.3827 127.172 94.9165 126.762 94.721C126.487 94.5901 125.609 94.1735 125.272 93.2855C124.921 92.3591 125.514 91.9071 125.037 91.2492C124.797 90.9168 124.435 90.7394 124.162 90.1212C124.103 89.9887 124.056 89.8517 124.02 89.7114C124.655 89.2324 125.494 88.6406 125.62 88.764Z" fill="url(#paint27_linear_526_3574)"/>
<path d="M111.899 95.6218C111.899 95.6218 119.332 93.0148 119.911 99.7726C120.49 106.53 115.959 122.375 110.542 123.204C108.972 120.308 109.775 118.784 111.512 117.001C113.25 115.219 119.043 99.3004 111.899 97.992L110.98 98.4793C110.98 98.4793 109.775 96.9129 111.899 95.6218Z" fill="url(#paint28_linear_526_3574)"/>
<path d="M120.265 103.968C120.231 104.063 120.162 104.142 120.072 104.188C119.982 104.234 119.877 104.244 119.78 104.216C118.377 103.832 116.897 103.832 115.494 104.216C115.397 104.244 115.292 104.234 115.202 104.188C115.112 104.142 115.042 104.063 115.008 103.968V103.968C114.994 103.918 114.991 103.865 114.998 103.813C115.005 103.761 115.022 103.712 115.049 103.667C115.076 103.622 115.112 103.583 115.154 103.553C115.196 103.522 115.244 103.501 115.295 103.49C116.827 103.071 118.444 103.071 119.976 103.49C120.027 103.501 120.075 103.522 120.117 103.553C120.16 103.583 120.195 103.622 120.222 103.667C120.249 103.712 120.266 103.761 120.273 103.813C120.28 103.865 120.276 103.918 120.262 103.968H120.265Z" fill="white"/>
<path d="M130.574 96.3536C130.574 96.3536 143.115 104.183 138.47 120.074C138.47 120.074 143.212 111.343 139.894 103.162C137.547 97.3807 131.853 94.5624 130.574 96.3536Z" fill="url(#paint29_linear_526_3574)"/>
<path d="M140.899 105.233C140.856 105.43 140.719 105.534 140.59 105.481C140.162 105.291 139.698 105.194 139.23 105.194C138.761 105.194 138.298 105.291 137.869 105.481C137.74 105.536 137.602 105.431 137.56 105.233C137.518 105.036 137.6 104.817 137.743 104.754C138.211 104.547 138.717 104.44 139.229 104.44C139.741 104.44 140.248 104.547 140.716 104.754C140.859 104.817 140.941 105.036 140.899 105.233V105.233Z" fill="white"/>
<path d="M110.171 98.6447C110.171 98.6447 94.863 106.324 93.0801 118.757C91.2972 131.19 99.1394 141.993 99.1394 141.993L103.538 139.071C103.538 139.071 93.4448 124.053 112.775 112.068C112.775 112.068 114.827 101.266 110.171 98.6447Z" fill="url(#paint30_linear_526_3574)"/>
<path d="M105.255 98.1011C106.517 97.3394 107.771 98.3455 108.695 97.4379C109.849 96.3039 109.474 93.1788 107.793 91.62C106.575 90.492 105.414 90.874 101.176 90.0702C99.7122 89.7935 97.7165 89.4152 96.5262 88.9423C91.3249 86.8811 92.5777 79.5165 88.496 75.9815C83.7895 71.9044 72.2846 73.1729 66.5178 80.3489C59.9156 88.5633 63.7416 100.901 70.1806 106.271C74.2412 109.655 79.6004 109.701 90.3271 109.793C101.024 109.886 102.792 107.537 103.289 106.694C105.001 103.785 103.021 99.4494 105.255 98.1011Z" fill="#26264F"/>
<path d="M69.425 104.722C69.4905 104.722 69.5538 104.699 69.6042 104.657C69.6547 104.616 69.689 104.558 69.7014 104.493C69.7137 104.429 69.7033 104.362 69.672 104.305C69.6406 104.248 69.5903 104.203 69.5295 104.178C63.4033 101.734 62.1287 91.1478 62.116 91.041C62.1118 91.0042 62.1004 90.9687 62.0824 90.9364C62.0645 90.904 62.0404 90.8755 62.0114 90.8525C61.9825 90.8295 61.9493 90.8124 61.9138 90.8023C61.8782 90.7921 61.841 90.789 61.8043 90.7932C61.7675 90.7974 61.732 90.8088 61.6997 90.8267C61.6673 90.8447 61.6388 90.8688 61.6158 90.8977C61.5928 90.9267 61.5758 90.9599 61.5656 90.9954C61.5554 91.031 61.5523 91.0682 61.5565 91.1049C61.8285 93.0821 62.3073 95.0253 62.9852 96.9025C64.4568 100.937 66.648 103.635 69.322 104.703C69.3548 104.715 69.3897 104.722 69.425 104.722V104.722Z" fill="#26264F"/>
<path d="M96.8212 132.893C93.4133 136.295 84.6883 134.96 78.5854 133.599C77.4883 133.357 76.4747 133.111 75.5934 132.893C69.8071 131.46 74.2639 101.656 74.5211 98.6876C74.6181 97.5439 75.4558 97.1085 76.9642 96.9739C79.375 96.7558 83.4942 97.292 89.0369 96.8791C98.0484 96.2114 99.4673 99.9193 99.4673 99.9193C99.9832 101.332 100.84 128.881 96.8212 132.893Z" fill="url(#paint31_linear_526_3574)"/>
<path style="mix-blend-mode:multiply" opacity="0.5" d="M79.848 105.476C79.6976 110.904 80.0615 129.004 78.5854 133.6C77.4883 133.358 76.4747 133.112 75.5934 132.894C69.8071 131.461 74.2639 101.657 74.5211 98.6884C74.6181 97.5446 75.4558 97.1093 76.9642 96.9747C77.1612 97.2022 77.3428 97.4426 77.5079 97.6943C80.6586 102.421 80.0292 99.0771 79.848 105.476Z" fill="url(#paint32_linear_526_3574)"/>
<path d="M118.075 127.968C119.517 126.013 119.794 123.331 119.203 121.206C118.204 117.614 115.341 117.843 113.85 113.739C112.885 111.084 113.69 109.904 112.3 107.963C111.278 106.534 109.174 104.838 107.684 105.233C103.224 106.417 101.217 127.115 108.356 130.645C111.212 132.059 115.909 130.904 118.075 127.968Z" fill="url(#paint33_linear_526_3574)"/>
<path d="M101.356 133.373C105.91 134.746 106.62 143.573 107.063 149.005C107.558 155.121 108.108 161.935 104.196 168.038C99.2762 175.714 89.088 179.473 78.2598 178.396L78.5959 176.299C89.7083 172.063 92.7425 167.293 93.508 163.791C95.136 156.337 87.1652 151.55 89.2218 143.467C90.7754 137.372 97.3242 132.156 101.356 133.373Z" fill="url(#paint34_linear_526_3574)"/>
<path d="M85.517 139.241C87.9879 135.597 90.3972 131.912 92.811 128.232C93.2854 127.509 93.5629 126.669 93.6922 125.789C94.702 126.594 95.6161 127.511 96.4166 128.524C99.3415 139.365 100.916 150.525 101.104 161.752C101.255 170.152 99.3522 195.554 98.4356 201.937C98.0995 202.007 97.9777 201.132 97.634 201.198C97.2152 201.278 97.1076 202.039 96.6993 202.11C95.4804 189.22 94.081 177.584 93.3749 171.604C93.1358 169.574 92.429 163.488 89.17 158.586C89.1173 158.507 84.2958 151.913 82.6279 149.279C82.0745 148.402 81.3812 147.264 80.5977 145.744C82.4655 143.779 83.9627 141.533 85.517 139.241Z" fill="url(#paint35_linear_526_3574)"/>
<path d="M96.6083 195.123C96.797 194.687 97.8385 195.783 98.8078 196.941L98.4318 201.94C98.7762 201.721 99.2101 201.482 99.6996 201.369C100.288 201.233 101.306 201.444 101.384 201.726C101.866 203.462 97.5362 203.842 97.0617 203.296C96.9224 203.135 96.8179 202.946 96.7549 202.742C96.6918 202.538 96.6716 202.324 96.6955 202.112C97.1347 199.61 97.0768 197.915 96.8685 196.745C96.7256 195.923 96.506 195.365 96.6083 195.123Z" fill="url(#paint36_linear_526_3574)"/>
<path d="M98.4346 201.94C98.0985 202.009 97.9767 201.134 97.633 201.2C97.2142 201.28 97.1067 202.041 96.6983 202.113C96.2524 197.399 95.7832 192.857 95.332 188.695C96.7908 188.524 98.2722 188.48 99.734 188.463C99.2693 194.379 98.7813 199.523 98.4346 201.94Z" fill="url(#paint37_linear_526_3574)"/>
<path style="mix-blend-mode:multiply" opacity="0.25" d="M85.517 139.241C87.9879 135.597 90.3972 131.912 92.811 128.232C93.2854 127.509 93.5629 126.669 93.6922 125.789C94.702 126.594 95.6161 127.511 96.4166 128.524C98.4504 136.062 99.8311 143.76 100.543 151.534C98.0198 151.384 95.6135 152.872 94.9037 154.645C93.4366 158.311 98.0619 161.182 98.0145 168.869C97.9889 173.08 96.4835 174.138 97.1686 178.003C97.346 179 97.8453 181.193 97.6257 184.205C97.5287 185.527 97.422 185.239 97.3407 186.434C97.1099 189.838 97.922 192.969 97.5663 195.095C97.4829 195.614 97.3184 196.117 97.0791 196.586C96.8642 196.999 96.5907 197.379 96.267 197.714C95.1668 186.613 93.9998 176.894 93.3749 171.604C93.1358 169.574 92.429 163.488 89.17 158.586C89.1173 158.507 84.2958 151.913 82.6279 149.279C82.0745 148.402 81.3812 147.264 80.5977 145.744C82.4655 143.779 83.9627 141.533 85.517 139.241Z" fill="url(#paint38_linear_526_3574)"/>
<path d="M113.686 122.096L113.353 121.409C113.353 121.409 112.55 120.33 112.225 119.604C111.9 118.878 111.97 118.287 112.641 117.83C113.312 117.373 113.952 118.131 114.513 118.788C114.856 119.186 114.889 120.021 114.862 120.697C114.84 121.172 115.177 122.119 115.177 122.119L113.686 122.096Z" fill="white"/>
<path d="M111.085 107.384C112.638 110.232 112.462 113.07 112.289 114.311C111.762 118.173 109.431 120.778 108.863 121.476C106.168 124.765 104.635 132.335 109.473 150.976C108.363 151.464 103.688 156.101 102.989 153.032C102.037 148.848 100.314 120.837 100.364 153.459C100.364 153.888 99.5001 153.553 99.0526 153.588C95.4008 153.88 91.7267 153.489 88.2177 152.437C82.0516 150.58 77.9407 147.128 75.8359 145.063C79.4366 140.666 82.3819 135.77 84.5805 130.529C89.575 118.596 89.4336 107.775 88.8839 101.804C91.1729 101.033 98.321 98.947 105.122 102.243C106.817 103.064 109.449 104.387 111.085 107.384Z" fill="url(#paint39_linear_526_3574)"/>
<path d="M100.578 123.162L101.268 122.834C101.268 122.834 102.353 122.04 103.081 121.719C103.81 121.399 104.4 121.476 104.852 122.15C105.304 122.825 104.536 123.458 103.875 124.015C103.474 124.353 102.639 124.383 101.964 124.348C101.489 124.323 100.535 124.649 100.535 124.649L100.578 123.162Z" fill="white"/>
<path d="M78.5978 176.299C81.3109 175.265 83.539 174.194 85.373 173.125C85.8942 174.807 86.1402 176.561 86.1016 178.321C83.4991 178.635 80.8698 178.66 78.2617 178.396L78.5978 176.299Z" fill="url(#paint40_linear_526_3574)"/>
<path d="M78.8404 176.725L78.5975 176.303C78.5975 176.303 78.1621 176.042 77.9561 176.583C77.75 177.124 76.5792 179.945 76.5176 181.225C76.8244 181.991 77.6929 181.342 77.8711 180.821C78.0493 180.3 78.6712 178.37 78.6712 178.37L78.8404 176.725Z" fill="url(#paint41_linear_526_3574)"/>
<path style="mix-blend-mode:multiply" opacity="0.3" d="M84.5805 130.532C88.438 121.316 89.2283 112.773 89.1366 106.604C91.2548 107.642 93.9491 109.392 94.4755 112.094C95.1688 115.659 91.5173 117.983 92.5745 120.5C93.8799 123.61 100.286 122.052 101.627 125.211C102.369 126.957 101.083 129.012 98.9143 132.476C96.996 135.54 95.3801 138.289 92.1519 139.943C87.5018 142.325 84.8436 140.961 82.1509 143.327C80.6838 144.613 79.9191 146.38 79.5371 148.166C78.2247 147.231 76.9873 146.195 75.8359 145.068C79.4368 140.669 82.3821 135.773 84.5805 130.532Z" fill="url(#paint42_linear_526_3574)"/>
<path d="M101.883 96.0986C101.883 96.7001 101.862 99.923 100.43 100.452C100.117 100.567 99.8659 100.494 98.4748 100.527C97.6838 100.548 97.0393 100.59 96.625 100.622C96.7166 101.342 96.8852 102.051 97.1281 102.735C98.9094 107.749 104.677 111.232 106.631 109.977C107.649 109.325 107.727 107.364 107.758 106.551C107.795 105.615 107.638 104.681 107.298 103.808C106.583 103.288 105.852 102.768 105.103 102.246C104.614 101.906 104.128 101.572 103.644 101.245C103.676 100.628 103.709 100.012 103.742 99.3952L101.883 96.0986Z" fill="url(#paint43_linear_526_3574)"/>
<path d="M101.258 97.2866C101.258 97.2866 101.251 99.9388 103.369 100.801C105.264 101.574 107.751 97.1227 107.002 95.6782C106.752 95.1962 106.004 94.6307 105.279 94.4999C104.77 94.4074 102.654 94.3946 102.055 96.0564C101.877 95.5301 101.522 95.1909 101.153 95.1872C101.024 95.1925 100.899 95.234 100.792 95.3067C100.31 95.6526 100.447 96.4625 101.258 97.2866Z" fill="white"/>
<path d="M115.469 121.488L113.213 121.84C112.934 122.029 109.585 124.381 109.904 127.757C109.946 128.196 110.101 129.856 111.243 130.504C113.004 131.504 116.577 129.789 117.371 126.982C117.903 125.101 117.118 122.968 115.469 121.488Z" fill="url(#paint44_linear_526_3574)"/>
<path d="M105.292 92.8878C105.336 92.8878 105.38 92.8773 105.42 92.8571C105.459 92.8369 105.494 92.8076 105.52 92.7716C105.546 92.7356 105.563 92.6939 105.57 92.6499C105.577 92.6059 105.574 92.5609 105.56 92.5186C105.535 92.4434 104.941 90.6958 102.569 90.101C102.225 90.0153 101.858 89.9333 101.482 89.8499C99.5007 89.4085 97.2554 88.9084 97.2125 87.4549C97.2071 87.3812 97.1743 87.3123 97.1205 87.2616C97.0668 87.211 96.9961 87.1823 96.9223 87.1812C96.8475 87.1835 96.7768 87.2154 96.7255 87.2698C96.6742 87.3242 96.6465 87.3967 96.6485 87.4714C96.7057 89.3633 99.1781 89.9138 101.36 90.3995C101.73 90.4823 102.093 90.5627 102.432 90.6484C104.489 91.1635 105.004 92.6321 105.024 92.6945C105.043 92.7506 105.079 92.7995 105.127 92.8341C105.175 92.8688 105.232 92.8875 105.292 92.8878V92.8878Z" fill="#26264F"/>
<path d="M92.3517 100.891C92.3517 100.891 101.618 108.567 86.5684 121.488L87.118 123.095C87.118 123.095 105.438 113.861 96.4919 100.222C96.4919 100.222 94.4083 100.356 92.3517 100.891Z" fill="url(#paint45_linear_526_3574)"/>
<path d="M93.4214 102.046C91.4851 101.563 91.4746 100.933 88.8849 101.805C81.4472 104.308 73.5727 115.534 77.6423 123.462C79.9057 127.87 85.3288 131.845 91.3084 130.929C96.1758 130.182 99.034 126.557 99.7612 125.575C100.043 124.448 100.325 123.32 100.606 122.191C97.4346 123.989 95.2005 123.988 93.7034 123.599C91.1543 122.937 90.5888 121.111 86.3771 119.514C84.7363 118.891 83.7505 118.762 83.7001 118.246C83.5963 117.178 87.7216 116.823 90.3218 114.582C92.2175 112.951 94.1095 109.624 93.4214 102.046Z" fill="url(#paint46_linear_526_3574)"/>
<path d="M107.766 103.737C107.766 103.737 113.087 107.665 107.836 123.095C107.836 123.095 115.033 116.727 111.082 106.622L107.766 103.737Z" fill="url(#paint47_linear_526_3574)"/>
<defs>
<linearGradient id="paint0_linear_526_3574" x1="152.585" y1="100.366" x2="204.458" y2="42.2674" gradientUnits="userSpaceOnUse">
<stop stop-color="#6165D7"/>
<stop offset="1" stop-color="#AA80F9"/>
</linearGradient>
<linearGradient id="paint1_linear_526_3574" x1="81.4627" y1="91.5815" x2="239.375" y2="91.5815" gradientUnits="userSpaceOnUse">
<stop stop-color="#FFC444"/>
<stop offset="1" stop-color="#F36F56"/>
</linearGradient>
<linearGradient id="paint2_linear_526_3574" x1="81.935" y1="83.3849" x2="278.106" y2="169.402" gradientUnits="userSpaceOnUse">
<stop stop-color="#444B8C"/>
<stop offset="1" stop-color="#26264F"/>
</linearGradient>
<linearGradient id="paint3_linear_526_3574" x1="80.0988" y1="87.5685" x2="276.27" y2="173.586" gradientUnits="userSpaceOnUse">
<stop stop-color="#444B8C"/>
<stop offset="1" stop-color="#26264F"/>
</linearGradient>
<linearGradient id="paint4_linear_526_3574" x1="101.968" y1="37.6724" x2="298.14" y2="123.689" gradientUnits="userSpaceOnUse">
<stop stop-color="#444B8C"/>
<stop offset="1" stop-color="#26264F"/>
</linearGradient>
<linearGradient id="paint5_linear_526_3574" x1="92.0291" y1="60.3712" x2="288.201" y2="146.388" gradientUnits="userSpaceOnUse">
<stop stop-color="#444B8C"/>
<stop offset="1" stop-color="#26264F"/>
</linearGradient>
<linearGradient id="paint6_linear_526_3574" x1="160.4" y1="25.5364" x2="169.348" y2="61.3281" gradientUnits="userSpaceOnUse">
<stop stop-color="white"/>
<stop offset="1" stop-color="#D8DEE8"/>
</linearGradient>
<linearGradient id="paint7_linear_526_3574" x1="157.53" y1="82.0302" x2="173.092" y2="26.7877" gradientUnits="userSpaceOnUse">
<stop stop-color="white"/>
<stop offset="1" stop-color="#D8DEE8"/>
</linearGradient>
<linearGradient id="paint8_linear_526_3574" x1="198.921" y1="45.6212" x2="193.58" y2="57.2668" gradientUnits="userSpaceOnUse">
<stop stop-color="#311944"/>
<stop offset="1" stop-color="#6B3976"/>
</linearGradient>
<linearGradient id="paint9_linear_526_3574" x1="135.024" y1="102.943" x2="104.516" y2="125.191" gradientUnits="userSpaceOnUse">
<stop stop-color="#311944"/>
<stop offset="1" stop-color="#893976"/>
</linearGradient>
<linearGradient id="paint10_linear_526_3574" x1="116.459" y1="109.047" x2="99.0411" y2="121.749" gradientUnits="userSpaceOnUse">
<stop stop-color="#311944"/>
<stop offset="1" stop-color="#893976"/>
</linearGradient>
<linearGradient id="paint11_linear_526_3574" x1="158.085" y1="130.449" x2="169.505" y2="136.53" gradientUnits="userSpaceOnUse">
<stop stop-color="#FFC444"/>
<stop offset="1" stop-color="#F36F56"/>
</linearGradient>
<linearGradient id="paint12_linear_526_3574" x1="103.096" y1="140.747" x2="97.5581" y2="154.232" gradientUnits="userSpaceOnUse">
<stop stop-color="#FFC444"/>
<stop offset="1" stop-color="#F36F56"/>
</linearGradient>
<linearGradient id="paint13_linear_526_3574" x1="146.135" y1="112.476" x2="109.77" y2="177.773" gradientUnits="userSpaceOnUse">
<stop stop-color="#FFC444"/>
<stop offset="1" stop-color="#F36F56"/>
</linearGradient>
<linearGradient id="paint14_linear_526_3574" x1="132.311" y1="200.883" x2="124.707" y2="201.263" gradientUnits="userSpaceOnUse">
<stop stop-color="#444B8C"/>
<stop offset="1" stop-color="#26264F"/>
</linearGradient>
<linearGradient id="paint15_linear_526_3574" x1="125.947" y1="192.085" x2="130.116" y2="198.88" gradientUnits="userSpaceOnUse">
<stop stop-color="#FFC444"/>
<stop offset="1" stop-color="#F36F56"/>
</linearGradient>
<linearGradient id="paint16_linear_526_3574" x1="140.603" y1="199.507" x2="124.225" y2="141.53" gradientUnits="userSpaceOnUse">
<stop stop-color="#311944"/>
<stop offset="1" stop-color="#6B3976"/>
</linearGradient>
<linearGradient id="paint17_linear_526_3574" x1="123.629" y1="203.498" x2="113.166" y2="203.498" gradientUnits="userSpaceOnUse">
<stop stop-color="#444B8C"/>
<stop offset="1" stop-color="#26264F"/>
</linearGradient>
<linearGradient id="paint18_linear_526_3574" x1="117.935" y1="202.966" x2="113.903" y2="194.62" gradientUnits="userSpaceOnUse">
<stop stop-color="#FFC444"/>
<stop offset="1" stop-color="#F36F56"/>
</linearGradient>
<linearGradient id="paint19_linear_526_3574" x1="141.17" y1="197.525" x2="124.53" y2="140.792" gradientUnits="userSpaceOnUse">
<stop stop-color="#AA80F9"/>
<stop offset="1" stop-color="#6165D7"/>
</linearGradient>
<linearGradient id="paint20_linear_526_3574" x1="124.106" y1="173.753" x2="100.352" y2="136.306" gradientUnits="userSpaceOnUse">
<stop stop-color="#311944"/>
<stop offset="1" stop-color="#6B3976"/>
</linearGradient>
<linearGradient id="paint21_linear_526_3574" x1="121.528" y1="174.202" x2="97.8579" y2="137.698" gradientUnits="userSpaceOnUse">
<stop stop-color="#AA80F9"/>
<stop offset="1" stop-color="#6165D7"/>
</linearGradient>
<linearGradient id="paint22_linear_526_3574" x1="133.308" y1="105.332" x2="96.9415" y2="170.63" gradientUnits="userSpaceOnUse">
<stop stop-color="#FFC444"/>
<stop offset="1" stop-color="#F36F56"/>
</linearGradient>
<linearGradient id="paint23_linear_526_3574" x1="136.646" y1="82.3903" x2="120.558" y2="141.72" gradientUnits="userSpaceOnUse">
<stop stop-color="#FFC444"/>
<stop offset="1" stop-color="#F36F56"/>
</linearGradient>
<linearGradient id="paint24_linear_526_3574" x1="121.948" y1="102.504" x2="129.721" y2="86.3178" gradientUnits="userSpaceOnUse">
<stop stop-color="#FFC444"/>
<stop offset="1" stop-color="#F36F56"/>
</linearGradient>
<linearGradient id="paint25_linear_526_3574" x1="121.336" y1="98.771" x2="128.551" y2="86.3281" gradientUnits="userSpaceOnUse">
<stop stop-color="#311944"/>
<stop offset="1" stop-color="#6B3976"/>
</linearGradient>
<linearGradient id="paint26_linear_526_3574" x1="127.273" y1="89.534" x2="125.315" y2="108.539" gradientUnits="userSpaceOnUse">
<stop stop-color="#FFC444"/>
<stop offset="1" stop-color="#F36F56"/>
</linearGradient>
<linearGradient id="paint27_linear_526_3574" x1="122.803" y1="99.4716" x2="129.88" y2="87.2644" gradientUnits="userSpaceOnUse">
<stop stop-color="#311944"/>
<stop offset="1" stop-color="#6B3976"/>
</linearGradient>
<linearGradient id="paint28_linear_526_3574" x1="121.792" y1="101.938" x2="106.574" y2="113.036" gradientUnits="userSpaceOnUse">
<stop stop-color="#444B8C"/>
<stop offset="1" stop-color="#26264F"/>
</linearGradient>
<linearGradient id="paint29_linear_526_3574" x1="140.463" y1="103.844" x2="132.596" y2="109.581" gradientUnits="userSpaceOnUse">
<stop stop-color="#444B8C"/>
<stop offset="1" stop-color="#26264F"/>
</linearGradient>
<linearGradient id="paint30_linear_526_3574" x1="116.09" y1="95.7432" x2="79.7243" y2="161.042" gradientUnits="userSpaceOnUse">
<stop stop-color="#FFC444"/>
<stop offset="1" stop-color="#F36F56"/>
</linearGradient>
<linearGradient id="paint31_linear_526_3574" x1="101.136" y1="104.184" x2="74.376" y2="123.699" gradientUnits="userSpaceOnUse">
<stop stop-color="#311944"/>
<stop offset="1" stop-color="#893976"/>
</linearGradient>
<linearGradient id="paint32_linear_526_3574" x1="85.2771" y1="109.414" x2="69.7063" y2="120.77" gradientUnits="userSpaceOnUse">
<stop stop-color="#311944"/>
<stop offset="1" stop-color="#893976"/>
</linearGradient>
<linearGradient id="paint33_linear_526_3574" x1="121.347" y1="108.457" x2="107.118" y2="121.982" gradientUnits="userSpaceOnUse">
<stop stop-color="#FF9085"/>
<stop offset="1" stop-color="#FB6FBB"/>
</linearGradient>
<linearGradient id="paint34_linear_526_3574" x1="66.7822" y1="188.438" x2="104.154" y2="146.422" gradientUnits="userSpaceOnUse">
<stop stop-color="#40447E"/>
<stop offset="1" stop-color="#1C2C5A"/>
</linearGradient>
<linearGradient id="paint35_linear_526_3574" x1="102.876" y1="148.06" x2="90.7248" y2="172.064" gradientUnits="userSpaceOnUse">
<stop stop-color="#40447E"/>
<stop offset="1" stop-color="#3C3B6B"/>
</linearGradient>
<linearGradient id="paint36_linear_526_3574" x1="100.956" y1="189.733" x2="96.9647" y2="214.246" gradientUnits="userSpaceOnUse">
<stop stop-color="#AB316D"/>
<stop offset="1" stop-color="#792D3D"/>
</linearGradient>
<linearGradient id="paint37_linear_526_3574" x1="98.3714" y1="189.275" x2="94.3547" y2="213.947" gradientUnits="userSpaceOnUse">
<stop stop-color="#AB316D"/>
<stop offset="1" stop-color="#792D3D"/>
</linearGradient>
<linearGradient id="paint38_linear_526_3574" x1="96.8437" y1="144.192" x2="89.0203" y2="170.705" gradientUnits="userSpaceOnUse">
<stop stop-color="#40447E"/>
<stop offset="1" stop-color="#3C3B6B"/>
</linearGradient>
<linearGradient id="paint39_linear_526_3574" x1="106.327" y1="122.42" x2="60.0092" y2="149.859" gradientUnits="userSpaceOnUse">
<stop stop-color="#FF9085"/>
<stop offset="1" stop-color="#FB6FBB"/>
</linearGradient>
<linearGradient id="paint40_linear_526_3574" x1="92.2402" y1="170.782" x2="70.6011" y2="185.471" gradientUnits="userSpaceOnUse">
<stop stop-color="#AB316D"/>
<stop offset="1" stop-color="#792D3D"/>
</linearGradient>
<linearGradient id="paint41_linear_526_3574" x1="91.5106" y1="169.707" x2="69.8714" y2="184.397" gradientUnits="userSpaceOnUse">
<stop stop-color="#AB316D"/>
<stop offset="1" stop-color="#792D3D"/>
</linearGradient>
<linearGradient id="paint42_linear_526_3574" x1="103.122" y1="116.343" x2="56.3879" y2="144.028" gradientUnits="userSpaceOnUse">
<stop stop-color="#FF9085"/>
<stop offset="1" stop-color="#FB6FBB"/>
</linearGradient>
<linearGradient id="paint43_linear_526_3574" x1="98.5116" y1="112.505" x2="107.225" y2="93.2248" gradientUnits="userSpaceOnUse">
<stop stop-color="white"/>
<stop offset="1" stop-color="#D8DEE8"/>
</linearGradient>
<linearGradient id="paint44_linear_526_3574" x1="111.567" y1="121.973" x2="117.554" y2="134.864" gradientUnits="userSpaceOnUse">
<stop stop-color="#FF9085"/>
<stop offset="1" stop-color="#FB6FBB"/>
</linearGradient>
<linearGradient id="paint45_linear_526_3574" x1="99.3073" y1="105.185" x2="84.9471" y2="115.658" gradientUnits="userSpaceOnUse">
<stop stop-color="#311944"/>
<stop offset="1" stop-color="#893976"/>
</linearGradient>
<linearGradient id="paint46_linear_526_3574" x1="94.1418" y1="114.164" x2="71.3477" y2="128.607" gradientUnits="userSpaceOnUse">
<stop stop-color="#FF9085"/>
<stop offset="1" stop-color="#FB6FBB"/>
</linearGradient>
<linearGradient id="paint47_linear_526_3574" x1="105.559" y1="111.995" x2="115.472" y2="118.277" gradientUnits="userSpaceOnUse">
<stop stop-color="#311944"/>
<stop offset="1" stop-color="#893976"/>
</linearGradient>
</defs>
</svg>
