<svg width="69" height="69" viewBox="0 0 69 69" fill="none" xmlns="http://www.w3.org/2000/svg">
<g filter="url(#filter0_d_180_6065)">
<path fill-rule="evenodd" clip-rule="evenodd" d="M34.5 57C48.031 57 59 46.031 59 32.5C59 18.969 48.031 8 34.5 8C20.969 8 10 18.969 10 32.5C10 46.031 20.969 57 34.5 57Z" fill="white"/>
</g>
<path d="M39.9855 20.6987H29.0139C25.4431 20.6987 22.5381 23.6036 22.5381 27.1744V38.1459C22.5381 41.7165 25.4431 44.6214 29.0139 44.6214H39.9857C43.5563 44.6214 46.4613 41.7165 46.4613 38.1459V27.1744C46.4613 23.6036 43.5563 20.6987 39.9855 20.6987V20.6987ZM45.0588 38.1459C45.0588 40.9432 42.783 43.219 39.9855 43.219H29.0139C26.2164 43.219 23.9406 40.9432 23.9406 38.1459V27.1744C23.9406 24.377 26.2164 22.1012 29.0139 22.1012H39.9857C42.783 22.1012 45.0588 24.377 45.0588 27.1744V38.1459Z" fill="#0770E3"/>
<path d="M34.5002 26.1187C30.8933 26.1187 27.959 29.053 27.959 32.6598C27.959 36.2667 30.8933 39.201 34.5002 39.201C38.1072 39.201 41.0415 36.2667 41.0415 32.6598C41.0415 29.053 38.1072 26.1187 34.5002 26.1187ZM34.5002 37.7985C31.6668 37.7985 29.3615 35.4934 29.3615 32.6598C29.3615 29.8265 31.6668 27.5211 34.5002 27.5211C37.3338 27.5211 39.639 29.8265 39.639 32.6598C39.639 35.4934 37.3338 37.7985 34.5002 37.7985Z" fill="#0770E3"/>
<path d="M41.1975 23.7954C40.1316 23.7954 39.2646 24.6625 39.2646 25.7282C39.2646 26.7941 40.1316 27.6613 41.1975 27.6613C42.2634 27.6613 43.1305 26.7941 43.1305 25.7282C43.1305 24.6624 42.2634 23.7954 41.1975 23.7954ZM41.1975 26.2586C40.9051 26.2586 40.6671 26.0206 40.6671 25.7282C40.6671 25.4357 40.9051 25.1979 41.1975 25.1979C41.4901 25.1979 41.728 25.4357 41.728 25.7282C41.728 26.0206 41.4901 26.2586 41.1975 26.2586Z" fill="#0770E3"/>
<defs>
<filter id="filter0_d_180_6065" x="0" y="0" width="69" height="69" filterUnits="userSpaceOnUse" color-interpolation-filters="sRGB">
<feFlood flood-opacity="0" result="BackgroundImageFix"/>
<feColorMatrix in="SourceAlpha" type="matrix" values="0 0 0 0 0 0 0 0 0 0 0 0 0 0 0 0 0 0 127 0" result="hardAlpha"/>
<feOffset dy="2"/>
<feGaussianBlur stdDeviation="5"/>
<feColorMatrix type="matrix" values="0 0 0 0 0 0 0 0 0 0 0 0 0 0 0 0 0 0 0.1 0"/>
<feBlend mode="normal" in2="BackgroundImageFix" result="effect1_dropShadow_180_6065"/>
<feBlend mode="normal" in="SourceGraphic" in2="effect1_dropShadow_180_6065" result="shape"/>
</filter>
</defs>
</svg>
