<svg width="69" height="69" viewBox="0 0 69 69" fill="none" xmlns="http://www.w3.org/2000/svg">
<g filter="url(#filter0_d_180_6059)">
<path fill-rule="evenodd" clip-rule="evenodd" d="M34.5 57C48.031 57 59 46.031 59 32.5C59 18.969 48.031 8 34.5 8C20.969 8 10 18.969 10 32.5C10 46.031 20.969 57 34.5 57Z" fill="white"/>
</g>
<path d="M47.0825 39.7643V39.7634H47.0875V32.3395C47.0875 28.7077 46.3057 25.91 42.0598 25.91C40.0186 25.91 38.6489 27.0301 38.0897 28.092H38.0306V26.2491H34.0049V39.7634H38.1968V33.0716C38.1968 31.3097 38.5308 29.606 40.7128 29.606C42.8627 29.606 42.8948 31.6167 42.8948 33.1847V39.7643H47.0825Z" fill="#0770E3"/>
<path d="M27.1787 26.2499H31.3756V39.7642H27.1787V26.2499Z" fill="#0770E3"/>
<path d="M29.2755 19.5214C27.9336 19.5214 26.8447 20.6102 26.8447 21.9521C26.8447 23.2941 27.9336 24.4057 29.2755 24.4057C30.6174 24.4057 31.7063 23.2941 31.7063 21.9521C31.7055 20.6102 30.6166 19.5214 29.2755 19.5214V19.5214Z" fill="#0770E3"/>
<defs>
<filter id="filter0_d_180_6059" x="0" y="0" width="69" height="69" filterUnits="userSpaceOnUse" color-interpolation-filters="sRGB">
<feFlood flood-opacity="0" result="BackgroundImageFix"/>
<feColorMatrix in="SourceAlpha" type="matrix" values="0 0 0 0 0 0 0 0 0 0 0 0 0 0 0 0 0 0 127 0" result="hardAlpha"/>
<feOffset dy="2"/>
<feGaussianBlur stdDeviation="5"/>
<feColorMatrix type="matrix" values="0 0 0 0 0 0 0 0 0 0 0 0 0 0 0 0 0 0 0.1 0"/>
<feBlend mode="normal" in2="BackgroundImageFix" result="effect1_dropShadow_180_6059"/>
<feBlend mode="normal" in="SourceGraphic" in2="effect1_dropShadow_180_6059" result="shape"/>
</filter>
</defs>
</svg>
