<svg width="16" height="22" viewBox="0 0 16 22" fill="none" xmlns="http://www.w3.org/2000/svg">
<path d="M8 0C5.87904 0.00270323 3.84566 0.914156 2.34592 2.53442C0.846168 4.15468 0.00251067 6.35146 8.51118e-06 8.64286C-0.00253177 10.5154 0.56363 12.3371 1.61164 13.8286C1.61164 13.8286 1.82982 14.1389 1.86546 14.1837L8 22L14.1374 14.1798C14.1694 14.1381 14.3884 13.8286 14.3884 13.8286L14.3891 13.8262C15.4366 12.3354 16.0025 10.5145 16 8.64286C15.9975 6.35146 15.1538 4.15468 13.6541 2.53442C12.1543 0.914156 10.121 0.00270323 8 0ZM8 11.7857C7.42464 11.7857 6.86219 11.6014 6.3838 11.256C5.9054 10.9107 5.53254 10.4199 5.31235 9.84558C5.09217 9.27129 5.03456 8.63937 5.14681 8.02972C5.25906 7.42006 5.53612 6.86006 5.94296 6.42052C6.34981 5.98098 6.86816 5.68166 7.43247 5.56039C7.99677 5.43912 8.58169 5.50136 9.11326 5.73924C9.64483 5.97711 10.0992 6.37994 10.4188 6.89678C10.7385 7.41362 10.9091 8.02126 10.9091 8.64286C10.9081 9.47608 10.6013 10.2749 10.056 10.864C9.51062 11.4532 8.77124 11.7847 8 11.7857Z" fill="#999999"/>
</svg>
