<svg width="274" height="81" viewBox="0 0 274 81" fill="none" xmlns="http://www.w3.org/2000/svg">
<g clip-path="url(#clip0_129_37)">
<path d="M155.812 62.664C155.529 62.6696 155.246 62.6236 154.979 62.5284C154.727 62.4319 154.486 62.3108 154.258 62.1668C154.286 61.9746 154.303 61.7769 154.314 61.6017C154.325 61.4265 154.314 61.2344 154.314 61.0932C154.378 61.075 154.445 61.0636 154.511 61.0593H154.725C154.734 61.2904 154.783 61.5181 154.872 61.7317C154.946 61.9131 155.076 62.0657 155.244 62.1668C155.448 62.2757 155.677 62.3284 155.908 62.3193C156.18 62.345 156.452 62.2617 156.663 62.0877C156.736 62.0134 156.794 61.9252 156.833 61.8281C156.872 61.731 156.89 61.6271 156.888 61.5226C156.9 61.3184 156.835 61.1172 156.708 60.9575C156.575 60.8025 156.412 60.6757 156.229 60.5846C156.038 60.4829 155.829 60.3812 155.615 60.2851C155.402 60.1857 155.195 60.0725 154.996 59.9461C154.804 59.8232 154.643 59.6591 154.523 59.4658C154.391 59.244 154.327 58.989 154.337 58.7312C154.33 58.4703 154.394 58.2124 154.523 57.9854C154.65 57.777 154.836 57.6117 155.058 57.5107C155.315 57.3917 155.597 57.3337 155.88 57.3412C156.204 57.3463 156.526 57.4035 156.832 57.5107C156.945 57.5579 157.055 57.6146 157.159 57.6803C157.159 57.8328 157.159 58.0023 157.159 58.2001C157.159 58.3979 157.159 58.5617 157.198 58.6973C157.133 58.7222 157.065 58.7393 156.995 58.7482H156.77C156.737 58.5156 156.671 58.2891 156.573 58.0758C156.507 57.9396 156.401 57.8271 156.269 57.7537C156.142 57.6929 156.003 57.662 155.863 57.6633C155.633 57.6496 155.406 57.7221 155.227 57.8667C155.148 57.9376 155.087 58.0251 155.047 58.1229C155.007 58.2207 154.99 58.3263 154.996 58.4318C154.989 58.6363 155.055 58.8365 155.182 58.9968C155.315 59.1526 155.475 59.2828 155.655 59.3811C155.852 59.4884 156.055 59.5901 156.269 59.6918C156.481 59.7901 156.686 59.9034 156.883 60.0309C157.074 60.1491 157.237 60.3071 157.361 60.4942C157.492 60.7038 157.557 60.9479 157.547 61.1949C157.549 61.448 157.485 61.6971 157.361 61.9181C157.232 62.1571 157.036 62.3534 156.798 62.4832C156.489 62.6219 156.151 62.6839 155.812 62.664Z" fill="#0770E3"/>
<path d="M161.479 57.7538C161.284 57.7395 161.089 57.7806 160.916 57.8724C160.792 57.9478 160.696 58.0633 160.646 58.2001C160.586 58.3595 160.54 58.524 160.511 58.6917H160.319C160.259 58.6844 160.2 58.6672 160.145 58.6409C160.184 58.4205 160.212 58.2058 160.235 57.9911C160.255 57.8034 160.267 57.6148 160.268 57.426H160.792H161.468H162.983H163.671H164.194C164.194 57.6068 164.194 57.799 164.194 57.9911C164.194 58.1832 164.194 58.4092 164.234 58.6578C164.178 58.6842 164.12 58.7032 164.059 58.7143C163.99 58.7233 163.92 58.7233 163.851 58.7143C163.864 58.4654 163.79 58.2197 163.642 58.0193C163.558 57.9322 163.454 57.8652 163.34 57.8232C163.226 57.7811 163.104 57.7651 162.983 57.7764L161.479 57.7538ZM161.874 57.6238H162.595V61.6357C162.591 61.7708 162.607 61.9058 162.64 62.0368C162.654 62.0798 162.677 62.1195 162.707 62.1535C162.737 62.1875 162.774 62.215 162.814 62.2346C162.935 62.2798 163.063 62.3046 163.192 62.3081C163.21 62.3533 163.221 62.4009 163.226 62.4493C163.226 62.5058 163.226 62.568 163.226 62.6358H162.724H161.53H161.215C161.212 62.5737 161.212 62.5114 161.215 62.4493C161.215 62.4008 161.224 62.3529 161.243 62.3081C161.372 62.3046 161.499 62.2798 161.62 62.2346C161.663 62.2163 161.702 62.1893 161.734 62.1552C161.766 62.1212 161.79 62.0809 161.806 62.0368C161.845 61.9067 161.862 61.7712 161.857 61.6357L161.874 57.6238Z" fill="#0770E3"/>
<path d="M168.96 57.3469L170.785 61.5452C170.875 61.7374 170.948 61.8843 170.999 61.986C171.043 62.0682 171.102 62.1411 171.173 62.2007C171.236 62.2404 171.304 62.2691 171.376 62.2855C171.395 62.3405 171.408 62.3973 171.416 62.455C171.419 62.5077 171.419 62.5605 171.416 62.6132H171.179H170.053H169.822H169.653C169.653 62.5567 169.653 62.4945 169.653 62.438C169.661 62.3854 169.676 62.3341 169.698 62.2855C169.906 62.2855 170.03 62.212 170.069 62.1442C170.109 62.0764 170.069 61.9182 169.974 61.6865L168.909 59.1833L168.729 58.7596C168.678 58.6352 168.616 58.4827 168.543 58.2906H168.582C168.52 58.4883 168.47 58.6522 168.419 58.7878L168.278 59.1777L167.405 61.4379C167.305 61.6307 167.268 61.85 167.298 62.0651C167.343 62.1838 167.467 62.2459 167.681 62.2629C167.701 62.3118 167.714 62.3631 167.721 62.4154C167.721 62.4719 167.721 62.5341 167.721 62.5906H167.512H166.994H166.633H166.357C166.352 62.5361 166.352 62.4812 166.357 62.4267C166.364 62.3725 166.377 62.3194 166.397 62.2685C166.482 62.2538 166.562 62.2167 166.628 62.1611C166.704 62.0914 166.765 62.0068 166.808 61.9125C166.886 61.7591 166.954 61.6005 167.011 61.4379L168.599 57.3526H168.74L168.96 57.3469ZM169.658 60.5508L169.726 60.9011H168.627H167.563L167.687 60.5225L169.658 60.5508Z" fill="#0770E3"/>
<path d="M176.041 60.7146H175.444L174.12 58.1436C174.064 58.0165 173.984 57.9014 173.884 57.8046C173.791 57.7271 173.672 57.6868 173.552 57.6916C173.533 57.6388 173.521 57.5836 173.518 57.5277C173.515 57.4769 173.515 57.426 173.518 57.3751H175.039H175.343C175.346 57.426 175.346 57.4769 175.343 57.5277C175.335 57.5774 175.324 57.6265 175.309 57.6746C175.112 57.6746 174.999 57.7537 174.971 57.8385C174.958 58.0044 175.002 58.1697 175.095 58.3075C175.236 58.573 175.382 58.8725 175.546 59.2059C175.709 59.5393 175.867 59.884 176.024 60.2456H175.962C176.126 59.884 176.283 59.5449 176.43 59.2398C176.576 58.9347 176.706 58.6748 176.824 58.4205C176.942 58.1662 177.01 57.9684 176.976 57.8554C176.942 57.7424 176.819 57.6972 176.616 57.669C176.616 57.6125 176.588 57.5616 176.576 57.5108C176.57 57.4582 176.57 57.4051 176.576 57.3525H176.937H177.686H177.99C177.993 57.4015 177.993 57.4505 177.99 57.4995C177.99 57.5447 177.99 57.5955 177.99 57.652C177.838 57.697 177.702 57.783 177.596 57.9006C177.443 58.0701 177.314 58.2603 177.213 58.4657L176.041 60.7146ZM176.103 60.562V61.3361C176.097 61.5366 176.11 61.7372 176.143 61.9351C176.148 61.9865 176.166 62.0359 176.194 62.0791C176.223 62.1223 176.261 62.1582 176.306 62.1837C176.431 62.2342 176.561 62.2684 176.695 62.2854C176.712 62.3346 176.724 62.3859 176.728 62.438C176.734 62.4963 176.734 62.5549 176.728 62.6132H176.221H175.754H174.712C174.712 62.5567 174.712 62.5001 174.712 62.4436C174.717 62.3915 174.728 62.3403 174.746 62.2911C174.884 62.2831 175.02 62.2565 175.151 62.212C175.196 62.1907 175.236 62.1583 175.265 62.1178C175.295 62.0773 175.314 62.03 175.32 61.9803C175.354 61.794 175.368 61.6045 175.36 61.4153V60.579L176.103 60.562Z" fill="#0770E3"/>
<path d="M184.472 62.6134C184.472 62.5456 184.472 62.4834 184.472 62.4269C184.477 62.3785 184.488 62.3309 184.506 62.2856C184.617 62.2811 184.726 62.2562 184.827 62.2122C184.905 62.1703 184.964 62.0993 184.991 62.0144C185.024 61.8834 185.039 61.7484 185.036 61.6132V58.3698C185.04 58.2346 185.025 58.0995 184.991 57.9687C184.964 57.8779 184.903 57.801 184.822 57.7539C184.72 57.7093 184.611 57.6862 184.501 57.6861C184.482 57.6391 184.471 57.5896 184.467 57.5392C184.467 57.4827 184.467 57.4262 184.467 57.3584H184.76H186.021H186.326C186.329 57.4186 186.329 57.479 186.326 57.5392C186.321 57.5889 186.311 57.6381 186.297 57.6861C186.187 57.6862 186.078 57.7093 185.976 57.7539C185.897 57.7976 185.839 57.8707 185.813 57.9574C185.779 58.0882 185.764 58.2233 185.768 58.3585V61.6019C185.765 61.7371 185.78 61.8721 185.813 62.0031C185.825 62.0455 185.846 62.085 185.874 62.119C185.902 62.1531 185.937 62.1809 185.976 62.2009C186.078 62.2449 186.187 62.2698 186.297 62.2743C186.311 62.3206 186.32 62.3678 186.326 62.4156C186.329 62.4777 186.329 62.5399 186.326 62.6021H185.852H184.917L184.472 62.6134ZM185.723 60.1384V59.7599H188.139V60.0932H186.934H186.264L185.723 60.1384ZM187.531 62.6134C187.528 62.5513 187.528 62.489 187.531 62.4269C187.534 62.3787 187.543 62.3312 187.559 62.2856C187.67 62.2825 187.779 62.2576 187.88 62.2122C187.92 62.1922 187.954 62.1644 187.982 62.1303C188.011 62.0963 188.031 62.0569 188.044 62.0144C188.077 61.8834 188.092 61.7484 188.089 61.6132V58.3698C188.093 58.2346 188.078 58.0995 188.044 57.9687C188.018 57.882 187.959 57.8089 187.88 57.7652C187.779 57.7195 187.67 57.6963 187.559 57.6974C187.543 57.6501 187.533 57.6006 187.531 57.5505C187.528 57.4903 187.528 57.4299 187.531 57.3697H187.83H189.086H189.39C189.39 57.4375 189.39 57.494 189.39 57.5505C189.386 57.6009 189.374 57.6504 189.356 57.6974C189.247 57.6981 189.14 57.7212 189.041 57.7652C188.96 57.8087 188.9 57.8816 188.872 57.9687C188.838 58.0995 188.822 58.2346 188.827 58.3698V61.6132C188.823 61.7484 188.838 61.8834 188.872 62.0144C188.885 62.0572 188.907 62.0969 188.936 62.1309C188.965 62.1649 189 62.1926 189.041 62.2122C189.14 62.2557 189.247 62.2806 189.356 62.2856C189.374 62.3309 189.385 62.3785 189.39 62.4269C189.39 62.4834 189.39 62.5456 189.39 62.6134H188.922H187.987H187.531Z" fill="#0770E3"/>
<path d="M192.551 57.3696H192.838H193.835V61.5058C193.829 61.6544 193.846 61.8031 193.886 61.9465C193.903 61.9954 193.93 62.0399 193.966 62.077C194.002 62.1141 194.046 62.1428 194.094 62.1612C194.236 62.208 194.384 62.229 194.533 62.2234V62.5681H192.934H192.545C192.545 62.5003 192.545 62.4381 192.545 62.3816C192.55 62.3332 192.561 62.2856 192.579 62.2404C192.69 62.237 192.8 62.2101 192.9 62.1612C192.941 62.138 192.977 62.1064 193.005 62.0684C193.033 62.0305 193.053 61.987 193.063 61.9409C193.098 61.7909 193.113 61.6371 193.108 61.4832V58.3246C193.112 58.1894 193.097 58.0543 193.063 57.9234C193.035 57.8378 192.977 57.7654 192.9 57.72C192.799 57.6753 192.689 57.6523 192.579 57.6522C192.56 57.6051 192.549 57.5556 192.545 57.5052C192.551 57.4883 192.551 57.4318 192.551 57.3696ZM195.992 57.3696C195.992 57.4826 196.02 57.6126 196.032 57.7595C196.043 57.9064 196.065 58.0533 196.088 58.2002C196.11 58.3472 196.133 58.4715 196.156 58.5845C196.112 58.6221 196.06 58.6475 196.003 58.6579C195.94 58.664 195.876 58.664 195.812 58.6579C195.801 58.497 195.759 58.3397 195.688 58.1946C195.605 58.0366 195.475 57.9083 195.316 57.8273C195.076 57.717 194.814 57.6666 194.55 57.6804H193.677L193.84 57.3753H194.877H195.592L195.992 57.3696ZM195.542 59.1269C195.542 59.2569 195.542 59.3982 195.542 59.5451C195.542 59.692 195.542 59.8332 195.542 59.9689C195.542 60.1045 195.542 60.2514 195.542 60.4153C195.542 60.5791 195.542 60.726 195.542 60.8616H195.356L195.187 60.8277C195.194 60.7241 195.179 60.6202 195.143 60.5228C195.107 60.4254 195.051 60.3367 194.978 60.2627C194.781 60.1479 194.552 60.0985 194.325 60.1214H193.762V59.788H194.325C194.551 59.8063 194.778 59.7654 194.984 59.6694C195.053 59.6064 195.106 59.5281 195.139 59.4407C195.172 59.3534 195.185 59.2595 195.175 59.1665C195.234 59.1464 195.294 59.1331 195.356 59.1269C195.412 59.1219 195.468 59.1219 195.525 59.1269H195.542ZM196.105 61.2741C196.173 61.2924 196.239 61.317 196.302 61.3476C196.354 61.3785 196.401 61.4166 196.443 61.4606C196.385 61.646 196.338 61.8347 196.302 62.0256C196.263 62.2291 196.234 62.4212 196.206 62.5907H194.567V62.2743H194.612C194.894 62.2855 195.177 62.2473 195.446 62.1612C195.616 62.0996 195.762 61.9848 195.863 61.8335C195.963 61.6582 196.039 61.47 196.088 61.2741H196.105Z" fill="#0770E3"/>
<path d="M202.848 62.6642L202.594 62.2347C202.527 62.1217 202.47 62.0143 202.414 61.9126C202.358 61.8109 202.307 61.7036 202.239 61.5849C202.172 61.4663 202.048 61.2346 201.958 61.082C201.859 60.9257 201.752 60.7748 201.637 60.63C201.518 60.4774 201.366 60.3079 201.192 60.1214L201.389 60.2231H200.696V59.8615H200.899H201.09C201.349 59.8652 201.606 59.8251 201.851 59.7429C202.062 59.6741 202.248 59.5444 202.386 59.3699C202.529 59.1609 202.598 58.9096 202.582 58.6564C202.566 58.4033 202.465 58.163 202.296 57.9742C202.021 57.7547 201.671 57.6514 201.321 57.6861C201.216 57.6797 201.111 57.6797 201.006 57.6861L200.713 57.7369L200.752 57.6522V61.568C200.749 61.7031 200.764 61.8381 200.797 61.9691C200.824 62.0525 200.88 62.123 200.955 62.1669C201.051 62.2113 201.154 62.2362 201.259 62.2404C201.276 62.2916 201.285 62.3448 201.287 62.3986C201.287 62.4551 201.287 62.5116 201.287 62.5681H200.949H199.902H199.451C199.451 62.5116 199.451 62.4551 199.451 62.3986C199.457 62.3448 199.468 62.2918 199.485 62.2404C199.596 62.2365 199.705 62.2116 199.806 62.1669C199.884 62.125 199.943 62.054 199.969 61.9691C200.003 61.8381 200.018 61.7031 200.014 61.568V58.3246C200.018 58.1875 200.003 58.0506 199.969 57.9177C199.957 57.8745 199.936 57.8343 199.908 57.7993C199.88 57.7644 199.846 57.7354 199.806 57.7143C199.705 57.6686 199.595 57.6473 199.485 57.6522C199.468 57.6027 199.457 57.5515 199.451 57.4996C199.451 57.4487 199.451 57.3922 199.451 57.3301H199.834H200.369H201.011H201.654C201.979 57.3184 202.304 57.3762 202.606 57.4996C202.836 57.5921 203.033 57.7539 203.169 57.9629C203.286 58.1634 203.346 58.3919 203.343 58.624C203.347 58.8485 203.288 59.0695 203.174 59.2626C203.059 59.4627 202.894 59.63 202.696 59.7485C202.466 59.8882 202.215 59.9894 201.952 60.048L201.992 59.9519C202.121 60.0867 202.243 60.2282 202.358 60.3757C202.459 60.5113 202.56 60.6639 202.667 60.8334C202.774 61.0029 202.904 61.212 203.05 61.4719C203.137 61.6194 203.233 61.761 203.338 61.8957C203.415 61.9979 203.518 62.0779 203.636 62.1274C203.78 62.1842 203.933 62.2148 204.087 62.2178C204.09 62.2742 204.09 62.3308 204.087 62.3873C204.085 62.4411 204.076 62.4944 204.059 62.5455H203.462C203.255 62.5717 203.05 62.6114 202.848 62.6642Z" fill="#0770E3"/>
<path d="M207.009 57.3696H207.296H208.299V61.5058C208.293 61.6544 208.31 61.8031 208.349 61.9465C208.366 61.9954 208.394 62.0399 208.43 62.077C208.466 62.1141 208.509 62.1428 208.558 62.1612C208.699 62.208 208.848 62.229 208.997 62.2234V62.5681H207.403H207.009C207.006 62.506 207.006 62.4437 207.009 62.3816C207 62.335 207 62.287 207.009 62.2404C207.12 62.2385 207.23 62.2115 207.33 62.1612C207.371 62.138 207.407 62.1064 207.435 62.0684C207.463 62.0305 207.483 61.987 207.493 61.9409C207.527 61.7909 207.543 61.6371 207.538 61.4832V58.3246C207.542 58.1894 207.527 58.0543 207.493 57.9234C207.465 57.8537 207.415 57.7945 207.352 57.7539C207.251 57.7081 207.142 57.685 207.031 57.6861C207.022 57.6376 207.022 57.5876 207.031 57.5391C207.014 57.4883 207.009 57.4318 207.009 57.3696ZM210.456 57.3696C210.456 57.4826 210.456 57.6126 210.49 57.7595C210.524 57.9064 210.524 58.0533 210.546 58.2002C210.569 58.3472 210.591 58.4715 210.614 58.5845C210.572 58.621 210.521 58.6463 210.467 58.6579C210.402 58.664 210.336 58.664 210.27 58.6579C210.259 58.497 210.217 58.3397 210.146 58.1946C210.063 58.0366 209.933 57.9083 209.774 57.8273C209.537 57.7171 209.276 57.6666 209.014 57.6804H208.135L208.299 57.3753H209.335H210.05L210.456 57.3696ZM210 59.1269C210 59.2569 210 59.3982 210 59.5451V60.4153C210 60.5791 210 60.726 210 60.8616H209.819L209.65 60.8277C209.657 60.7237 209.641 60.6195 209.604 60.5221C209.567 60.4247 209.51 60.3362 209.436 60.2627C209.239 60.1479 209.01 60.0985 208.783 60.1214H208.22V59.788H208.783C209.009 59.8063 209.236 59.7654 209.442 59.6694C209.513 59.6082 209.568 59.5301 209.601 59.4423C209.635 59.3545 209.646 59.2597 209.634 59.1665C209.694 59.1464 209.756 59.1331 209.819 59.1269C209.879 59.1208 209.94 59.1208 210 59.1269ZM210.563 61.2741C210.629 61.2923 210.693 61.3169 210.754 61.3476C210.807 61.3798 210.856 61.4177 210.901 61.4606C210.841 61.6459 210.792 61.8346 210.754 62.0256C210.721 62.2291 210.687 62.4212 210.659 62.5907H209.02V62.2743H209.042C209.324 62.286 209.607 62.2478 209.876 62.1612C210.047 62.1011 210.193 61.9859 210.293 61.8335C210.398 61.6581 210.481 61.4702 210.54 61.2741H210.563Z" fill="#0770E3"/>
<path d="M41.4855 16.5842C36.3766 9.04081 41.4855 0 41.4855 0C41.4855 0 46.5944 9.04081 41.4855 16.5842Z" fill="#0770E3"/>
<path d="M62.8891 40.5198C62.8891 44.7665 61.6337 48.9179 59.2818 52.4489C56.9298 55.98 53.5869 58.7321 49.6757 60.3572C45.7646 61.9824 41.4608 62.4076 37.3088 61.5791C33.1567 60.7506 29.3428 58.7056 26.3493 55.7027C23.3558 52.6998 21.3173 48.8739 20.4914 44.7087C19.6655 40.5436 20.0894 36.2263 21.7094 32.3028C23.3295 28.3793 26.0729 25.0259 29.5929 22.6665C33.1128 20.3072 37.2512 19.0479 41.4846 19.0479C47.1614 19.0479 52.6057 21.3101 56.6198 25.3368C60.634 29.3636 62.8891 34.8251 62.8891 40.5198Z" fill="#0770E3"/>
<path d="M48.2504 52.4706C47.5557 51.5439 46.9492 50.6982 46.431 49.9335C45.9072 49.1651 45.3045 48.2384 44.5722 47.1083C44.1103 46.3624 43.6653 45.6844 43.2373 45.0685C42.7661 44.4032 42.2505 43.7707 41.6939 43.1755C40.9664 42.4057 40.1893 41.6847 39.3675 41.0171L40.2744 41.4691C39.6717 41.4691 39.1141 41.503 38.5846 41.503C38.0551 41.503 37.5876 41.503 37.1257 41.4691V39.8304C37.4524 39.8813 37.7509 39.9152 38.027 39.9378C38.303 39.9604 38.5902 39.9717 38.8944 39.9717C40.0635 39.9813 41.2256 39.7902 42.3304 39.4067C43.2863 39.0896 44.1298 38.5007 44.7581 37.7115C45.3876 36.8572 45.7058 35.812 45.6593 34.7506C45.6833 34.1316 45.5802 33.5142 45.3563 32.9368C45.1325 32.3595 44.7928 31.8344 44.3582 31.3942C43.4907 30.5241 42.0206 30.089 39.9365 30.089C39.4624 30.0861 38.9886 30.1087 38.517 30.1568C38.0715 30.2121 37.6295 30.2932 37.1933 30.3997L37.3679 29.7386V47.7355C37.3497 48.3396 37.4199 48.9431 37.5763 49.5267C37.6312 49.7216 37.7262 49.9028 37.8552 50.0585C37.9843 50.2143 38.1445 50.3411 38.3255 50.4308C38.7798 50.6288 39.2669 50.74 39.7618 50.7585C39.8384 50.9909 39.8857 51.232 39.9027 51.4761C39.9252 51.7436 39.9365 52.0035 39.9365 52.2559C39.4295 52.2107 38.9 52.1824 38.3593 52.1711H36.8497H35.7232H33.5883C32.766 52.1711 32.09 52.1994 31.5605 52.2559C31.5605 52.0035 31.5718 51.7492 31.5943 51.4931C31.616 51.2445 31.6613 50.9985 31.7295 50.7585C32.2322 50.7436 32.7274 50.6324 33.1884 50.4308C33.3656 50.3392 33.5218 50.2115 33.647 50.0558C33.7721 49.9001 33.8634 49.7199 33.915 49.5267C34.0742 48.9436 34.1445 48.3397 34.1235 47.7355V33.0442C34.1457 32.4288 34.0754 31.8135 33.915 31.2191C33.8621 31.0243 33.7704 30.8424 33.6455 30.6841C33.5206 30.5258 33.3652 30.3945 33.1884 30.298C32.7311 30.0902 32.2309 29.9953 31.7295 30.0212C31.6628 29.7923 31.6176 29.5578 31.5943 29.3205C31.5718 29.0869 31.5605 28.8327 31.5605 28.5577H32.5801L34.0728 28.5916H35.5823H37.6665L39.6436 28.5577H41.0292C42.6431 28.4934 44.2536 28.7527 45.7664 29.3205C46.806 29.7274 47.6911 30.4531 48.2955 31.3942C48.8193 32.2728 49.0885 33.2806 49.0728 34.3042C49.094 35.3564 48.8375 36.3954 48.3293 37.316C47.8022 38.2128 47.0632 38.9657 46.1776 39.5084C45.1346 40.1432 43.9918 40.596 42.7979 40.8475L42.9725 40.4294C43.4484 40.7815 43.9053 41.1587 44.3413 41.5595C44.7272 41.9232 45.0867 42.3141 45.4171 42.7292C45.7551 43.1473 46.11 43.6389 46.493 44.2039C46.876 44.769 47.321 45.464 47.828 46.2777C48.3819 47.1281 48.9976 47.9364 49.6699 48.6961C50.1882 49.2899 50.8178 49.7757 51.523 50.1257C52.2507 50.4535 53.0352 50.6359 53.8325 50.6625C53.8325 50.9412 53.8325 51.1955 53.8325 51.4253C53.8145 51.6735 53.773 51.9195 53.7086 52.1598C52.8524 52.1598 51.9455 52.1768 50.9879 52.2107C50.071 52.2414 49.1568 52.3281 48.2504 52.4706Z" fill="white"/>
<path d="M4.82227 58.5165C4.82227 58.5165 12.1111 50.0408 20.1152 57.8611C20.1152 57.8611 19.8279 54.3747 16.4201 50.6906C13.0123 47.0065 9.55942 40.045 12.7363 37.2424C12.7363 37.2424 13.4629 38.4911 14.3585 37.5645C15.2541 36.6378 13.9304 34.5979 12.1054 35.5868C10.2804 36.5756 10.5001 40.9491 10.5001 40.9491C10.5001 40.9491 6.55716 27.58 15.5696 26.1448C15.5696 26.1448 16.8144 24.3592 15.2992 23.0427C15.2992 23.0427 18.262 24.7378 17.0735 27.7608C17.0735 27.7608 23.8723 22.0538 16.5722 18.9291C8.08363 15.2958 -0.613348 39.6777 16.775 53.6797C16.7581 53.6797 6.26425 49.4249 4.82227 58.5165Z" fill="#0770E3"/>
<path d="M11.1757 50.4928C11.1757 50.4928 4.75437 49.8543 3.17156 54.2448C1.58876 58.6352 -1.62191 54.9906 0.997319 52.6287C3.61655 50.2668 6.22452 49.2384 8.99584 49.5549C8.99584 49.5549 4.29812 45.7408 4.24742 41.7063C4.24742 41.7063 5.34018 46.0289 11.1757 50.4928Z" fill="#0770E3"/>
<path d="M78.1484 58.5165C78.1484 58.5165 70.8596 50.0408 62.8555 57.8611C62.8555 57.8611 63.1427 54.3747 66.5506 50.6906C69.9584 47.0065 73.4113 40.045 70.2344 37.2424C70.2344 37.2424 69.5134 38.4911 68.6122 37.5645C67.7109 36.6378 69.0402 34.5979 70.8653 35.5868C72.6903 36.5756 72.4762 40.9491 72.4762 40.9491C72.4762 40.9491 76.4192 27.58 67.4067 26.1448C67.4067 26.1448 66.1675 24.3592 67.6771 23.0427C67.6771 23.0427 64.7199 24.7378 65.9028 27.7608C65.9028 27.7608 59.1097 22.0538 66.4041 18.9291C74.8927 15.2958 83.5953 39.6777 66.2013 53.6797C66.2126 53.6797 76.6726 49.4249 78.1484 58.5165Z" fill="#0770E3"/>
<path d="M71.7949 50.4928C71.7949 50.4928 78.2163 49.8543 79.7991 54.2448C81.3819 58.6352 84.5926 54.9906 81.9733 52.6287C79.3541 50.2668 76.7518 49.2384 73.9748 49.5549C73.9748 49.5549 78.6725 45.7408 78.7232 41.7063C78.7232 41.7063 77.6305 46.0289 71.7949 50.4928Z" fill="#0770E3"/>
<path d="M59.6343 58.2624C58.8431 58.4441 58.0641 58.6762 57.3024 58.9574C60.306 56.3757 62.6336 53.0954 64.0818 49.4031C65.53 45.7108 66.0548 41.7188 65.6102 37.7761C65.1657 33.8334 63.7654 30.0599 61.5316 26.7854C59.2979 23.5109 56.2987 20.8349 52.7961 18.9914C57.1503 19.4265 61.0425 16.6747 59.6456 12.126C58.1304 7.19315 51.985 8.8657 52.5258 13.2561C52.5258 13.2561 54.7113 9.01261 57.5558 11.8944C60.4004 14.7761 55.9223 18.3585 52.7792 17.6974C52.7792 17.6974 53.6918 17.5279 54.4691 16.0644C54.4691 16.0644 51.3035 18.2568 48.3913 15.861C45.4792 13.4652 46.5494 11.8322 46.5494 11.8322C46.6964 11.9797 46.8786 12.0871 47.0785 12.1442C47.2784 12.2014 47.4896 12.2065 47.6921 12.159C47.8945 12.1114 48.0815 12.0129 48.2354 11.8727C48.3893 11.7324 48.505 11.5552 48.5716 11.3576C49.3264 9.78108 46.4199 8.33455 45.5074 11.0581C44.8877 12.9115 45.7721 15.3299 47.9069 17.0194C45.8165 16.4443 43.6588 16.1516 41.4912 16.1492C39.321 16.1649 37.1629 16.4747 35.0755 17.0702C37.2103 15.3751 38.089 12.9623 37.4694 11.1089C36.5569 8.3854 33.6504 9.83193 34.4052 11.4084C34.4726 11.606 34.589 11.7832 34.7434 11.9233C34.8978 12.0634 35.0852 12.1618 35.288 12.2093C35.4908 12.2568 35.7022 12.2517 35.9025 12.1947C36.1028 12.1376 36.2854 12.0304 36.433 11.8831C36.433 11.8831 37.5032 13.5217 34.5911 15.9119C31.6789 18.302 28.5077 16.1153 28.5077 16.1153C29.2794 17.5788 30.1975 17.7483 30.1975 17.7483C27.0544 18.3811 22.5989 14.81 25.4153 11.917C28.2317 9.02391 30.4454 13.2787 30.4454 13.2787C31.0086 8.86569 24.8126 7.19314 23.3312 12.1486C21.9343 16.6973 25.8209 19.4491 30.175 19.014C26.6724 20.8575 23.6733 23.5335 21.4395 26.808C19.2058 30.0826 17.8054 33.856 17.3609 37.7987C16.9164 41.7414 17.4411 45.7334 18.8893 49.4257C20.3376 53.118 22.6652 56.3983 25.6688 58.98C24.907 58.6988 24.1281 58.4667 23.3368 58.285C14.3864 56.2169 5.50912 61.4945 8.3086 70.7783C11.1081 80.0621 22.6778 76.9938 21.6977 68.6707C21.6977 68.6707 17.552 76.6322 12.229 71.1795C6.90605 65.7267 15.3665 59.0535 21.2414 60.3305C21.2414 60.3305 19.5234 60.6356 18.0589 63.3874C18.0589 63.3874 24.0296 59.2908 29.4878 63.8112C34.9459 68.3316 32.9125 71.4055 32.9125 71.4055C32.9125 71.4055 30.5411 69.3318 29.1048 72.2813C27.6684 75.2309 33.1209 77.977 34.8558 72.8746C35.8979 69.8064 34.7488 65.9075 31.7296 62.8337C34.7278 64.1557 37.9628 64.8516 41.2377 64.8792C40.3083 66.7664 37.0132 74.485 41.463 81.0227C45.9129 74.4624 42.5896 66.7664 41.6883 64.8792C44.972 64.8538 48.2163 64.1598 51.2246 62.8393C48.1998 65.9132 47.0564 69.812 48.0928 72.8803C49.8333 77.9657 55.2802 75.2422 53.8495 72.287C52.4188 69.3318 50.0361 71.4112 50.0361 71.4112C50.0361 71.4112 48.0083 68.3429 53.4664 63.8169C58.9246 59.2908 64.8897 63.3931 64.8897 63.3931C63.4252 60.6413 61.7128 60.3362 61.7128 60.3362C67.6103 59.0591 76.0594 65.7437 70.7252 71.1851C65.391 76.6266 61.2566 68.6763 61.2566 68.6763C60.2821 76.9825 71.8405 80.0677 74.6456 70.7839C77.4507 61.5002 68.5904 56.1943 59.6343 58.2624ZM41.4856 63.9694C36.8647 63.9705 32.3473 62.5971 28.5045 60.0229C24.6617 57.4486 21.6661 53.7891 19.8965 49.5071C18.1269 45.2251 17.6627 40.5128 18.5627 35.9662C19.4627 31.4195 21.6864 27.2427 24.9526 23.9637C28.2189 20.6848 32.381 18.4511 36.9127 17.545C41.4445 16.6389 46.1422 17.1011 50.4121 18.8732C54.682 20.6453 58.3321 23.6477 60.9011 27.5007C63.47 31.3537 64.8424 35.8844 64.8446 40.5198C64.8416 46.7352 62.3802 52.6954 58.0006 57.0919C53.6211 61.4884 47.6814 63.9619 41.4856 63.9694Z" fill="#0770E3"/>
<path d="M109.467 48.7696C108.864 47.9559 108.34 47.2213 107.878 46.5546C107.417 45.8878 106.887 45.0572 106.262 44.0627C105.856 43.4185 105.473 42.8252 105.096 42.2884C104.686 41.7074 104.237 41.156 103.75 40.6385C103.118 39.9674 102.442 39.3388 101.728 38.7569L102.51 39.1468C101.985 39.1694 101.5 39.1807 101.057 39.1807C100.614 39.1807 100.192 39.1694 99.7898 39.1468V37.7228C100.071 37.7624 100.353 37.7963 100.578 37.8132C100.804 37.8302 101.068 37.8471 101.333 37.8471C102.35 37.8622 103.362 37.7016 104.324 37.3725C105.158 37.0999 105.894 36.5893 106.442 35.9034C106.991 35.1604 107.27 34.2508 107.231 33.3267C107.253 32.7866 107.164 32.2478 106.97 31.7434C106.776 31.239 106.482 30.7798 106.104 30.3941C105.353 29.6407 104.067 29.264 102.246 29.264C101.832 29.2624 101.418 29.2831 101.007 29.3262C100.627 29.3697 100.25 29.4395 99.88 29.5352L100.032 28.9702V44.656C100.012 45.1839 100.073 45.7117 100.212 46.2212C100.258 46.3907 100.34 46.5485 100.452 46.6839C100.564 46.8193 100.703 46.9293 100.86 47.0066C101.258 47.1786 101.683 47.2781 102.116 47.3004C102.182 47.502 102.223 47.7106 102.24 47.922C102.24 48.1537 102.24 48.3797 102.24 48.6001C101.795 48.5605 101.339 48.5379 100.866 48.5266H99.5476H98.5506H96.6918C95.9765 48.5266 95.385 48.5605 94.9231 48.6001C94.912 48.3779 94.912 48.1554 94.9231 47.9333C94.9414 47.7189 94.981 47.5069 95.0414 47.3004C95.4802 47.282 95.9117 47.1824 96.3144 47.0066C96.4689 46.9269 96.6052 46.816 96.7147 46.6808C96.8243 46.5456 96.9047 46.3891 96.9509 46.2212C97.0874 45.7112 97.1482 45.1838 97.1312 44.656V31.835C97.1483 31.2979 97.0875 30.7612 96.9509 30.2416C96.9026 30.0724 96.8215 29.9145 96.7123 29.7768C96.603 29.6392 96.4679 29.5244 96.3144 29.4392C95.9147 29.26 95.4788 29.1769 95.0414 29.1962C94.9826 28.999 94.943 28.7965 94.9231 28.5916C94.911 28.3695 94.911 28.1469 94.9231 27.9249H95.8131L97.1143 27.9588C97.5874 27.9588 98.0268 27.9588 98.4267 27.9588C98.99 27.9588 99.6209 27.9588 100.246 27.9588L101.97 27.9249H103.175C104.582 27.867 105.986 28.0937 107.304 28.5916C108.211 28.9432 108.984 29.5743 109.512 30.3941C109.969 31.1603 110.205 32.0386 110.194 32.9312C110.213 33.8473 109.989 34.7521 109.546 35.553C109.082 36.3383 108.432 36.9963 107.653 37.4686C106.742 38.021 105.744 38.4146 104.702 38.6326L104.854 38.2709C105.269 38.5766 105.668 38.9048 106.048 39.2541C106.383 39.5724 106.697 39.9122 106.989 40.2712C107.276 40.6385 107.591 41.0679 107.924 41.5595C108.256 42.0511 108.645 42.6614 109.09 43.3677C109.571 44.1084 110.105 44.8129 110.689 45.4753C111.143 45.9932 111.694 46.4157 112.311 46.7184C112.945 47.0046 113.628 47.164 114.322 47.1874C114.322 47.4304 114.322 47.6564 114.322 47.8542C114.31 48.0703 114.274 48.2844 114.215 48.4927C113.472 48.4927 112.678 48.4927 111.844 48.5379C111.048 48.5659 110.254 48.6433 109.467 48.7696Z" fill="#0770E3"/>
<path d="M124.045 48.7695C122.249 48.8241 120.475 48.3647 118.93 47.4452C117.385 46.5256 116.133 45.1838 115.32 43.5767C114.467 41.9083 114.036 40.0553 114.064 38.1805C114.045 36.7274 114.307 35.2844 114.835 33.9313C115.323 32.6993 116.049 31.5761 116.97 30.6258C117.872 29.6976 118.953 28.9633 120.147 28.4673C121.605 27.8846 123.173 27.6331 124.739 27.7308C126.305 27.8285 127.83 28.273 129.205 29.0323C130.7 29.9077 131.929 31.1756 132.759 32.6995C133.654 34.3841 134.103 36.2717 134.06 38.1805C134.073 39.6033 133.827 41.0166 133.333 42.3505C132.872 43.6069 132.168 44.7591 131.261 45.7409C130.37 46.7073 129.288 47.4771 128.084 48.0011C126.805 48.536 125.43 48.7977 124.045 48.7695ZM124.653 47.2834C125.876 47.3082 127.07 46.9091 128.033 46.1533C129.01 45.3643 129.757 44.3259 130.196 43.1473C130.715 41.8076 130.971 40.3803 130.951 38.9433C130.965 37.2515 130.627 35.5753 129.959 34.0217C129.38 32.6362 128.459 31.4211 127.284 30.4901C126.178 29.629 124.814 29.1689 123.414 29.1849C122.268 29.1693 121.148 29.5261 120.22 30.202C119.237 30.9402 118.469 31.9295 117.995 33.0668C117.428 34.4314 117.15 35.8997 117.179 37.3781C117.176 38.6279 117.339 39.8724 117.663 41.0792C117.964 42.2136 118.449 43.2904 119.099 44.2661C119.709 45.1677 120.509 45.9239 121.443 46.4811C122.422 47.0321 123.531 47.3092 124.653 47.2834Z" fill="#0770E3"/>
<path d="M144.096 41.0905H141.736L136.475 30.9592C136.243 30.4587 135.927 30.0019 135.54 29.6087C135.172 29.3119 134.711 29.1557 134.239 29.168C134.158 28.9634 134.107 28.7485 134.087 28.5295C134.066 28.3286 134.057 28.1268 134.059 27.9249H134.994L136.07 27.9588C136.441 27.9588 136.819 27.9588 137.196 27.9588H138.542C139.055 27.9588 139.562 27.9588 140.052 27.9588C140.542 27.9588 140.948 27.9588 141.246 27.9136C141.258 28.1017 141.258 28.2905 141.246 28.4786C141.219 28.6786 141.179 28.8767 141.128 29.0719C140.339 29.1567 139.889 29.3714 139.782 29.7274C139.675 30.0834 139.832 30.6936 140.277 31.5581C140.841 32.6148 141.404 33.8183 142.046 35.1123C142.688 36.4063 143.313 37.7907 143.939 39.2089H143.702C144.35 37.7681 144.958 36.4458 145.533 35.2536C146.107 34.0613 146.626 32.9934 147.087 32.0384C147.636 30.9648 147.838 30.2472 147.696 29.8856C147.555 29.5183 147.082 29.2753 146.271 29.1567C146.214 28.9363 146.164 28.7272 146.124 28.5351C146.08 28.331 146.059 28.1225 146.062 27.9136C146.423 27.9136 146.896 27.9475 147.482 27.9588C148.067 27.9701 148.58 27.9588 149.025 27.9588C149.47 27.9588 149.954 27.9588 150.416 27.9588C150.878 27.9588 151.284 27.9588 151.627 27.9136C151.628 28.1024 151.616 28.2911 151.594 28.4786C151.574 28.6816 151.544 28.8835 151.503 29.0832C150.911 29.257 150.378 29.5936 149.966 30.0551C149.355 30.7481 148.845 31.5243 148.451 32.3605L144.096 41.0905ZM144.339 40.4859V43.5485C144.318 44.3351 144.368 45.1219 144.491 45.8991C144.513 46.1036 144.583 46.2999 144.696 46.4718C144.808 46.6437 144.96 46.7863 145.138 46.888C145.629 47.0896 146.144 47.2227 146.671 47.2835C146.731 47.4814 146.776 47.6835 146.806 47.8881C146.836 48.1186 146.851 48.3507 146.851 48.5831L144.851 48.5266C144.187 48.504 143.573 48.4927 143.009 48.4927H141.545H140.03C139.556 48.4927 139.179 48.4927 138.903 48.521C138.901 48.2979 138.916 48.075 138.948 47.8542C138.973 47.6486 139.018 47.446 139.083 47.2496C139.63 47.2263 140.17 47.1176 140.683 46.9275C140.861 46.843 141.015 46.7157 141.132 46.557C141.249 46.3983 141.325 46.2131 141.353 46.0178C141.469 45.3215 141.518 44.6158 141.5 43.9102V40.452L144.339 40.4859Z" fill="#0770E3"/>
<path d="M160.156 27.8062L167.36 44.3679C167.703 45.1194 167.985 45.6901 168.21 46.0969C168.368 46.4295 168.601 46.72 168.892 46.9445C169.132 47.1126 169.404 47.2281 169.692 47.2835C169.761 47.501 169.812 47.7241 169.844 47.9503C169.844 48.1311 169.872 48.3402 169.872 48.5831C169.669 48.5831 169.36 48.5492 168.937 48.5379L167.602 48.5097H166.425H165.58L164.577 48.5379L163.659 48.5718H163.006C163.006 48.3394 163.021 48.1073 163.051 47.8768C163.078 47.6683 163.135 47.4647 163.22 47.2722C164.042 47.1705 164.532 46.9784 164.684 46.7072C164.836 46.4359 164.712 45.8313 164.307 44.9047L160.105 35.0445C159.84 34.4173 159.609 33.8579 159.406 33.3494C159.204 32.8408 158.961 32.2193 158.68 31.5017H158.832C158.59 32.2701 158.376 32.9199 158.184 33.4567C157.993 33.9935 157.807 34.5021 157.621 34.988L154.174 44.0006C153.73 45.1947 153.595 46.0197 153.768 46.4755C153.937 46.9275 154.438 47.1875 155.261 47.2496C155.348 47.4411 155.405 47.6451 155.43 47.8542C155.459 48.0847 155.475 48.3168 155.475 48.5492C155.255 48.5492 154.979 48.5153 154.658 48.504L153.644 48.4758H152.602C152.095 48.4758 151.622 48.4871 151.183 48.5097C150.738 48.5097 150.371 48.5492 150.09 48.5662C150.092 48.3489 150.107 48.1319 150.135 47.9164C150.164 47.7026 150.22 47.4936 150.304 47.2948C150.636 47.2295 150.947 47.0841 151.211 46.871C151.51 46.5914 151.751 46.2554 151.92 45.8822C152.22 45.2755 152.487 44.653 152.72 44.0175L158.984 27.9079C159.187 27.8684 159.373 27.8345 159.547 27.8175C159.75 27.8011 159.953 27.7973 160.156 27.8062ZM162.91 40.4577L163.18 41.8251C161.829 41.8251 160.364 41.8251 158.843 41.8251C157.322 41.8251 155.903 41.876 154.652 41.9212L155.137 40.4295L162.91 40.4577Z" fill="#0770E3"/>
<path d="M179.426 47.1309C180.327 47.1638 181.227 47.0396 182.085 46.7637C182.719 46.5326 183.265 46.1076 183.645 45.5488C184.104 44.8482 184.464 44.0877 184.716 43.2886C184.98 43.3525 185.235 43.4493 185.476 43.5768C185.681 43.6998 185.87 43.8478 186.039 44.0175C185.802 44.7578 185.614 45.5128 185.476 46.2777C185.324 47.0914 185.2 47.8486 185.099 48.5379C184.716 48.5379 184.209 48.5097 183.572 48.5097H181.482H179.229H177.28H175.027L172.926 48.5379C172.278 48.5379 171.766 48.5662 171.383 48.5831C171.383 48.3006 171.383 48.052 171.411 47.8429C171.427 47.6498 171.468 47.4598 171.535 47.2779C171.973 47.2614 172.404 47.1576 172.802 46.9727C173.125 46.7823 173.36 46.4716 173.456 46.1082C173.605 45.5176 173.669 44.9088 173.647 44.3V31.835C173.668 31.3034 173.607 30.7716 173.467 30.2585C173.419 30.0923 173.338 29.9373 173.23 29.8025C173.122 29.6677 172.988 29.5558 172.836 29.4731C172.437 29.2879 172.003 29.1934 171.563 29.1962C171.497 29.0141 171.456 28.8241 171.439 28.6312C171.439 28.3939 171.411 28.1565 171.411 27.9136C171.817 27.9136 172.245 27.9531 172.695 27.9588L174.013 27.9927C174.436 27.9927 174.791 27.9927 175.072 27.9927C175.517 27.9927 175.94 27.9927 176.34 27.9927L177.534 27.9588C177.928 27.9588 178.328 27.9588 178.734 27.9136C178.735 28.157 178.723 28.4002 178.7 28.6425C178.685 28.8352 178.646 29.0252 178.581 29.2075C178.148 29.2079 177.719 29.3024 177.325 29.4844C177.166 29.5685 177.026 29.6846 176.913 29.8256C176.801 29.9666 176.719 30.1294 176.672 30.3037C176.534 30.8385 176.474 31.3903 176.492 31.9424V44.317C176.47 44.9011 176.542 45.485 176.706 46.046C176.768 46.2388 176.872 46.4154 177.01 46.5629C177.148 46.7105 177.318 46.8254 177.506 46.8993C178.05 47.0815 178.622 47.1638 179.195 47.1422L179.426 47.1309Z" fill="#0770E3"/>
<path d="M187.442 48.583C187.439 48.3359 187.448 48.0888 187.47 47.8427C187.484 47.6499 187.524 47.4599 187.589 47.2777C188.027 47.2592 188.459 47.1596 188.862 46.9839C189.016 46.9042 189.152 46.7933 189.262 46.6581C189.371 46.5229 189.452 46.3664 189.498 46.1984C189.635 45.6884 189.695 45.161 189.678 44.6332V31.8349C189.696 31.3033 189.636 30.772 189.498 30.2584C189.449 30.0919 189.367 29.9369 189.258 29.8021C189.148 29.6674 189.014 29.5555 188.862 29.4729C188.463 29.2878 188.028 29.1932 187.589 29.1961C187.524 29.0138 187.485 28.8238 187.47 28.631C187.449 28.3887 187.439 28.1454 187.442 27.9021C188.225 27.9473 188.985 27.9699 189.723 27.9812C190.461 27.9925 191.07 27.9812 191.554 27.9812C191.836 27.9812 192.236 27.9812 192.748 27.9812L194.275 27.9473H195.401C196.788 27.8847 198.17 28.1661 199.423 28.7666C200.356 29.2358 201.117 29.9894 201.597 30.9195C202.046 31.823 202.276 32.8201 202.267 33.8295C202.266 34.9869 202.002 36.1287 201.496 37.1689C200.958 38.3185 200.091 39.2816 199.006 39.9356C197.92 40.5896 196.666 40.905 195.401 40.8418C194.681 40.8621 193.963 40.7491 193.283 40.5084C193.244 40.2977 193.223 40.0841 193.221 39.8699C193.223 39.6651 193.254 39.4616 193.311 39.2653C193.576 39.3218 193.835 39.367 194.1 39.4009C194.371 39.4306 194.644 39.4457 194.917 39.4461C195.631 39.4531 196.339 39.3187 197.001 39.0505C197.669 38.7699 198.225 38.2725 198.578 37.6379C199.03 36.7319 199.238 35.7227 199.181 34.711C199.252 33.2935 198.83 31.8953 197.987 30.7556C197.187 29.7555 195.886 29.2526 194.044 29.2526C193.824 29.2526 193.565 29.2526 193.278 29.2978C192.864 29.3494 192.454 29.4248 192.05 29.5238L192.506 29.0718V44.0286C192.477 44.7025 192.569 45.3761 192.776 46.0176C192.851 46.2262 192.967 46.4171 193.118 46.5785C193.269 46.7399 193.452 46.8683 193.655 46.9556C194.148 47.1484 194.67 47.2572 195.198 47.2777C195.26 47.4607 195.3 47.6503 195.317 47.8427C195.329 48.0893 195.329 48.3364 195.317 48.583C195.018 48.583 194.658 48.549 194.246 48.5377L192.928 48.5095C192.466 48.5095 191.993 48.5095 191.509 48.5095H189.994L188.484 48.5377C188.062 48.549 187.701 48.566 187.442 48.583Z" fill="#0770E3"/>
<path d="M212.119 47.1309C213.021 47.1634 213.923 47.0391 214.783 46.7637C215.425 46.536 215.979 46.1108 216.366 45.5488C216.824 44.8473 217.186 44.087 217.442 43.2886C217.704 43.3534 217.958 43.4501 218.197 43.5768C218.404 43.697 218.593 43.8453 218.76 44.0175C218.526 44.7585 218.338 45.5134 218.197 46.2777C218.045 47.0914 217.915 47.8486 217.819 48.5379C217.436 48.5379 216.924 48.5097 216.287 48.5097H214.203H211.95H209.995H207.742L205.641 48.5379C204.993 48.5379 204.481 48.5662 204.098 48.5831C204.096 48.336 204.107 48.0889 204.132 47.8429C204.143 47.6497 204.183 47.4593 204.25 47.2779C204.689 47.2627 205.12 47.1589 205.517 46.9727C205.678 46.8794 205.819 46.7549 205.931 46.6065C206.043 46.458 206.125 46.2886 206.171 46.1082C206.322 45.518 206.388 44.9091 206.368 44.3V31.835C206.386 31.3035 206.325 30.7722 206.188 30.2585C206.138 30.0921 206.056 29.9371 205.947 29.8023C205.838 29.6675 205.703 29.5557 205.551 29.4731C205.152 29.2879 204.718 29.1934 204.278 29.1962C204.215 29.0137 204.175 28.8238 204.16 28.6312C204.16 28.3939 204.16 28.1565 204.16 27.9136C204.56 27.9136 204.988 27.9531 205.444 27.9588L206.756 27.9927C207.179 27.9927 207.534 27.9927 207.815 27.9927C208.26 27.9927 208.683 27.9927 209.088 27.9927L210.283 27.9588C210.677 27.9588 211.071 27.9588 211.477 27.9136C211.477 28.1791 211.477 28.4221 211.477 28.6425C211.461 28.8355 211.419 29.0255 211.353 29.2075C210.919 29.2086 210.491 29.303 210.097 29.4844C209.938 29.5688 209.799 29.6852 209.687 29.8262C209.576 29.9672 209.495 30.1298 209.449 30.3037C209.309 30.838 209.248 31.3902 209.269 31.9424V44.317C209.246 44.9008 209.316 45.4846 209.477 46.046C209.54 46.2384 209.644 46.4146 209.782 46.5621C209.92 46.7096 210.089 46.8247 210.277 46.8993C210.821 47.0813 211.394 47.1636 211.967 47.1422L212.119 47.1309Z" fill="#0770E3"/>
<path d="M229.271 27.806L236.464 44.3733C236.807 45.1249 237.089 45.6956 237.314 46.1024C237.471 46.435 237.705 46.7255 237.996 46.95C238.236 47.1181 238.508 47.2336 238.796 47.289C238.865 47.5065 238.916 47.7296 238.948 47.9558C238.948 48.1366 238.976 48.3456 238.976 48.5886C238.773 48.5886 238.463 48.5547 238.041 48.5434L236.706 48.5151H235.529H234.684L233.687 48.5434L232.763 48.5773H232.11C232.11 48.3449 232.125 48.1128 232.155 47.8823C232.182 47.6737 232.239 47.4702 232.324 47.2777C233.152 47.176 233.636 46.9839 233.788 46.7126C233.94 46.4414 233.816 45.8368 233.411 44.9101L229.209 35.05C228.944 34.4228 228.713 33.8634 228.51 33.3548C228.307 32.8463 228.071 32.2247 227.784 31.5071H227.936C227.693 32.2756 227.479 32.9254 227.288 33.4622C227.096 33.999 226.91 34.5075 226.725 34.9935L223.277 44.006C222.838 45.1983 222.714 46.0233 222.872 46.481C223.03 46.9387 223.542 47.1929 224.37 47.2551C224.453 47.4478 224.508 47.6514 224.533 47.8597C224.566 48.0899 224.581 48.3222 224.579 48.5547C224.359 48.5547 224.088 48.5208 223.762 48.5095L222.748 48.4812H221.706C221.203 48.4812 220.729 48.4925 220.286 48.5151C219.841 48.5151 219.481 48.5547 219.199 48.5717C219.199 48.3542 219.214 48.1371 219.244 47.9219C219.268 47.7078 219.324 47.4985 219.408 47.3003C219.74 47.235 220.051 47.0895 220.315 46.8765C220.614 46.5969 220.855 46.2609 221.024 45.8877C221.324 45.2801 221.593 44.6578 221.83 44.023L228.088 27.9134C228.291 27.8739 228.476 27.84 228.651 27.823C228.857 27.8044 229.064 27.7988 229.271 27.806ZM232.019 40.4575L232.29 41.825C230.945 41.825 229.5 41.825 227.953 41.825C226.409 41.825 225.012 41.8758 223.762 41.921L224.246 40.4293L232.019 40.4575Z" fill="#0770E3"/>
<path d="M248.894 48.7696C247.142 48.8024 245.417 48.334 243.921 47.4191C242.474 46.4965 241.305 45.1953 240.541 43.6559C239.687 41.9279 239.262 40.0184 239.302 38.0901C239.267 36.5298 239.554 34.9791 240.147 33.5358C240.669 32.3031 241.449 31.1971 242.433 30.2924C243.369 29.4427 244.464 28.7895 245.655 28.3713C246.855 27.9466 248.118 27.7306 249.39 27.7328C250.562 27.7201 251.731 27.853 252.871 28.1283C253.984 28.4161 255.067 28.8116 256.104 29.3093C255.959 30.055 255.869 30.8104 255.834 31.5695C255.794 32.3718 255.772 33.1855 255.772 34.0161C255.528 34.1124 255.275 34.1824 255.017 34.2252C254.738 34.2713 254.455 34.2921 254.172 34.2873C254.191 33.1531 253.974 32.0274 253.536 30.9818C253.22 30.2812 252.661 29.7192 251.964 29.3997C251.215 29.0847 250.41 28.927 249.598 28.9363C248.469 28.9073 247.35 29.1474 246.331 29.637C245.455 30.074 244.695 30.713 244.112 31.5016C243.527 32.3 243.095 33.2006 242.839 34.1574C242.566 35.1666 242.43 36.2081 242.433 37.2539C242.41 38.932 242.722 40.5979 243.352 42.1528C243.902 43.5317 244.817 44.7334 245.999 45.6279C247.206 46.4941 248.662 46.9406 250.145 46.8993C251.151 46.8921 252.151 46.7281 253.108 46.4133C254.089 46.1044 255.025 45.6654 255.89 45.1081C256.03 45.235 256.148 45.3838 256.239 45.5488C256.333 45.7041 256.4 45.8741 256.437 46.0517C255.37 46.907 254.181 47.5965 252.91 48.0972C251.622 48.5591 250.262 48.7868 248.894 48.7696Z" fill="#0770E3"/>
<path d="M258.757 27.8909C259.056 27.8909 259.439 27.9304 259.884 27.9361L261.32 27.97C261.827 27.97 262.306 27.97 262.756 27.97H263.832V44.3056C263.809 44.8894 263.88 45.4732 264.041 46.0346C264.105 46.2287 264.212 46.406 264.353 46.5536C264.494 46.7012 264.667 46.8154 264.857 46.8879C265.415 47.0713 266 47.1536 266.587 47.1308V48.4926H264.638H262.385L260.284 48.5209C259.636 48.5209 259.123 48.5491 258.74 48.5661C258.74 48.2836 258.74 48.0349 258.768 47.8259C258.784 47.6328 258.826 47.4427 258.892 47.2608C259.331 47.2443 259.762 47.1406 260.16 46.9557C260.319 46.8624 260.457 46.7377 260.567 46.5891C260.676 46.4404 260.754 46.271 260.796 46.0912C260.935 45.4989 260.995 44.891 260.976 44.283V31.8349C260.994 31.3034 260.934 30.7721 260.796 30.2584C260.747 30.092 260.665 29.937 260.556 29.8022C260.447 29.6674 260.312 29.5556 260.16 29.473C259.763 29.2885 259.33 29.194 258.892 29.1961C258.827 29.014 258.785 28.824 258.768 28.6311C258.768 28.3712 258.757 28.1338 258.757 27.8909ZM272.338 27.8909C272.377 28.3373 272.428 28.8515 272.49 29.4391C272.552 30.0268 272.619 30.6031 272.698 31.1682C272.777 31.7332 272.867 32.2418 272.969 32.6882C272.808 32.8302 272.614 32.9293 272.405 32.9763C272.151 33.0284 271.893 33.053 271.634 33.0498C271.592 32.4175 271.427 31.7994 271.149 31.2303C270.826 30.6018 270.314 30.0915 269.685 29.7725C268.741 29.3411 267.707 29.1471 266.671 29.2074H263.224L263.86 27.9926C265.454 27.9926 266.818 27.9926 267.955 27.9926C269.093 27.9926 270.034 27.9926 270.772 27.9474C271.51 27.9022 272.011 27.8909 272.338 27.8909ZM270.552 34.841C270.552 35.3495 270.518 35.892 270.507 36.4796C270.496 37.0673 270.507 37.6097 270.507 38.1748C270.507 38.7398 270.507 39.3049 270.507 39.9378C270.507 40.5706 270.507 41.1696 270.552 41.6951C270.287 41.6951 270.045 41.6951 269.826 41.6668C269.601 41.6445 269.378 41.6029 269.161 41.5425C269.076 40.4915 268.8 39.7795 268.327 39.4066C267.854 39.0337 266.992 38.8416 265.742 38.8416H263.562V37.5419H265.742C266.992 37.5419 267.86 37.3781 268.344 37.056C268.829 36.7339 269.076 36.0728 269.099 35.084C269.336 35.0057 269.579 34.949 269.826 34.9145C270.066 34.8744 270.309 34.8499 270.552 34.841ZM272.67 43.3168C272.932 43.3815 273.186 43.4783 273.425 43.6049C273.632 43.7251 273.821 43.8734 273.988 44.0457C273.751 44.7859 273.563 45.541 273.425 46.3059C273.273 47.1195 273.143 47.8767 273.047 48.5661C272.659 48.5661 272.141 48.5378 271.487 48.5378H269.234C268.395 48.5378 267.505 48.5378 266.558 48.5378V47.1308H266.739C267.849 47.1811 268.959 47.0319 270.017 46.6901C270.689 46.4465 271.267 45.9955 271.667 45.4018C272.091 44.7464 272.435 44.0426 272.693 43.3054L272.67 43.3168Z" fill="#0770E3"/>
<path d="M146.367 58.5902C146.224 57.9861 145.876 57.4507 145.383 57.0755C144.89 56.7003 144.282 56.5087 143.663 56.5334C143.103 56.5434 142.562 56.7431 142.128 57.1C141.695 57.4569 141.394 57.9501 141.275 58.4998C141.247 58.9195 141.362 59.3364 141.601 59.6816C141.841 60.0268 142.191 60.2797 142.593 60.3983C142.863 60.4668 143.146 60.4697 143.417 60.4068C143.688 60.3439 143.941 60.217 144.154 60.0367C144.385 59.8287 144.548 59.5562 144.624 59.254C144.699 58.9519 144.682 58.6341 144.576 58.3415C144.555 58.663 144.435 58.9701 144.234 59.2209C144.032 59.4717 143.758 59.654 143.449 59.7429C143.266 59.8078 143.068 59.8219 142.876 59.7838C142.685 59.7456 142.508 59.6566 142.363 59.526C142.218 59.3955 142.11 59.2282 142.052 59.0417C141.993 58.8551 141.986 58.6563 142.03 58.4659C142.16 58.1252 142.393 57.8336 142.696 57.6311C142.998 57.4287 143.356 57.3255 143.72 57.3358C144.151 57.3212 144.574 57.451 144.923 57.7048C145.272 57.9586 145.526 58.3219 145.646 58.7371C145.72 59.2348 145.623 59.743 145.371 60.1783C145.12 60.6135 144.728 60.9501 144.261 61.1329C143.106 61.4061 141.893 61.2536 140.841 60.7035C128.984 52.0864 118.598 57.3132 120.716 61.9466C122.71 66.3314 126.044 62.1217 126.044 62.1217C124.236 62.8846 123.177 61.1103 123.177 61.1103C123.421 61.3569 123.746 61.5057 124.092 61.5285C124.437 61.5514 124.779 61.4469 125.053 61.2346C125.779 55.731 133.902 57.9404 133.902 57.9404C133.902 57.9404 131.266 57.8556 130.697 58.9914C130.128 60.1271 131.378 60.9012 131.919 60.3418C132.46 59.7824 131.699 59.3586 131.699 59.3586C133.344 57.3923 137.591 59.3586 139.861 61.3928C141.065 62.5461 142.597 63.2946 144.244 63.5344C143.624 62.9693 143.004 62.4043 142.385 61.9014C143.13 62.1528 143.939 62.1408 144.677 61.8675C145.285 61.5904 145.781 61.1167 146.088 60.5223C146.394 59.9279 146.493 59.2474 146.367 58.5902Z" fill="#0770E3"/>
<path d="M223.368 60.6921C222.316 61.2422 221.103 61.3947 219.949 61.1215C219.481 60.9395 219.089 60.6028 218.838 60.1672C218.587 59.7315 218.492 59.223 218.569 58.7257C218.687 58.3104 218.94 57.9468 219.288 57.6928C219.636 57.4388 220.059 57.3091 220.489 57.3244C220.853 57.3133 221.211 57.4162 221.514 57.6187C221.817 57.8212 222.049 58.1133 222.179 58.4545C222.226 58.6452 222.22 58.8449 222.162 59.0324C222.104 59.22 221.996 59.3882 221.851 59.5193C221.705 59.6503 221.527 59.7393 221.334 59.7767C221.142 59.814 220.944 59.7984 220.76 59.7315C220.451 59.6426 220.177 59.4603 219.976 59.2095C219.774 58.9587 219.654 58.6516 219.633 58.3302C219.527 58.6227 219.51 58.9405 219.586 59.2427C219.661 59.5448 219.825 59.8174 220.056 60.0253C220.268 60.2057 220.521 60.3325 220.792 60.3954C221.064 60.4583 221.346 60.4554 221.616 60.3869C222.019 60.2692 222.369 60.0166 222.609 59.6711C222.849 59.3257 222.964 58.9083 222.934 58.4884C222.816 57.9382 222.515 57.4444 222.082 57.0874C221.648 56.7303 221.107 56.531 220.546 56.522C219.927 56.4973 219.319 56.6889 218.826 57.0641C218.333 57.4393 217.985 57.9747 217.842 58.5788C217.721 59.2376 217.825 59.918 218.137 60.5104C218.448 61.1029 218.95 61.5729 219.56 61.8448C220.3 62.1181 221.111 62.1301 221.858 61.8787C221.239 62.3872 220.613 62.924 219.994 63.5117C221.641 63.2719 223.172 62.5234 224.376 61.3701C226.629 59.3585 230.893 57.3696 232.538 59.3359C232.538 59.3359 231.777 59.7541 232.318 60.3191C232.859 60.8842 234.115 60.0988 233.54 58.9687C232.966 57.8386 230.335 57.9177 230.335 57.9177C230.335 57.9177 238.458 55.7083 239.185 61.2119C239.458 61.4242 239.8 61.5288 240.146 61.5059C240.491 61.483 240.816 61.3342 241.06 61.0876C241.06 61.0876 240.001 62.8619 238.193 62.099C238.193 62.099 241.533 66.3087 243.522 61.9239C245.611 57.2792 235.225 52.1033 223.368 60.6921Z" fill="#0770E3"/>
</g>
<defs>
<clipPath id="clip0_129_37">
<rect width="274" height="81" fill="white"/>
</clipPath>
</defs>
</svg>
