<svg width="47" height="47" viewBox="0 0 47 47" fill="none" xmlns="http://www.w3.org/2000/svg">
<circle r="23.0556" transform="matrix(1 8.74228e-08 8.74228e-08 -1 23.8333 23.0555)" fill="#FEFCFB"/>
<circle r="22.4792" transform="matrix(1 8.74228e-08 8.74228e-08 -1 23.8333 23.0555)" stroke="#999999" stroke-opacity="0.5" stroke-width="1.15278"/>
<path d="M33.8707 23.8707C34.3208 23.4205 34.3208 22.6906 33.8707 22.2404L26.5344 14.9042C26.0842 14.454 25.3543 14.454 24.9042 14.9042C24.454 15.3544 24.454 16.0843 24.9042 16.5344L31.4252 23.0555L24.9041 29.5766C24.454 30.0268 24.454 30.7567 24.9041 31.2069C25.3543 31.6571 26.0842 31.6571 26.5344 31.2069L33.8707 23.8707ZM14.6111 24.2083L33.0555 24.2083L33.0555 21.9028L14.6111 21.9028L14.6111 24.2083Z" fill="#999999" fill-opacity="0.5"/>
</svg>
