<svg width="47" height="47" viewBox="0 0 47 47" fill="none" xmlns="http://www.w3.org/2000/svg">
<circle r="23.0556" transform="matrix(-1 0 0 1 23.0558 23.0556)" fill="#FEFCFB"/>
<circle r="22.4792" transform="matrix(-1 0 0 1 23.0558 23.0556)" stroke="#999999" stroke-opacity="0.5" stroke-width="1.15278"/>
<path d="M13.0178 22.2404C12.5676 22.6906 12.5676 23.4205 13.0178 23.8707L20.354 31.2069C20.8042 31.6571 21.5341 31.6571 21.9843 31.2069C22.4345 30.7567 22.4345 30.0268 21.9843 29.5766L15.4632 23.0555L21.9843 16.5344C22.4345 16.0843 22.4345 15.3544 21.9843 14.9042C21.5341 14.454 20.8042 14.454 20.354 14.9042L13.0178 22.2404ZM32.2773 21.9028L13.8329 21.9028L13.8329 24.2083L32.2773 24.2083L32.2773 21.9028Z" fill="#999999" fill-opacity="0.5"/>
</svg>
