<svg width="13" height="13" viewBox="0 0 13 13" fill="none" xmlns="http://www.w3.org/2000/svg">
<path d="M11.8086 10.8618L9.54154 8.60139C10.273 7.66954 10.6699 6.51882 10.6684 5.3342C10.6684 4.27919 10.3555 3.24788 9.76941 2.37068C9.18329 1.49347 8.3502 0.809776 7.3755 0.406044C6.40081 0.0023112 5.32828 -0.103324 4.29355 0.102497C3.25881 0.308318 2.30835 0.816351 1.56235 1.56235C0.816351 2.30835 0.308318 3.25881 0.102497 4.29355C-0.103324 5.32828 0.0023112 6.40081 0.406044 7.3755C0.809776 8.3502 1.49347 9.18329 2.37068 9.76941C3.24788 10.3555 4.27919 10.6684 5.3342 10.6684C6.51882 10.6699 7.66954 10.273 8.60139 9.54154L10.8618 11.8086C10.9237 11.8711 10.9975 11.9207 11.0787 11.9545C11.16 11.9884 11.2471 12.0058 11.3352 12.0058C11.4232 12.0058 11.5103 11.9884 11.5916 11.9545C11.6728 11.9207 11.7466 11.8711 11.8086 11.8086C11.8711 11.7466 11.9207 11.6728 11.9545 11.5916C11.9884 11.5103 12.0058 11.4232 12.0058 11.3352C12.0058 11.2471 11.9884 11.16 11.9545 11.0787C11.9207 10.9975 11.8711 10.9237 11.8086 10.8618ZM1.33355 5.3342C1.33355 4.54294 1.56818 3.76946 2.00778 3.11156C2.44738 2.45365 3.07219 1.94088 3.80321 1.63808C4.53424 1.33528 5.33863 1.25606 6.11468 1.41042C6.89073 1.56479 7.60358 1.94581 8.16308 2.50531C8.72258 3.06481 9.1036 3.77766 9.25797 4.55371C9.41233 5.32976 9.33311 6.13415 9.03031 6.86518C8.72751 7.5962 8.21474 8.22101 7.55683 8.66061C6.89893 9.10021 6.12545 9.33484 5.3342 9.33484C4.27316 9.33484 3.25558 8.91334 2.50531 8.16308C1.75505 7.41281 1.33355 6.39523 1.33355 5.3342Z" fill="#A5A5A5"/>
</svg>
