<svg width="169" height="216" viewBox="0 0 169 216" fill="none" xmlns="http://www.w3.org/2000/svg">
<path d="M42.4545 27.13L39.6346 28.35L28.3646 20.49L25.3646 22.15C22.9546 23.59 20.6146 23.69 19.4946 23.05L19.2645 23.16C17.5245 23.92 16.4945 23.24 16.1445 22.42C15.7945 21.6 15.9946 20.42 17.7346 19.64L17.9645 19.54C18.1745 18.54 19.0846 16.86 22.6346 15.87L25.9045 14.82L27.9045 1.22998L30.7245 0L32.9146 12.59L40.9745 9.82999L42.1946 6.59998L44.4346 5.76999L44.5945 8.76999L45.3945 8.69998L46.1246 10.37L45.5245 10.96L47.6445 13.16L45.5046 14.23L42.3246 12.91L34.7946 16.91L42.4545 27.13ZM42.2446 12.18L45.4446 13.51L46.4446 12.99L44.5046 10.99L45.2346 10.25L44.8945 9.45999L43.8945 9.54999L43.7446 6.75L42.6545 7.14999L41.4346 10.39L32.3146 13.5L30.1445 0.98999L28.4545 1.72L26.5046 15.36L22.8146 16.54C19.3746 17.49 18.6945 19.03 18.5945 19.86V20.07L18.3945 20.14C18.2675 20.1762 18.1437 20.223 18.0245 20.28C16.9545 20.74 16.4745 21.47 16.7845 22.17C17.0945 22.87 17.9445 23.03 19.0145 22.56C19.1349 22.5114 19.2519 22.4546 19.3646 22.39L19.5546 22.28L19.7346 22.41C20.4646 22.95 22.5946 23.05 25.0546 21.59L28.4146 19.71L39.7145 27.6L41.4045 26.87L33.7446 16.73L42.2446 12.18Z" fill="#999999"/>
<path d="M58.4545 131.13L55.6346 132.35L44.3646 124.49L41.3646 126.15C38.9546 127.59 36.6146 127.69 35.4946 127.05L35.2645 127.16C33.5245 127.92 32.4945 127.24 32.1445 126.42C31.7945 125.6 31.9946 124.42 33.7346 123.64L33.9645 123.54C34.1745 122.54 35.0846 120.86 38.6346 119.87L41.9045 118.82L43.9045 105.23L46.7245 104L48.9146 116.59L56.9745 113.83L58.1946 110.6L60.4346 109.77L60.5945 112.77L61.3945 112.7L62.1246 114.37L61.5245 114.96L63.6445 117.16L61.5046 118.23L58.3246 116.91L50.7946 120.91L58.4545 131.13ZM58.2446 116.18L61.4446 117.51L62.4446 116.99L60.5046 114.99L61.2346 114.25L60.8945 113.46L59.8945 113.55L59.7446 110.75L58.6545 111.15L57.4346 114.39L48.3146 117.5L46.1445 104.99L44.4545 105.72L42.5046 119.36L38.8146 120.54C35.3746 121.49 34.6945 123.03 34.5945 123.86V124.07L34.3945 124.14C34.2675 124.176 34.1437 124.223 34.0245 124.28C32.9545 124.74 32.4745 125.47 32.7845 126.17C33.0945 126.87 33.9445 127.03 35.0145 126.56C35.1349 126.511 35.2519 126.455 35.3646 126.39L35.5546 126.28L35.7346 126.41C36.4646 126.95 38.5946 127.05 41.0546 125.59L44.4146 123.71L55.7145 131.6L57.4045 130.87L49.7446 120.73L58.2446 116.18Z" fill="#999999"/>
<path d="M155.234 215.06C155.288 215.06 155.342 215.047 155.389 215.021C155.437 214.994 155.476 214.956 155.504 214.91C155.864 214.363 156.198 213.813 156.504 213.26C156.55 213.186 156.565 213.098 156.546 213.014C156.527 212.93 156.476 212.857 156.404 212.81C156.33 212.765 156.241 212.752 156.157 212.772C156.073 212.793 156 212.846 155.954 212.92C155.614 213.47 155.274 214.01 154.954 214.56C154.93 214.595 154.913 214.635 154.905 214.676C154.896 214.718 154.896 214.762 154.904 214.804C154.913 214.845 154.929 214.885 154.953 214.921C154.977 214.956 155.008 214.986 155.044 215.01C155.103 215.041 155.168 215.059 155.234 215.06ZM157.234 211.74C157.291 211.739 157.346 211.724 157.395 211.696C157.444 211.668 157.485 211.628 157.514 211.58C157.834 211.01 158.154 210.44 158.514 209.87C158.555 209.795 158.565 209.707 158.543 209.625C158.52 209.544 158.467 209.473 158.394 209.43C158.318 209.39 158.23 209.381 158.148 209.406C158.066 209.43 157.996 209.485 157.954 209.56C157.644 210.13 157.324 210.69 157.004 211.25C156.96 211.324 156.946 211.413 156.967 211.497C156.988 211.581 157.041 211.654 157.114 211.7C157.166 211.728 157.225 211.742 157.284 211.74H157.234ZM159.094 208.32C159.154 208.319 159.213 208.302 159.264 208.27C159.315 208.238 159.357 208.193 159.384 208.14C159.684 207.56 159.974 206.97 160.254 206.39C160.273 206.351 160.284 206.31 160.286 206.268C160.289 206.226 160.283 206.183 160.269 206.143C160.255 206.103 160.233 206.066 160.205 206.035C160.177 206.003 160.143 205.978 160.104 205.96C160.066 205.941 160.025 205.93 159.983 205.927C159.94 205.925 159.898 205.931 159.858 205.945C159.818 205.959 159.781 205.98 159.75 206.009C159.718 206.037 159.692 206.071 159.674 206.11C159.394 206.69 159.104 207.27 158.804 207.85C158.786 207.888 158.775 207.929 158.772 207.971C158.77 208.013 158.775 208.056 158.789 208.096C158.803 208.136 158.825 208.173 158.853 208.204C158.882 208.236 158.916 208.261 158.954 208.28C158.981 208.3 159.012 208.314 159.045 208.321C159.078 208.327 159.112 208.327 159.144 208.32H159.094ZM160.784 204.8C160.847 204.799 160.908 204.78 160.961 204.747C161.014 204.713 161.057 204.666 161.084 204.61L161.864 202.82C161.897 202.739 161.897 202.648 161.863 202.567C161.829 202.487 161.765 202.423 161.684 202.39C161.605 202.36 161.516 202.362 161.438 202.395C161.36 202.429 161.298 202.491 161.264 202.57C161.014 203.16 160.754 203.75 160.494 204.35C160.476 204.387 160.466 204.429 160.464 204.471C160.462 204.513 160.469 204.555 160.484 204.594C160.499 204.633 160.522 204.669 160.551 204.699C160.58 204.729 160.615 204.753 160.654 204.77C160.71 204.797 160.773 204.808 160.834 204.8H160.784ZM162.294 201.21C162.358 201.209 162.421 201.19 162.474 201.154C162.527 201.119 162.569 201.068 162.594 201.01C162.834 200.39 163.064 199.78 163.294 199.17C163.308 199.129 163.314 199.087 163.312 199.045C163.31 199.002 163.299 198.961 163.28 198.923C163.262 198.884 163.236 198.85 163.204 198.822C163.172 198.794 163.135 198.773 163.094 198.76C163.015 198.733 162.928 198.738 162.852 198.773C162.775 198.809 162.716 198.872 162.684 198.95C162.464 199.56 162.234 200.16 161.994 200.77C161.964 200.849 161.966 200.937 162 201.016C162.033 201.094 162.096 201.156 162.174 201.19L162.294 201.21ZM163.634 197.55C163.701 197.549 163.766 197.527 163.82 197.488C163.873 197.448 163.913 197.393 163.934 197.33C164.154 196.71 164.354 196.09 164.544 195.47C164.57 195.387 164.562 195.298 164.523 195.222C164.483 195.145 164.416 195.087 164.334 195.06C164.252 195.034 164.163 195.042 164.087 195.081C164.01 195.12 163.952 195.188 163.924 195.27C163.734 195.89 163.534 196.5 163.324 197.12C163.299 197.202 163.307 197.291 163.346 197.367C163.385 197.444 163.453 197.502 163.534 197.53L163.634 197.55ZM164.794 193.83C164.865 193.828 164.933 193.804 164.989 193.761C165.045 193.717 165.085 193.657 165.104 193.59C165.284 192.96 165.464 192.33 165.624 191.71C165.646 191.626 165.634 191.537 165.591 191.463C165.548 191.388 165.477 191.333 165.394 191.31C165.354 191.299 165.311 191.297 165.27 191.302C165.228 191.308 165.188 191.322 165.152 191.344C165.115 191.365 165.084 191.393 165.058 191.427C165.033 191.461 165.015 191.499 165.004 191.54C164.834 192.16 164.664 192.79 164.484 193.41C164.472 193.45 164.468 193.493 164.473 193.535C164.477 193.577 164.49 193.618 164.51 193.656C164.531 193.693 164.559 193.726 164.592 193.752C164.625 193.779 164.663 193.798 164.704 193.81L164.794 193.83ZM165.794 190.06C165.866 190.057 165.935 190.032 165.991 189.987C166.047 189.941 166.087 189.879 166.104 189.81C166.254 189.17 166.404 188.53 166.534 187.9C166.545 187.859 166.546 187.816 166.54 187.775C166.533 187.733 166.518 187.694 166.496 187.658C166.473 187.622 166.444 187.592 166.409 187.568C166.375 187.544 166.336 187.528 166.294 187.52C166.253 187.509 166.21 187.507 166.168 187.514C166.126 187.52 166.085 187.535 166.049 187.557C166.012 187.58 165.981 187.609 165.956 187.644C165.931 187.679 165.914 187.718 165.904 187.76C165.774 188.39 165.624 189.02 165.474 189.66C165.456 189.743 165.471 189.83 165.516 189.903C165.56 189.976 165.632 190.028 165.714 190.05L165.794 190.06ZM166.614 186.24C166.69 186.241 166.763 186.216 166.822 186.168C166.88 186.12 166.92 186.054 166.934 185.98C167.054 185.34 167.174 184.7 167.284 184.06C167.299 183.976 167.28 183.89 167.231 183.821C167.182 183.751 167.108 183.704 167.024 183.69C166.982 183.681 166.939 183.681 166.897 183.689C166.855 183.698 166.815 183.715 166.779 183.739C166.744 183.763 166.713 183.794 166.69 183.83C166.667 183.867 166.651 183.907 166.644 183.95C166.534 184.58 166.424 185.22 166.294 185.86C166.286 185.902 166.285 185.945 166.294 185.987C166.302 186.029 166.319 186.069 166.344 186.105C166.368 186.14 166.399 186.17 166.435 186.194C166.471 186.217 166.512 186.232 166.554 186.24H166.614ZM167.274 182.4C167.352 182.403 167.427 182.377 167.487 182.327C167.546 182.277 167.584 182.206 167.594 182.13C167.694 181.48 167.784 180.83 167.864 180.19C167.87 180.147 167.867 180.105 167.856 180.064C167.845 180.023 167.826 179.984 167.8 179.951C167.774 179.917 167.741 179.889 167.704 179.869C167.667 179.848 167.626 179.834 167.584 179.83C167.542 179.822 167.499 179.824 167.457 179.835C167.416 179.845 167.377 179.864 167.343 179.891C167.309 179.917 167.281 179.95 167.261 179.988C167.24 180.025 167.228 180.067 167.224 180.11C167.144 180.736 167.054 181.376 166.954 182.03C166.943 182.114 166.964 182.2 167.015 182.269C167.065 182.338 167.14 182.385 167.224 182.4H167.274ZM167.764 178.53C167.845 178.532 167.923 178.504 167.983 178.449C168.043 178.395 168.079 178.32 168.084 178.24C168.154 177.59 168.224 176.94 168.274 176.3C168.28 176.214 168.252 176.129 168.196 176.063C168.139 175.998 168.06 175.957 167.974 175.95C167.932 175.944 167.89 175.947 167.85 175.959C167.809 175.971 167.772 175.991 167.74 176.019C167.707 176.046 167.681 176.08 167.663 176.118C167.645 176.156 167.635 176.197 167.634 176.24C167.574 176.88 167.514 177.53 167.444 178.18C167.44 178.222 167.444 178.264 167.457 178.304C167.469 178.345 167.489 178.382 167.516 178.415C167.543 178.448 167.576 178.474 167.614 178.494C167.651 178.514 167.692 178.526 167.734 178.53H167.764ZM168.094 174.65C168.176 174.65 168.254 174.619 168.314 174.563C168.373 174.507 168.409 174.431 168.414 174.35C168.414 173.68 168.494 173.03 168.514 172.35C168.517 172.307 168.511 172.264 168.497 172.223C168.483 172.183 168.46 172.146 168.431 172.114C168.402 172.082 168.367 172.056 168.328 172.039C168.289 172.021 168.247 172.011 168.204 172.01C168.12 172.013 168.04 172.047 167.978 172.103C167.916 172.16 167.876 172.236 167.864 172.32C167.864 172.96 167.864 173.61 167.774 174.26C167.769 174.345 167.797 174.43 167.853 174.496C167.909 174.561 167.989 174.602 168.074 174.61L168.094 174.65ZM168.244 170.75C168.329 170.75 168.411 170.716 168.471 170.656C168.531 170.596 168.564 170.514 168.564 170.43C168.564 169.97 168.564 169.52 168.564 169.07V168.48C168.564 168.395 168.531 168.313 168.471 168.253C168.411 168.193 168.329 168.16 168.244 168.16C168.159 168.16 168.078 168.193 168.018 168.253C167.958 168.313 167.924 168.395 167.924 168.48V169.07C167.924 169.52 167.924 169.97 167.924 170.42C167.923 170.462 167.93 170.505 167.946 170.545C167.961 170.585 167.985 170.622 168.014 170.652C168.044 170.683 168.08 170.708 168.119 170.724C168.159 170.741 168.201 170.75 168.244 170.75ZM168.244 166.85C168.287 166.85 168.33 166.841 168.369 166.824C168.409 166.808 168.444 166.783 168.474 166.752C168.504 166.722 168.527 166.685 168.543 166.645C168.558 166.605 168.566 166.562 168.564 166.52C168.564 165.85 168.504 165.2 168.474 164.52C168.467 164.434 168.426 164.354 168.36 164.298C168.295 164.242 168.21 164.214 168.124 164.22C168.082 164.222 168.041 164.233 168.003 164.251C167.965 164.27 167.932 164.296 167.904 164.327C167.876 164.359 167.854 164.396 167.841 164.435C167.827 164.475 167.822 164.517 167.824 164.56C167.824 165.19 167.894 165.84 167.914 166.5C167.91 166.547 167.915 166.594 167.931 166.639C167.947 166.683 167.973 166.724 168.006 166.757C168.04 166.791 168.08 166.816 168.125 166.832C168.17 166.848 168.217 166.854 168.264 166.85H168.244ZM168.014 162.96C168.056 162.956 168.097 162.944 168.135 162.924C168.172 162.904 168.205 162.878 168.232 162.845C168.259 162.812 168.279 162.775 168.292 162.734C168.304 162.694 168.308 162.652 168.304 162.61C168.244 161.943 168.174 161.276 168.094 160.61C168.091 160.567 168.078 160.525 168.058 160.488C168.038 160.45 168.01 160.417 167.976 160.391C167.942 160.364 167.903 160.345 167.861 160.335C167.82 160.324 167.777 160.322 167.734 160.33C167.65 160.342 167.574 160.386 167.522 160.453C167.47 160.52 167.446 160.605 167.454 160.69C167.534 161.3 167.604 161.95 167.664 162.62C167.66 162.669 167.668 162.718 167.686 162.764C167.704 162.81 167.733 162.851 167.77 162.884C167.807 162.917 167.851 162.941 167.898 162.954C167.946 162.967 167.996 162.969 168.044 162.96H168.014ZM167.534 159.09C167.618 159.075 167.692 159.028 167.741 158.958C167.79 158.889 167.809 158.803 167.794 158.72L167.734 158.33C167.644 157.82 167.544 157.33 167.444 156.79C167.436 156.748 167.419 156.709 167.396 156.674C167.372 156.639 167.342 156.609 167.306 156.585C167.271 156.562 167.231 156.546 167.19 156.538C167.148 156.53 167.106 156.531 167.064 156.54C167.022 156.547 166.982 156.562 166.946 156.586C166.91 156.609 166.88 156.639 166.856 156.675C166.833 156.711 166.817 156.751 166.81 156.793C166.802 156.835 166.804 156.878 166.814 156.92C166.914 157.43 167.004 157.92 167.094 158.44L167.164 158.82C167.169 158.865 167.183 158.908 167.205 158.947C167.228 158.986 167.259 159.02 167.296 159.045C167.334 159.071 167.376 159.088 167.42 159.096C167.465 159.104 167.511 159.101 167.554 159.09H167.534ZM166.764 155.27H166.834C166.875 155.261 166.915 155.245 166.949 155.221C166.984 155.197 167.013 155.167 167.036 155.131C167.058 155.095 167.073 155.056 167.08 155.014C167.086 154.973 167.085 154.93 167.074 154.89C166.924 154.25 166.774 153.62 166.604 152.98C166.593 152.939 166.573 152.9 166.547 152.867C166.52 152.834 166.488 152.806 166.45 152.786C166.413 152.765 166.372 152.752 166.33 152.748C166.288 152.743 166.245 152.747 166.204 152.76C166.164 152.77 166.125 152.788 166.092 152.814C166.058 152.839 166.03 152.871 166.008 152.907C165.987 152.943 165.973 152.983 165.967 153.025C165.961 153.066 165.964 153.109 165.974 153.15C166.144 153.78 166.304 154.4 166.444 155.03C166.465 155.102 166.51 155.166 166.572 155.21C166.634 155.254 166.709 155.275 166.784 155.27H166.764ZM165.764 151.51H165.854C165.895 151.498 165.933 151.479 165.967 151.452C166 151.426 166.028 151.393 166.048 151.356C166.069 151.318 166.081 151.277 166.086 151.235C166.09 151.193 166.087 151.15 166.074 151.11C165.884 150.48 165.684 149.86 165.474 149.24C165.461 149.199 165.439 149.162 165.411 149.13C165.383 149.098 165.349 149.072 165.311 149.054C165.273 149.035 165.232 149.024 165.189 149.022C165.147 149.019 165.104 149.025 165.064 149.04C165.024 149.053 164.987 149.074 164.955 149.102C164.923 149.13 164.897 149.164 164.878 149.203C164.86 149.241 164.849 149.282 164.847 149.325C164.844 149.367 164.85 149.409 164.864 149.45C165.074 150.06 165.264 150.68 165.454 151.3C165.478 151.364 165.522 151.42 165.579 151.458C165.637 151.495 165.705 151.514 165.774 151.51H165.764ZM164.514 147.81C164.55 147.819 164.588 147.819 164.624 147.81C164.704 147.78 164.768 147.721 164.804 147.644C164.84 147.567 164.843 147.479 164.814 147.4C164.584 146.79 164.344 146.18 164.084 145.58C164.069 145.54 164.046 145.504 164.016 145.473C163.987 145.443 163.951 145.418 163.912 145.401C163.873 145.385 163.831 145.376 163.788 145.375C163.746 145.375 163.704 145.383 163.664 145.4C163.625 145.416 163.59 145.44 163.561 145.47C163.531 145.5 163.508 145.535 163.492 145.574C163.476 145.613 163.468 145.655 163.469 145.697C163.469 145.739 163.478 145.781 163.494 145.82C163.744 146.42 163.984 147.02 164.204 147.63C164.234 147.688 164.28 147.736 164.337 147.768C164.394 147.8 164.459 147.815 164.524 147.81H164.514ZM163.044 144.27C163.09 144.279 163.138 144.279 163.184 144.27C163.262 144.233 163.321 144.167 163.351 144.087C163.381 144.007 163.379 143.918 163.344 143.84C163.064 143.25 162.784 142.66 162.484 142.07C162.444 141.996 162.377 141.94 162.297 141.914C162.217 141.888 162.13 141.894 162.054 141.93C161.976 141.968 161.917 142.036 161.889 142.119C161.861 142.201 161.866 142.291 161.904 142.37C162.204 142.94 162.484 143.52 162.754 144.11C162.783 144.161 162.825 144.203 162.876 144.232C162.927 144.26 162.986 144.273 163.044 144.27ZM161.284 140.79C161.333 140.803 161.385 140.803 161.434 140.79C161.472 140.77 161.506 140.742 161.533 140.709C161.56 140.676 161.58 140.638 161.592 140.597C161.604 140.556 161.608 140.513 161.603 140.47C161.599 140.428 161.585 140.387 161.564 140.35C161.244 139.78 160.914 139.21 160.564 138.66C160.544 138.622 160.516 138.59 160.482 138.564C160.448 138.538 160.409 138.519 160.368 138.509C160.327 138.499 160.284 138.497 160.242 138.504C160.2 138.511 160.16 138.526 160.124 138.55C160.088 138.571 160.057 138.6 160.031 138.633C160.006 138.667 159.988 138.706 159.978 138.747C159.968 138.788 159.966 138.83 159.972 138.872C159.978 138.913 159.992 138.953 160.014 138.99C160.354 139.54 160.674 140.1 161.014 140.67C161.047 140.697 161.086 140.718 161.127 140.73C161.168 140.742 161.212 140.745 161.254 140.74L161.284 140.79ZM159.284 137.46C159.343 137.477 159.406 137.477 159.464 137.46C159.5 137.436 159.531 137.406 159.555 137.371C159.579 137.335 159.596 137.295 159.604 137.254C159.613 137.212 159.613 137.168 159.604 137.126C159.595 137.085 159.579 137.045 159.554 137.01C159.184 136.47 158.814 135.93 158.424 135.4C158.373 135.332 158.297 135.287 158.213 135.274C158.129 135.261 158.044 135.281 157.974 135.33C157.907 135.381 157.862 135.457 157.849 135.541C157.836 135.624 157.856 135.71 157.904 135.78C158.284 136.3 158.654 136.83 159.014 137.37C159.078 137.407 159.152 137.421 159.224 137.41L159.284 137.46ZM115.284 135.25H115.694C115.736 135.247 115.777 135.236 115.815 135.218C115.853 135.199 115.887 135.173 115.915 135.142C115.943 135.11 115.964 135.073 115.978 135.034C115.991 134.994 115.997 134.952 115.994 134.91C115.993 134.867 115.983 134.825 115.965 134.787C115.947 134.748 115.921 134.714 115.889 134.686C115.858 134.657 115.82 134.636 115.78 134.623C115.739 134.61 115.697 134.605 115.654 134.61C115.272 134.645 114.887 134.645 114.504 134.61C114.275 134.581 114.048 134.537 113.824 134.48C113.741 134.458 113.652 134.47 113.577 134.513C113.503 134.556 113.448 134.627 113.424 134.71C113.414 134.751 113.412 134.794 113.418 134.836C113.425 134.878 113.44 134.919 113.462 134.955C113.484 134.991 113.514 135.023 113.549 135.048C113.583 135.073 113.623 135.09 113.664 135.1C113.917 135.17 114.174 135.22 114.434 135.25C114.682 135.245 114.929 135.228 115.174 135.2L115.284 135.25ZM117.584 134.86H117.684C118.334 134.631 118.939 134.293 119.474 133.86C119.534 133.798 119.568 133.715 119.568 133.63C119.568 133.544 119.534 133.461 119.474 133.4C119.444 133.369 119.409 133.344 119.369 133.327C119.33 133.311 119.287 133.302 119.244 133.302C119.201 133.302 119.159 133.311 119.119 133.327C119.08 133.344 119.044 133.369 119.014 133.4C118.536 133.781 117.999 134.082 117.424 134.29C117.384 134.303 117.347 134.324 117.315 134.352C117.283 134.38 117.257 134.414 117.238 134.453C117.22 134.491 117.209 134.532 117.207 134.575C117.204 134.617 117.21 134.659 117.224 134.7C117.256 134.735 117.294 134.763 117.337 134.782C117.38 134.801 117.427 134.81 117.474 134.81L117.584 134.86ZM157.034 134.32C157.107 134.32 157.178 134.296 157.234 134.25C157.294 134.188 157.328 134.105 157.328 134.02C157.328 133.934 157.294 133.851 157.234 133.79C156.824 133.28 156.394 132.79 155.974 132.29C155.913 132.23 155.83 132.196 155.744 132.196C155.658 132.196 155.576 132.23 155.514 132.29C155.454 132.351 155.421 132.434 155.421 132.52C155.421 132.605 155.454 132.688 155.514 132.75C155.934 133.23 156.354 133.75 156.754 134.23C156.807 134.257 156.865 134.271 156.924 134.27L157.034 134.32ZM111.974 134.27C112.027 134.268 112.079 134.255 112.125 134.23C112.172 134.206 112.213 134.172 112.244 134.13C112.29 134.056 112.305 133.968 112.286 133.884C112.267 133.8 112.216 133.727 112.144 133.68C111.628 133.337 111.161 132.927 110.754 132.46C110.694 132.4 110.614 132.367 110.529 132.367C110.445 132.367 110.364 132.4 110.304 132.46C110.244 132.521 110.211 132.604 110.211 132.69C110.211 132.775 110.244 132.858 110.304 132.92C110.748 133.437 111.263 133.888 111.834 134.26C111.844 134.263 111.854 134.267 111.864 134.27H111.974ZM120.504 132.42C120.562 132.418 120.618 132.402 120.667 132.372C120.716 132.342 120.756 132.3 120.784 132.25C121.114 131.627 121.328 130.949 121.414 130.25C121.42 130.207 121.417 130.165 121.406 130.124C121.395 130.083 121.376 130.044 121.35 130.011C121.324 129.977 121.291 129.949 121.254 129.929C121.217 129.908 121.176 129.894 121.134 129.89C121.051 129.878 120.966 129.9 120.899 129.951C120.831 130.001 120.787 130.076 120.774 130.16C120.691 130.767 120.505 131.355 120.224 131.9C120.203 131.937 120.19 131.978 120.185 132.02C120.18 132.063 120.184 132.106 120.196 132.147C120.208 132.188 120.229 132.226 120.256 132.259C120.283 132.292 120.316 132.32 120.354 132.34C120.367 132.35 120.38 132.36 120.394 132.37L120.504 132.42ZM154.454 131.42C154.54 131.42 154.622 131.388 154.684 131.33C154.744 131.268 154.778 131.185 154.778 131.1C154.778 131.014 154.744 130.931 154.684 130.87C154.224 130.4 153.754 129.94 153.284 129.49C153.223 129.43 153.14 129.396 153.054 129.396C152.968 129.396 152.886 129.43 152.824 129.49C152.765 129.549 152.732 129.63 152.732 129.715C152.732 129.799 152.765 129.88 152.824 129.94C153.284 130.38 153.744 130.84 154.194 131.3C154.24 131.326 154.292 131.34 154.344 131.34L154.454 131.42ZM109.454 131.42C109.504 131.429 109.555 131.429 109.604 131.42C109.679 131.377 109.734 131.309 109.76 131.227C109.786 131.145 109.781 131.057 109.744 130.98C109.463 130.423 109.258 129.831 109.134 129.22C109.125 129.178 109.107 129.139 109.082 129.104C109.058 129.069 109.026 129.04 108.99 129.017C108.953 128.995 108.913 128.98 108.871 128.974C108.829 128.967 108.786 128.969 108.744 128.98C108.703 128.988 108.663 129.004 108.628 129.028C108.593 129.052 108.563 129.082 108.54 129.117C108.517 129.153 108.501 129.192 108.493 129.234C108.485 129.275 108.486 129.318 108.494 129.36C108.639 130.021 108.864 130.662 109.164 131.27C109.212 131.3 109.268 131.317 109.324 131.32L109.454 131.42ZM151.644 128.77C151.69 128.769 151.735 128.759 151.776 128.74C151.818 128.721 151.854 128.694 151.884 128.66C151.944 128.598 151.978 128.515 151.978 128.43C151.978 128.344 151.944 128.261 151.884 128.2L151.284 127.7L150.354 126.97C150.285 126.917 150.198 126.894 150.112 126.905C150.026 126.916 149.948 126.961 149.894 127.03C149.845 127.098 149.823 127.183 149.835 127.266C149.846 127.35 149.889 127.426 149.954 127.48L150.874 128.2L151.464 128.7C151.482 128.691 151.499 128.681 151.514 128.67L151.644 128.77ZM121.124 128.68C121.21 128.669 121.289 128.626 121.343 128.559C121.397 128.491 121.423 128.406 121.414 128.32C121.338 127.641 121.197 126.971 120.994 126.32C120.983 126.279 120.963 126.24 120.937 126.207C120.91 126.174 120.878 126.146 120.84 126.126C120.803 126.105 120.762 126.092 120.72 126.088C120.678 126.083 120.635 126.087 120.594 126.1C120.553 126.111 120.515 126.13 120.483 126.157C120.45 126.184 120.422 126.217 120.403 126.254C120.383 126.292 120.371 126.333 120.368 126.375C120.365 126.417 120.37 126.46 120.384 126.5C120.566 127.104 120.696 127.723 120.774 128.35C120.788 128.404 120.815 128.453 120.854 128.494C120.892 128.534 120.941 128.564 120.994 128.58L121.124 128.68ZM108.674 127.68C108.756 127.68 108.834 127.649 108.894 127.593C108.953 127.537 108.989 127.461 108.994 127.38C109.04 126.765 109.182 126.161 109.414 125.59C109.431 125.551 109.439 125.509 109.44 125.467C109.44 125.425 109.432 125.383 109.416 125.344C109.401 125.305 109.377 125.27 109.348 125.24C109.318 125.21 109.283 125.186 109.244 125.17C109.206 125.153 109.164 125.144 109.122 125.144C109.08 125.144 109.038 125.152 108.999 125.167C108.96 125.183 108.924 125.207 108.894 125.236C108.865 125.266 108.841 125.301 108.824 125.34C108.559 125.976 108.4 126.652 108.354 127.34C108.35 127.382 108.355 127.426 108.368 127.467C108.381 127.508 108.402 127.546 108.43 127.578C108.458 127.611 108.492 127.638 108.531 127.657C108.569 127.676 108.611 127.687 108.654 127.69L108.674 127.68ZM148.414 126.27C148.467 126.27 148.52 126.258 148.567 126.234C148.614 126.209 148.654 126.173 148.684 126.13C148.732 126.059 148.75 125.972 148.735 125.888C148.72 125.805 148.673 125.73 148.604 125.68C148.064 125.31 147.504 124.95 146.954 124.61C146.88 124.565 146.791 124.552 146.707 124.572C146.623 124.593 146.55 124.646 146.504 124.72C146.483 124.756 146.468 124.796 146.462 124.837C146.456 124.879 146.458 124.921 146.468 124.962C146.478 125.003 146.496 125.042 146.521 125.076C146.547 125.109 146.578 125.138 146.614 125.16C147.161 125.5 147.701 125.85 148.234 126.21C148.287 126.247 148.35 126.268 148.414 126.27ZM119.914 124.82C119.957 124.83 120.002 124.83 120.044 124.82C120.123 124.784 120.185 124.72 120.217 124.639C120.249 124.559 120.248 124.469 120.214 124.39C119.964 123.82 119.674 123.22 119.344 122.62C119.324 122.582 119.297 122.548 119.264 122.521C119.231 122.494 119.193 122.474 119.152 122.462C119.111 122.449 119.068 122.446 119.025 122.451C118.983 122.455 118.942 122.469 118.904 122.49C118.83 122.532 118.775 122.601 118.75 122.683C118.726 122.765 118.735 122.854 118.774 122.93C119.094 123.51 119.384 124.09 119.624 124.65C119.648 124.708 119.688 124.757 119.739 124.793C119.791 124.829 119.852 124.848 119.914 124.85V124.82ZM145.044 124.27C145.104 124.271 145.162 124.256 145.213 124.226C145.265 124.196 145.306 124.152 145.334 124.1C145.374 124.024 145.382 123.935 145.358 123.853C145.334 123.771 145.279 123.702 145.204 123.66C144.634 123.35 144.044 123.05 143.454 122.76C143.416 122.741 143.375 122.73 143.333 122.727C143.29 122.725 143.248 122.731 143.208 122.745C143.168 122.759 143.131 122.78 143.1 122.809C143.068 122.837 143.042 122.871 143.024 122.91C143.006 122.948 142.995 122.989 142.992 123.031C142.99 123.074 142.995 123.116 143.009 123.156C143.023 123.196 143.045 123.233 143.073 123.264C143.102 123.296 143.136 123.321 143.174 123.34C143.754 123.62 144.334 123.92 144.894 124.23C144.939 124.257 144.992 124.271 145.044 124.27ZM109.964 124.02C110.012 124.019 110.059 124.008 110.103 123.987C110.146 123.966 110.184 123.936 110.214 123.9C110.619 123.427 111.075 123.001 111.574 122.63C111.61 122.606 111.64 122.575 111.663 122.539C111.686 122.503 111.701 122.462 111.708 122.42C111.714 122.378 111.712 122.334 111.701 122.293C111.69 122.252 111.671 122.213 111.644 122.18C111.62 122.144 111.589 122.114 111.553 122.091C111.517 122.068 111.477 122.053 111.435 122.046C111.392 122.04 111.349 122.042 111.308 122.053C111.266 122.064 111.228 122.083 111.194 122.11C110.65 122.512 110.153 122.975 109.714 123.49C109.657 123.551 109.626 123.631 109.626 123.715C109.626 123.798 109.657 123.878 109.714 123.94C109.758 123.979 109.812 124.006 109.87 124.018C109.928 124.031 109.988 124.028 110.044 124.01L109.964 124.02ZM141.544 122.57C141.608 122.567 141.669 122.546 141.722 122.511C141.775 122.476 141.817 122.427 141.844 122.37C141.861 122.331 141.869 122.289 141.87 122.247C141.87 122.205 141.862 122.163 141.846 122.124C141.831 122.085 141.807 122.05 141.778 122.02C141.748 121.99 141.713 121.966 141.674 121.95C141.064 121.69 140.454 121.45 139.844 121.22C139.763 121.19 139.674 121.194 139.596 121.229C139.517 121.265 139.456 121.329 139.424 121.41C139.395 121.492 139.4 121.582 139.438 121.661C139.475 121.739 139.542 121.8 139.624 121.83C140.224 122.05 140.824 122.29 141.414 122.54C141.471 122.564 141.534 122.571 141.594 122.56L141.544 122.57ZM113.054 121.69C113.1 121.704 113.149 121.704 113.194 121.69C113.767 121.413 114.354 121.17 114.954 120.96C114.995 120.946 115.032 120.925 115.064 120.897C115.096 120.869 115.122 120.835 115.14 120.796C115.159 120.758 115.17 120.717 115.172 120.674C115.174 120.632 115.168 120.59 115.154 120.55C115.141 120.509 115.119 120.472 115.091 120.44C115.063 120.408 115.029 120.382 114.991 120.364C114.953 120.345 114.912 120.334 114.869 120.332C114.827 120.329 114.784 120.335 114.744 120.35C114.117 120.568 113.503 120.822 112.904 121.11C112.828 121.15 112.771 121.219 112.745 121.301C112.718 121.383 112.725 121.472 112.764 121.55C112.801 121.603 112.853 121.644 112.914 121.668C112.975 121.691 113.041 121.695 113.104 121.68L113.054 121.69ZM118.054 121.42C118.115 121.423 118.175 121.406 118.224 121.37C118.261 121.348 118.292 121.319 118.317 121.285C118.342 121.251 118.36 121.212 118.369 121.171C118.379 121.13 118.379 121.087 118.372 121.046C118.364 121.004 118.348 120.965 118.324 120.93C118.164 120.67 117.994 120.42 117.824 120.15L118.714 119.97C118.798 119.955 118.872 119.908 118.921 119.838C118.97 119.769 118.989 119.683 118.974 119.6C118.967 119.557 118.951 119.517 118.928 119.48C118.905 119.444 118.875 119.413 118.839 119.389C118.804 119.365 118.764 119.348 118.722 119.339C118.68 119.331 118.636 119.331 118.594 119.34C118.204 119.41 117.814 119.49 117.434 119.58L117.234 119.3C117.21 119.264 117.179 119.234 117.144 119.211C117.108 119.188 117.068 119.172 117.026 119.165C116.984 119.158 116.941 119.159 116.9 119.168C116.858 119.177 116.819 119.195 116.784 119.22C116.749 119.244 116.719 119.274 116.696 119.31C116.673 119.346 116.657 119.386 116.65 119.428C116.642 119.47 116.643 119.513 116.653 119.554C116.662 119.596 116.68 119.635 116.704 119.67L116.754 119.74H116.674C116.591 119.763 116.519 119.818 116.475 119.892C116.43 119.966 116.416 120.055 116.434 120.14C116.46 120.221 116.515 120.29 116.589 120.333C116.663 120.375 116.751 120.389 116.834 120.37L117.144 120.3C117.374 120.62 117.584 120.95 117.784 121.3C117.816 121.337 117.856 121.367 117.901 121.386C117.946 121.405 117.995 121.413 118.044 121.41L118.054 121.42ZM137.914 121.21C137.983 121.212 138.051 121.192 138.107 121.153C138.163 121.113 138.204 121.055 138.224 120.99C138.25 120.907 138.242 120.818 138.203 120.742C138.163 120.665 138.096 120.607 138.014 120.58C137.394 120.39 136.754 120.2 136.124 120.04C136.084 120.028 136.041 120.024 135.999 120.029C135.957 120.035 135.916 120.048 135.879 120.07C135.843 120.091 135.811 120.12 135.786 120.155C135.761 120.189 135.744 120.228 135.734 120.27C135.724 120.31 135.721 120.353 135.727 120.394C135.733 120.436 135.747 120.476 135.768 120.512C135.79 120.548 135.818 120.58 135.852 120.605C135.885 120.631 135.924 120.649 135.964 120.66C136.584 120.82 137.204 121.01 137.824 121.2L137.914 121.21ZM134.154 120.21C134.229 120.211 134.301 120.185 134.358 120.137C134.414 120.089 134.452 120.023 134.464 119.95C134.473 119.908 134.474 119.865 134.466 119.824C134.458 119.782 134.442 119.743 134.419 119.707C134.395 119.672 134.365 119.642 134.33 119.618C134.295 119.594 134.256 119.578 134.214 119.57C133.574 119.43 132.924 119.31 132.284 119.21C132.201 119.195 132.115 119.214 132.045 119.263C131.976 119.312 131.929 119.386 131.914 119.47C131.906 119.512 131.906 119.555 131.915 119.597C131.924 119.64 131.942 119.679 131.968 119.714C131.993 119.749 132.025 119.778 132.063 119.8C132.1 119.821 132.141 119.835 132.184 119.84C132.814 119.95 133.454 120.07 134.084 120.2L134.154 120.21ZM120.584 119.66C121.214 119.57 121.864 119.5 122.504 119.45C122.59 119.442 122.669 119.401 122.725 119.336C122.782 119.27 122.81 119.185 122.804 119.1C122.801 119.057 122.788 119.017 122.769 118.979C122.749 118.942 122.722 118.909 122.69 118.882C122.657 118.855 122.62 118.834 122.579 118.822C122.539 118.81 122.496 118.805 122.454 118.81C121.804 118.81 121.144 118.93 120.454 119.02C120.412 119.024 120.372 119.038 120.336 119.059C120.299 119.08 120.267 119.108 120.242 119.141C120.217 119.175 120.198 119.214 120.189 119.255C120.179 119.296 120.177 119.338 120.184 119.38C120.188 119.428 120.203 119.475 120.227 119.517C120.252 119.559 120.285 119.595 120.326 119.622C120.366 119.649 120.413 119.667 120.461 119.673C120.509 119.679 120.558 119.675 120.604 119.66H120.584ZM130.304 119.58C130.384 119.58 130.461 119.55 130.521 119.497C130.58 119.443 130.617 119.369 130.624 119.29C130.633 119.206 130.608 119.123 130.556 119.057C130.503 118.992 130.427 118.95 130.344 118.94C129.694 118.86 129.034 118.8 128.344 118.76C128.302 118.757 128.26 118.762 128.22 118.776C128.18 118.79 128.144 118.811 128.112 118.839C128.08 118.867 128.055 118.901 128.036 118.938C128.018 118.976 128.007 119.017 128.004 119.06C128 119.102 128.005 119.145 128.018 119.185C128.031 119.226 128.052 119.263 128.08 119.295C128.108 119.327 128.143 119.352 128.181 119.37C128.22 119.388 128.262 119.398 128.304 119.4C128.944 119.45 129.594 119.5 130.224 119.58H130.304ZM124.464 119.34C125.114 119.34 125.754 119.34 126.404 119.34C126.446 119.341 126.487 119.334 126.526 119.319C126.565 119.304 126.6 119.281 126.63 119.252C126.66 119.223 126.684 119.189 126.7 119.151C126.716 119.112 126.724 119.071 126.724 119.03C126.726 118.988 126.719 118.946 126.704 118.906C126.689 118.867 126.666 118.831 126.638 118.8C126.609 118.77 126.574 118.745 126.536 118.728C126.498 118.71 126.456 118.701 126.414 118.7C125.754 118.7 125.104 118.7 124.414 118.7C124.371 118.701 124.329 118.711 124.29 118.729C124.251 118.746 124.216 118.772 124.187 118.804C124.158 118.836 124.136 118.873 124.122 118.913C124.108 118.954 124.102 118.997 124.104 119.04C124.106 119.085 124.118 119.13 124.139 119.171C124.16 119.212 124.19 119.248 124.226 119.276C124.262 119.305 124.303 119.325 124.348 119.336C124.393 119.347 124.439 119.348 124.484 119.34H124.464ZM115.814 118.23C115.887 118.23 115.958 118.206 116.014 118.16C116.073 118.1 116.107 118.019 116.107 117.935C116.107 117.85 116.073 117.769 116.014 117.71C115.614 117.19 115.194 116.71 114.774 116.18C114.714 116.12 114.634 116.087 114.549 116.087C114.465 116.087 114.384 116.12 114.324 116.18C114.264 116.241 114.231 116.324 114.231 116.41C114.231 116.495 114.264 116.578 114.324 116.64C114.734 117.12 115.154 117.64 115.544 118.13C115.576 118.176 115.619 118.214 115.67 118.239C115.721 118.263 115.778 118.274 115.834 118.27L115.814 118.23ZM113.274 115.23C113.315 115.23 113.356 115.222 113.393 115.206C113.431 115.191 113.465 115.168 113.494 115.14C113.525 115.111 113.549 115.076 113.566 115.037C113.582 114.998 113.591 114.957 113.591 114.915C113.591 114.872 113.582 114.831 113.566 114.792C113.549 114.753 113.525 114.719 113.494 114.69C113.044 114.21 112.574 113.75 112.094 113.31C112.065 113.279 112.03 113.255 111.992 113.238C111.953 113.221 111.911 113.213 111.869 113.213C111.827 113.213 111.785 113.221 111.747 113.238C111.708 113.255 111.673 113.279 111.644 113.31C111.613 113.339 111.589 113.375 111.572 113.415C111.555 113.454 111.547 113.497 111.547 113.54C111.547 113.582 111.555 113.625 111.572 113.664C111.589 113.704 111.613 113.74 111.644 113.77C112.114 114.2 112.574 114.66 113.024 115.12C113.051 115.167 113.09 115.207 113.138 115.233C113.185 115.26 113.24 115.273 113.294 115.27L113.274 115.23ZM110.424 112.58C110.519 112.577 110.609 112.538 110.674 112.47C110.734 112.408 110.768 112.325 110.768 112.24C110.768 112.154 110.734 112.071 110.674 112.01C110.164 111.59 109.674 111.19 109.114 110.81C109.08 110.785 109.04 110.767 108.999 110.758C108.957 110.749 108.914 110.748 108.872 110.755C108.831 110.762 108.791 110.778 108.755 110.801C108.719 110.824 108.688 110.854 108.664 110.89C108.639 110.924 108.621 110.962 108.611 111.003C108.601 111.045 108.599 111.087 108.605 111.129C108.612 111.171 108.626 111.211 108.649 111.247C108.671 111.283 108.7 111.315 108.734 111.34C109.254 111.713 109.764 112.103 110.264 112.51C110.31 112.566 110.373 112.605 110.444 112.62L110.424 112.58ZM107.254 110.32C107.308 110.319 107.361 110.305 107.409 110.279C107.456 110.253 107.496 110.215 107.524 110.17C107.57 110.096 107.585 110.008 107.566 109.924C107.547 109.84 107.496 109.767 107.424 109.72C106.864 109.38 106.284 109.05 105.704 108.72C105.627 108.681 105.538 108.674 105.456 108.7C105.373 108.726 105.305 108.783 105.264 108.86C105.226 108.935 105.219 109.023 105.245 109.103C105.272 109.184 105.329 109.251 105.404 109.29C105.974 109.59 106.534 109.91 107.084 110.29C107.11 110.313 107.14 110.332 107.172 110.344C107.205 110.356 107.24 110.361 107.274 110.36L107.254 110.32ZM103.794 108.52C103.857 108.521 103.92 108.504 103.973 108.47C104.026 108.436 104.069 108.387 104.094 108.33C104.111 108.291 104.119 108.249 104.12 108.207C104.12 108.165 104.112 108.123 104.096 108.084C104.081 108.045 104.057 108.01 104.028 107.98C103.998 107.95 103.963 107.926 103.924 107.91C103.324 107.65 102.704 107.41 102.084 107.19C102.044 107.175 102.002 107.169 101.959 107.172C101.917 107.174 101.876 107.185 101.837 107.204C101.799 107.222 101.765 107.248 101.737 107.28C101.709 107.312 101.688 107.349 101.674 107.39C101.66 107.43 101.654 107.472 101.657 107.514C101.659 107.557 101.67 107.598 101.688 107.636C101.707 107.675 101.733 107.709 101.765 107.737C101.797 107.765 101.834 107.786 101.874 107.8C102.474 108.01 103.084 108.25 103.664 108.5C103.708 108.532 103.76 108.553 103.814 108.56L103.794 108.52ZM78.8943 107.72H78.9643L80.8643 107.32C80.9067 107.312 80.9471 107.297 80.9833 107.274C81.0195 107.25 81.0507 107.22 81.0749 107.185C81.0992 107.149 81.1161 107.109 81.1245 107.067C81.133 107.025 81.133 106.982 81.1243 106.94C81.1051 106.857 81.055 106.785 80.9842 106.739C80.9135 106.692 80.8276 106.675 80.7443 106.69C80.1043 106.81 79.4643 106.95 78.8243 107.09C78.7419 107.109 78.6699 107.159 78.6234 107.23C78.5769 107.3 78.5593 107.386 78.5743 107.47C78.5864 107.551 78.6275 107.625 78.69 107.678C78.7525 107.732 78.8321 107.76 78.9143 107.76L78.8943 107.72ZM100.114 107.24C100.187 107.242 100.258 107.219 100.316 107.176C100.375 107.132 100.416 107.07 100.434 107C100.445 106.959 100.447 106.916 100.441 106.875C100.435 106.833 100.421 106.793 100.4 106.757C100.379 106.721 100.35 106.689 100.317 106.664C100.283 106.638 100.245 106.62 100.204 106.61C99.5743 106.44 98.9343 106.28 98.2843 106.15C98.1995 106.135 98.1124 106.154 98.0415 106.202C97.9705 106.251 97.9212 106.325 97.9043 106.41C97.8892 106.493 97.9068 106.579 97.9533 106.649C97.9999 106.72 98.0718 106.77 98.1543 106.79C98.7943 106.91 99.4243 107.06 100.034 107.23L100.114 107.24ZM82.7143 106.96H82.7743C83.4409 106.846 84.081 106.746 84.6943 106.66C84.7785 106.645 84.8535 106.598 84.9039 106.529C84.9543 106.46 84.9759 106.374 84.9643 106.29C84.9594 106.248 84.9462 106.207 84.9252 106.171C84.9042 106.134 84.876 106.102 84.8423 106.077C84.8086 106.052 84.7701 106.034 84.7292 106.024C84.6883 106.014 84.6458 106.012 84.6043 106.02C83.9543 106.11 83.3143 106.21 82.6643 106.32C82.5808 106.334 82.5065 106.381 82.4577 106.451C82.409 106.52 82.3897 106.606 82.4043 106.69C82.4042 106.732 82.4128 106.774 82.4297 106.813C82.4465 106.852 82.4711 106.887 82.502 106.916C82.533 106.945 82.5696 106.968 82.6095 106.982C82.6495 106.996 82.6919 107.002 82.7343 107L82.7143 106.96ZM96.3043 106.47C96.3821 106.468 96.4569 106.439 96.5154 106.388C96.574 106.337 96.6125 106.266 96.6243 106.19C96.6299 106.147 96.627 106.105 96.6159 106.064C96.6048 106.023 96.5857 105.984 96.5597 105.951C96.5336 105.917 96.5011 105.889 96.4641 105.869C96.4272 105.848 96.3864 105.834 96.3443 105.83C95.7043 105.74 95.0443 105.67 94.3443 105.62C94.3027 105.615 94.2609 105.62 94.221 105.632C94.1812 105.645 94.1443 105.665 94.1126 105.692C94.0808 105.719 94.0548 105.752 94.0362 105.79C94.0176 105.827 94.0068 105.868 94.0043 105.91C94.0002 105.952 94.0044 105.994 94.0168 106.034C94.0291 106.075 94.0494 106.112 94.0763 106.145C94.1033 106.177 94.1365 106.204 94.1739 106.224C94.2113 106.244 94.2522 106.256 94.2943 106.26C94.9443 106.31 95.5943 106.38 96.2143 106.47H96.3043ZM86.5743 106.42C87.2143 106.35 87.8643 106.3 88.5043 106.25C88.5464 106.247 88.5875 106.236 88.6253 106.218C88.6632 106.199 88.697 106.173 88.7249 106.142C88.7528 106.11 88.7741 106.073 88.7878 106.034C88.8014 105.994 88.807 105.952 88.8043 105.91C88.8018 105.867 88.7907 105.825 88.7716 105.786C88.7525 105.747 88.7258 105.713 88.6931 105.685C88.6604 105.657 88.6224 105.636 88.5814 105.623C88.5404 105.61 88.4971 105.605 88.4543 105.61C87.8043 105.61 87.1543 105.71 86.4543 105.78C86.4122 105.783 86.3712 105.795 86.3338 105.815C86.2964 105.835 86.2633 105.862 86.2364 105.894C86.2094 105.927 86.1892 105.964 86.1768 106.005C86.1644 106.045 86.1601 106.087 86.1643 106.13C86.1592 106.183 86.1679 106.238 86.1895 106.287C86.2112 106.337 86.2451 106.38 86.2881 106.413C86.331 106.446 86.3817 106.468 86.4352 106.476C86.4888 106.484 86.5435 106.478 86.5943 106.46L86.5743 106.42ZM92.4143 106.16C92.4984 106.16 92.5795 106.128 92.6408 106.07C92.7022 106.012 92.7392 105.934 92.7443 105.85C92.7456 105.807 92.7383 105.764 92.7229 105.724C92.7074 105.684 92.684 105.648 92.6541 105.617C92.6243 105.586 92.5886 105.562 92.5491 105.545C92.5096 105.528 92.4672 105.52 92.4243 105.52C91.7743 105.52 91.1143 105.52 90.4243 105.52C90.3814 105.52 90.339 105.528 90.2995 105.545C90.26 105.562 90.2242 105.586 90.1944 105.617C90.1645 105.648 90.1412 105.684 90.1257 105.724C90.1102 105.764 90.1029 105.807 90.1043 105.85C90.1069 105.933 90.1417 106.012 90.2014 106.069C90.2612 106.127 90.3411 106.16 90.4243 106.16H92.3743H92.4143Z" fill="#999999"/>
<path d="M42.4545 54.13L39.6346 55.35L28.3646 47.49L25.3646 49.15C22.9546 50.59 20.6146 50.69 19.4946 50.05L19.2645 50.16C17.5245 50.92 16.4945 50.24 16.1445 49.42C15.7945 48.6 15.9946 47.42 17.7346 46.64L17.9645 46.54C18.1745 45.54 19.0846 43.86 22.6346 42.87L25.9045 41.82L27.9045 28.23L30.7245 27L32.9146 39.59L40.9745 36.83L42.1946 33.6L44.4346 32.77L44.5945 35.77L45.3945 35.7L46.1246 37.37L45.5245 37.96L47.6445 40.16L45.5046 41.23L42.3246 39.91L34.7946 43.91L42.4545 54.13ZM42.2446 39.18L45.4446 40.51L46.4446 39.99L44.5046 37.99L45.2346 37.25L44.8945 36.46L43.8945 36.55L43.7446 33.75L42.6545 34.15L41.4346 37.39L32.3146 40.5L30.1445 27.99L28.4545 28.72L26.5046 42.36L22.8146 43.54C19.3746 44.49 18.6945 46.03 18.5945 46.86V47.07L18.3945 47.14C18.2675 47.1762 18.1437 47.223 18.0245 47.28C16.9545 47.74 16.4745 48.47 16.7845 49.17C17.0945 49.87 17.9445 50.03 19.0145 49.56C19.1349 49.5114 19.2519 49.4546 19.3646 49.39L19.5546 49.28L19.7346 49.41C20.4646 49.95 22.5946 50.05 25.0546 48.59L28.4146 46.71L39.7145 54.6L41.4045 53.87L33.7446 43.73L42.2446 39.18Z" fill="#999999"/>
<path d="M139.234 138.06C139.288 138.06 139.342 138.047 139.389 138.021C139.437 137.994 139.476 137.956 139.504 137.91C139.864 137.363 140.198 136.813 140.504 136.26C140.55 136.186 140.565 136.098 140.546 136.014C140.527 135.93 140.476 135.857 140.404 135.81C140.33 135.765 140.241 135.752 140.157 135.772C140.073 135.793 140 135.846 139.954 135.92C139.614 136.47 139.274 137.01 138.954 137.56C138.93 137.595 138.913 137.635 138.905 137.676C138.896 137.718 138.896 137.762 138.904 137.804C138.913 137.845 138.929 137.885 138.953 137.921C138.977 137.956 139.008 137.986 139.044 138.01C139.103 138.041 139.168 138.059 139.234 138.06ZM141.234 134.74C141.291 134.739 141.346 134.724 141.395 134.696C141.444 134.668 141.485 134.628 141.514 134.58C141.834 134.01 142.154 133.44 142.514 132.87C142.555 132.795 142.565 132.707 142.543 132.625C142.52 132.544 142.467 132.473 142.394 132.43C142.318 132.39 142.23 132.381 142.148 132.406C142.066 132.43 141.996 132.485 141.954 132.56C141.644 133.13 141.324 133.69 141.004 134.25C140.96 134.324 140.946 134.413 140.967 134.497C140.988 134.581 141.041 134.654 141.114 134.7C141.166 134.728 141.225 134.742 141.284 134.74H141.234ZM143.094 131.32C143.154 131.319 143.213 131.302 143.264 131.27C143.315 131.238 143.357 131.193 143.384 131.14C143.684 130.56 143.974 129.97 144.254 129.39C144.273 129.351 144.284 129.31 144.286 129.268C144.289 129.226 144.283 129.183 144.269 129.143C144.255 129.103 144.233 129.066 144.205 129.035C144.177 129.003 144.143 128.978 144.104 128.96C144.066 128.941 144.025 128.93 143.983 128.927C143.94 128.925 143.898 128.931 143.858 128.945C143.818 128.959 143.781 128.98 143.75 129.009C143.718 129.037 143.692 129.071 143.674 129.11C143.394 129.69 143.104 130.27 142.804 130.85C142.786 130.888 142.775 130.929 142.772 130.971C142.77 131.013 142.775 131.056 142.789 131.096C142.803 131.136 142.825 131.173 142.853 131.204C142.882 131.236 142.916 131.261 142.954 131.28C142.981 131.3 143.012 131.314 143.045 131.321C143.078 131.327 143.112 131.327 143.144 131.32H143.094ZM144.784 127.8C144.847 127.799 144.908 127.78 144.961 127.747C145.014 127.713 145.057 127.666 145.084 127.61L145.864 125.82C145.897 125.739 145.897 125.648 145.863 125.567C145.829 125.487 145.765 125.423 145.684 125.39C145.605 125.36 145.516 125.362 145.438 125.395C145.36 125.429 145.298 125.491 145.264 125.57C145.014 126.16 144.754 126.75 144.494 127.35C144.476 127.387 144.466 127.429 144.464 127.471C144.462 127.513 144.469 127.555 144.484 127.594C144.499 127.633 144.522 127.669 144.551 127.699C144.58 127.729 144.615 127.753 144.654 127.77C144.71 127.797 144.773 127.808 144.834 127.8H144.784ZM146.294 124.21C146.358 124.209 146.421 124.19 146.474 124.154C146.527 124.119 146.569 124.068 146.594 124.01C146.834 123.39 147.064 122.78 147.294 122.17C147.308 122.129 147.314 122.087 147.312 122.045C147.31 122.002 147.299 121.961 147.28 121.923C147.262 121.884 147.236 121.85 147.204 121.822C147.172 121.794 147.135 121.773 147.094 121.76C147.015 121.733 146.928 121.738 146.852 121.773C146.775 121.809 146.716 121.872 146.684 121.95C146.464 122.56 146.234 123.16 145.994 123.77C145.964 123.849 145.966 123.937 146 124.016C146.033 124.094 146.096 124.156 146.174 124.19L146.294 124.21ZM147.634 120.55C147.701 120.549 147.766 120.527 147.82 120.488C147.873 120.448 147.913 120.393 147.934 120.33C148.154 119.71 148.354 119.09 148.544 118.47C148.57 118.387 148.562 118.298 148.523 118.222C148.483 118.145 148.416 118.087 148.334 118.06C148.252 118.034 148.163 118.042 148.087 118.081C148.01 118.12 147.952 118.188 147.924 118.27C147.734 118.89 147.534 119.5 147.324 120.12C147.299 120.202 147.307 120.291 147.346 120.367C147.385 120.444 147.453 120.502 147.534 120.53L147.634 120.55ZM148.794 116.83C148.865 116.828 148.933 116.804 148.989 116.761C149.045 116.717 149.085 116.657 149.104 116.59C149.284 115.96 149.464 115.33 149.624 114.71C149.646 114.626 149.634 114.537 149.591 114.463C149.548 114.388 149.477 114.333 149.394 114.31C149.354 114.299 149.311 114.297 149.27 114.302C149.228 114.308 149.188 114.322 149.152 114.344C149.115 114.365 149.084 114.393 149.058 114.427C149.033 114.461 149.015 114.499 149.004 114.54C148.834 115.16 148.664 115.79 148.484 116.41C148.472 116.45 148.468 116.493 148.473 116.535C148.477 116.577 148.49 116.618 148.51 116.656C148.531 116.693 148.559 116.726 148.592 116.752C148.625 116.779 148.663 116.798 148.704 116.81L148.794 116.83ZM149.794 113.06C149.866 113.057 149.935 113.032 149.991 112.987C150.047 112.941 150.087 112.879 150.104 112.81C150.254 112.17 150.404 111.53 150.534 110.9C150.545 110.859 150.546 110.816 150.54 110.775C150.533 110.733 150.518 110.694 150.496 110.658C150.473 110.622 150.444 110.592 150.409 110.568C150.375 110.544 150.336 110.528 150.294 110.52C150.253 110.509 150.21 110.507 150.168 110.514C150.126 110.52 150.085 110.535 150.049 110.557C150.012 110.58 149.981 110.609 149.956 110.644C149.931 110.679 149.914 110.718 149.904 110.76C149.774 111.39 149.624 112.02 149.474 112.66C149.456 112.743 149.471 112.83 149.516 112.903C149.56 112.976 149.632 113.028 149.714 113.05L149.794 113.06ZM150.614 109.24C150.69 109.241 150.763 109.216 150.822 109.168C150.88 109.12 150.92 109.054 150.934 108.98C151.054 108.34 151.174 107.7 151.284 107.06C151.299 106.976 151.28 106.89 151.231 106.821C151.182 106.751 151.108 106.704 151.024 106.69C150.982 106.681 150.939 106.681 150.897 106.689C150.855 106.698 150.815 106.715 150.779 106.739C150.744 106.763 150.713 106.794 150.69 106.83C150.667 106.867 150.651 106.907 150.644 106.95C150.534 107.58 150.424 108.22 150.294 108.86C150.286 108.902 150.285 108.945 150.294 108.987C150.302 109.029 150.319 109.069 150.344 109.105C150.368 109.14 150.399 109.17 150.435 109.194C150.471 109.217 150.512 109.232 150.554 109.24H150.614ZM151.274 105.4C151.352 105.403 151.427 105.377 151.487 105.327C151.546 105.277 151.584 105.206 151.594 105.13C151.694 104.48 151.784 103.83 151.864 103.19C151.87 103.147 151.867 103.105 151.856 103.064C151.845 103.023 151.826 102.984 151.8 102.951C151.774 102.917 151.741 102.889 151.704 102.869C151.667 102.848 151.626 102.834 151.584 102.83C151.542 102.822 151.499 102.824 151.457 102.835C151.416 102.845 151.377 102.864 151.343 102.891C151.309 102.917 151.281 102.95 151.261 102.988C151.24 103.025 151.228 103.067 151.224 103.11C151.144 103.736 151.054 104.376 150.954 105.03C150.943 105.114 150.964 105.2 151.015 105.269C151.065 105.338 151.14 105.385 151.224 105.4H151.274ZM151.764 101.53C151.845 101.532 151.923 101.504 151.983 101.449C152.043 101.395 152.079 101.32 152.084 101.24C152.154 100.59 152.224 99.9395 152.274 99.2995C152.28 99.2136 152.252 99.1289 152.196 99.0635C152.139 98.9981 152.06 98.9572 151.974 98.9495C151.932 98.9439 151.89 98.9471 151.85 98.959C151.809 98.9709 151.772 98.9912 151.74 99.0186C151.707 99.046 151.681 99.0798 151.663 99.1178C151.645 99.1559 151.635 99.1974 151.634 99.2395C151.574 99.8795 151.514 100.53 151.444 101.18C151.44 101.222 151.444 101.264 151.457 101.304C151.469 101.345 151.489 101.382 151.516 101.415C151.543 101.448 151.576 101.474 151.614 101.494C151.651 101.514 151.692 101.526 151.734 101.53H151.764ZM152.094 97.6495C152.176 97.6497 152.254 97.6187 152.314 97.563C152.373 97.5072 152.409 97.4309 152.414 97.3495C152.414 96.6795 152.494 96.0295 152.514 95.3495C152.517 95.3067 152.511 95.2637 152.497 95.2232C152.483 95.1827 152.46 95.1455 152.431 95.1138C152.402 95.0821 152.367 95.0565 152.328 95.0386C152.289 95.0207 152.247 95.0108 152.204 95.0095C152.12 95.0134 152.04 95.0465 151.978 95.1031C151.916 95.1597 151.876 95.2363 151.864 95.3195C151.864 95.9595 151.864 96.6095 151.774 97.2595C151.769 97.3455 151.797 97.4302 151.853 97.4956C151.909 97.561 151.989 97.6019 152.074 97.6095L152.094 97.6495ZM152.244 93.7495C152.329 93.7495 152.411 93.7158 152.471 93.6558C152.531 93.5958 152.564 93.5144 152.564 93.4295C152.564 92.9695 152.564 92.5195 152.564 92.0695V91.4795C152.564 91.3947 152.531 91.3133 152.471 91.2533C152.411 91.1932 152.329 91.1595 152.244 91.1595C152.159 91.1595 152.078 91.1932 152.018 91.2533C151.958 91.3133 151.924 91.3947 151.924 91.4795V92.0695C151.924 92.5195 151.924 92.9695 151.924 93.4195C151.923 93.4624 151.93 93.5051 151.946 93.5451C151.961 93.585 151.985 93.6215 152.014 93.6523C152.044 93.6831 152.08 93.7076 152.119 93.7243C152.159 93.741 152.201 93.7495 152.244 93.7495ZM152.244 89.8495C152.287 89.8496 152.33 89.841 152.369 89.8242C152.409 89.8075 152.444 89.7831 152.474 89.7523C152.504 89.7215 152.527 89.6851 152.543 89.6451C152.558 89.6051 152.566 89.5624 152.564 89.5195C152.564 88.8495 152.504 88.1995 152.474 87.5195C152.467 87.4337 152.426 87.3543 152.36 87.2983C152.295 87.2422 152.21 87.214 152.124 87.2195C152.082 87.2221 152.041 87.2329 152.003 87.2514C151.965 87.2699 151.932 87.2956 151.904 87.3272C151.876 87.3588 151.854 87.3956 151.841 87.4355C151.827 87.4753 151.822 87.5175 151.824 87.5595C151.824 88.1895 151.894 88.8395 151.914 89.4995C151.91 89.5466 151.915 89.5942 151.931 89.6388C151.947 89.6834 151.973 89.7239 152.006 89.7574C152.04 89.7909 152.08 89.8165 152.125 89.8324C152.17 89.8484 152.217 89.8542 152.264 89.8495H152.244ZM152.014 85.9595C152.056 85.9558 152.097 85.9437 152.135 85.924C152.172 85.9044 152.205 85.8775 152.232 85.845C152.259 85.8124 152.279 85.7749 152.292 85.7345C152.304 85.694 152.308 85.6516 152.304 85.6095C152.244 84.9429 152.174 84.2762 152.094 83.6095C152.091 83.5668 152.078 83.5253 152.058 83.4876C152.038 83.4499 152.01 83.4169 151.976 83.3906C151.942 83.3643 151.903 83.3453 151.861 83.3348C151.82 83.3243 151.777 83.3225 151.734 83.3295C151.65 83.342 151.574 83.3863 151.522 83.4534C151.47 83.5204 151.446 83.605 151.454 83.6895C151.534 84.2995 151.604 84.9495 151.664 85.6195C151.66 85.6688 151.668 85.7182 151.686 85.7641C151.704 85.81 151.733 85.851 151.77 85.8839C151.807 85.9168 151.851 85.9408 151.898 85.9539C151.946 85.967 151.996 85.969 152.044 85.9595H152.014ZM151.534 82.0895C151.618 82.0749 151.692 82.0277 151.741 81.9583C151.79 81.889 151.809 81.8031 151.794 81.7195L151.734 81.3295C151.644 80.8195 151.544 80.3295 151.444 79.7895C151.436 79.7481 151.419 79.7087 151.396 79.6736C151.372 79.6385 151.342 79.6085 151.306 79.5853C151.271 79.562 151.231 79.546 151.19 79.5381C151.148 79.5303 151.106 79.5308 151.064 79.5395C151.022 79.5466 150.982 79.5622 150.946 79.5855C150.91 79.6088 150.88 79.6392 150.856 79.6749C150.833 79.7106 150.817 79.7508 150.81 79.7928C150.802 79.8349 150.804 79.8781 150.814 79.9195C150.914 80.4295 151.004 80.9195 151.094 81.4395L151.164 81.8195C151.169 81.8645 151.183 81.908 151.205 81.947C151.228 81.986 151.259 82.0196 151.296 82.0453C151.334 82.071 151.376 82.0883 151.42 82.0959C151.465 82.1036 151.511 82.1014 151.554 82.0895H151.534ZM150.764 78.2695H150.834C150.875 78.2613 150.915 78.2448 150.949 78.221C150.984 78.1972 151.013 78.1666 151.036 78.131C151.058 78.0955 151.073 78.0558 151.08 78.0142C151.086 77.9727 151.085 77.9303 151.074 77.8895C150.924 77.2495 150.774 76.6195 150.604 75.9795C150.593 75.9386 150.573 75.9004 150.547 75.8671C150.52 75.8338 150.488 75.8061 150.45 75.7857C150.413 75.7652 150.372 75.7523 150.33 75.7478C150.288 75.7433 150.245 75.7473 150.204 75.7595C150.164 75.77 150.125 75.7884 150.092 75.8137C150.058 75.839 150.03 75.8706 150.008 75.9069C149.987 75.9431 149.973 75.9832 149.967 76.0248C149.961 76.0664 149.964 76.1088 149.974 76.1495C150.144 76.7795 150.304 77.3995 150.444 78.0295C150.465 78.1025 150.51 78.1662 150.572 78.2099C150.634 78.2536 150.709 78.2747 150.784 78.2695H150.764ZM149.764 74.5095H149.854C149.895 74.498 149.933 74.4785 149.967 74.4521C150 74.4257 150.028 74.3929 150.048 74.3557C150.069 74.3184 150.081 74.2775 150.086 74.2352C150.09 74.193 150.087 74.1502 150.074 74.1095C149.884 73.4795 149.684 72.8595 149.474 72.2395C149.461 72.1993 149.439 72.1621 149.411 72.1302C149.383 72.0983 149.349 72.0723 149.311 72.0536C149.273 72.035 149.232 72.0242 149.189 72.0218C149.147 72.0194 149.104 72.0254 149.064 72.0395C149.024 72.053 148.987 72.0744 148.955 72.1024C148.923 72.1304 148.897 72.1645 148.878 72.2026C148.86 72.2408 148.849 72.2823 148.847 72.3247C148.844 72.3671 148.85 72.4095 148.864 72.4495C149.074 73.0595 149.264 73.6795 149.454 74.2995C149.478 74.3643 149.522 74.4198 149.579 74.4576C149.637 74.4955 149.705 74.5137 149.774 74.5095H149.764ZM148.514 70.8095C148.55 70.8188 148.588 70.8188 148.624 70.8095C148.704 70.7802 148.768 70.7207 148.804 70.6438C148.84 70.5669 148.843 70.4791 148.814 70.3995C148.584 69.7895 148.344 69.1795 148.084 68.5795C148.069 68.5399 148.046 68.5037 148.016 68.4731C147.987 68.4425 147.951 68.4181 147.912 68.4013C147.873 68.3846 147.831 68.3758 147.788 68.3755C147.746 68.3752 147.704 68.3834 147.664 68.3995C147.625 68.4159 147.59 68.4398 147.561 68.4698C147.531 68.4997 147.508 68.5353 147.492 68.5743C147.476 68.6133 147.468 68.655 147.469 68.6971C147.469 68.7392 147.478 68.7808 147.494 68.8195C147.744 69.4195 147.984 70.0195 148.204 70.6295C148.234 70.6879 148.28 70.7361 148.337 70.7681C148.394 70.8002 148.459 70.8146 148.524 70.8095H148.514ZM147.044 67.2695C147.09 67.279 147.138 67.279 147.184 67.2695C147.262 67.2326 147.321 67.1671 147.351 67.0869C147.381 67.0067 147.379 66.918 147.344 66.8395C147.064 66.2495 146.784 65.6595 146.484 65.0695C146.444 64.9958 146.377 64.9403 146.297 64.9143C146.217 64.8883 146.13 64.8937 146.054 64.9295C145.976 64.9683 145.917 65.0362 145.889 65.1186C145.861 65.2011 145.866 65.2912 145.904 65.3695C146.204 65.9395 146.484 66.5195 146.754 67.1095C146.783 67.1609 146.825 67.2032 146.876 67.2315C146.927 67.2598 146.986 67.273 147.044 67.2695ZM145.284 63.7895C145.333 63.8032 145.385 63.8032 145.434 63.7895C145.472 63.7696 145.506 63.7423 145.533 63.7093C145.56 63.6762 145.58 63.638 145.592 63.597C145.604 63.556 145.608 63.5129 145.603 63.4704C145.599 63.4279 145.585 63.3868 145.564 63.3495C145.244 62.7795 144.914 62.2095 144.564 61.6595C144.544 61.6223 144.516 61.5897 144.482 61.5638C144.448 61.5379 144.409 61.5192 144.368 61.5088C144.327 61.4985 144.284 61.4968 144.242 61.5038C144.2 61.5108 144.16 61.5264 144.124 61.5495C144.088 61.5711 144.057 61.5997 144.031 61.6335C144.006 61.6673 143.988 61.7058 143.978 61.7467C143.968 61.7876 143.966 61.8301 143.972 61.8717C143.978 61.9134 143.992 61.9534 144.014 61.9895C144.354 62.5395 144.674 63.0995 145.014 63.6695C145.047 63.6972 145.086 63.7177 145.127 63.7298C145.168 63.7418 145.212 63.7452 145.254 63.7395L145.284 63.7895ZM143.284 60.4595C143.343 60.4773 143.406 60.4773 143.464 60.4595C143.5 60.4363 143.531 60.4061 143.555 60.3707C143.579 60.3353 143.596 60.2955 143.604 60.2535C143.613 60.2116 143.613 60.1684 143.604 60.1265C143.595 60.0846 143.579 60.0448 143.554 60.0095C143.184 59.4695 142.814 58.9295 142.424 58.3995C142.373 58.3323 142.297 58.2875 142.213 58.2745C142.129 58.2614 142.044 58.2811 141.974 58.3295C141.907 58.3812 141.862 58.4567 141.849 58.5405C141.836 58.6243 141.856 58.7099 141.904 58.7795C142.284 59.2995 142.654 59.8295 143.014 60.3695C143.078 60.4065 143.152 60.4207 143.224 60.4095L143.284 60.4595ZM99.2843 58.2495H99.6943C99.7364 58.247 99.7775 58.2362 99.8153 58.2177C99.8532 58.1992 99.887 58.1734 99.9149 58.1418C99.9428 58.1102 99.9641 58.0735 99.9777 58.0336C99.9914 57.9937 99.997 57.9516 99.9943 57.9095C99.9931 57.867 99.9832 57.8252 99.9652 57.7867C99.9472 57.7482 99.9214 57.7137 99.8895 57.6856C99.8576 57.6575 99.8203 57.6362 99.7798 57.6231C99.7393 57.61 99.6966 57.6054 99.6543 57.6095C99.2717 57.6446 98.8868 57.6446 98.5043 57.6095C98.2751 57.5807 98.048 57.5373 97.8243 57.4795C97.7408 57.458 97.6522 57.47 97.5774 57.513C97.5027 57.556 97.4477 57.6265 97.4243 57.7095C97.4139 57.7509 97.4119 57.794 97.4184 57.8361C97.4249 57.8783 97.4398 57.9187 97.4621 57.9551C97.4845 57.9914 97.5139 58.0229 97.5486 58.0477C97.5833 58.0725 97.6227 58.0901 97.6643 58.0995C97.9166 58.1696 98.1741 58.2198 98.4343 58.2495C98.6816 58.2446 98.9286 58.228 99.1743 58.1995L99.2843 58.2495ZM101.584 57.8595H101.684C102.334 57.6314 102.939 57.2931 103.474 56.8595C103.534 56.7979 103.568 56.7154 103.568 56.6295C103.568 56.5436 103.534 56.4611 103.474 56.3995C103.444 56.3687 103.409 56.3442 103.369 56.3274C103.33 56.3107 103.287 56.302 103.244 56.302C103.201 56.302 103.159 56.3107 103.119 56.3274C103.08 56.3442 103.044 56.3687 103.014 56.3995C102.536 56.7812 101.999 57.0818 101.424 57.2895C101.384 57.303 101.347 57.3244 101.315 57.3524C101.283 57.3804 101.257 57.4145 101.238 57.4526C101.22 57.4908 101.209 57.5323 101.207 57.5747C101.204 57.617 101.21 57.6595 101.224 57.6995C101.256 57.7346 101.294 57.7626 101.337 57.7816C101.38 57.8006 101.427 57.8101 101.474 57.8095L101.584 57.8595ZM141.034 57.3195C141.107 57.3204 141.178 57.2956 141.234 57.2495C141.294 57.1879 141.328 57.1054 141.328 57.0195C141.328 56.9336 141.294 56.8511 141.234 56.7895C140.824 56.2795 140.394 55.7895 139.974 55.2895C139.913 55.2297 139.83 55.1962 139.744 55.1962C139.658 55.1962 139.576 55.2297 139.514 55.2895C139.454 55.3511 139.421 55.4336 139.421 55.5195C139.421 55.6054 139.454 55.6879 139.514 55.7495C139.934 56.2295 140.354 56.7495 140.754 57.2295C140.807 57.2574 140.865 57.2712 140.924 57.2695L141.034 57.3195ZM95.9743 57.2695C96.0269 57.268 96.0785 57.2546 96.1253 57.2304C96.172 57.2062 96.2127 57.1717 96.2443 57.1295C96.2896 57.0563 96.3045 56.9683 96.2859 56.8842C96.2672 56.8001 96.2164 56.7267 96.1443 56.6795C95.6284 56.3369 95.161 55.9266 94.7543 55.4595C94.6944 55.4003 94.6135 55.3671 94.5293 55.3671C94.445 55.3671 94.3642 55.4003 94.3043 55.4595C94.2444 55.5211 94.2109 55.6036 94.2109 55.6895C94.2109 55.7754 94.2444 55.8579 94.3043 55.9195C94.7478 56.4368 95.263 56.8881 95.8343 57.2595C95.8441 57.2635 95.8541 57.2668 95.8643 57.2695H95.9743ZM104.504 55.4195C104.562 55.418 104.618 55.4015 104.667 55.3717C104.716 55.3419 104.756 55.2998 104.784 55.2495C105.114 54.6268 105.328 53.949 105.414 53.2495C105.42 53.2075 105.417 53.1647 105.406 53.1237C105.395 53.0828 105.376 53.0444 105.35 53.0109C105.324 52.9774 105.291 52.9494 105.254 52.9286C105.217 52.9078 105.176 52.8945 105.134 52.8895C105.051 52.8781 104.966 52.9 104.899 52.9506C104.831 53.0011 104.787 53.0762 104.774 53.1595C104.691 53.7666 104.505 54.3551 104.224 54.8995C104.203 54.9368 104.19 54.9779 104.185 55.0204C104.18 55.0629 104.184 55.106 104.196 55.147C104.208 55.188 104.229 55.2262 104.256 55.2592C104.283 55.2923 104.316 55.3196 104.354 55.3395C104.367 55.3503 104.38 55.3603 104.394 55.3695L104.504 55.4195ZM138.454 54.4195C138.54 54.4204 138.622 54.3882 138.684 54.3295C138.744 54.2679 138.778 54.1854 138.778 54.0995C138.778 54.0136 138.744 53.9311 138.684 53.8695C138.224 53.3995 137.754 52.9395 137.284 52.4895C137.223 52.4297 137.14 52.3962 137.054 52.3962C136.968 52.3962 136.886 52.4297 136.824 52.4895C136.765 52.5494 136.732 52.6303 136.732 52.7145C136.732 52.7988 136.765 52.8796 136.824 52.9395C137.284 53.3795 137.744 53.8395 138.194 54.2995C138.24 54.3258 138.292 54.3396 138.344 54.3395L138.454 54.4195ZM93.4543 54.4195C93.5038 54.429 93.5547 54.429 93.6043 54.4195C93.6787 54.3773 93.7345 54.3085 93.7604 54.2269C93.7864 54.1454 93.7806 54.057 93.7443 53.9795C93.4627 53.423 93.2575 52.831 93.1343 52.2195C93.1249 52.1779 93.1073 52.1386 93.0825 52.1039C93.0577 52.0692 93.0262 52.0398 92.9898 52.0174C92.9535 51.995 92.913 51.9802 92.8709 51.9737C92.8287 51.9672 92.7857 51.9691 92.7443 51.9795C92.7028 51.9879 92.6634 52.0044 92.6283 52.028C92.5933 52.0517 92.5633 52.082 92.54 52.1174C92.5168 52.1527 92.5007 52.1923 92.4929 52.2339C92.485 52.2755 92.4855 52.3181 92.4943 52.3595C92.6393 53.021 92.8643 53.6624 93.1643 54.2695C93.2124 54.2997 93.2676 54.3169 93.3243 54.3195L93.4543 54.4195ZM135.644 51.7695C135.69 51.7693 135.735 51.7594 135.776 51.7404C135.818 51.7215 135.854 51.6939 135.884 51.6595C135.944 51.5979 135.978 51.5154 135.978 51.4295C135.978 51.3436 135.944 51.2611 135.884 51.1995L135.284 50.6995L134.354 49.9695C134.285 49.917 134.198 49.8938 134.112 49.9051C134.026 49.9163 133.948 49.961 133.894 50.0295C133.845 50.098 133.823 50.1828 133.835 50.2665C133.846 50.3502 133.889 50.4264 133.954 50.4795L134.874 51.1995L135.464 51.6995C135.482 51.6911 135.499 51.6811 135.514 51.6695L135.644 51.7695ZM105.124 51.6795C105.21 51.6695 105.289 51.6261 105.343 51.5588C105.397 51.4915 105.423 51.4056 105.414 51.3195C105.338 50.6411 105.197 49.9714 104.994 49.3195C104.983 49.2786 104.963 49.2404 104.937 49.2071C104.91 49.1738 104.878 49.1462 104.84 49.1257C104.803 49.1052 104.762 49.0923 104.72 49.0878C104.678 49.0833 104.635 49.0873 104.594 49.0995C104.553 49.1108 104.515 49.1304 104.483 49.157C104.45 49.1836 104.422 49.2166 104.403 49.2541C104.383 49.2916 104.371 49.3327 104.368 49.3749C104.365 49.4171 104.37 49.4595 104.384 49.4995C104.566 50.1043 104.696 50.7231 104.774 51.3495C104.788 51.4037 104.815 51.4535 104.854 51.4938C104.892 51.5342 104.941 51.5637 104.994 51.5795L105.124 51.6795ZM92.6743 50.6795C92.7558 50.6797 92.8343 50.6487 92.8938 50.593C92.9532 50.5372 92.9892 50.4609 92.9943 50.3795C93.0404 49.7646 93.1821 49.1607 93.4143 48.5895C93.4307 48.5508 93.4394 48.5092 93.4398 48.4671C93.4402 48.425 93.4322 48.3833 93.4164 48.3443C93.4006 48.3053 93.3773 48.2697 93.3477 48.2397C93.3182 48.2098 93.2831 48.1859 93.2443 48.1695C93.2056 48.1531 93.1639 48.1444 93.1219 48.144C93.0798 48.1437 93.038 48.1516 92.999 48.1674C92.96 48.1832 92.9245 48.2065 92.8945 48.2361C92.8645 48.2656 92.8407 48.3008 92.8243 48.3395C92.5593 48.976 92.4005 49.6516 92.3543 50.3395C92.3502 50.3824 92.3547 50.4256 92.3677 50.4666C92.3807 50.5076 92.4018 50.5456 92.4298 50.5783C92.4578 50.611 92.4922 50.6377 92.5307 50.6568C92.5693 50.6759 92.6113 50.6871 92.6543 50.6895L92.6743 50.6795ZM132.414 49.2695C132.467 49.2704 132.52 49.2581 132.567 49.2337C132.614 49.2092 132.654 49.1734 132.684 49.1295C132.732 49.0587 132.75 48.9723 132.735 48.8884C132.72 48.8046 132.673 48.7297 132.604 48.6795C132.064 48.3095 131.504 47.9495 130.954 47.6095C130.88 47.5651 130.791 47.5517 130.707 47.5723C130.623 47.5929 130.55 47.6458 130.504 47.7195C130.483 47.7556 130.468 47.7956 130.462 47.8373C130.456 47.879 130.458 47.9215 130.468 47.9624C130.478 48.0033 130.496 48.0417 130.521 48.0756C130.547 48.1094 130.578 48.1379 130.614 48.1595C131.161 48.4995 131.701 48.8495 132.234 49.2095C132.287 49.2473 132.35 49.2682 132.414 49.2695ZM103.914 47.8195C103.957 47.8297 104.002 47.8297 104.044 47.8195C104.123 47.7844 104.185 47.7197 104.217 47.6393C104.249 47.5589 104.248 47.4692 104.214 47.3895C103.964 46.8195 103.674 46.2195 103.344 45.6195C103.324 45.5817 103.297 45.5482 103.264 45.5211C103.231 45.4939 103.193 45.4737 103.152 45.4616C103.111 45.4495 103.068 45.4457 103.025 45.4505C102.983 45.4553 102.942 45.4686 102.904 45.4895C102.83 45.5317 102.775 45.6012 102.75 45.6833C102.726 45.7654 102.735 45.8537 102.774 45.9295C103.094 46.5095 103.384 47.0895 103.624 47.6495C103.648 47.7076 103.688 47.7575 103.739 47.793C103.791 47.8286 103.852 47.8482 103.914 47.8495V47.8195ZM129.044 47.2695C129.104 47.2709 129.162 47.2557 129.213 47.2257C129.265 47.1957 129.306 47.152 129.334 47.0995C129.374 47.0236 129.382 46.9353 129.358 46.8532C129.334 46.7711 129.279 46.7017 129.204 46.6595C128.634 46.3495 128.044 46.0495 127.454 45.7595C127.416 45.7409 127.375 45.7299 127.333 45.7274C127.29 45.7248 127.248 45.7307 127.208 45.7447C127.168 45.7586 127.131 45.7804 127.1 45.8087C127.068 45.837 127.042 45.8713 127.024 45.9095C127.006 45.9476 126.995 45.9889 126.992 46.0312C126.99 46.0735 126.995 46.1159 127.009 46.1559C127.023 46.1959 127.045 46.2327 127.073 46.2642C127.102 46.2957 127.136 46.3214 127.174 46.3395C127.754 46.6195 128.334 46.9195 128.894 47.2295C128.939 47.2567 128.992 47.2706 129.044 47.2695ZM93.9643 47.0195C94.0121 47.0189 94.0593 47.0078 94.1025 46.9871C94.1457 46.9663 94.1838 46.9365 94.2143 46.8995C94.6186 46.4266 95.0748 46.0005 95.5743 45.6295C95.6098 45.6057 95.64 45.5747 95.6629 45.5386C95.6859 45.5025 95.7012 45.4621 95.7077 45.4199C95.7143 45.3776 95.7121 45.3344 95.7011 45.2931C95.6902 45.2517 95.6708 45.213 95.6443 45.1795C95.6204 45.144 95.5895 45.1138 95.5534 45.0909C95.5173 45.0679 95.4769 45.0527 95.4346 45.0461C95.3923 45.0395 95.3492 45.0418 95.3078 45.0527C95.2665 45.0636 95.2278 45.0829 95.1943 45.1095C94.6501 45.5117 94.1535 45.9747 93.7143 46.4895C93.6573 46.5506 93.6257 46.631 93.6257 46.7145C93.6257 46.798 93.6573 46.8785 93.7143 46.9395C93.7584 46.9789 93.8121 47.0061 93.87 47.0183C93.9278 47.0306 93.9879 47.0276 94.0443 47.0095L93.9643 47.0195ZM125.544 45.5695C125.608 45.5665 125.669 45.5464 125.722 45.5111C125.775 45.4759 125.817 45.427 125.844 45.3695C125.861 45.3308 125.869 45.2892 125.87 45.2471C125.87 45.205 125.862 45.1633 125.846 45.1243C125.831 45.0853 125.807 45.0497 125.778 45.0197C125.748 44.9898 125.713 44.9659 125.674 44.9495C125.064 44.6895 124.454 44.4495 123.844 44.2195C123.763 44.1901 123.674 44.1935 123.596 44.229C123.517 44.2645 123.456 44.3293 123.424 44.4095C123.395 44.4918 123.4 44.5821 123.438 44.6608C123.475 44.7395 123.542 44.8001 123.624 44.8295C124.224 45.0495 124.824 45.2895 125.414 45.5395C125.471 45.564 125.534 45.5709 125.594 45.5595L125.544 45.5695ZM97.0543 44.6895C97.0998 44.7041 97.1488 44.7041 97.1943 44.6895C97.7668 44.4134 98.3544 44.1697 98.9543 43.9595C98.9945 43.946 99.0317 43.9247 99.0636 43.8967C99.0955 43.8687 99.1215 43.8346 99.1402 43.7964C99.1588 43.7583 99.1696 43.7168 99.172 43.6744C99.1744 43.632 99.1684 43.5896 99.1543 43.5495C99.1408 43.5093 99.1194 43.4721 99.0914 43.4402C99.0634 43.4083 99.0293 43.3823 98.9912 43.3636C98.953 43.345 98.9116 43.3342 98.8692 43.3318C98.8268 43.3294 98.7843 43.3354 98.7443 43.3495C98.1171 43.5679 97.5027 43.8216 96.9043 44.1095C96.828 44.15 96.7707 44.2187 96.7445 44.301C96.7184 44.3832 96.7254 44.4724 96.7642 44.5495C96.801 44.6032 96.8532 44.6443 96.914 44.6676C96.9747 44.6908 97.0411 44.695 97.1043 44.6795L97.0543 44.6895ZM102.054 44.4195C102.115 44.4233 102.175 44.4056 102.224 44.3695C102.261 44.3481 102.292 44.3194 102.317 44.2853C102.342 44.2512 102.36 44.2123 102.369 44.1711C102.379 44.1299 102.379 44.0872 102.372 44.0457C102.364 44.0041 102.348 43.9646 102.324 43.9295C102.164 43.6695 101.994 43.4195 101.824 43.1495L102.714 42.9695C102.798 42.9549 102.872 42.9077 102.921 42.8383C102.97 42.7689 102.989 42.6831 102.974 42.5995C102.967 42.5572 102.951 42.5167 102.928 42.4805C102.905 42.4443 102.875 42.4131 102.839 42.3889C102.804 42.3646 102.764 42.3477 102.722 42.3393C102.68 42.3308 102.636 42.3309 102.594 42.3395C102.204 42.4095 101.814 42.4895 101.434 42.5795L101.234 42.2995C101.21 42.2644 101.179 42.2344 101.144 42.2113C101.108 42.1882 101.068 42.1725 101.026 42.165C100.984 42.1576 100.941 42.1585 100.9 42.1679C100.858 42.1773 100.819 42.1948 100.784 42.2195C100.749 42.2436 100.719 42.2743 100.696 42.3101C100.673 42.3458 100.657 42.3858 100.65 42.4277C100.642 42.4696 100.643 42.5126 100.653 42.5541C100.662 42.5956 100.68 42.6349 100.704 42.6695L100.754 42.7395H100.674C100.591 42.763 100.519 42.8175 100.475 42.8919C100.43 42.9662 100.416 43.0548 100.434 43.1395C100.46 43.2211 100.515 43.2901 100.589 43.3328C100.663 43.3754 100.751 43.3885 100.834 43.3695L101.144 43.2995C101.374 43.6195 101.584 43.9495 101.784 44.2995C101.816 44.3371 101.856 44.3667 101.901 44.3858C101.946 44.405 101.995 44.4131 102.044 44.4095L102.054 44.4195ZM121.914 44.2095C121.983 44.2125 122.051 44.1925 122.107 44.1526C122.163 44.1128 122.204 44.0554 122.224 43.9895C122.25 43.9073 122.242 43.8184 122.203 43.7418C122.163 43.6652 122.096 43.607 122.014 43.5795C121.394 43.3895 120.754 43.1995 120.124 43.0395C120.084 43.0275 120.041 43.0241 119.999 43.0293C119.957 43.0345 119.916 43.0484 119.879 43.0699C119.843 43.0915 119.811 43.1203 119.786 43.1547C119.761 43.189 119.744 43.2281 119.734 43.2695C119.724 43.3102 119.721 43.3526 119.727 43.3943C119.733 43.4359 119.747 43.476 119.768 43.5122C119.79 43.5484 119.818 43.5801 119.852 43.6053C119.885 43.6306 119.924 43.6491 119.964 43.6595C120.584 43.8195 121.204 44.0095 121.824 44.1995L121.914 44.2095ZM118.154 43.2095C118.229 43.2105 118.301 43.1848 118.358 43.1371C118.414 43.0894 118.452 43.0228 118.464 42.9495C118.473 42.9081 118.474 42.8654 118.466 42.8239C118.458 42.7823 118.442 42.7427 118.419 42.7074C118.395 42.672 118.365 42.6417 118.33 42.618C118.295 42.5944 118.256 42.5779 118.214 42.5695C117.574 42.4295 116.924 42.3095 116.284 42.2095C116.201 42.195 116.115 42.2142 116.045 42.263C115.976 42.3117 115.929 42.386 115.914 42.4695C115.906 42.5118 115.906 42.5553 115.915 42.5974C115.924 42.6396 115.942 42.6793 115.968 42.7141C115.993 42.7489 116.025 42.7781 116.063 42.7997C116.1 42.8212 116.141 42.8348 116.184 42.8395C116.814 42.9495 117.454 43.0695 118.084 43.1995L118.154 43.2095ZM104.584 42.6595C105.214 42.5695 105.864 42.4995 106.504 42.4495C106.59 42.4419 106.669 42.401 106.725 42.3356C106.782 42.2702 106.81 42.1855 106.804 42.0995C106.801 42.0574 106.788 42.0165 106.769 41.9791C106.749 41.9417 106.722 41.9086 106.69 41.8816C106.657 41.8546 106.62 41.8344 106.579 41.822C106.539 41.8097 106.496 41.8054 106.454 41.8095C105.804 41.8095 105.144 41.9295 104.454 42.0195C104.412 42.0244 104.372 42.0377 104.336 42.0587C104.299 42.0796 104.267 42.1078 104.242 42.1415C104.217 42.1752 104.198 42.2136 104.189 42.2546C104.179 42.2955 104.177 42.338 104.184 42.3795C104.188 42.4281 104.203 42.4751 104.227 42.5172C104.252 42.5592 104.285 42.5951 104.326 42.6221C104.366 42.6491 104.413 42.6665 104.461 42.673C104.509 42.6795 104.558 42.6749 104.604 42.6595H104.584ZM114.304 42.5795C114.384 42.5799 114.461 42.5503 114.521 42.4966C114.58 42.443 114.617 42.3691 114.624 42.2895C114.633 42.2061 114.608 42.1228 114.556 42.0573C114.503 41.9919 114.427 41.9496 114.344 41.9395C113.694 41.8595 113.034 41.7995 112.344 41.7595C112.302 41.7568 112.26 41.7624 112.22 41.7761C112.18 41.7897 112.144 41.8111 112.112 41.8389C112.08 41.8668 112.055 41.9006 112.036 41.9385C112.018 41.9763 112.007 42.0175 112.004 42.0595C112 42.1019 112.005 42.1446 112.018 42.1851C112.031 42.2255 112.052 42.2628 112.08 42.2947C112.108 42.3266 112.143 42.3524 112.181 42.3704C112.22 42.3884 112.262 42.3984 112.304 42.3995C112.944 42.4495 113.594 42.4995 114.224 42.5795H114.304ZM108.464 42.3395C109.114 42.3395 109.754 42.3395 110.404 42.3395C110.446 42.3409 110.487 42.3339 110.526 42.3189C110.565 42.3039 110.6 42.2813 110.63 42.2523C110.66 42.2234 110.684 42.1888 110.7 42.1505C110.716 42.1122 110.724 42.0711 110.724 42.0295C110.726 41.9875 110.719 41.9456 110.704 41.9063C110.689 41.8669 110.666 41.8309 110.638 41.8003C110.609 41.7696 110.574 41.7449 110.536 41.7277C110.498 41.7104 110.456 41.7008 110.414 41.6995C109.754 41.6995 109.104 41.6995 108.414 41.6995C108.371 41.7008 108.329 41.7107 108.29 41.7286C108.251 41.7465 108.216 41.7721 108.187 41.8038C108.158 41.8355 108.136 41.8727 108.122 41.9132C108.108 41.9537 108.102 41.9967 108.104 42.0395C108.106 42.0854 108.118 42.1303 108.139 42.1712C108.16 42.2121 108.19 42.248 108.226 42.2764C108.262 42.3049 108.303 42.3253 108.348 42.3362C108.393 42.347 108.439 42.3482 108.484 42.3395H108.464ZM99.8143 41.2295C99.8871 41.2304 99.9579 41.2056 100.014 41.1595C100.073 41.0996 100.107 41.0188 100.107 40.9345C100.107 40.8503 100.073 40.7694 100.014 40.7095C99.6142 40.1895 99.1943 39.7095 98.7743 39.1795C98.7144 39.1203 98.6335 39.0871 98.5493 39.0871C98.465 39.0871 98.3842 39.1203 98.3243 39.1795C98.2644 39.2411 98.2309 39.3237 98.2309 39.4095C98.2309 39.4954 98.2644 39.5779 98.3243 39.6395C98.7343 40.1195 99.1543 40.6395 99.5443 41.1295C99.5759 41.1764 99.6194 41.2141 99.6704 41.2387C99.7213 41.2633 99.7779 41.2739 99.8343 41.2695L99.8143 41.2295ZM97.2743 38.2295C97.315 38.2297 97.3555 38.2219 97.3933 38.2065C97.431 38.191 97.4653 38.1683 97.4943 38.1395C97.5249 38.1106 97.5492 38.0757 97.5658 38.037C97.5825 37.9983 97.591 37.9566 97.591 37.9145C97.591 37.8724 97.5825 37.8308 97.5658 37.7921C97.5492 37.7534 97.5249 37.7185 97.4943 37.6895C97.0443 37.2095 96.5743 36.7495 96.0943 36.3095C96.0653 36.279 96.0304 36.2546 95.9917 36.238C95.953 36.2214 95.9114 36.2128 95.8693 36.2128C95.8272 36.2128 95.7855 36.2214 95.7468 36.238C95.7081 36.2546 95.6732 36.279 95.6443 36.3095C95.6134 36.3394 95.5889 36.3751 95.5722 36.4146C95.5554 36.4541 95.5468 36.4966 95.5468 36.5395C95.5468 36.5824 95.5554 36.6249 95.5722 36.6644C95.5889 36.7039 95.6134 36.7397 95.6443 36.7695C96.1143 37.1995 96.5743 37.6595 97.0243 38.1195C97.0506 38.1674 97.0899 38.2069 97.1377 38.2335C97.1854 38.26 97.2397 38.2725 97.2943 38.2695L97.2743 38.2295ZM94.4243 35.5795C94.5188 35.5771 94.6086 35.5376 94.6743 35.4695C94.7341 35.4079 94.7676 35.3254 94.7676 35.2395C94.7676 35.1536 94.7341 35.0711 94.6743 35.0095C94.1643 34.5895 93.6743 34.1895 93.1143 33.8095C93.0796 33.7848 93.0404 33.7673 92.9989 33.7579C92.9573 33.7485 92.9144 33.7476 92.8725 33.755C92.8306 33.7625 92.7906 33.7782 92.7548 33.8013C92.7191 33.8244 92.6883 33.8544 92.6643 33.8895C92.6391 33.9236 92.6209 33.9623 92.6107 34.0034C92.6006 34.0446 92.5987 34.0873 92.6053 34.1292C92.6118 34.171 92.6265 34.2112 92.6486 34.2473C92.6708 34.2834 92.6999 34.3148 92.7343 34.3395C93.2543 34.7129 93.7642 35.1029 94.2642 35.5095C94.3095 35.5661 94.3733 35.605 94.4443 35.6195L94.4243 35.5795ZM91.2543 33.3195C91.3083 33.3193 91.3614 33.3055 91.4086 33.2793C91.4558 33.253 91.4956 33.2153 91.5243 33.1695C91.5696 33.0963 91.5846 33.0082 91.5659 32.9242C91.5472 32.8401 91.4964 32.7667 91.4243 32.7195C90.8643 32.3795 90.2843 32.0495 89.7043 31.7195C89.6272 31.6807 89.538 31.6736 89.4557 31.6998C89.3735 31.7259 89.3047 31.7833 89.2642 31.8595C89.2259 31.9351 89.2191 32.0229 89.2453 32.1035C89.2716 32.1841 89.3287 32.251 89.4043 32.2895C89.9743 32.5895 90.5343 32.9095 91.0843 33.2895C91.1096 33.3133 91.1396 33.3318 91.1722 33.3438C91.2048 33.3558 91.2395 33.3612 91.2743 33.3595L91.2543 33.3195ZM87.7943 31.5195C87.8575 31.521 87.9197 31.5038 87.9731 31.47C88.0264 31.4362 88.0686 31.3873 88.0943 31.3295C88.1107 31.2908 88.1194 31.2492 88.1198 31.2071C88.1201 31.165 88.1122 31.1233 88.0964 31.0843C88.0806 31.0452 88.0573 31.0097 88.0277 30.9797C87.9982 30.9498 87.9631 30.9259 87.9243 30.9095C87.3243 30.6495 86.7043 30.4095 86.0843 30.1895C86.0442 30.1754 86.0018 30.1694 85.9594 30.1718C85.9171 30.1742 85.8755 30.185 85.8374 30.2036C85.7992 30.2223 85.7652 30.2483 85.7372 30.2802C85.7092 30.3121 85.6878 30.3493 85.6743 30.3895C85.6601 30.4296 85.6541 30.472 85.6565 30.5144C85.659 30.5568 85.6698 30.5983 85.6884 30.6364C85.707 30.6746 85.733 30.7087 85.7649 30.7367C85.7968 30.7647 85.834 30.786 85.8743 30.7995C86.4743 31.0095 87.0843 31.2495 87.6643 31.4995C87.7083 31.532 87.76 31.5527 87.8143 31.5595L87.7943 31.5195ZM62.8943 30.7195H62.9643L64.8643 30.3195C64.9067 30.3123 64.9471 30.2967 64.9833 30.2736C65.0195 30.2504 65.0507 30.2202 65.0749 30.1847C65.0992 30.1493 65.1161 30.1093 65.1245 30.0671C65.133 30.025 65.133 29.9816 65.1243 29.9395C65.1051 29.8571 65.055 29.7851 64.9842 29.7386C64.9135 29.6921 64.8276 29.6745 64.7443 29.6895C64.1043 29.8095 63.4643 29.9495 62.8243 30.0895C62.7419 30.1087 62.6699 30.1589 62.6234 30.2296C62.5769 30.3003 62.5593 30.3862 62.5743 30.4695C62.5864 30.5508 62.6275 30.6249 62.69 30.6782C62.7525 30.7315 62.8321 30.7604 62.9143 30.7595L62.8943 30.7195ZM84.1143 30.2395C84.187 30.2418 84.2582 30.2193 84.3164 30.1757C84.3745 30.1321 84.4162 30.0699 84.4343 29.9995C84.4448 29.9588 84.4472 29.9164 84.4413 29.8748C84.4354 29.8331 84.4215 29.7931 84.4001 29.7569C84.3788 29.7206 84.3505 29.689 84.3169 29.6637C84.2833 29.6384 84.245 29.62 84.2043 29.6095C83.5743 29.4395 82.9343 29.2795 82.2843 29.1495C82.1995 29.1348 82.1124 29.1537 82.0415 29.2023C81.9705 29.2509 81.9212 29.3252 81.9043 29.4095C81.8892 29.4929 81.9068 29.5787 81.9533 29.6495C81.9999 29.7202 82.0718 29.7703 82.1543 29.7895C82.7943 29.9095 83.4243 30.0595 84.0343 30.2295L84.1143 30.2395ZM66.7143 29.9595H66.7743C67.4409 29.8462 68.081 29.7462 68.6943 29.6595C68.7785 29.6448 68.8535 29.598 68.9039 29.529C68.9543 29.46 68.9759 29.3741 68.9643 29.2895C68.9594 29.2477 68.9462 29.2073 68.9252 29.1708C68.9042 29.1343 68.876 29.1024 68.8423 29.0771C68.8086 29.0519 68.7701 29.0337 68.7292 29.0238C68.6883 29.0139 68.6458 29.0125 68.6043 29.0195C67.9543 29.1095 67.3143 29.2095 66.6643 29.3195C66.5808 29.3342 66.5065 29.3814 66.4577 29.4507C66.409 29.5201 66.3897 29.606 66.4043 29.6895C66.4042 29.732 66.4128 29.774 66.4297 29.813C66.4465 29.8519 66.4711 29.887 66.502 29.9161C66.533 29.9452 66.5696 29.9676 66.6095 29.9819C66.6495 29.9963 66.6919 30.0023 66.7343 29.9995L66.7143 29.9595ZM80.3043 29.4695C80.3821 29.4681 80.4569 29.4392 80.5154 29.3879C80.574 29.3367 80.6125 29.2664 80.6243 29.1895C80.6299 29.1475 80.627 29.1047 80.6159 29.0637C80.6048 29.0228 80.5857 28.9844 80.5597 28.9509C80.5336 28.9174 80.5011 28.8894 80.4641 28.8686C80.4272 28.8477 80.3864 28.8345 80.3443 28.8295C79.7043 28.7395 79.0443 28.6695 78.3443 28.6195C78.3027 28.6154 78.2609 28.6197 78.221 28.6322C78.1812 28.6447 78.1443 28.6651 78.1126 28.6922C78.0808 28.7192 78.0548 28.7524 78.0362 28.7898C78.0176 28.8271 78.0068 28.8679 78.0043 28.9095C78.0002 28.9516 78.0044 28.994 78.0168 29.0345C78.0291 29.0749 78.0494 29.1124 78.0763 29.145C78.1033 29.1775 78.1365 29.2044 78.1739 29.2241C78.2113 29.2437 78.2522 29.2558 78.2943 29.2595C78.9443 29.3095 79.5943 29.3795 80.2143 29.4695H80.3043ZM70.5743 29.4195C71.2143 29.3495 71.8643 29.2995 72.5043 29.2495C72.5464 29.247 72.5875 29.2362 72.6253 29.2177C72.6632 29.1992 72.697 29.1734 72.7249 29.1418C72.7528 29.1103 72.7741 29.0735 72.7878 29.0336C72.8014 28.9937 72.807 28.9516 72.8043 28.9095C72.8018 28.8666 72.7907 28.8245 72.7716 28.786C72.7525 28.7474 72.7258 28.7131 72.6931 28.6851C72.6604 28.6571 72.6224 28.636 72.5814 28.623C72.5404 28.61 72.4971 28.6054 72.4543 28.6095C71.8043 28.6095 71.1543 28.7095 70.4543 28.7795C70.4122 28.7833 70.3712 28.7953 70.3338 28.815C70.2964 28.8347 70.2633 28.8616 70.2364 28.8941C70.2094 28.9266 70.1892 28.9642 70.1768 29.0046C70.1644 29.045 70.1601 29.0875 70.1643 29.1295C70.1592 29.1834 70.1679 29.2378 70.1895 29.2874C70.2112 29.3371 70.2451 29.3804 70.2881 29.4134C70.331 29.4464 70.3817 29.4679 70.4352 29.476C70.4888 29.484 70.5435 29.4784 70.5943 29.4595L70.5743 29.4195ZM76.4143 29.1595C76.4984 29.1597 76.5795 29.1277 76.6408 29.07C76.7022 29.0124 76.7392 28.9335 76.7443 28.8495C76.7456 28.8067 76.7383 28.764 76.7229 28.724C76.7074 28.684 76.684 28.6475 76.6541 28.6168C76.6243 28.586 76.5886 28.5615 76.5491 28.5448C76.5096 28.5281 76.4672 28.5195 76.4243 28.5195C75.7743 28.5195 75.1143 28.5195 74.4243 28.5195C74.3814 28.5195 74.339 28.5281 74.2995 28.5448C74.26 28.5615 74.2242 28.586 74.1944 28.6168C74.1645 28.6475 74.1412 28.684 74.1257 28.724C74.1102 28.764 74.1029 28.8067 74.1043 28.8495C74.1069 28.9326 74.1417 29.0115 74.2014 29.0694C74.2612 29.1272 74.3411 29.1596 74.4243 29.1595H76.3743H76.4143Z" fill="#999999"/>
<path d="M26.4545 103.13L23.6346 104.35L12.3646 96.49L9.36456 98.15C6.95456 99.59 4.61457 99.69 3.49457 99.05L3.26453 99.16C1.52453 99.92 0.494532 99.24 0.144531 98.42C-0.205469 97.6 -0.00544167 96.42 1.73456 95.64L1.96454 95.54C2.17454 94.54 3.08458 92.86 6.63458 91.87L9.90454 90.82L11.9045 77.23L14.7245 76L16.9146 88.59L24.9745 85.83L26.1946 82.6L28.4346 81.77L28.5945 84.77L29.3945 84.7L30.1246 86.37L29.5245 86.96L31.6445 89.16L29.5046 90.23L26.3246 88.91L18.7946 92.91L26.4545 103.13ZM26.2446 88.18L29.4446 89.51L30.4446 88.99L28.5046 86.99L29.2346 86.25L28.8945 85.46L27.8945 85.55L27.7446 82.75L26.6545 83.15L25.4346 86.39L16.3146 89.5L14.1445 76.99L12.4545 77.72L10.5046 91.36L6.81458 92.54C3.37457 93.49 2.69454 95.03 2.59454 95.86V96.07L2.39453 96.14C2.26748 96.1762 2.14371 96.223 2.02454 96.28C0.954536 96.74 0.474546 97.47 0.784546 98.17C1.09455 98.87 1.94453 99.03 3.01453 98.56C3.13493 98.5114 3.25191 98.4546 3.36456 98.39L3.55457 98.28L3.73456 98.41C4.46456 98.95 6.59457 99.05 9.05457 97.59L12.4146 95.71L23.7145 103.6L25.4045 102.87L17.7446 92.73L26.2446 88.18Z" fill="#999999"/>
</svg>
