<svg width="122" height="83" viewBox="0 0 122 83" fill="none" xmlns="http://www.w3.org/2000/svg">
<path d="M51.31 21.1623C43.4144 16.467 30.3943 27.7764 27.086 30.8585C27.7534 28.9039 28.9095 27.1507 30.4455 25.7642C30.4815 25.736 30.5103 25.6999 30.5296 25.6585C30.5488 25.6172 30.558 25.5719 30.5563 25.5264C30.5564 25.4826 30.5456 25.4395 30.5247 25.401C30.5039 25.3624 30.4737 25.3297 30.437 25.3057C29.7056 24.8134 28.8469 24.5421 27.9643 24.5245C28.4185 23.9673 29.002 23.5285 29.6645 23.246C30.3271 22.9635 31.0487 22.8457 31.7671 22.9028C31.8201 22.9106 31.8743 22.9027 31.9228 22.8801C31.9713 22.8574 32.0121 22.821 32.04 22.7755C32.0669 22.729 32.0811 22.6763 32.0811 22.6227C32.0811 22.569 32.0669 22.5163 32.04 22.4698C31.6914 21.9448 31.2098 21.5206 30.6439 21.2403C30.078 20.9601 29.4477 20.8335 28.8169 20.8736C29.9339 20.0245 32.4663 19.7189 33.4895 19.6849C33.5441 19.6844 33.5973 19.668 33.6427 19.6379C33.6881 19.6077 33.7238 19.5651 33.7453 19.5151C33.7662 19.4664 33.7733 19.413 33.7658 19.3606C33.7583 19.3082 33.7364 19.2588 33.7026 19.2179C32.7152 18.0743 31.3154 17.3637 29.806 17.2396C31.2214 15.5415 35.4165 15.0321 35.4591 15.0236C35.519 15.019 35.5757 14.9949 35.6204 14.955C35.6651 14.9151 35.6953 14.8616 35.7064 14.8028C35.7204 14.77 35.7278 14.7346 35.7281 14.6989C35.7284 14.6632 35.7217 14.6277 35.7082 14.5946C35.6948 14.5615 35.6749 14.5313 35.6497 14.5058C35.6245 14.4804 35.5945 14.4601 35.5614 14.4462C34.2307 13.6024 32.7219 13.0764 31.1532 12.9094C32.8585 10.8038 38.2814 9.5132 38.3411 9.5132C38.3989 9.49972 38.4512 9.46886 38.4909 9.42482C38.5305 9.38078 38.5556 9.32568 38.5628 9.26697C38.5695 9.20905 38.5584 9.15046 38.531 9.09894C38.5036 9.04741 38.4612 9.00535 38.4093 8.97829C34.777 7.09338 30.3432 8.92735 30.1385 8.97829C25.0226 11.5255 24.7924 19.9736 25.3295 25.8236C23.3173 18.717 18.9431 7.58585 11.2096 7C10.9538 7 4.92547 6.99998 1.61716 10.8802C1.58377 10.9274 1.56585 10.9837 1.56585 11.0415C1.56585 11.0993 1.58377 11.1556 1.61716 11.2028C1.64698 11.2536 1.69123 11.2944 1.74435 11.3201C1.79748 11.3458 1.85707 11.3552 1.91557 11.3472C1.99231 11.3472 9.19729 10.1839 12.1475 11.967C10.3478 12.8962 8.80028 14.2449 7.63692 15.8981C7.60207 15.9479 7.58339 16.0072 7.58339 16.0679C7.58339 16.1286 7.60207 16.1879 7.63692 16.2377C7.67162 16.2863 7.72058 16.323 7.77707 16.3428C7.83356 16.3626 7.8948 16.3644 7.9524 16.3481C8.01208 16.3481 13.3582 14.8623 15.8139 16.3057C14.9493 16.723 14.1773 17.3083 13.5432 18.0272C12.9092 18.746 12.4259 19.5839 12.1219 20.4915C12.1043 20.5431 12.1022 20.5987 12.1158 20.6515C12.1294 20.7043 12.1582 20.752 12.1986 20.7887C12.2368 20.827 12.2856 20.8531 12.3388 20.8637C12.3919 20.8743 12.447 20.8689 12.4971 20.8481C13.7675 20.3811 17.0758 19.4557 18.7812 20.084C17.996 20.3115 17.2881 20.7479 16.7337 21.3464C16.1793 21.9448 15.7993 22.6826 15.6348 23.4802C15.6266 23.5334 15.6333 23.5877 15.6544 23.6372C15.6755 23.6867 15.7101 23.7294 15.7542 23.7604C15.8009 23.7872 15.8538 23.8013 15.9077 23.8013C15.9616 23.8013 16.0145 23.7872 16.0612 23.7604C16.9046 23.328 17.8441 23.1152 18.7924 23.1419C19.7406 23.1687 20.6666 23.434 21.4841 23.9132C20.4195 24.3425 19.508 25.0787 18.8664 26.0274C18.8455 26.0666 18.8346 26.1103 18.8346 26.1547C18.8346 26.1991 18.8455 26.2429 18.8664 26.2821C18.8822 26.324 18.9073 26.3617 18.9397 26.3926C18.9722 26.4235 19.0113 26.4466 19.054 26.4604C21.5637 27.357 23.7966 28.8871 25.5342 30.901C21.3221 29.2793 7.03151 24.3972 2.01789 30.901C1.89851 31.0793 -0.923781 35.3161 0.312572 39.468C0.329605 39.5236 0.363148 39.5729 0.408798 39.6093C0.454447 39.6456 0.510112 39.6674 0.568411 39.6717H0.611033C0.662145 39.6663 0.710968 39.6478 0.752796 39.6181C0.794623 39.5883 0.828011 39.5483 0.84975 39.5019C0.84975 39.4425 3.33954 33.9746 5.91456 32.7095C5.76097 34.3842 6.00635 36.0714 6.63079 37.634C6.6506 37.6899 6.68767 37.738 6.73669 37.7716C6.78572 37.8051 6.84417 37.8224 6.90365 37.8208C6.96492 37.8199 7.02431 37.7997 7.07333 37.7631C7.12235 37.7265 7.15846 37.6753 7.17648 37.617C7.17648 37.5746 8.58337 33.2614 10.6809 32.1491C10.5875 32.9434 10.6524 33.7482 10.8719 34.5175C11.0913 35.2867 11.4611 36.0054 11.9599 36.6321C11.9941 36.6738 12.0396 36.7047 12.091 36.7213C12.1424 36.7378 12.1976 36.7393 12.2498 36.7255C12.3023 36.7149 12.3506 36.6891 12.3885 36.6513C12.4264 36.6136 12.4523 36.5656 12.463 36.5132C12.7102 35.4434 13.5373 32.8113 14.7055 31.8434C14.5272 32.4951 14.5265 33.1824 14.7033 33.8345C14.8801 34.4865 15.2281 35.08 15.7116 35.5538C15.7514 35.5894 15.8001 35.6138 15.8526 35.6242C15.9051 35.6347 15.9595 35.6309 16.01 35.6132C16.061 35.5933 16.1054 35.5597 16.1385 35.5163C16.1716 35.4729 16.192 35.4212 16.1976 35.367C16.2874 34.5997 16.5633 33.8656 17.0015 33.228C17.4397 32.5905 18.0271 32.0687 18.7129 31.7076C18.5431 32.6347 18.6498 33.5911 19.0199 34.4585C19.037 34.4993 19.0637 34.5352 19.0979 34.5633C19.1321 34.5914 19.1726 34.6108 19.216 34.6198C19.259 34.6293 19.3037 34.6289 19.3465 34.6186C19.3894 34.6083 19.4293 34.5884 19.4633 34.5604C20.137 34.0342 20.8729 33.5923 21.6546 33.2444C21.3132 33.5581 21.0481 33.9452 20.8797 34.3763C20.7112 34.8074 20.6438 35.2711 20.6826 35.7321C20.752 36.5415 21.1412 37.2903 21.7647 37.814C22.3883 38.3378 23.1951 38.5937 24.0079 38.5255C24.6762 38.4671 25.306 38.1894 25.7985 37.7359C26.5233 39.6208 29.2944 48.6548 24.6048 66.6038C18.2781 68.4972 17.2719 70.484 16.3937 72.2416C16.1089 72.8802 15.7295 73.4726 15.2682 73.9991C14.8225 74.6266 14.5588 75.3642 14.5062 76.131C14.4535 76.8978 14.6139 77.6643 14.9698 78.3463C16.1379 80.7746 19.9834 83.4406 31.6307 82.4642C39.6457 81.785 44.5825 79.9171 46.3049 76.9114C46.6545 76.3357 46.8643 75.6867 46.9176 75.016C46.9709 74.3453 46.8662 73.6715 46.6119 73.0482C44.9065 68.9897 40.5409 65.7038 36.38 65.3048C35.7149 58.7585 33.6771 43.4161 28.851 37.2859C29.0551 37.3071 29.2609 37.3071 29.4649 37.2859C30.2784 37.2146 31.0304 36.8252 31.5562 36.203C32.082 35.5808 32.3388 34.7764 32.2702 33.9661C32.2172 33.3571 31.9815 32.778 31.5937 32.3041C31.206 31.8302 30.6841 31.4833 30.0959 31.3085C31.7384 31.1664 33.3932 31.3189 34.9816 31.7585C35.0201 31.7773 35.0624 31.787 35.1053 31.787C35.1481 31.787 35.1904 31.7773 35.2289 31.7585C35.2667 31.7349 35.2982 31.7025 35.3204 31.664C35.3427 31.6255 35.3552 31.5822 35.3568 31.5378C35.3782 30.4818 35.0812 29.4437 34.5041 28.5576C35.3706 28.639 36.203 28.9339 36.9264 29.4156C37.6499 29.8973 38.2415 30.5508 38.648 31.317C38.6716 31.3648 38.708 31.4051 38.7531 31.4335C38.7983 31.462 38.8504 31.4775 38.9039 31.4783C38.9573 31.4775 39.0094 31.462 39.0546 31.4335C39.0997 31.4051 39.1361 31.3648 39.1596 31.317C39.4691 30.6297 39.585 29.8716 39.4948 29.1237C39.4047 28.3759 39.112 27.6666 38.648 27.0717C40.251 27.5387 42.2292 29.9585 42.9113 30.9774C42.9406 31.0195 42.9804 31.0533 43.0267 31.0757C43.073 31.098 43.1243 31.108 43.1757 31.1047C43.2298 31.0967 43.2804 31.0732 43.3213 31.037C43.3622 31.0008 43.3916 30.9535 43.4059 30.901C43.6585 30.0589 43.7418 29.1755 43.6511 28.3014C43.5604 27.4272 43.2974 26.5794 42.8772 25.8066C45.4949 26.0613 48.7179 29.9755 48.752 30.0519C48.7903 30.0982 48.8417 30.1319 48.8995 30.1486C48.9573 30.1652 49.0189 30.1641 49.076 30.1453C49.1344 30.1264 49.1847 30.0885 49.2187 30.0376C49.2527 29.9868 49.2686 29.926 49.2636 29.8651C49.2708 28.0034 48.8324 26.1669 47.9846 24.5076C51.148 24.7453 55.9485 29.4151 55.9996 29.4661C56.0415 29.5072 56.0953 29.5343 56.1534 29.5434C56.2115 29.5525 56.2711 29.5433 56.3236 29.517C56.3764 29.4927 56.4203 29.4527 56.4493 29.4025C56.4783 29.3524 56.491 29.2945 56.4856 29.2368C56.119 24.5076 51.5232 21.3066 51.31 21.1623ZM36.056 68.3784C35.9444 69.2705 35.577 70.1117 34.9979 70.8013C34.4187 71.491 33.6523 71.9998 32.7903 72.2671C30.3687 73.1161 26.9496 72.5557 25.3295 71.0444C24.9996 70.7776 24.7529 70.4226 24.6185 70.021C24.4841 69.6194 24.4675 69.188 24.5707 68.7774L24.7753 68.0302C26.8725 68.8064 29.1061 69.1501 31.3408 69.0406C33.0813 68.9708 34.7276 68.2348 35.9366 66.9859C36.0133 67.7586 36.0474 68.251 36.056 68.3784ZM35.8599 66.1708C32.9353 70.085 26.2589 67.9539 24.9203 67.4699C25.3125 66.0265 25.6564 64.6397 25.952 63.3095C27.4589 64.2359 29.2282 64.6473 30.9912 64.4812C32.5891 64.3124 34.1311 63.7996 35.5103 62.9784C35.6552 64.218 35.7746 65.3048 35.8599 66.1708ZM35.4335 62.3585C30.3176 65.4152 26.8047 63.2076 26.0543 62.7067C26.3442 61.3736 26.583 60.1001 26.7961 58.8859C28.1709 59.3279 29.6191 59.4981 31.0594 59.3868C32.3765 59.2829 33.6544 58.8915 34.8026 58.2406C35.0839 59.7095 35.2715 61.1444 35.4335 62.3585ZM26.907 58.3086C27.1201 57.035 27.2907 55.8123 27.4186 54.6661C28.5468 55.077 29.7517 55.2364 30.9486 55.1331C32.0668 55.0387 33.1515 54.7056 34.129 54.1566C34.3592 55.3368 34.5553 56.5 34.7344 57.6293C33.5516 58.2773 32.246 58.6724 30.9011 58.7894C29.5563 58.9063 28.2017 58.7426 26.924 58.3086H26.907ZM27.4782 54.0633C27.5891 52.9765 27.6744 51.9406 27.7255 50.9642C28.6888 51.2827 29.7068 51.404 30.7183 51.3208C31.6547 51.2377 32.5606 50.9477 33.3701 50.4717C33.6003 51.4821 33.822 52.5095 34.0181 53.5199C33.0403 54.0885 31.9475 54.4331 30.8192 54.5286C29.6909 54.624 28.5555 54.468 27.4953 54.0718L27.4782 54.0633ZM27.7596 50.3614C27.7596 49.4529 27.8108 48.5953 27.8022 47.8142C28.4321 47.9283 29.0742 47.9597 29.7122 47.9076C30.6967 47.8414 31.6424 47.5001 32.4407 46.9227C32.7221 47.9076 32.9864 48.918 33.2252 49.9368C32.4029 50.3982 31.4896 50.676 30.5488 50.7508C29.6079 50.8255 28.662 50.6956 27.7767 50.3699L27.7596 50.3614ZM27.8022 47.1944C27.8022 46.184 27.734 45.2585 27.6573 44.4095C28.1157 44.5128 28.5875 44.5443 29.0557 44.5029C29.9006 44.427 30.7114 44.1345 31.409 43.6538C31.7074 44.5029 31.9973 45.3519 32.2617 46.2774C31.6272 46.7322 30.9041 47.0495 30.139 47.209C29.3738 47.3684 28.5836 47.3663 27.8193 47.2029L27.8022 47.1944ZM27.6062 43.7982C27.5323 43.0849 27.447 42.4312 27.3503 41.8368C27.6197 41.8631 27.891 41.8631 28.1604 41.8368C28.9476 41.7821 29.6984 41.4855 30.3091 40.9878C30.6245 41.6585 30.9145 42.3717 31.2044 43.1104C30.7007 43.4915 30.1159 43.7524 29.495 43.8731C28.8742 43.9938 28.2338 43.9711 27.6232 43.8066L27.6062 43.7982ZM27.2566 41.251C27.1287 40.5717 27.0008 39.9859 26.8729 39.4849C27.0487 39.502 27.2257 39.502 27.4015 39.4849C28.045 39.4411 28.6508 39.1666 29.1068 38.7123C29.4627 39.2596 29.7872 39.8266 30.0789 40.4104C29.7041 40.7507 29.2578 41.0035 28.7725 41.1504C28.2872 41.2973 27.7752 41.3345 27.2736 41.2595L27.2566 41.251ZM26.7023 38.8736C26.5403 38.3132 26.3954 37.8972 26.2845 37.6085H26.6512C27.1034 37.5671 27.5406 37.425 27.9301 37.1925C28.2342 37.5181 28.5189 37.8611 28.7828 38.2198C28.5282 38.5018 28.2031 38.7115 27.8407 38.8279C27.4783 38.9442 27.0914 38.9629 26.7194 38.8821L26.7023 38.8736ZM27.8193 36.5896C27.5394 36.7807 27.2241 36.9144 26.8918 36.9829C26.5595 37.0514 26.2168 37.0534 25.8838 36.9887C25.356 36.8808 24.8774 36.6059 24.5194 36.205C24.1614 35.8041 23.9431 35.2987 23.8971 34.7642C23.8678 34.4434 23.9024 34.12 23.999 33.8125C24.0955 33.5051 24.2522 33.2197 24.4598 32.9727C24.668 32.7154 24.9265 32.5029 25.2196 32.3482C25.5128 32.1935 25.8345 32.0997 26.1652 32.0727H26.5318C26.8481 32.0885 27.1582 32.1664 27.4441 32.3019C27.8399 32.4877 28.1797 32.7737 28.4296 33.1313C28.6795 33.4889 28.8307 33.9056 28.8681 34.3396C28.9114 34.7733 28.8388 35.2106 28.6576 35.6072C28.4764 36.0039 28.1931 36.3457 27.8364 36.5981L27.8193 36.5896ZM30.3773 9.56415C31.4711 9.14213 32.6193 8.8763 33.7879 8.77453C35.0091 8.64814 36.2432 8.79016 37.4032 9.19056C35.6211 9.68301 31.4346 11.0245 30.3773 13.0793C30.35 13.1225 30.3356 13.1725 30.3356 13.2236C30.3356 13.2746 30.35 13.3247 30.3773 13.3679C30.4039 13.4107 30.4419 13.4452 30.4871 13.4676C30.5322 13.4901 30.5828 13.4997 30.6331 13.4953C31.9967 13.5278 33.3316 13.8921 34.5212 14.5566C33.0035 14.8368 29.8913 15.601 28.9875 17.35C28.9628 17.3926 28.9497 17.4409 28.9497 17.4901C28.9497 17.5393 28.9628 17.5876 28.9875 17.6302C29.0137 17.6738 29.0514 17.7095 29.0964 17.7334C29.1415 17.7574 29.1922 17.7687 29.2432 17.766C30.5551 17.7721 31.8196 18.2552 32.7988 19.1245C31.5028 19.2349 28.5782 19.6509 27.8278 21.0689C27.7991 21.1147 27.7839 21.1677 27.7839 21.2217C27.7839 21.2758 27.7991 21.3287 27.8278 21.3745C27.8583 21.421 27.9027 21.4567 27.9548 21.4766C28.0069 21.4964 28.0639 21.4993 28.1177 21.4849C28.6498 21.3785 29.1996 21.4 29.7216 21.5477C30.2436 21.6953 30.7227 21.9649 31.1191 22.334C30.2985 22.3484 29.4955 22.5731 28.7876 22.9866C28.0796 23.4 27.4906 23.9882 27.0775 24.6944C27.0504 24.7392 27.0361 24.7906 27.0361 24.8429C27.0361 24.8953 27.0504 24.9467 27.0775 24.9915C27.1069 25.0356 27.1479 25.0708 27.196 25.0933C27.2441 25.1157 27.2975 25.1246 27.3503 25.1189C28.1561 25.0635 28.9622 25.2216 29.6866 25.5774C28.2384 26.9721 27.1376 28.6847 26.4721 30.5783C25.8667 26.5028 23.9738 12.7906 30.4455 9.57264L30.3773 9.56415ZM19.4888 26.1208C20.1784 25.3057 21.0816 24.6973 22.098 24.3632C22.1491 24.3487 22.1953 24.3204 22.2314 24.2814C22.2675 24.2425 22.2922 24.1944 22.3026 24.1425C22.3109 24.0902 22.305 24.0366 22.2855 23.9873C22.266 23.9381 22.2336 23.8949 22.1918 23.8623C21.3479 23.2323 20.3541 22.8314 19.3078 22.6989C18.2615 22.5664 17.1986 22.707 16.2232 23.1066C16.9138 20.984 19.3439 20.5595 19.4547 20.5085C19.5093 20.5016 19.5604 20.4784 19.6015 20.442C19.6426 20.4057 19.6717 20.3578 19.685 20.3047C19.6975 20.2514 19.6954 20.1956 19.6789 20.1433C19.6624 20.0911 19.6321 20.0442 19.5912 20.0075C18.0052 18.683 14.2279 19.7104 12.7699 20.1774C13.4837 18.6024 14.7735 17.3575 16.3767 16.6962C16.4251 16.6799 16.4682 16.6507 16.5013 16.6118C16.5343 16.5729 16.5561 16.5258 16.5642 16.4755C16.5729 16.426 16.5689 16.3751 16.5525 16.3276C16.5361 16.2801 16.5079 16.2375 16.4704 16.2038C14.5264 14.5481 10.2972 15.2528 8.50662 15.6519C9.60857 14.2191 11.0579 13.0884 12.7187 12.366C12.7667 12.3489 12.8094 12.3195 12.8423 12.2807C12.8752 12.242 12.8973 12.1953 12.9063 12.1453C12.9168 12.0958 12.9136 12.0444 12.8971 11.9966C12.8806 11.9487 12.8514 11.9062 12.8126 11.8736C10.5019 9.93773 4.71231 10.4556 2.58067 10.7189C5.80371 7.6113 11.1072 7.62829 11.1584 7.62829C20.4694 8.3415 24.8776 25.9594 25.8838 30.6547C24.1663 28.6518 21.9824 27.0981 19.523 26.1293L19.4888 26.1208ZM19.361 33.9746C19.1346 33.1405 19.1346 32.2615 19.361 31.4274C19.3768 31.377 19.378 31.3231 19.3644 31.272C19.3508 31.2209 19.323 31.1747 19.2842 31.1387C19.2471 31.1015 19.2003 31.0754 19.149 31.0634C19.0978 31.0514 19.0442 31.0539 18.9943 31.0708C18.1679 31.3641 17.431 31.8641 16.8547 32.5228C16.2783 33.1815 15.8817 33.9767 15.703 34.8321C15.3874 34.3374 15.1969 33.7738 15.1479 33.1897C15.0989 32.6056 15.1928 32.0184 15.4217 31.4783C15.4507 31.4341 15.4661 31.3825 15.4661 31.3297C15.4661 31.277 15.4507 31.2253 15.4217 31.1811C15.3851 31.1403 15.3377 31.1106 15.2848 31.0956C15.232 31.0806 15.176 31.0808 15.1232 31.0962C13.4691 31.5802 12.4459 34.5944 12.0793 35.8934C11.3406 34.6894 11.0792 33.2545 11.346 31.8689C11.3566 31.8201 11.3543 31.7695 11.3393 31.7219C11.3244 31.6742 11.2973 31.6313 11.2607 31.5972C11.2255 31.5599 11.1802 31.5335 11.1302 31.5215C11.0802 31.5094 11.0278 31.5121 10.9793 31.5293C8.95002 32.1151 7.50903 35.2651 6.92922 36.768C6.46005 35.3745 6.34003 33.888 6.57963 32.4378C6.59377 32.3885 6.5941 32.3364 6.58057 32.287C6.56704 32.2376 6.54017 32.1928 6.5029 32.1576C6.46658 32.1219 6.42121 32.0968 6.37165 32.0848C6.32208 32.0728 6.27018 32.0745 6.2215 32.0896C3.82554 32.8029 1.55746 36.9293 0.696278 38.6529C0.0738384 35.0104 2.47832 31.3934 2.49537 31.3679C3.94489 29.5 6.27266 28.6595 8.93295 28.4302C14.9442 27.9208 22.5755 30.5698 25.3978 31.6311C23.2264 31.9211 21.1565 32.7247 19.361 33.9746ZM24.3064 32.4038L24.1614 32.5396H23.9056L24.3064 32.4038ZM21.2112 35.8C21.1832 35.4738 21.2201 35.1452 21.3199 34.8332C21.4196 34.5212 21.5803 34.2319 21.7926 33.9818C22.0049 33.7318 22.2647 33.5259 22.557 33.376C22.8494 33.2262 23.1686 33.1353 23.4963 33.1085H23.7521V33.151C23.7521 33.1934 23.7095 33.2444 23.6839 33.2868C23.6256 33.4025 23.5744 33.5216 23.5305 33.6434L23.4793 33.8217C23.4448 33.9414 23.4191 34.0634 23.4025 34.1868V34.3481C23.3855 34.5317 23.3855 34.7165 23.4025 34.9C23.4156 35.0547 23.4413 35.208 23.4793 35.3585C23.4793 35.4095 23.4793 35.4604 23.5219 35.5113L23.6242 35.8L23.701 35.9613C23.7413 36.0461 23.7869 36.1284 23.8374 36.2076L23.9397 36.3689C23.9889 36.4432 24.043 36.5141 24.1017 36.5812L24.2296 36.7255C24.2907 36.7948 24.3562 36.86 24.4257 36.9208L24.5707 37.0396C24.6438 37.101 24.7207 37.1577 24.8009 37.2095L24.9458 37.3029C25.0687 37.3724 25.1971 37.432 25.3295 37.4812C24.9355 37.8145 24.4465 38.0164 23.9312 38.0585C23.5971 38.0899 23.26 38.0541 22.94 37.9534C22.6201 37.8526 22.3237 37.6889 22.0684 37.4719C21.8132 37.255 21.6042 36.9892 21.4541 36.6903C21.3039 36.3914 21.2155 36.0656 21.1942 35.7321L21.2112 35.8ZM46.0662 73.4048C46.2839 73.9553 46.3702 74.5485 46.3184 75.1379C46.2667 75.7272 46.0781 76.2966 45.7677 76.801C44.6508 78.7369 41.2742 81.2246 31.5539 82.0567C19.6167 83.0671 16.3511 80.1124 15.4558 78.2529C15.1557 77.6736 15.0165 77.0251 15.0525 76.3742C15.0884 75.7234 15.2983 75.094 15.6604 74.551C16.1614 73.9838 16.5752 73.3457 16.8883 72.6576C17.7409 70.9595 18.6362 69.2105 24.4002 67.419C24.2893 67.852 24.1699 68.268 24.0506 68.7265C23.9099 69.2371 23.9221 69.7775 24.0857 70.2814C24.2493 70.7852 24.5571 71.2304 24.9714 71.5623C25.8237 72.2389 26.8016 72.7417 27.8492 73.0418C28.8967 73.3419 29.9933 73.4335 31.0764 73.3114C31.7388 73.2552 32.3917 73.1184 33.0205 72.9039C33.9864 72.6012 34.8443 72.0279 35.4915 71.2524C36.1387 70.4769 36.5478 69.5322 36.6699 68.5312V68.4718C36.6699 68.2935 36.5931 67.4104 36.4567 66.0435C38.5349 66.3791 40.4978 67.2203 42.1712 68.4926C43.8445 69.7649 45.1766 71.4289 46.0491 73.3369L46.0662 73.4048ZM31.6904 34.1783C31.7184 34.5039 31.6818 34.8318 31.5826 35.1433C31.4834 35.4548 31.3235 35.7438 31.112 35.9937C30.9006 36.2437 30.6418 36.4497 30.3504 36.6C30.059 36.7504 29.7408 36.842 29.4138 36.8698C29.1278 36.8974 28.8391 36.8744 28.5611 36.8019C28.6123 36.7595 28.6464 36.7085 28.6976 36.6576L28.7658 36.5812C28.8425 36.4878 28.9192 36.3859 28.9875 36.284C29.0471 36.1906 29.0983 36.0887 29.1495 35.9953L29.2006 35.8849C29.2006 35.8085 29.2603 35.7321 29.2859 35.6472C29.3115 35.5623 29.2859 35.5623 29.3285 35.5198C29.3534 35.4419 29.3733 35.3625 29.3882 35.2821V35.1548V34.9C29.3921 34.8605 29.3921 34.8207 29.3882 34.7812C29.3967 34.654 29.3967 34.5263 29.3882 34.3991C29.3882 34.2717 29.3882 34.1529 29.3285 34.0255C29.2688 33.8981 29.3285 33.9491 29.3285 33.9066C29.3285 33.8642 29.2859 33.7453 29.2603 33.6689L29.2091 33.5331C29.1815 33.4608 29.1502 33.3899 29.1153 33.3208C29.096 33.2766 29.0732 33.234 29.0471 33.1934C29.0471 33.1255 28.9704 33.0576 28.9278 32.9896L28.851 32.8793C28.7987 32.8 28.7388 32.7261 28.672 32.6585L28.6208 32.5906C28.5398 32.5043 28.4544 32.4221 28.365 32.3444L28.2627 32.2679L28.1177 32.1491C28.372 32.0383 28.6427 31.9695 28.9192 31.9453C29.5719 31.8733 30.2268 32.0602 30.7422 32.4654C31.2576 32.8705 31.5921 33.4615 31.6733 34.1104L31.6904 34.1783ZM47.4986 23.9896C47.4484 23.9942 47.4001 24.0114 47.3584 24.0397C47.3166 24.0679 47.2827 24.1062 47.2599 24.151C47.2352 24.1951 47.2223 24.2448 47.2223 24.2953C47.2223 24.3458 47.2352 24.3955 47.2599 24.4396C48.1128 25.8555 48.5992 27.4601 48.6753 29.1094C47.5072 27.8359 44.7275 25.1189 42.3912 25.3227C42.3417 25.3262 42.2942 25.343 42.2536 25.3715C42.213 25.3999 42.181 25.4388 42.161 25.484C42.1363 25.5281 42.1234 25.5778 42.1234 25.6283C42.1234 25.6788 42.1363 25.7285 42.161 25.7727C42.9981 27.1146 43.3021 28.7193 43.0136 30.2727C42.161 29.118 39.8418 26.3755 37.9403 26.5453C37.885 26.5477 37.8316 26.5669 37.7874 26.6003C37.7432 26.6337 37.7103 26.6796 37.6931 26.7321C37.6721 26.7826 37.6673 26.8383 37.6796 26.8915C37.6918 26.9447 37.7203 26.9929 37.7613 27.0293C38.2237 27.5002 38.5622 28.0775 38.7466 28.7099C38.9311 29.3424 38.9558 30.0105 38.8186 30.6547C38.289 29.8494 37.5612 29.1925 36.7045 28.7466C35.8478 28.3008 34.8906 28.0808 33.9243 28.1076C33.8705 28.111 33.8185 28.1285 33.7736 28.1583C33.7286 28.1881 33.6924 28.2292 33.6685 28.2774C33.6476 28.326 33.6405 28.3795 33.648 28.4319C33.6555 28.4843 33.6774 28.5337 33.7112 28.5746C34.2952 29.3573 34.6494 30.2861 34.7344 31.2576C33.1467 30.8635 31.5038 30.7372 29.8742 30.884C29.0846 30.9565 28.3011 31.0842 27.5294 31.2661C30.94 28.167 43.602 17.316 50.9689 21.7057C51.0116 21.7057 55.0105 24.516 55.8035 28.5576C54.3199 27.1142 50.2527 23.7094 47.4986 23.9472V23.9896Z" fill="#999999"/>
<path d="M116.31 14.1623C108.414 9.46699 95.3943 20.7764 92.086 23.8585C92.7534 21.9039 93.9095 20.1507 95.4455 18.7642C95.4815 18.736 95.5103 18.6999 95.5296 18.6585C95.5488 18.6172 95.558 18.5719 95.5563 18.5264C95.5564 18.4826 95.5456 18.4395 95.5247 18.401C95.5039 18.3624 95.4737 18.3297 95.437 18.3057C94.7056 17.8134 93.8469 17.5421 92.9643 17.5245C93.4185 16.9673 94.002 16.5285 94.6645 16.246C95.3271 15.9635 96.0487 15.8457 96.7671 15.9028C96.8201 15.9106 96.8743 15.9027 96.9228 15.8801C96.9713 15.8574 97.0121 15.821 97.04 15.7755C97.0669 15.729 97.0811 15.6763 97.0811 15.6227C97.0811 15.569 97.0669 15.5163 97.04 15.4698C96.6914 14.9448 96.2098 14.5206 95.6439 14.2403C95.078 13.9601 94.4477 13.8335 93.8169 13.8736C94.9339 13.0245 97.4663 12.7189 98.4895 12.6849C98.5441 12.6844 98.5973 12.668 98.6427 12.6379C98.6881 12.6077 98.7238 12.5651 98.7453 12.5151C98.7662 12.4664 98.7733 12.413 98.7658 12.3606C98.7583 12.3082 98.7364 12.2588 98.7026 12.2179C97.7152 11.0743 96.3154 10.3637 94.806 10.2396C96.2214 8.54152 100.416 8.03207 100.459 8.02358C100.519 8.019 100.576 7.9949 100.62 7.95499C100.665 7.91508 100.695 7.8616 100.706 7.80284C100.72 7.76996 100.728 7.73462 100.728 7.69889C100.728 7.66315 100.722 7.62772 100.708 7.59459C100.695 7.56147 100.675 7.53131 100.65 7.50585C100.624 7.48039 100.594 7.46013 100.561 7.44623C99.2307 6.60239 97.7219 6.07642 96.1532 5.90943C97.8585 3.80377 103.281 2.5132 103.341 2.5132C103.399 2.49972 103.451 2.46886 103.491 2.42482C103.531 2.38078 103.556 2.32568 103.563 2.26697C103.569 2.20905 103.558 2.15046 103.531 2.09894C103.504 2.04741 103.461 2.00535 103.409 1.97829C99.777 0.0933849 95.3432 1.92735 95.1385 1.97829C90.0226 4.52547 89.7924 12.9736 90.3295 18.8236C88.3173 11.717 83.9431 0.58585 76.2096 0C75.9538 0 69.9255 -1.98383e-05 66.6172 3.88017C66.5838 3.9274 66.5658 3.98374 66.5658 4.0415C66.5658 4.09925 66.5838 4.1556 66.6172 4.20282C66.647 4.25358 66.6912 4.2944 66.7444 4.32009C66.7975 4.34579 66.8571 4.35522 66.9156 4.34717C66.9923 4.34717 74.1973 3.18395 77.1475 4.96697C75.3478 5.8962 73.8003 7.24488 72.6369 8.89811C72.6021 8.94794 72.5834 9.00721 72.5834 9.06793C72.5834 9.12865 72.6021 9.1879 72.6369 9.23773C72.6716 9.28631 72.7206 9.32303 72.7771 9.3428C72.8336 9.36256 72.8948 9.3644 72.9524 9.34811C73.0121 9.34811 78.3582 7.86227 80.8139 9.30567C79.9493 9.723 79.1773 10.3083 78.5432 11.0272C77.9092 11.746 77.4259 12.5839 77.1219 13.4915C77.1043 13.5431 77.1022 13.5987 77.1158 13.6515C77.1294 13.7043 77.1582 13.752 77.1986 13.7887C77.2368 13.827 77.2856 13.8531 77.3388 13.8637C77.3919 13.8743 77.447 13.8689 77.4971 13.8481C78.7675 13.3811 82.0758 12.4557 83.7812 13.084C82.996 13.3115 82.2881 13.7479 81.7337 14.3464C81.1793 14.9448 80.7993 15.6826 80.6348 16.4802C80.6266 16.5334 80.6333 16.5877 80.6544 16.6372C80.6755 16.6867 80.7101 16.7294 80.7542 16.7604C80.8009 16.7872 80.8538 16.8013 80.9077 16.8013C80.9616 16.8013 81.0145 16.7872 81.0612 16.7604C81.9046 16.328 82.8441 16.1152 83.7924 16.1419C84.7406 16.1687 85.6666 16.434 86.4841 16.9132C85.4195 17.3425 84.508 18.0787 83.8664 19.0274C83.8455 19.0666 83.8346 19.1103 83.8346 19.1547C83.8346 19.1991 83.8455 19.2429 83.8664 19.2821C83.8822 19.324 83.9073 19.3617 83.9397 19.3926C83.9722 19.4235 84.0113 19.4466 84.054 19.4604C86.5637 20.357 88.7966 21.8871 90.5342 23.901C86.3221 22.2793 72.0315 17.3972 67.0179 23.901C66.8985 24.0793 64.0762 28.3161 65.3126 32.468C65.3296 32.5236 65.3631 32.5729 65.4088 32.6093C65.4544 32.6456 65.5101 32.6674 65.5684 32.6717H65.611C65.6621 32.6663 65.711 32.6478 65.7528 32.6181C65.7946 32.5883 65.828 32.5483 65.8497 32.5019C65.8497 32.4425 68.3395 26.9746 70.9146 25.7095C70.761 27.3842 71.0064 29.0714 71.6308 30.634C71.6506 30.6899 71.6877 30.738 71.7367 30.7716C71.7857 30.8051 71.8442 30.8224 71.9036 30.8208C71.9649 30.8199 72.0243 30.7997 72.0733 30.7631C72.1223 30.7265 72.1585 30.6753 72.1765 30.617C72.1765 30.5746 73.5834 26.2614 75.6809 25.1491C75.5875 25.9434 75.6524 26.7482 75.8719 27.5175C76.0913 28.2867 76.4611 29.0054 76.9599 29.6321C76.9941 29.6738 77.0396 29.7047 77.091 29.7213C77.1424 29.7378 77.1976 29.7393 77.2498 29.7255C77.3023 29.7149 77.3506 29.6891 77.3885 29.6513C77.4264 29.6136 77.4523 29.5656 77.463 29.5132C77.7102 28.4434 78.5373 25.8113 79.7055 24.8434C79.5272 25.4951 79.5265 26.1824 79.7033 26.8345C79.8801 27.4865 80.2281 28.08 80.7116 28.5538C80.7514 28.5894 80.8001 28.6138 80.8526 28.6242C80.9051 28.6347 80.9595 28.6309 81.01 28.6132C81.061 28.5933 81.1054 28.5597 81.1385 28.5163C81.1716 28.4729 81.192 28.4212 81.1976 28.367C81.2874 27.5997 81.5633 26.8656 82.0015 26.228C82.4397 25.5905 83.0271 25.0687 83.7129 24.7076C83.5431 25.6347 83.6498 26.5911 84.0199 27.4585C84.037 27.4993 84.0637 27.5352 84.0979 27.5633C84.1321 27.5914 84.1726 27.6108 84.216 27.6198C84.259 27.6293 84.3037 27.6289 84.3465 27.6186C84.3894 27.6083 84.4293 27.5884 84.4633 27.5604C85.137 27.0342 85.8729 26.5923 86.6546 26.2444C86.3132 26.5581 86.0481 26.9452 85.8797 27.3763C85.7112 27.8074 85.6438 28.2711 85.6826 28.7321C85.752 29.5415 86.1412 30.2903 86.7647 30.814C87.3883 31.3378 88.1951 31.5937 89.0079 31.5255C89.6762 31.4671 90.306 31.1894 90.7985 30.7359C91.5233 32.6208 94.2944 41.6548 89.6048 59.6038C83.2781 61.4972 82.2719 63.484 81.3937 65.2416C81.1089 65.8802 80.7295 66.4726 80.2682 66.9991C79.8225 67.6266 79.5588 68.3642 79.5062 69.131C79.4535 69.8978 79.6139 70.6643 79.9698 71.3463C81.1379 73.7746 84.9834 76.4406 96.6307 75.4642C104.646 74.785 109.583 72.9171 111.305 69.9114C111.655 69.3357 111.864 68.6867 111.918 68.016C111.971 67.3453 111.866 66.6715 111.612 66.0482C109.907 61.9897 105.541 58.7038 101.38 58.3048C100.715 51.7585 98.6771 36.4161 93.851 30.2859C94.0551 30.3071 94.2609 30.3071 94.4649 30.2859C95.2784 30.2146 96.0304 29.8252 96.5562 29.203C97.082 28.5808 97.3388 27.7764 97.2702 26.9661C97.2172 26.3571 96.9815 25.778 96.5937 25.3041C96.206 24.8302 95.6841 24.4833 95.0959 24.3085C96.7384 24.1664 98.3932 24.3189 99.9816 24.7585C100.02 24.7773 100.062 24.787 100.105 24.787C100.148 24.787 100.19 24.7773 100.229 24.7585C100.267 24.7349 100.298 24.7025 100.32 24.664C100.343 24.6255 100.355 24.5822 100.357 24.5378C100.378 23.4818 100.081 22.4437 99.5041 21.5576C100.371 21.639 101.203 21.9339 101.926 22.4156C102.65 22.8973 103.242 23.5508 103.648 24.317C103.672 24.3648 103.708 24.4051 103.753 24.4335C103.798 24.462 103.85 24.4775 103.904 24.4783C103.957 24.4775 104.009 24.462 104.055 24.4335C104.1 24.4051 104.136 24.3648 104.16 24.317C104.469 23.6297 104.585 22.8716 104.495 22.1237C104.405 21.3759 104.112 20.6666 103.648 20.0717C105.251 20.5387 107.229 22.9585 107.911 23.9774C107.941 24.0195 107.98 24.0533 108.027 24.0757C108.073 24.098 108.124 24.108 108.176 24.1047C108.23 24.0967 108.28 24.0732 108.321 24.037C108.362 24.0008 108.392 23.9535 108.406 23.901C108.659 23.0589 108.742 22.1755 108.651 21.3014C108.56 20.4272 108.297 19.5794 107.877 18.8066C110.495 19.0613 113.718 22.9755 113.752 23.0519C113.79 23.0982 113.842 23.1319 113.9 23.1486C113.957 23.1652 114.019 23.1641 114.076 23.1453C114.134 23.1264 114.185 23.0885 114.219 23.0376C114.253 22.9868 114.269 22.926 114.264 22.8651C114.271 21.0034 113.832 19.1669 112.985 17.5076C116.148 17.7453 120.948 22.4151 121 22.4661C121.041 22.5072 121.095 22.5343 121.153 22.5434C121.212 22.5525 121.271 22.5433 121.324 22.517C121.376 22.4927 121.42 22.4527 121.449 22.4025C121.478 22.3524 121.491 22.2945 121.486 22.2368C121.119 17.5076 116.523 14.3066 116.31 14.1623ZM101.056 61.3784C100.944 62.2705 100.577 63.1117 99.9979 63.8013C99.4187 64.491 98.6523 64.9998 97.7903 65.2671C95.3687 66.1161 91.9496 65.5557 90.3295 64.0444C89.9996 63.7776 89.7529 63.4226 89.6185 63.021C89.4841 62.6194 89.4675 62.188 89.5707 61.7774L89.7753 61.0302C91.8725 61.8064 94.1061 62.1501 96.3408 62.0406C98.0813 61.9708 99.7276 61.2348 100.937 59.9859C101.013 60.7586 101.047 61.251 101.056 61.3784ZM100.86 59.1708C97.9353 63.085 91.2589 60.9539 89.9203 60.4699C90.3125 59.0265 90.6564 57.6397 90.952 56.3095C92.4589 57.2359 94.2282 57.6473 95.9912 57.4812C97.5891 57.3124 99.1311 56.7996 100.51 55.9784C100.655 57.218 100.775 58.3048 100.86 59.1708ZM100.434 55.3585C95.3176 58.4152 91.8047 56.2076 91.0543 55.7067C91.3442 54.3736 91.583 53.1001 91.7961 51.8859C93.1709 52.3279 94.6191 52.4981 96.0594 52.3868C97.3765 52.2829 98.6544 51.8915 99.8026 51.2406C100.084 52.7095 100.272 54.1444 100.434 55.3585ZM91.907 51.3086C92.1201 50.035 92.2907 48.8123 92.4186 47.6661C93.5468 48.077 94.7517 48.2364 95.9486 48.1331C97.0668 48.0387 98.1515 47.7056 99.129 47.1566C99.3592 48.3368 99.5553 49.5 99.7344 50.6293C98.5516 51.2773 97.246 51.6724 95.9011 51.7894C94.5563 51.9063 93.2017 51.7426 91.924 51.3086H91.907ZM92.4782 47.0633C92.5891 45.9765 92.6744 44.9406 92.7255 43.9642C93.6888 44.2827 94.7068 44.404 95.7183 44.3208C96.6547 44.2377 97.5606 43.9477 98.3701 43.4717C98.6003 44.4821 98.822 45.5095 99.0181 46.5199C98.0403 47.0885 96.9475 47.4331 95.8192 47.5286C94.6909 47.624 93.5555 47.468 92.4953 47.0718L92.4782 47.0633ZM92.7596 43.3614C92.7596 42.4529 92.8108 41.5953 92.8022 40.8142C93.4321 40.9283 94.0742 40.9597 94.7122 40.9076C95.6967 40.8414 96.6424 40.5001 97.4407 39.9227C97.7221 40.9076 97.9864 41.918 98.2252 42.9368C97.4029 43.3982 96.4896 43.676 95.5488 43.7508C94.6079 43.8255 93.662 43.6956 92.7767 43.3699L92.7596 43.3614ZM92.8022 40.1944C92.8022 39.184 92.734 38.2585 92.6573 37.4095C93.1157 37.5128 93.5875 37.5443 94.0557 37.5029C94.9006 37.427 95.7114 37.1345 96.409 36.6538C96.7074 37.5029 96.9973 38.3519 97.2617 39.2774C96.6272 39.7322 95.9041 40.0495 95.139 40.209C94.3738 40.3684 93.5836 40.3663 92.8193 40.2029L92.8022 40.1944ZM92.6062 36.7982C92.5323 36.0849 92.447 35.4312 92.3503 34.8368C92.6197 34.8631 92.891 34.8631 93.1604 34.8368C93.9476 34.7821 94.6984 34.4855 95.3091 33.9878C95.6245 34.6585 95.9145 35.3717 96.2044 36.1104C95.7007 36.4915 95.1159 36.7524 94.495 36.8731C93.8742 36.9938 93.2338 36.9711 92.6232 36.8066L92.6062 36.7982ZM92.2566 34.251C92.1287 33.5717 92.0008 32.9859 91.8729 32.4849C92.0487 32.502 92.2257 32.502 92.4015 32.4849C93.045 32.4411 93.6508 32.1666 94.1068 31.7123C94.4627 32.2596 94.7872 32.8266 95.0789 33.4104C94.7041 33.7507 94.2578 34.0035 93.7725 34.1504C93.2872 34.2973 92.7752 34.3345 92.2736 34.2595L92.2566 34.251ZM91.7023 31.8736C91.5403 31.3132 91.3954 30.8972 91.2845 30.6085H91.6512C92.1034 30.5671 92.5406 30.425 92.9301 30.1925C93.2342 30.5181 93.5189 30.8611 93.7828 31.2198C93.5282 31.5018 93.2031 31.7115 92.8407 31.8279C92.4783 31.9442 92.0914 31.9629 91.7194 31.8821L91.7023 31.8736ZM92.8193 29.5896C92.5394 29.7807 92.2241 29.9144 91.8918 29.9829C91.5595 30.0514 91.2168 30.0534 90.8838 29.9887C90.356 29.8808 89.8774 29.6059 89.5194 29.205C89.1614 28.8041 88.9431 28.2987 88.8971 27.7642C88.8678 27.4434 88.9024 27.12 88.999 26.8125C89.0955 26.5051 89.2522 26.2197 89.4598 25.9727C89.668 25.7154 89.9265 25.5029 90.2196 25.3482C90.5128 25.1935 90.8345 25.0997 91.1652 25.0727H91.5318C91.8481 25.0885 92.1582 25.1664 92.4441 25.3019C92.8399 25.4877 93.1797 25.7737 93.4296 26.1313C93.6795 26.4889 93.8307 26.9056 93.8681 27.3396C93.9114 27.7733 93.8388 28.2106 93.6576 28.6072C93.4764 29.0039 93.1931 29.3457 92.8364 29.5981L92.8193 29.5896ZM95.3773 2.56415C96.4711 2.14213 97.6193 1.8763 98.7879 1.77453C100.009 1.64814 101.243 1.79016 102.403 2.19056C100.621 2.68301 96.4346 4.02454 95.3773 6.07926C95.35 6.12251 95.3356 6.17252 95.3356 6.22358C95.3356 6.27464 95.35 6.32468 95.3773 6.36793C95.4039 6.41065 95.4419 6.44515 95.4871 6.46764C95.5322 6.49012 95.5828 6.4997 95.6331 6.49529C96.9967 6.52776 98.3316 6.89214 99.5212 7.55661C98.0035 7.8368 94.8913 8.60096 93.9875 10.35C93.9628 10.3926 93.9497 10.4409 93.9497 10.4901C93.9497 10.5393 93.9628 10.5876 93.9875 10.6302C94.0137 10.6738 94.0514 10.7095 94.0964 10.7334C94.1415 10.7574 94.1922 10.7687 94.2432 10.766C95.5551 10.7721 96.8196 11.2552 97.7988 12.1245C96.5028 12.2349 93.5782 12.6509 92.8278 14.0689C92.7991 14.1147 92.7839 14.1677 92.7839 14.2217C92.7839 14.2758 92.7991 14.3287 92.8278 14.3745C92.8583 14.421 92.9027 14.4567 92.9548 14.4766C93.0069 14.4964 93.0639 14.4993 93.1177 14.4849C93.6498 14.3785 94.1996 14.4 94.7216 14.5477C95.2436 14.6953 95.7227 14.9649 96.1191 15.334C95.2985 15.3484 94.4955 15.5731 93.7876 15.9866C93.0796 16.4 92.4906 16.9882 92.0775 17.6944C92.0504 17.7392 92.0361 17.7906 92.0361 17.8429C92.0361 17.8953 92.0504 17.9467 92.0775 17.9915C92.1069 18.0356 92.1479 18.0708 92.196 18.0933C92.2441 18.1157 92.2975 18.1246 92.3503 18.1189C93.1561 18.0635 93.9622 18.2216 94.6866 18.5774C93.2384 19.9721 92.1376 21.6847 91.4721 23.5783C90.8667 19.5028 88.9738 5.79057 95.4455 2.57264L95.3773 2.56415ZM84.4888 19.1208C85.1784 18.3057 86.0816 17.6973 87.098 17.3632C87.1491 17.3487 87.1953 17.3204 87.2314 17.2814C87.2675 17.2425 87.2922 17.1944 87.3026 17.1425C87.3109 17.0902 87.305 17.0366 87.2855 16.9873C87.266 16.9381 87.2336 16.8949 87.1918 16.8623C86.3479 16.2323 85.3541 15.8314 84.3078 15.6989C83.2615 15.5664 82.1986 15.707 81.2232 16.1066C81.9138 13.984 84.3439 13.5595 84.4547 13.5085C84.5093 13.5016 84.5604 13.4784 84.6015 13.442C84.6426 13.4057 84.6717 13.3578 84.685 13.3047C84.6975 13.2514 84.6954 13.1956 84.6789 13.1433C84.6624 13.0911 84.6321 13.0442 84.5912 13.0075C83.0052 11.683 79.2279 12.7104 77.7699 13.1774C78.4837 11.6024 79.7735 10.3575 81.3767 9.69623C81.4251 9.67989 81.4682 9.6507 81.5013 9.61181C81.5343 9.57291 81.5561 9.52579 81.5642 9.47549C81.5729 9.426 81.5689 9.3751 81.5525 9.32759C81.5361 9.28007 81.5079 9.23748 81.4704 9.20378C79.5264 7.54812 75.2972 8.25284 73.5066 8.6519C74.6086 7.2191 76.0579 6.08845 77.7187 5.36602C77.7667 5.34891 77.8094 5.31948 77.8423 5.28073C77.8752 5.24197 77.8973 5.19526 77.9063 5.14529C77.9168 5.09579 77.9136 5.04439 77.8971 4.99656C77.8806 4.94872 77.8514 4.90622 77.8126 4.87358C75.5019 2.93773 69.7123 3.45564 67.5807 3.71885C70.8037 0.6113 76.1072 0.628294 76.1584 0.628294C85.4694 1.3415 89.8776 18.9594 90.8838 23.6547C89.1663 21.6518 86.9824 20.0981 84.523 19.1293L84.4888 19.1208ZM84.361 26.9746C84.1346 26.1405 84.1346 25.2615 84.361 24.4274C84.3768 24.377 84.378 24.3231 84.3644 24.272C84.3508 24.2209 84.323 24.1747 84.2842 24.1387C84.2471 24.1015 84.2003 24.0754 84.149 24.0634C84.0978 24.0514 84.0442 24.0539 83.9943 24.0708C83.1679 24.3641 82.431 24.8641 81.8547 25.5228C81.2783 26.1815 80.8817 26.9767 80.703 27.8321C80.3874 27.3374 80.1969 26.7738 80.1479 26.1897C80.0989 25.6056 80.1928 25.0184 80.4217 24.4783C80.4507 24.4341 80.4661 24.3825 80.4661 24.3297C80.4661 24.277 80.4507 24.2253 80.4217 24.1811C80.3851 24.1403 80.3377 24.1106 80.2848 24.0956C80.232 24.0806 80.176 24.0808 80.1232 24.0962C78.4691 24.5802 77.4459 27.5944 77.0793 28.8934C76.3406 27.6894 76.0792 26.2545 76.346 24.8689C76.3566 24.8201 76.3543 24.7695 76.3393 24.7219C76.3244 24.6742 76.2973 24.6313 76.2607 24.5972C76.2255 24.5599 76.1802 24.5335 76.1302 24.5215C76.0802 24.5094 76.0278 24.5121 75.9793 24.5293C73.95 25.1151 72.509 28.2651 71.9292 29.768C71.46 28.3745 71.34 26.888 71.5796 25.4378C71.5938 25.3885 71.5941 25.3364 71.5806 25.287C71.567 25.2376 71.5402 25.1928 71.5029 25.1576C71.4666 25.1219 71.4212 25.0968 71.3716 25.0848C71.3221 25.0728 71.2702 25.0745 71.2215 25.0896C68.8255 25.8029 66.5575 29.9293 65.6963 31.6529C65.0738 28.0104 67.4783 24.3934 67.4954 24.3679C68.9449 22.5 71.2727 21.6595 73.9329 21.4302C79.9442 20.9208 87.5755 23.5698 90.3978 24.6311C88.2264 24.9211 86.1565 25.7247 84.361 26.9746ZM89.3064 25.4038L89.1614 25.5396H88.9056L89.3064 25.4038ZM86.2112 28.8C86.1832 28.4738 86.2201 28.1452 86.3199 27.8332C86.4196 27.5212 86.5803 27.2319 86.7926 26.9818C87.0049 26.7318 87.2647 26.5259 87.557 26.376C87.8494 26.2262 88.1686 26.1353 88.4963 26.1085H88.7521V26.151C88.7521 26.1934 88.7095 26.2444 88.6839 26.2868C88.6256 26.4025 88.5744 26.5216 88.5305 26.6434L88.4793 26.8217C88.4448 26.9414 88.4191 27.0634 88.4025 27.1868V27.3481C88.3855 27.5317 88.3855 27.7165 88.4025 27.9C88.4156 28.0547 88.4413 28.208 88.4793 28.3585C88.4793 28.4095 88.4793 28.4604 88.5219 28.5113L88.6242 28.8L88.701 28.9613C88.7413 29.0461 88.7869 29.1284 88.8374 29.2076L88.9397 29.3689C88.9889 29.4432 89.043 29.5141 89.1017 29.5812L89.2296 29.7255C89.2907 29.7948 89.3562 29.86 89.4257 29.9208L89.5707 30.0396C89.6438 30.101 89.7207 30.1577 89.8009 30.2095L89.9458 30.3029C90.0687 30.3724 90.1971 30.432 90.3295 30.4812C89.9355 30.8145 89.4465 31.0164 88.9312 31.0585C88.5971 31.0899 88.26 31.0541 87.94 30.9534C87.6201 30.8526 87.3237 30.6889 87.0684 30.4719C86.8132 30.255 86.6042 29.9892 86.4541 29.6903C86.3039 29.3914 86.2155 29.0656 86.1942 28.7321L86.2112 28.8ZM111.066 66.4048C111.284 66.9553 111.37 67.5485 111.318 68.1379C111.267 68.7272 111.078 69.2966 110.768 69.801C109.651 71.7369 106.274 74.2246 96.5539 75.0567C84.6167 76.0671 81.3511 73.1124 80.4558 71.2529C80.1557 70.6736 80.0165 70.0251 80.0525 69.3742C80.0884 68.7234 80.2983 68.094 80.6604 67.551C81.1614 66.9838 81.5752 66.3457 81.8883 65.6576C82.7409 63.9595 83.6362 62.2105 89.4002 60.419C89.2893 60.852 89.1699 61.268 89.0506 61.7265C88.9099 62.2371 88.9221 62.7775 89.0857 63.2814C89.2493 63.7852 89.5571 64.2304 89.9714 64.5623C90.8237 65.2389 91.8016 65.7417 92.8492 66.0418C93.8967 66.3419 94.9933 66.4335 96.0764 66.3114C96.7388 66.2552 97.3917 66.1184 98.0205 65.9039C98.9864 65.6012 99.8443 65.0279 100.491 64.2524C101.139 63.4769 101.548 62.5322 101.67 61.5312V61.4718C101.67 61.2935 101.593 60.4104 101.457 59.0435C103.535 59.3791 105.498 60.2203 107.171 61.4926C108.845 62.7649 110.177 64.4289 111.049 66.3369L111.066 66.4048ZM96.6904 27.1783C96.7184 27.5039 96.6818 27.8318 96.5826 28.1433C96.4834 28.4548 96.3235 28.7438 96.112 28.9937C95.9006 29.2437 95.6418 29.4497 95.3504 29.6C95.059 29.7504 94.7408 29.842 94.4138 29.8698C94.1278 29.8974 93.8391 29.8744 93.5611 29.8019C93.6123 29.7595 93.6464 29.7085 93.6976 29.6576L93.7658 29.5812C93.8425 29.4878 93.9192 29.3859 93.9875 29.284C94.0471 29.1906 94.0983 29.0887 94.1495 28.9953L94.2006 28.8849C94.2006 28.8085 94.2603 28.7321 94.2859 28.6472C94.3115 28.5623 94.2859 28.5623 94.3285 28.5198C94.3534 28.4419 94.3733 28.3625 94.3882 28.2821V28.1548V27.9C94.3921 27.8605 94.3921 27.8207 94.3882 27.7812C94.3967 27.654 94.3967 27.5263 94.3882 27.3991C94.3882 27.2717 94.3882 27.1529 94.3285 27.0255C94.2688 26.8981 94.3285 26.9491 94.3285 26.9066C94.3285 26.8642 94.2859 26.7453 94.2603 26.6689L94.2091 26.5331C94.1815 26.4608 94.1502 26.3899 94.1153 26.3208C94.096 26.2766 94.0732 26.234 94.0471 26.1934C94.0471 26.1255 93.9704 26.0576 93.9278 25.9896L93.851 25.8793C93.7987 25.8 93.7388 25.7261 93.672 25.6585L93.6208 25.5906C93.5398 25.5043 93.4544 25.4221 93.365 25.3444L93.2627 25.2679L93.1177 25.1491C93.372 25.0383 93.6427 24.9695 93.9192 24.9453C94.5719 24.8733 95.2268 25.0602 95.7422 25.4654C96.2576 25.8705 96.5921 26.4615 96.6733 27.1104L96.6904 27.1783ZM112.499 16.9896C112.448 16.9942 112.4 17.0114 112.358 17.0397C112.317 17.0679 112.283 17.1062 112.26 17.151C112.235 17.1951 112.222 17.2448 112.222 17.2953C112.222 17.3458 112.235 17.3955 112.26 17.4396C113.113 18.8555 113.599 20.4601 113.675 22.1094C112.507 20.8359 109.728 18.1189 107.391 18.3227C107.342 18.3262 107.294 18.343 107.254 18.3715C107.213 18.3999 107.181 18.4388 107.161 18.484C107.136 18.5281 107.123 18.5778 107.123 18.6283C107.123 18.6788 107.136 18.7285 107.161 18.7727C107.998 20.1146 108.302 21.7193 108.014 23.2727C107.161 22.118 104.842 19.3755 102.94 19.5453C102.885 19.5477 102.832 19.5669 102.787 19.6003C102.743 19.6337 102.71 19.6796 102.693 19.7321C102.672 19.7826 102.667 19.8383 102.68 19.8915C102.692 19.9447 102.72 19.9929 102.761 20.0293C103.224 20.5002 103.562 21.0775 103.747 21.7099C103.931 22.3424 103.956 23.0105 103.819 23.6547C103.289 22.8494 102.561 22.1925 101.704 21.7466C100.848 21.3008 99.8906 21.0808 98.9243 21.1076C98.8705 21.111 98.8185 21.1285 98.7736 21.1583C98.7286 21.1881 98.6924 21.2292 98.6685 21.2774C98.6476 21.326 98.6405 21.3795 98.648 21.4319C98.6555 21.4843 98.6774 21.5337 98.7112 21.5746C99.2952 22.3573 99.6494 23.2861 99.7344 24.2576C98.1467 23.8635 96.5038 23.7372 94.8742 23.884C94.0846 23.9565 93.3011 24.0842 92.5294 24.2661C95.94 21.167 108.602 10.316 115.969 14.7057C116.012 14.7057 120.011 17.516 120.803 21.5576C119.32 20.1142 115.253 16.7094 112.499 16.9472V16.9896Z" fill="#999999"/>
</svg>
