<svg width="22" height="22" viewBox="0 0 22 22" fill="none" xmlns="http://www.w3.org/2000/svg">
<path d="M10.0593 1.60871C10.377 0.727668 11.623 0.727667 11.9407 1.60871L13.9026 7.04934C14.0416 7.43485 14.4018 7.69653 14.8114 7.70961L20.592 7.89425C21.5281 7.92415 21.9131 9.10917 21.1734 9.68358L16.6053 13.2307C16.2816 13.4821 16.1441 13.9055 16.2582 14.2991L17.8689 19.8538C18.1297 20.7533 17.1217 21.4857 16.3468 20.9597L11.5617 17.7113C11.2226 17.4811 10.7774 17.4811 10.4383 17.7113L5.6532 20.9597C4.87831 21.4857 3.87027 20.7533 4.1311 19.8538L5.74181 14.2991C5.85594 13.9055 5.71837 13.4821 5.39469 13.2307L0.826598 9.68358C0.0868578 9.10917 0.471893 7.92415 1.40799 7.89425L7.1886 7.70961C7.5982 7.69653 7.95837 7.43486 8.09738 7.04934L10.0593 1.60871Z" fill="#FFC107"/>
</svg>
