<svg width="69" height="69" viewBox="0 0 69 69" fill="none" xmlns="http://www.w3.org/2000/svg">
<g filter="url(#filter0_d_180_6071)">
<path fill-rule="evenodd" clip-rule="evenodd" d="M34.5 57C48.031 57 59 46.031 59 32.5C59 18.969 48.031 8 34.5 8C20.969 8 10 18.969 10 32.5C10 46.031 20.969 57 34.5 57Z" fill="white"/>
</g>
<path d="M44 26.7758C43.2563 27.0769 42.4637 27.2765 41.6375 27.3735C42.4875 26.905 43.1363 26.1688 43.4412 25.2815C42.6488 25.7177 41.7738 26.0258 40.8412 26.1977C40.0887 25.4581 39.0162 25 37.8462 25C35.5763 25 33.7487 26.7008 33.7487 28.7858C33.7487 29.0858 33.7762 29.3742 33.8438 29.6488C30.435 29.4954 27.4188 27.9873 25.3925 25.69C25.0387 26.2565 24.8313 26.905 24.8313 27.6031C24.8313 28.9138 25.5625 30.0758 26.6525 30.7485C25.9937 30.7369 25.3475 30.5604 24.8 30.2823C24.8 30.2938 24.8 30.3088 24.8 30.3238C24.8 32.1631 26.2212 33.6908 28.085 34.0427C27.7512 34.1269 27.3875 34.1673 27.01 34.1673C26.7475 34.1673 26.4825 34.1535 26.2337 34.1027C26.765 35.6015 28.2725 36.7035 30.065 36.7392C28.67 37.7465 26.8988 38.3535 24.9813 38.3535C24.645 38.3535 24.3225 38.3396 24 38.3015C25.8162 39.3827 27.9688 40 30.29 40C37.835 40 41.96 34.2308 41.96 29.23C41.96 29.0627 41.9538 28.9012 41.945 28.7408C42.7588 28.2077 43.4425 27.5419 44 26.7758Z" fill="#0770E3"/>
<defs>
<filter id="filter0_d_180_6071" x="0" y="0" width="69" height="69" filterUnits="userSpaceOnUse" color-interpolation-filters="sRGB">
<feFlood flood-opacity="0" result="BackgroundImageFix"/>
<feColorMatrix in="SourceAlpha" type="matrix" values="0 0 0 0 0 0 0 0 0 0 0 0 0 0 0 0 0 0 127 0" result="hardAlpha"/>
<feOffset dy="2"/>
<feGaussianBlur stdDeviation="5"/>
<feColorMatrix type="matrix" values="0 0 0 0 0 0 0 0 0 0 0 0 0 0 0 0 0 0 0.1 0"/>
<feBlend mode="normal" in2="BackgroundImageFix" result="effect1_dropShadow_180_6071"/>
<feBlend mode="normal" in="SourceGraphic" in2="effect1_dropShadow_180_6071" result="shape"/>
</filter>
</defs>
</svg>
